<svg width="128" height="128" viewBox="0 0 128 128" fill="none" xmlns="http://www.w3.org/2000/svg">
<g clip-path="url(#clip0_165_15595)">
<g clip-path="url(#clip1_165_15595)">
<path d="M15.5594 50.3289H12.2303V53.6462H15.5594V50.3289Z" fill="#27272A"/>
<path d="M15.5594 73.5496H12.2303V76.8669H15.5594V73.5496Z" fill="#27272A"/>
<path d="M12.2352 53.6467H8.90613V56.9636H12.2352V53.6467Z" fill="#27272A"/>
<path d="M12.2352 70.2317H8.90613V73.549H12.2352V70.2317Z" fill="#27272A"/>
<path d="M8.90307 56.9626H5.57397V70.2319H8.90307V56.9626Z" fill="#27272A"/>
<path d="M50.001 53.3096V53.2919C50.001 52.2352 49.2233 51.3547 48.1269 51.3547C47.0309 51.3547 46.2705 52.2175 46.2705 53.275V53.2919C46.2705 54.3494 47.0482 55.2304 48.1447 55.2304C49.2411 55.2304 50.001 54.3662 50.001 53.3096ZM44.8475 53.3096V53.2919C44.8475 51.539 46.2353 50.1042 48.1451 50.1042C50.054 50.1042 51.4244 51.5226 51.4244 53.275V53.2919C51.4244 55.0456 50.0366 56.4813 48.1273 56.4813C46.2175 56.4813 44.8475 55.0625 44.8475 53.3096Z" fill="#27272A"/>
<path d="M56.6234 53.3381C57.3039 53.3381 57.7012 52.9331 57.7012 52.4044V52.3862C57.7012 51.7787 57.2774 51.4533 56.5965 51.4533H55.5443V53.3381H56.6234ZM54.1835 50.2288H56.7116C58.1875 50.2288 59.0808 51.1006 59.0808 52.3607V52.3775C59.0808 53.8055 57.9665 54.5454 56.5791 54.5454H55.5443V56.3947H54.1835V50.2288Z" fill="#27272A"/>
<path d="M61.6249 50.2288H66.292V51.436H62.9775V52.6865H65.8942V53.8933H62.9775V55.1874H66.3363V56.3942H61.6249V50.2288Z" fill="#27272A"/>
<path d="M69.1952 50.2288H70.4506L73.349 54.0252V50.2288H74.6925V56.3942H73.5349L70.5382 52.4749V56.3942H69.1952V50.2288Z" fill="#27272A"/>
<path d="M47.4103 61.6618H45.5275V60.4109H50.6544V61.6618H48.7712V66.5773H47.4103V61.6618Z" fill="#27272A"/>
<path d="M53.5546 60.4109H58.2221V61.6181H54.9072V62.8695H57.8239V64.0754H54.9072V65.3705H58.266V66.5773H53.5546V60.4109Z" fill="#27272A"/>
<path d="M60.8671 63.5117V63.493C60.8671 61.7406 62.1928 60.3049 64.0934 60.3049C65.2602 60.3049 65.9589 60.6931 66.5334 61.2569L65.6666 62.2521C65.1899 61.8212 64.7031 61.5563 64.0847 61.5563C63.0417 61.5563 62.2905 62.4191 62.2905 63.4771V63.4935C62.2905 64.551 63.0239 65.432 64.0847 65.432C64.7921 65.432 65.225 65.1503 65.7114 64.7094L66.5772 65.5821C65.9411 66.2597 65.2337 66.6829 64.0404 66.6829C62.2197 66.6825 60.8671 65.2814 60.8671 63.5117Z" fill="#27272A"/>
<path d="M69.2968 60.4109H70.6581V62.8518H73.1684V60.4109H74.5302V66.5773H73.1684V64.1018H70.6581V66.5773H69.2968V60.4109Z" fill="#27272A"/>
<path d="M77.7733 60.4109H79.0287L81.9281 64.2074V60.4109H83.2716V66.5773H82.1135L79.1173 62.6579V66.5773H77.7733V60.4109Z" fill="#27272A"/>
<path d="M90.9893 63.5117V63.493C90.9893 62.4368 90.2111 61.5559 89.1151 61.5559C88.0191 61.5559 87.2583 62.4186 87.2583 63.4766V63.493C87.2583 64.5506 88.0365 65.4315 89.1329 65.4315C90.2285 65.4315 90.9893 64.5683 90.9893 63.5117ZM85.8358 63.5117V63.493C85.8358 61.7406 87.2236 60.3049 89.1329 60.3049C91.0418 60.3049 92.4118 61.7238 92.4118 63.4766V63.493C92.4118 65.2468 91.0245 66.6825 89.1151 66.6825C87.2058 66.6825 85.8358 65.2641 85.8358 63.5117Z" fill="#27272A"/>
<path d="M95.1014 60.4109H96.4628V65.3441H99.548V66.5773H95.1014V60.4109Z" fill="#27272A"/>
<path d="M106.598 63.5117V63.493C106.598 62.4368 105.821 61.5559 104.724 61.5559C103.628 61.5559 102.868 62.4186 102.868 63.4766V63.493C102.868 64.5506 103.645 65.4315 104.742 65.4315C105.838 65.4315 106.598 64.5683 106.598 63.5117ZM101.445 63.5117V63.493C101.445 61.7406 102.833 60.3049 104.742 60.3049C106.652 60.3049 108.022 61.7238 108.022 63.4766V63.493C108.022 65.2468 106.634 66.6825 104.725 66.6825C102.815 66.6825 101.445 65.2641 101.445 63.5117Z" fill="#27272A"/>
<path d="M110.254 63.5117V63.493C110.254 61.7406 111.624 60.3049 113.498 60.3049C114.612 60.3049 115.284 60.6048 115.929 61.15L115.072 62.1811C114.594 61.7852 114.17 61.5559 113.454 61.5559C112.464 61.5559 111.677 62.4277 111.677 63.4766V63.493C111.677 64.6211 112.455 65.4488 113.551 65.4488C114.046 65.4488 114.488 65.3255 114.833 65.0793V64.1979H113.463V63.027H116.15V65.7046C115.513 66.242 114.638 66.6825 113.507 66.6825C111.579 66.6825 110.254 65.3346 110.254 63.5117Z" fill="#27272A"/>
<path d="M120.694 64.1464L118.316 60.4109H119.908L121.384 62.8868L122.887 60.4109H124.433L122.055 64.1205V66.5773H120.694V64.1464Z" fill="#27272A"/>
<path d="M45.5272 70.6038H50.2382V71.8369H46.8881V73.1498H49.8409V74.383H46.8881V76.7701H45.5272V70.6038Z" fill="#27272A"/>
<path d="M52.9374 74.1272V70.6038H54.2982V74.0926C54.2982 75.0956 54.8019 75.6157 55.6331 75.6157C56.4642 75.6157 56.9679 75.1142 56.9679 74.1368V70.6038H58.3288V74.0831C58.3288 75.9506 57.2771 76.8666 55.6153 76.8666C53.9539 76.8666 52.9374 75.942 52.9374 74.1272Z" fill="#27272A"/>
<path d="M61.078 70.6038H62.3329L65.2327 74.4007V70.6038H66.5758V76.7701H65.4182L62.4215 72.8494V76.7701H61.078V70.6038Z" fill="#27272A"/>
<path d="M71.6195 75.5452C72.7333 75.5452 73.485 74.7961 73.485 73.7054V73.6863C73.485 72.5955 72.7333 71.8278 71.6195 71.8278H70.5678V75.5452H71.6195ZM69.2069 70.6038H71.6199C73.5649 70.6038 74.9084 71.9348 74.9084 73.6694V73.6863C74.9084 75.4218 73.5649 76.7697 71.6199 76.7697H69.2069V70.6038Z" fill="#27272A"/>
<path d="M28.8763 50.3289H25.5468V53.6462H28.8763V50.3289Z" fill="#27272A"/>
<path d="M32.204 70.2336H28.8749V73.551H32.204V70.2336Z" fill="#27272A"/>
<path d="M28.8763 73.551H25.5468V76.8679H28.8763V73.551Z" fill="#27272A"/>
<path d="M32.204 53.6467H28.8749V56.964H32.204V53.6467Z" fill="#27272A"/>
<path d="M35.536 56.9641H32.2069V70.2334H35.536V56.9641Z" fill="#27272A"/>
</g>
</g>
<defs>
<clipPath id="clip0_165_15595">
<rect width="120" height="63" fill="white" transform="translate(4 32)"/>
</clipPath>
<clipPath id="clip1_165_15595">
<rect width="118.859" height="26.7629" fill="white" transform="translate(5.5741 50.1042)"/>
</clipPath>
</defs>
</svg>
