<svg width="128" height="128" viewBox="0 0 128 128" fill="none" xmlns="http://www.w3.org/2000/svg">
<path d="M68.7419 48.8911L67.7898 52.6658C69.1386 49.992 71.3205 47.9867 73.8197 46.2173C71.9949 48.3013 70.3287 50.3852 69.337 52.5085C71.0428 50.11 73.3437 48.8124 75.9223 47.9081C72.4709 50.9357 69.7337 54.2386 67.6708 57.5022L66.0046 56.7944C66.2823 54.16 67.2741 51.4862 68.7419 48.8911Z" fill="#27272A"/>
<path d="M67.4741 57.3459L68.6246 57.9358C68.5056 58.6828 68.6642 60.3343 69.418 60.7275C72.7503 62.7721 75.8446 64.9741 77.0744 67.2153C81.4381 75.0401 74.0198 82.3143 67.5535 81.6065C71.0445 79.0507 72.0759 73.7818 70.7668 68.0017C70.2511 65.7605 69.418 63.7158 67.9502 61.3959C67.3154 60.3343 67.5535 58.9188 67.4741 57.3459Z" fill="#27272A"/>
<path d="M66.2032 61.0803C65.9652 62.2993 65.6875 64.5012 64.6164 65.3269C64.18 65.6415 63.704 65.956 63.228 66.2706C61.2841 67.5682 59.3799 68.7871 58.5072 71.8934C58.3088 72.5618 58.4675 73.2696 58.6262 73.938C59.1022 75.8647 60.451 77.9094 61.5221 79.1283C61.5221 79.1676 61.7205 79.3249 61.7205 79.3642C62.5932 80.3866 62.8709 80.7011 66.2032 81.4482L66.1239 81.8021C64.1007 81.2909 62.4742 80.7798 61.4031 79.6002C61.4031 79.5608 61.2048 79.4036 61.2048 79.4036C60.094 78.1453 58.7055 76.022 58.2295 74.0167C58.0311 73.2303 57.8724 72.6012 58.1105 71.7754C59.0229 68.5512 61.0064 67.2536 62.9899 65.9167C63.4263 65.6415 63.9817 65.3662 64.4181 65.0123C65.3305 64.4225 65.7669 62.5745 66.2032 61.0803Z" fill="#27272A"/>
<path d="M67.0738 66.1914C67.1135 67.5676 66.9548 68.2754 67.3118 69.2584C67.5102 69.8482 68.2639 70.6346 68.4623 71.421C68.74 72.4433 69.0573 73.5836 69.0573 74.2914C69.0573 75.0778 69.0177 76.572 68.6606 78.1448C68.3829 79.4423 67.7879 80.5826 66.7564 81.2117C65.6853 81.0151 64.4556 80.6219 63.7415 79.9928C62.3133 78.7739 61.0836 76.7292 60.9249 74.9598C60.8059 73.505 62.1547 71.3424 64.0588 70.2807C65.6457 69.337 66.0424 68.3147 66.3994 66.5846C65.9234 68.0788 65.4473 69.2977 63.9002 70.1234C61.6389 71.303 60.4885 73.2297 60.6075 75.1171C60.7662 77.5156 61.7183 79.1278 63.6225 80.4253C64.4159 80.9758 65.9234 81.5656 66.8755 81.7229V81.6049C67.5895 81.487 68.5019 80.3074 68.978 78.7739C69.3747 77.3584 69.5334 75.5889 69.4937 74.4487C69.454 73.7802 69.1763 72.3647 68.621 71.0671C68.3433 70.3594 67.8672 69.6516 67.5895 69.1404C67.2325 68.5506 67.2325 67.4497 67.0738 66.1914Z" fill="#27272A"/>
<path d="M66.8366 71.5786C66.8763 72.5223 67.2333 73.7019 67.392 74.9208C67.511 75.8252 67.4714 76.7296 67.4317 77.516C67.392 78.4203 67.1143 80.0718 66.678 80.8975C66.2813 80.7009 66.1226 80.5043 65.8449 80.1897C65.5275 79.7572 65.2895 79.2854 65.0911 78.7742C64.9325 78.381 64.7341 77.9092 64.6548 77.398C64.5358 76.6116 64.5754 75.3534 65.4878 74.0951C66.2019 73.0728 66.3606 72.9941 66.5986 71.8539C66.2813 72.8762 66.0432 72.9941 65.2895 73.8592C64.4564 74.8029 64.3374 76.2184 64.3374 77.3587C64.3374 77.8305 64.5358 78.381 64.7341 78.8529C64.9325 79.364 65.1308 79.9145 65.4085 80.3077C65.8449 80.9368 66.4003 81.33 66.678 81.3694V81.33C67.1937 80.7402 67.511 80.1897 67.6301 79.5999C67.7491 78.8922 67.7887 78.2237 67.8681 77.398C67.9474 76.6902 67.9077 75.7859 67.7094 74.8422C67.4714 73.6626 67.035 72.4437 66.8366 71.5786Z" fill="#27272A"/>
<path d="M66.9982 59.9788C67.0378 61.355 67.1172 63.9108 67.5139 64.9331C67.6329 65.287 68.6247 66.7812 69.2991 68.6292C69.7751 69.8875 69.8941 71.0671 69.9735 71.421C70.2908 72.9151 69.8941 75.4709 69.3784 77.8695C69.1007 79.167 68.1883 80.7792 67.1568 81.4083L66.9585 81.7622C67.5536 81.7229 68.9817 80.3467 69.4974 78.5772C70.3702 75.6282 70.6875 74.252 70.2908 70.9491C70.2512 70.6346 70.0925 69.5336 69.5768 68.3933C68.823 66.6239 67.7519 64.9331 67.6329 64.5792C67.3552 64.0287 67.0378 61.5909 66.9982 59.9788Z" fill="#27272A"/>
<path d="M67.4759 57.4619C67.3966 58.8774 67.3966 59.9784 67.6346 61.0401C67.9123 62.1803 69.4198 63.8318 70.0545 65.7192C71.2446 69.3366 70.9272 74.0551 70.0942 77.7118C69.7768 79.0094 68.2693 80.8968 66.7222 81.4866L67.8329 81.7618C68.428 81.7225 70.0148 80.2677 70.6495 78.6162C71.6413 75.9818 71.8397 72.8755 71.443 69.5726C71.4033 69.258 70.8876 66.4269 70.3719 65.2473C69.6578 63.4779 68.5073 62.2197 68.1106 61.1187C67.7933 60.293 67.6743 58.091 67.8726 57.6585L67.4759 57.4619Z" fill="#27272A"/>
<path d="M36.5661 49.6777H58.0278C58.8212 49.6777 59.5353 50.3462 59.5353 51.1719V57.4631C59.5353 58.2889 58.8212 58.9573 58.0278 58.9573H53.6244C52.6326 58.9573 52.1963 59.5078 52.1963 60.1369V80.7014C52.1963 81.4092 51.6409 81.9203 50.9665 81.9203H43.6671C42.9927 81.9203 42.477 81.4092 42.477 80.7014V59.9403C42.477 59.3112 41.8819 58.918 41.4455 58.918H36.5661C35.733 58.918 35.0586 58.2496 35.0586 57.4238V51.1326C35.0586 50.3462 35.733 49.6777 36.5661 49.6777Z" fill="#27272A"/>
<path d="M91.6282 58.0129H93.5324C94.2464 58.0129 94.8018 58.5634 94.8018 59.2319V65.9556C94.8018 66.8207 94.8415 67.1746 93.7704 67.1746C91.6679 67.1746 90.7158 68.2755 90.7158 69.4945V80.858C90.7158 81.3692 90.2001 81.841 89.605 81.841H82.7817C82.1866 81.841 81.6709 81.4085 81.6709 80.858V67.9216C81.6709 67.6857 81.6709 67.3712 81.7106 67.1746C82.0676 62.3775 85.876 58.5634 90.6761 58.0523C90.7951 58.0523 91.3505 58.0129 91.6282 58.0129Z" fill="#27272A"/>
<path d="M75.4057 64.4226C74.2553 63.4003 72.8271 62.5352 71.3197 61.7095C70.6453 61.3556 68.5824 59.7435 69.2965 57.4629L64.0996 55.3396L63.7426 55.6148C65.4881 58.7211 64.5757 60.3726 63.7029 60.9231C61.9574 62.1027 59.4185 63.5969 58.1887 64.8944C55.7688 67.3716 55.0547 69.7308 55.2928 72.7978C55.5308 76.7691 58.4267 80.072 62.3541 81.3696C64.06 81.9201 65.6468 81.9987 67.3923 81.9987C70.2089 81.9987 73.1445 81.2516 75.247 79.5216C77.5083 77.6735 78.8174 74.8818 78.8174 72.0114C78.8174 69.141 77.5876 66.3886 75.4057 64.4226ZM74.652 78.9318C72.7081 80.5046 69.2171 81.6055 67.3526 81.5269C65.2897 81.4089 63.2665 81.0944 61.4814 80.2293C58.3474 78.7352 56.2845 75.4716 56.1258 72.8371C55.8482 67.4502 58.4664 65.9167 60.8863 63.9507C62.2351 62.8498 64.1393 62.2993 65.2104 60.3333C65.4087 59.9007 65.5278 58.9571 65.2897 57.9741C65.1707 57.6202 64.6947 56.4406 64.4963 56.1653L68.384 57.8561C67.908 59.6255 69.3758 61.4736 70.5659 62.142C71.756 62.8104 73.6205 64.0687 74.771 65.091C76.7942 66.8604 77.8256 69.3769 77.8256 72.0114C77.8256 74.6458 76.7148 77.241 74.652 78.9318Z" fill="#27272A"/>
</svg>
