<?xml version="1.0" standalone="no"?>
<!DOCTYPE svg PUBLIC "-//W3C//DTD SVG 20010904//EN"
 "http://www.w3.org/TR/2001/REC-SVG-20010904/DTD/svg10.dtd">
<svg version="1.0" xmlns="http://www.w3.org/2000/svg"
 width="700.000000pt" height="700.000000pt" viewBox="0 0 700.000000 700.000000"
 preserveAspectRatio="xMidYMid meet">
<metadata>
Created by potrace 1.14, written by Peter Selinger 2001-2017
</metadata>
<g transform="translate(0.000000,700.000000) scale(0.100000,-0.100000)"
fill="#000000" stroke="none">
<path d="M3515 6670 c-59 -10 -106 -33 -146 -72 -42 -40 -46 -49 -169 -338
-86 -203 -299 -626 -405 -805 -74 -126 -199 -323 -227 -360 -5 -5 -47 -61 -94
-123 -187 -247 -408 -445 -732 -656 -299 -195 -776 -438 -1222 -622 -69 -28
-106 -51 -136 -81 -82 -83 -103 -228 -49 -334 39 -79 67 -101 185 -152 371
-159 729 -330 888 -424 41 -24 75 -43 77 -43 8 0 239 -142 322 -198 352 -237
561 -445 798 -792 66 -96 205 -319 205 -327 0 -3 14 -29 32 -57 84 -136 311
-607 438 -910 49 -116 69 -146 122 -181 127 -84 317 -54 399 63 14 20 43 80
64 132 21 52 51 122 66 155 15 33 51 112 79 175 65 143 168 352 181 365 5 5 9
16 9 24 0 8 6 22 14 30 7 9 29 45 47 81 64 126 319 534 349 560 3 3 17 21 30
40 13 19 29 40 35 47 5 6 28 33 50 59 109 131 165 188 320 323 102 89 348 259
531 366 228 135 688 366 879 442 33 13 69 28 80 33 11 5 58 27 105 48 102 47
133 74 167 149 38 82 35 173 -7 259 -38 78 -72 103 -230 169 -63 26 -137 58
-165 70 -27 12 -72 33 -100 45 -404 182 -867 443 -1111 628 -42 31 -89 66
-104 77 -106 78 -328 300 -390 389 -8 12 -20 27 -27 34 -50 51 -235 331 -351
532 -70 122 -342 656 -342 673 0 3 -15 38 -33 79 -19 40 -53 120 -77 178 -24
58 -56 122 -71 144 -60 84 -170 125 -284 106z"/>
</g>
</svg>
