<svg width="33" height="32" viewBox="0 0 33 32" fill="none" xmlns="http://www.w3.org/2000/svg">
<g clip-path="url(#clip0_201_1231)">
<path d="M7.64735 6.68274C7.94727 6.01713 9.05273 6.01713 9.35265 6.68274C9.838 7.75987 10.4997 8.98719 11.2563 9.74372C12.0128 10.5003 13.2401 11.162 14.3173 11.6473C14.9829 11.9473 14.9829 13.0527 14.3173 13.3527C13.2401 13.838 12.0128 14.4997 11.2563 15.2563C10.4997 16.0128 9.838 17.2401 9.35265 18.3173C9.05273 18.9829 7.94727 18.9829 7.64735 18.3173C7.162 17.2401 6.50025 16.0128 5.74372 15.2563C4.98719 14.4997 3.75987 13.838 2.68274 13.3527C2.01713 13.0527 2.01713 11.9473 2.68274 11.6473C3.75987 11.162 4.98719 10.5003 5.74372 9.74372C6.50025 8.98719 7.162 7.75987 7.64735 6.68274Z" fill="#B8D6F4"/>
<path d="M19.8032 1.74019C20.0532 1.21235 20.9468 1.21235 21.1968 1.74019C21.5175 2.41718 21.9302 3.14033 22.3949 3.60506C22.8597 4.06979 23.5828 4.4825 24.2598 4.80316C24.7877 5.05316 24.7877 5.94684 24.2598 6.19685C23.5828 6.5175 22.8597 6.93021 22.3949 7.39494C21.9302 7.85967 21.5175 8.58282 21.1968 9.25981C20.9468 9.78765 20.0532 9.78765 19.8032 9.25981C19.4825 8.58282 19.0698 7.85967 18.6051 7.39494C18.1403 6.93021 17.4172 6.5175 16.7402 6.19685C16.2123 5.94684 16.2123 5.05316 16.7402 4.80316C17.4172 4.4825 18.1403 4.06979 18.6051 3.60506C19.0698 3.14033 19.4825 2.41718 19.8032 1.74019Z" fill="#B8D6F4"/>
<path d="M21.6694 14.191C21.9551 13.5192 23.0449 13.5192 23.3306 14.191C23.9495 15.6463 24.871 17.4803 25.9453 18.5547C27.0197 19.629 28.8537 20.5505 30.309 21.1694C30.9808 21.4551 30.9808 22.5449 30.309 22.8306C28.8537 23.4495 27.0197 24.371 25.9453 25.4453C24.871 26.5197 23.9495 28.3537 23.3306 29.809C23.0449 30.4808 21.9551 30.4808 21.6694 29.809C21.0505 28.3537 20.129 26.5197 19.0547 25.4453C17.9803 24.371 16.1463 23.4495 14.691 22.8306C14.0192 22.5449 14.0192 21.4551 14.691 21.1694C16.1463 20.5505 17.9803 19.629 19.0547 18.5547C20.129 17.4803 21.0505 15.6463 21.6694 14.191Z" fill="#B8D6F4"/>
</g>
<defs>
<clipPath id="clip0_201_1231">
<rect width="32" height="32" fill="white" transform="translate(0.5)"/>
</clipPath>
</defs>
</svg>
