<svg width="200" height="200" viewBox="0 0 200 200" fill="none" xmlns="http://www.w3.org/2000/svg">
<g filter="url(#filter0_d_271_13181)">
<path d="M57.3333 142.667L57.3333 57.3333L35.9999 78.6667L35.9999 164L57.3333 142.667Z" fill="#73AFEA"/>
<g filter="url(#filter1_d_271_13181)">
<path fill-rule="evenodd" clip-rule="evenodd" d="M142.667 142.667L57.3335 142.667L57.3335 57.3335L78.6668 57.3335L100 57.3335L121.333 57.3335L142.667 57.3335V78.6668L142.667 100V121.333V142.667ZM100 121.333C111.782 121.333 121.333 111.782 121.333 100C121.333 88.2179 111.782 78.6667 100 78.6667C88.2179 78.6667 78.6667 88.2179 78.6667 100C78.6667 111.782 88.2179 121.333 100 121.333Z" fill="#1F78D1"/>
</g>
<path d="M142.667 57.3333L164 35.9999L142.667 35.9999L121.333 57.3332L142.667 57.3333Z" fill="#73AFEA"/>
<path d="M100 57.3333L121.333 35.9999L100 35.9999L78.6668 57.3332L100 57.3333Z" fill="#73AFEA"/>
<path d="M121.333 57.3333L142.667 35.9999L121.333 35.9999L99.9998 57.3332L121.333 57.3333Z" fill="#E4F0FB"/>
<path d="M142.667 78.6666L164 57.3333L164 78.6666L142.667 99.9999L142.667 78.6666Z" fill="#73AFEA"/>
<path d="M142.667 100L164 78.6667L164 100L142.667 121.333L142.667 100Z" fill="#E4F0FB"/>
<path d="M142.667 121.333L164 100L164 121.333L142.667 142.667L142.667 121.333Z" fill="#73AFEA"/>
<path d="M78.6667 57.3333L100 35.9999L78.6667 35.9999L57.3333 57.3332L78.6667 57.3333Z" fill="#E4F0FB"/>
<path d="M142.667 57.3333L164 36L164 57.3333L142.667 78.6667L142.667 57.3333Z" fill="#E4F0FB"/>
<path d="M121.333 164L36.0001 164L57.3334 142.667L142.667 142.667L121.333 164Z" fill="#E4F0FB"/>
</g>
<defs>
<filter id="filter0_d_271_13181" x="0" y="0" width="208" height="208" filterUnits="userSpaceOnUse" color-interpolation-filters="sRGB">
<feFlood flood-opacity="0" result="BackgroundImageFix"/>
<feColorMatrix in="SourceAlpha" type="matrix" values="0 0 0 0 0 0 0 0 0 0 0 0 0 0 0 0 0 0 127 0" result="hardAlpha"/>
<feOffset dx="8" dy="8"/>
<feComposite in2="hardAlpha" operator="out"/>
<feColorMatrix type="matrix" values="0 0 0 0 0.0941176 0 0 0 0 0.0941176 0 0 0 0 0.105882 0 0 0 1 0"/>
<feBlend mode="normal" in2="BackgroundImageFix" result="effect1_dropShadow_271_13181"/>
<feBlend mode="normal" in="SourceGraphic" in2="effect1_dropShadow_271_13181" result="shape"/>
</filter>
<filter id="filter1_d_271_13181" x="57.3335" y="57.3335" width="93.3333" height="93.3333" filterUnits="userSpaceOnUse" color-interpolation-filters="sRGB">
<feFlood flood-opacity="0" result="BackgroundImageFix"/>
<feColorMatrix in="SourceAlpha" type="matrix" values="0 0 0 0 0 0 0 0 0 0 0 0 0 0 0 0 0 0 127 0" result="hardAlpha"/>
<feOffset dx="8" dy="8"/>
<feComposite in2="hardAlpha" operator="out"/>
<feColorMatrix type="matrix" values="0 0 0 0 0.0941176 0 0 0 0 0.0941176 0 0 0 0 0.105882 0 0 0 1 0"/>
<feBlend mode="normal" in2="BackgroundImageFix" result="effect1_dropShadow_271_13181"/>
<feBlend mode="normal" in="SourceGraphic" in2="effect1_dropShadow_271_13181" result="shape"/>
</filter>
</defs>
</svg>
