<svg width="200" height="200" viewBox="0 0 200 200" fill="none" xmlns="http://www.w3.org/2000/svg">
<g filter="url(#filter0_d_271_13138)">
<path d="M36 164L36 78.6666L57.3333 57.3333L57.3333 78.6666L57.3333 99.9999L57.3333 121.333L57.3333 142.667L36 164Z" fill="#1F78D1"/>
<path d="M57.3336 142.667L36.0002 164L57.3336 164L78.6669 142.667L57.3336 142.667Z" fill="#73AFEA"/>
<path d="M142.667 142.667L164 121.333L142.667 121.333L121.334 142.667L142.667 142.667Z" fill="#73AFEA"/>
<path d="M78.6666 142.667L57.3332 164L78.6666 164L99.9999 142.667L78.6666 142.667Z" fill="#73AFEA"/>
<path d="M121.334 142.667L142.667 121.333L121.334 121.333L100.001 142.667L121.334 142.667Z" fill="#73AFEA"/>
<path d="M100 142.667L78.6667 164L100 164L121.333 142.667L100 142.667Z" fill="#1F78D1"/>
<path d="M100 142.667L121.334 121.333L100 121.333L78.6671 142.667L100 142.667Z" fill="#1F78D1"/>
<path d="M121.334 142.667L100 164L121.334 164L142.667 142.667L121.334 142.667Z" fill="#1F78D1"/>
<path d="M78.6669 142.667L100 121.333L78.6669 121.333L57.3336 142.667L78.6669 142.667Z" fill="#1F78D1"/>
<path d="M78.6666 36L164 36L164 57.3334L78.6666 57.3333L57.3332 78.6667L57.3332 57.3333L78.6666 36Z" fill="#73AFEA"/>
<path d="M78.6668 78.6668L164 78.6668L164 100L78.6668 100L57.3335 121.333L57.3335 100L78.6668 78.6668Z" fill="#73AFEA"/>
<path d="M78.6668 57.3333L164 57.3333L164 78.6666L78.6668 78.6666L57.3335 99.9999L57.3335 78.6666L78.6668 57.3333Z" fill="#E4F0FB"/>
<path d="M78.6668 100L164 100L164 121.333L78.6668 121.333L57.3335 142.667L57.3335 121.333L78.6668 100Z" fill="#E4F0FB"/>
</g>
<defs>
<filter id="filter0_d_271_13138" x="0" y="0" width="208" height="208" filterUnits="userSpaceOnUse" color-interpolation-filters="sRGB">
<feFlood flood-opacity="0" result="BackgroundImageFix"/>
<feColorMatrix in="SourceAlpha" type="matrix" values="0 0 0 0 0 0 0 0 0 0 0 0 0 0 0 0 0 0 127 0" result="hardAlpha"/>
<feOffset dx="8" dy="8"/>
<feComposite in2="hardAlpha" operator="out"/>
<feColorMatrix type="matrix" values="0 0 0 0 0.0941176 0 0 0 0 0.0941176 0 0 0 0 0.105882 0 0 0 1 0"/>
<feBlend mode="normal" in2="BackgroundImageFix" result="effect1_dropShadow_271_13138"/>
<feBlend mode="normal" in="SourceGraphic" in2="effect1_dropShadow_271_13138" result="shape"/>
</filter>
</defs>
</svg>
