<svg width="33" height="32" viewBox="0 0 33 32" fill="none" xmlns="http://www.w3.org/2000/svg">
<path d="M15.6897 5.19805C15.9632 4.52112 17.0368 4.52112 17.3103 5.19805C18.1028 7.16036 19.4165 9.9586 20.979 11.521C22.5414 13.0835 25.3396 14.3972 27.302 15.1897C27.9789 15.4632 27.9789 16.5368 27.302 16.8103C25.3396 17.6028 22.5414 18.9165 20.979 20.479C19.4165 22.0414 18.1028 24.8396 17.3103 26.802C17.0368 27.4789 15.9632 27.4789 15.6897 26.802C14.8972 24.8396 13.5835 22.0414 12.021 20.479C10.4586 18.9165 7.66036 17.6028 5.69805 16.8103C5.02112 16.5368 5.02112 15.4632 5.69805 15.1897C7.66036 14.3972 10.4586 13.0835 12.021 11.521C13.5835 9.9586 14.8972 7.16036 15.6897 5.19805Z" fill="#B8D6F4"/>
</svg>
