<svg width="32" height="32" viewBox="0 0 32 32" fill="none" xmlns="http://www.w3.org/2000/svg">
<g clip-path="url(#clip0_201_1524)">
<g clip-path="url(#clip1_201_1524)">
<path d="M23.1473 2.18274C23.4473 1.51713 24.5527 1.51713 24.8527 2.18274C25.338 3.25987 25.9997 4.48719 26.7563 5.24372C27.5128 6.00025 28.7401 6.662 29.8173 7.14735C30.4829 7.44727 30.4829 8.55273 29.8173 8.85265C28.7401 9.338 27.5128 9.99975 26.7563 10.7563C25.9997 11.5128 25.338 12.7401 24.8527 13.8173C24.5527 14.4829 23.4473 14.4829 23.1473 13.8173C22.662 12.7401 22.0003 11.5128 21.2437 10.7563C20.4872 9.99975 19.2599 9.338 18.1827 8.85265C17.5171 8.55273 17.5171 7.44727 18.1827 7.14735C19.2599 6.662 20.4872 6.00025 21.2437 5.24372C22.0003 4.48719 22.662 3.25987 23.1473 2.18274Z" fill="#B8D6F4"/>
<path d="M10.1771 12.1945C10.4579 11.5206 11.5421 11.5206 11.8229 12.1945C12.5026 13.8258 13.5543 15.9746 14.7899 17.2101C16.0254 18.4457 18.1742 19.4974 19.8055 20.1771C20.4794 20.4579 20.4794 21.5421 19.8055 21.8229C18.1742 22.5027 16.0254 23.5543 14.7899 24.7899C13.5543 26.0254 12.5027 28.1742 11.8229 29.8055C11.5421 30.4794 10.4579 30.4794 10.1771 29.8055C9.49735 28.1742 8.44566 26.0254 7.21012 24.7899C5.97458 23.5543 3.82577 22.5027 2.19451 21.8229C1.52062 21.5421 1.52062 20.4579 2.19451 20.1771C3.82577 19.4974 5.97457 18.4457 7.21012 17.2101C8.44566 15.9746 9.49735 13.8258 10.1771 12.1945Z" fill="#B8D6F4"/>
</g>
</g>
<defs>
<clipPath id="clip0_201_1524">
<rect width="32" height="32" fill="white"/>
</clipPath>
<clipPath id="clip1_201_1524">
<rect width="32" height="32" fill="white"/>
</clipPath>
</defs>
</svg>
