<svg width="200" height="200" viewBox="0 0 200 200" fill="none" xmlns="http://www.w3.org/2000/svg">
<g filter="url(#filter0_d_271_13148)">
<path d="M121.333 164L36 164L78.6667 121.333L164 121.333L142.667 142.667L121.333 164Z" fill="#1F78D1"/>
<path d="M78.6667 35.9999L164 35.9999L164 57.3333L78.6667 57.3332L78.6667 35.9999Z" fill="#E4F0FB"/>
<path d="M57.3334 57.3333L78.6668 36L78.6668 57.3333L36.0001 100L36.0001 78.6667L57.3334 57.3333Z" fill="#73AFEA"/>
<path d="M57.3334 121.333L78.6668 100L78.6668 121.333L36.0001 164L36.0001 142.667L57.3334 121.333Z" fill="#73AFEA"/>
<path d="M78.6667 57.3333L36 99.9999L57.3333 99.9999L112.201 100L139.111 78.6666L164 57.3333L78.6667 57.3333Z" fill="#1F78D1"/>
<path d="M164 121.333L121.333 121.333L121.333 78.6666L151.556 78.6666L164 78.6666L164 121.333Z" fill="#E4F0FB"/>
<path d="M121.333 121.333L78.6668 121.333L121.333 78.6666L121.333 121.333Z" fill="#73AFEA"/>
<path d="M164 121.333L78.6667 121.333L78.6667 100L139.111 100L164 100L164 121.333Z" fill="#E4F0FB"/>
</g>
<defs>
<filter id="filter0_d_271_13148" x="0" y="0" width="208" height="208" filterUnits="userSpaceOnUse" color-interpolation-filters="sRGB">
<feFlood flood-opacity="0" result="BackgroundImageFix"/>
<feColorMatrix in="SourceAlpha" type="matrix" values="0 0 0 0 0 0 0 0 0 0 0 0 0 0 0 0 0 0 127 0" result="hardAlpha"/>
<feOffset dx="8" dy="8"/>
<feComposite in2="hardAlpha" operator="out"/>
<feColorMatrix type="matrix" values="0 0 0 0 0.0941176 0 0 0 0 0.0941176 0 0 0 0 0.105882 0 0 0 1 0"/>
<feBlend mode="normal" in2="BackgroundImageFix" result="effect1_dropShadow_271_13148"/>
<feBlend mode="normal" in="SourceGraphic" in2="effect1_dropShadow_271_13148" result="shape"/>
</filter>
</defs>
</svg>
