<svg width="265" height="265" viewBox="0 0 265 265" fill="none" xmlns="http://www.w3.org/2000/svg">
<path d="M137.689 155.884C139.379 157.508 140.733 159.449 141.675 161.595C142.016 162.379 142.295 163.189 142.509 164.017C143.119 166.835 143.166 169.747 142.646 172.584C142.455 173.821 142.172 175.043 141.801 176.239C141.351 177.762 140.636 179.192 139.688 180.466C139.391 180.865 139.242 180.683 139.231 180.203C139.221 179.503 139.318 178.806 139.516 178.135C140.378 175.301 140.786 172.348 140.727 169.385C140.684 167.573 140.297 165.786 139.585 164.119C138.847 162.323 137.791 160.674 136.466 159.253C135.628 158.346 134.702 157.524 133.702 156.797C132.179 155.674 130.502 154.777 128.722 154.136C127.338 153.732 125.912 153.494 124.472 153.428C124.164 153.428 123.856 153.428 123.536 153.359C122.393 153.142 122.028 152.914 121.765 152.217C121.7 152.068 121.643 151.915 121.594 151.76C121.48 151.257 121.994 150.823 122.976 150.549C123.724 150.36 124.49 150.253 125.261 150.229C126.027 150.234 126.792 150.306 127.545 150.446C129.071 150.727 130.559 151.187 131.977 151.817C134.077 152.845 136.004 154.194 137.689 155.815V155.884Z" fill="#27272A"/>
<path d="M87.3041 219.121C79.1367 215.625 75.0016 209.834 74.7389 202.386C74.4762 194.939 80.4503 189.181 80.793 189.147H86.3331L90.5139 219.121H87.3041Z" fill="#27272A"/>
<path d="M124.187 188.873C110.571 190.952 106.013 175.623 105.91 175.166C105.91 175.166 109.268 173.829 113.484 176.445C117.699 179.061 121.48 182.054 123.067 184.658C124.655 187.263 124.187 188.873 124.187 188.873Z" fill="#27272A"/>
<path d="M114.383 212.952V219.955C114.383 219.955 122.162 214.792 124.275 211.285C126.388 207.778 114.383 212.952 114.383 212.952Z" fill="#27272A"/>
<path d="M146.438 223.564C146.587 224.707 146.724 225.849 146.838 227.06C146.969 228.3 147.011 229.549 146.964 230.795C146.963 231.635 146.717 232.457 146.256 233.16L145.65 233.696L144.988 234.096C143.542 234.698 142.048 235.176 140.521 235.524L136.192 236.586C134.924 236.883 133.679 237.306 132.434 237.649C130.823 238.094 129.224 238.54 127.579 238.871C127.065 238.962 127.054 238.723 127.362 238.3C127.869 237.658 128.508 237.132 129.236 236.758C132.313 235.241 135.572 234.124 138.934 233.434C139.912 233.2 140.87 232.891 141.801 232.508C142.28 232.314 142.726 232.109 143.149 231.903C143.341 231.806 143.528 231.7 143.708 231.583C143.784 231.55 143.854 231.503 143.914 231.446C143.98 231.377 144.024 231.289 144.04 231.195C144.061 230.99 144.061 230.783 144.04 230.578C144.04 230.048 144.013 229.518 143.96 228.99C143.857 227.848 143.697 226.706 143.526 225.643C143.297 224.25 143.069 222.856 142.806 221.463C142.406 219.349 142.052 217.202 141.664 215.089C141.298 213.455 140.898 211.844 140.647 210.142C140.572 209.766 140.538 209.383 140.544 209C140.601 207.538 140.955 207.013 141.686 206.83C141.85 206.777 142.018 206.738 142.189 206.716C142.726 206.716 143.069 207.264 143.331 208.132C144.27 210.922 144.966 213.789 145.41 216.699L146.553 223.553L146.438 223.564Z" fill="#27272A"/>
<path d="M56.2898 205.437C56.2898 206.887 56.3583 208.349 56.4726 209.834C56.4726 210.371 56.7125 210.885 56.7353 211.434C56.8038 212.393 56.8267 213.364 56.8038 214.358C56.781 215.352 56.8038 216.334 56.8038 217.305C56.8375 218.163 56.929 219.018 57.078 219.864C57.36 220.937 57.426 222.055 57.2722 223.153C57.1922 223.496 56.5183 223.53 55.7758 223.336C55.0333 223.142 54.1994 222.731 54.0052 222.194C53.2562 220.177 52.7873 218.067 52.6116 215.923C52.5663 215.258 52.4358 214.601 52.2233 213.969C52.0519 213.318 51.8463 212.667 51.7207 212.005C51.4465 210.543 51.218 209.058 51.001 207.55L50.6469 204.751C50.4184 203.346 50.5098 201.884 50.2928 200.49C50.2055 199.922 50.0757 199.36 49.9044 198.811C49.7788 198.274 49.6417 197.737 49.5389 197.201C49.4632 196.985 49.4397 196.754 49.4703 196.527C49.6645 195.624 50.0643 195.327 51.081 195.122C51.3094 195.122 51.5379 195.019 51.7663 194.996C52.5209 194.935 53.2567 195.251 53.7311 195.841C55.2846 197.612 55.5359 199.405 56.0157 201.244C56.2867 202.63 56.4358 204.036 56.4612 205.448L56.2898 205.437Z" fill="#27272A"/>
<path d="M123.705 204.522C124.902 199.689 124.464 194.596 122.46 190.038C121.699 188.37 120.748 186.794 119.627 185.343C113.915 177.356 103.691 173.984 94.348 177.005C92.6265 177.62 91.0145 178.507 89.5733 179.632C89.2077 179.906 88.8422 180.169 88.4995 180.477C88.1568 180.786 87.6771 180.934 87.2659 181.197C86.4548 181.711 85.541 182.179 84.7071 182.773C83.5648 183.436 83.4049 183.15 83.4278 181.768C83.4455 180.795 83.5371 179.825 83.7019 178.867C83.8331 178.264 84.0205 177.675 84.2616 177.107C84.3873 176.788 84.57 176.525 84.7071 176.182C84.9337 175.929 85.178 175.692 85.4382 175.474C87.3672 173.893 89.5492 172.65 91.8921 171.796C94.1739 170.983 96.5656 170.521 98.9857 170.425C103.71 170.124 108.432 171.049 112.693 173.109C117.872 175.515 122.281 179.311 125.43 184.075C128.714 189.349 130.242 195.528 129.793 201.724C129.507 205.502 128.433 209.179 126.641 212.518C123.771 217.452 119.507 221.426 114.384 223.941L113.676 224.341L112.899 224.718C112.373 224.946 111.848 225.164 111.334 225.358C110.294 225.746 109.255 226.066 108.215 226.363C106.131 226.953 103.983 227.291 101.819 227.368C100.849 227.437 99.8755 227.437 98.9058 227.368C97.5453 227.327 96.2189 226.934 95.0563 226.226C94.7206 225.949 94.4447 225.607 94.2452 225.221C94.0867 224.835 93.9941 224.426 93.9711 224.01C93.9168 223.677 93.8863 223.341 93.8797 223.005C93.9368 222.513 94.3709 222.239 95.022 221.862C95.819 221.441 96.7142 221.239 97.615 221.28C99.2207 221.224 100.82 221.052 102.401 220.766C103.212 220.617 104.023 220.457 104.823 220.263C105.622 220.069 106.433 219.966 107.21 219.76C107.987 219.555 108.764 219.361 109.495 219.144C109.837 219.018 110.192 218.904 110.5 218.778L110.957 218.687L111.494 218.413C112.225 218.068 112.937 217.687 113.63 217.27L114.669 216.642C115.012 216.425 115.32 216.174 115.652 215.945C119.555 213.2 122.347 209.148 123.522 204.522H123.705Z" fill="#27272A"/>
<path d="M129.236 155.13C124.685 153.507 119.661 153.872 115.392 156.135C113.892 157.034 112.543 158.163 111.394 159.482C107.19 163.994 105.248 171.122 107.704 177.29C108.253 178.643 109.025 179.895 109.989 180.991C110.931 182.079 112.028 183.022 113.244 183.79C116.409 185.812 120.235 186.771 124.165 187.628C125.387 187.914 125.216 188.645 124.05 189.387C123.293 189.854 122.463 190.19 121.594 190.381C121.042 190.505 120.48 190.589 119.915 190.632C119.289 190.654 118.662 190.619 118.042 190.529C115.657 190.165 113.345 189.429 111.188 188.348C108.984 187.125 107.043 185.479 105.477 183.504C102.381 179.517 100.952 174.485 101.49 169.466C101.746 166.531 102.52 163.666 103.775 161.001C105.021 158.307 106.801 155.894 109.006 153.908C113.973 149.658 120.552 147.796 127.009 148.813C130.874 149.359 134.52 150.938 137.564 153.382C139.853 155.245 141.708 157.583 143.001 160.236C143.352 160.883 143.646 161.56 143.881 162.258C144.12 162.943 144.406 163.617 144.589 164.302C144.964 165.694 145.243 167.11 145.423 168.54C145.679 170.785 145.613 173.054 145.228 175.28C144.794 177.58 143.938 179.779 142.704 181.768C142.428 182.219 142.126 182.653 141.802 183.07C141.517 183.507 141.192 183.917 140.831 184.292C140.539 184.628 140.226 184.945 139.894 185.241C139.574 185.48 139.266 185.698 138.992 185.88C138.521 186.186 138.004 186.414 137.461 186.554C136.639 186.735 135.779 186.547 135.108 186.04C134.771 185.85 134.454 185.628 134.16 185.378C133.337 184.544 133.965 182.933 135.302 181.231C137.261 179.021 138.632 176.354 139.289 173.475C139.569 172.038 139.646 170.569 139.517 169.111C139.471 168.34 139.353 167.576 139.163 166.827L138.934 165.685L138.58 164.542C137.157 160.116 133.673 156.658 129.236 155.267V155.13Z" fill="#27272A"/>
<path d="M77.3071 203.517C77.4427 205.228 77.8275 206.91 78.4494 208.509C78.7019 209.085 79.0079 209.635 79.3632 210.154C80.4306 212.173 81.9516 213.917 83.8067 215.249C84.2298 215.551 84.6858 215.804 85.1661 216.003C85.6248 216.245 86.1122 216.429 86.6168 216.551C87.2679 216.711 87.919 216.882 88.5701 217.008C89.2488 217.083 89.9139 217.252 90.5462 217.51C90.9575 217.682 90.8889 218.424 90.4549 219.144C89.9868 219.965 89.1261 220.484 88.1817 220.515C84.7751 220.348 81.5637 218.875 79.2147 216.402C78.8835 216.014 78.5294 215.648 78.1638 215.26C77.7983 214.872 77.5241 214.483 77.1815 214.118C76.4957 213.363 75.8944 212.536 75.3881 211.65C75.1111 211.198 74.8704 210.724 74.6684 210.234C74.4344 209.732 74.2285 209.217 74.0516 208.692C73.7142 207.649 73.4658 206.579 73.3091 205.493C73.1515 204.175 73.1019 202.845 73.1606 201.518C73.2748 200.524 73.3776 199.519 73.5604 198.56L73.9145 197.12C74.0075 196.639 74.1374 196.166 74.3029 195.704C74.5542 194.984 74.6913 194.242 74.9311 193.522C75.171 192.803 75.4794 192.117 75.7764 191.409C75.9067 191.101 76.0674 190.806 76.2562 190.529C76.953 189.49 77.3985 189.296 78.1752 189.581C78.3605 189.627 78.5405 189.692 78.7121 189.776C79.296 190.17 79.5046 190.932 79.2033 191.569C78.4795 193.81 77.9183 196.101 77.5241 198.423C77.2579 200.112 77.2195 201.829 77.4099 203.529L77.3071 203.517Z" fill="#27272A"/>
<path d="M90.3991 192.323C90.6732 197.212 90.9131 202.055 91.3472 206.864C91.4957 208.612 91.8269 210.291 92.0211 212.061L92.3295 214.483L92.5123 215.625L92.6837 216.551C92.7522 216.905 92.8207 217.247 92.9121 217.59C93.0276 218.026 93.0739 218.477 93.0492 218.926C93.0362 219.115 93.0094 219.302 92.9692 219.486C92.9471 219.678 92.872 219.86 92.7522 220.012C92.1999 220.689 91.4731 221.202 90.6504 221.497C90.2163 221.691 89.7708 221.851 89.3253 222.011L88.6628 222.251L88.2059 222.388L86.4924 222.89C84.2079 223.507 81.9233 224.033 79.6387 224.489C76.8515 225.038 74.0529 225.632 71.2543 225.997C67.6371 226.698 63.9162 226.667 60.3112 225.906C59.1689 225.62 59.4659 224.866 60.4597 224.124C61.8066 223.129 63.3742 222.474 65.0288 222.216C65.8741 222.125 66.7308 221.954 67.5761 221.874C68.4214 221.794 69.2896 221.679 70.1463 221.554C71.8597 221.314 73.5732 221.028 75.298 220.697C78.7249 220.046 82.1517 219.258 85.5786 218.412C86.047 218.287 86.5496 218.138 86.9836 218.001L87.452 217.898C87.6175 217.854 87.7754 217.784 87.9203 217.693C87.9113 217.529 87.8766 217.367 87.8175 217.213C87.823 217.122 87.823 217.03 87.8175 216.939L87.6462 216.174L87.292 214.38C87.075 213.238 86.8922 211.993 86.7437 210.805C86.1269 205.859 85.7614 200.935 85.3958 196.024L85.2359 193.739L85.156 192.665V192.094C85.156 191.717 85.156 191.329 85.076 190.952C85.076 190.815 84.9618 190.849 84.8818 190.86H84.5962H84.0251L77.8339 191.42C75.5493 191.614 73.2647 191.82 70.9802 192.094C67.5533 192.54 64.1264 193.214 60.6996 193.716C59.9342 193.83 59.1917 193.99 58.415 194.07C55.5593 194.413 54.5997 194.07 53.8458 192.814C53.6526 192.542 53.4807 192.255 53.3318 191.957C52.9663 191.009 54.0514 190.038 56.1075 189.41C59.1575 188.564 62.3216 187.879 65.5429 187.297C68.7641 186.714 72.0539 186.474 75.3437 186.154C77.811 185.926 80.2099 185.732 82.7457 185.549C83.888 185.457 85.1788 185.286 86.3097 185.275L87.6576 185.697L88.3315 185.903L88.6628 186.017H88.7428H88.7999L88.4572 186.451L88.5828 186.531C88.9751 186.74 89.3564 186.969 89.7251 187.217C89.9687 187.714 90.1196 188.252 90.1706 188.804C90.2506 189.387 90.3077 189.947 90.3648 190.586L90.5133 192.254L90.3991 192.323Z" fill="#27272A"/>
<path d="M142.159 220.731L140.891 215.02L140.24 212.096L139.92 210.611L139.84 210.234V210.04C139.84 209.96 139.84 210.04 139.84 210.04V209.617C139.84 209.617 139.84 209.514 139.84 209.469C139.84 209.423 139.76 209.469 139.714 209.411C139.528 209.394 139.341 209.394 139.154 209.411H138.949L138.583 209.48L137.841 209.617L136.356 209.914C135.362 210.12 134.357 210.337 133.352 210.508L122.546 212.438C120.741 212.747 118.925 213.055 117.097 213.318L116.411 213.421H115.932L115.326 213.489H115.166C115.166 213.489 115.166 213.581 115.166 213.626L115.098 213.923C115.098 214.129 115.098 214.335 115.018 214.54C114.938 214.746 115.018 214.872 115.018 215.031V215.614C115.018 215.991 115.018 216.379 115.018 216.756C115.018 217.533 115.109 218.321 115.178 219.109C115.349 220.686 115.555 222.274 115.772 223.85C116.332 227.916 117.28 231.949 117.085 236.301C116.948 237.74 116.24 237.443 115.486 236.369C114.377 234.845 113.599 233.106 113.202 231.263L111.819 225.084C111.38 222.961 111.071 220.813 110.894 218.653C110.894 218.116 110.814 217.51 110.791 216.985C110.769 216.459 110.791 215.843 110.791 215.26V214.289L110.974 212.804C111.066 211.81 111.294 210.851 111.465 209.903C111.465 209.823 111.534 209.834 111.591 209.823H111.774L112.139 209.766L112.882 209.651L114.344 209.434L116.343 209.092L119.45 208.635C124.43 207.892 129.491 206.35 134.631 205.208C135.373 205.059 136.116 204.899 136.916 204.762L138.058 204.568L138.835 204.522L139.737 204.397C140.833 204.186 141.967 204.293 143.004 204.705C143.236 204.804 143.429 204.977 143.552 205.196C143.644 205.356 143.758 205.585 143.872 205.802C143.986 206.019 144.055 206.327 144.146 206.579C144.238 206.83 144.226 207.207 144.272 207.515L144.569 209.057L144.775 210.028L145.231 211.936L146.157 215.945C146.956 219.372 147.744 222.799 148.373 226.386C148.613 227.722 148.818 229.082 148.944 230.475C149.015 231.208 149.05 231.944 149.047 232.68C149.071 233.609 148.94 234.536 148.658 235.421C148.567 235.627 148.453 235.821 148.35 236.027C148.247 236.232 148.053 236.358 147.847 236.472C147.459 236.714 147.04 236.902 146.602 237.032C146.145 237.169 145.688 237.295 145.231 237.386L144.089 237.649C142.741 237.889 141.428 238.094 140.114 238.311C136.036 239.008 132.118 239.739 128.109 240.47C127.24 240.63 126.395 240.836 125.516 240.984C122.26 241.498 121.152 241.201 120.25 240.425C120.033 240.263 119.83 240.083 119.644 239.888C119.404 239.579 119.587 239.214 120.124 238.745C120.904 238.13 121.78 237.647 122.717 237.318C126.3 236.109 129.955 235.125 133.66 234.37C135.511 233.925 137.395 233.651 139.257 233.354L142.022 232.908L143.358 232.668L143.941 232.543V232.28C143.941 232.143 143.941 231.994 143.941 231.835C143.941 231.675 143.941 231.229 143.872 230.909C143.872 230.281 143.724 229.63 143.632 228.967C143.244 226.306 142.65 223.542 142.022 220.8L142.159 220.731Z" fill="#27272A"/>
<path d="M162.91 139.968C163.465 142.679 163.999 145.402 164.509 148.135C164.703 149.129 164.943 150.112 165.091 151.117C165.594 154.669 165.959 158.245 166.154 161.843C166.291 163.431 166.279 165.041 166.325 166.618C166.325 167.634 166.325 168.674 166.222 169.69C166.134 170.717 165.955 171.734 165.685 172.729C165.525 173.346 165.16 173.186 164.806 172.603C164.335 171.789 164.076 170.87 164.052 169.93L163.858 166.972C163.732 165.978 163.618 164.996 163.526 164.013C163.435 163.031 163.332 162.026 163.264 161.032C163.195 160.038 163.092 159.021 163.012 158.016C162.717 155.544 162.255 153.093 161.63 150.683C161.059 147.998 160.488 145.291 159.917 142.595C159.54 140.939 159.174 139.271 158.774 137.615C158.158 135.113 157.632 132.566 156.901 130.087C156.387 128.157 155.759 126.295 155.188 124.376C155.073 123.953 154.925 123.542 154.845 123.108C154.765 122.674 154.754 122.354 154.742 122.057C154.748 121.805 154.791 121.555 154.868 121.314C154.975 120.948 155.205 120.629 155.519 120.412C155.648 120.302 155.785 120.203 155.93 120.115C156.376 119.887 156.981 120.458 157.609 121.52C158.352 123.131 158.912 124.821 159.528 126.546C159.803 127.414 160.088 128.282 160.374 129.151L161.07 131.835C161.756 134.519 162.373 137.227 163.001 139.945L162.91 139.968Z" fill="#1F78D1"/>
<path d="M176.859 112.382C170.271 114.548 163.872 117.249 157.725 120.458L156.937 120.903C156.834 120.958 156.735 121.019 156.64 121.086C156.572 121.166 156.4 121.212 156.446 121.326L156.572 121.646C156.663 121.863 156.572 121.714 156.88 122.617C158.228 127.186 159.233 131.641 160.204 136.164C161.175 140.688 162.032 145.2 162.82 149.735C163.505 153.767 164.202 157.811 164.888 161.809C165.71 166.949 166.601 172.169 166.224 177.492C166.11 179.16 165.082 178.897 164.076 177.572C162.684 175.629 161.775 173.381 161.426 171.016C159.896 160.735 157.531 150.58 155.806 140.174C155.247 137.192 154.538 134.222 153.716 131.264C153.282 129.802 152.859 128.305 152.379 126.866C152.151 126.146 151.934 125.404 151.671 124.707L151.271 123.565C151.066 122.925 150.792 122.331 150.575 121.726L150.403 120.332L150.289 119.384L150.518 119.453V119.35V119.236L150.575 119.019C150.603 118.868 150.661 118.724 150.746 118.596C151.176 118.053 151.693 117.586 152.277 117.214C152.893 116.814 153.522 116.414 154.15 116.071L155.395 115.272C157.006 114.369 158.639 113.536 160.284 112.736C163.562 111.137 166.909 109.686 170.291 108.338C174.448 106.693 178.686 105.231 182.97 103.929C189.459 101.993 196.058 100.448 202.732 99.3027C205.313 98.8458 207.872 98.366 210.442 97.9434C213.012 97.4955 215.605 97.1904 218.21 97.0295C219.352 96.961 220.494 96.8582 221.636 96.8582C222.551 96.8454 223.464 96.9142 224.367 97.0638C224.991 97.1631 225.604 97.3277 226.194 97.555C227.039 97.8741 227.718 98.5209 228.079 99.3484C228.285 99.6926 228.457 100.056 228.593 100.434C228.879 101.633 227.108 102.467 224.115 102.935C215.285 104.169 206.193 105.014 197.043 106.933C190.226 108.336 183.513 110.202 176.95 112.519L176.859 112.382Z" fill="#1F78D1"/>
<path d="M216.735 164.527C212.76 165.11 208.739 165.852 204.832 166.812C203.393 167.166 202 167.669 200.572 168.046C198.036 168.663 195.5 169.359 192.975 170.068C190.451 170.776 187.904 171.473 185.414 172.352C183.186 173.072 181.016 173.963 178.891 174.877C176.15 176.09 173.33 177.117 170.45 177.949C169.536 178.201 169.456 177.732 169.913 176.876C170.605 175.559 171.585 174.415 172.78 173.529L174.733 172.226L175.704 171.575L176.744 171.05C178.114 170.342 179.519 169.691 180.924 169.051C183.758 167.768 186.674 166.673 189.651 165.773C193.261 164.802 196.836 163.259 200.492 162.151C204.513 160.952 208.602 159.935 212.714 159.056C215.25 158.508 217.809 158.062 220.368 157.628C224.251 156.988 228.181 156.589 232.122 156.303L236.691 155.88C237.468 155.8 238.256 155.789 239.044 155.732C239.832 155.675 240.62 155.732 241.431 155.892C242.15 155.949 242.864 156.056 243.567 156.212C244.585 156.386 245.531 156.845 246.298 157.537C246.771 158.073 246.965 158.8 246.823 159.501C246.798 159.861 246.737 160.217 246.64 160.564C246.44 161.09 246.024 161.505 245.498 161.706C244.881 161.971 244.216 162.107 243.545 162.106C242.402 162.106 241.26 162.22 240.026 162.334C238.81 162.495 237.586 162.586 236.36 162.608C233.869 162.734 231.276 162.917 228.649 163.191C224.743 163.522 220.745 163.991 216.769 164.687L216.735 164.527Z" fill="#1F78D1"/>
<path d="M220.561 133.412C217.528 136.876 214.68 140.499 212.028 144.263C211.057 145.646 210.269 147.131 209.367 148.524L209.047 149.027L208.635 149.678C208.27 150.283 207.95 150.934 207.585 151.506C206.73 151.943 205.902 152.431 205.106 152.968C205.034 153.024 204.958 153.073 204.877 153.116H204.569H203.941C203.507 153.116 202.913 153.116 202.41 153.116L201.93 152.945C201.77 152.825 201.617 152.695 201.473 152.556L200.582 151.78L199.703 151.003C199.462 150.737 199.202 150.489 198.926 150.26L196.916 148.513L192.94 144.743C190.987 142.881 188.954 141.088 186.966 139.294C185.698 138.152 184.385 137.01 183.128 135.868C181.872 134.725 180.672 133.549 179.45 132.292C178.707 131.538 179.027 131.321 180.033 131.493C181.62 131.8 183.14 132.388 184.522 133.229C187.492 135.171 190.359 137.204 193.157 139.317C195.956 141.431 198.618 143.704 201.233 145.965L201.907 146.525C202.056 146.685 202.044 146.696 202.124 146.776L202.319 146.982L202.421 147.085C202.421 147.085 202.501 147.268 202.536 147.348C202.654 147.368 202.769 147.402 202.878 147.45L203.05 147.576H203.141C203.141 147.576 203.141 147.576 203.141 147.485C203.232 147.268 203.358 147.051 203.461 146.822C203.461 146.822 204.5 144.937 205.254 143.784C207.866 139.705 210.696 135.77 213.73 131.995C215.581 129.711 217.522 127.426 219.51 125.199C222.557 121.858 225.787 118.689 229.185 115.706C230.51 114.564 231.79 113.364 233.126 112.222C234.478 111.047 235.939 110.002 237.49 109.104C238.154 108.686 238.84 108.304 239.546 107.961C240.496 107.437 241.557 107.144 242.641 107.105C243.34 107.156 243.985 107.496 244.423 108.041C244.656 108.276 244.87 108.528 245.063 108.795C245.589 109.698 244.812 110.897 243.281 112.017C240.997 113.639 238.906 115.638 236.633 117.442C234.36 119.247 232.201 121.338 230.042 123.485C228.466 125.096 226.855 126.706 225.29 128.374C223.725 130.042 222.194 131.801 220.721 133.549L220.561 133.412Z" fill="#1F78D1"/>
<path d="M214.842 212.04C213.947 207.355 212.738 202.735 211.225 198.211C210.951 197.432 210.63 196.67 210.264 195.93L210.014 195.484L209.928 195.344C209.878 195.249 209.794 195.177 209.693 195.141L209.553 195.086L209.037 194.922C208.701 194.812 208.334 194.734 207.974 194.633C207.263 194.437 206.529 194.281 205.795 194.133C204.318 193.828 202.81 193.586 201.294 193.398C198.294 193 195.169 192.883 192.09 192.742C189.346 192.688 186.601 192.834 183.879 193.179C180.402 193.601 177.003 194.351 173.573 194.875C172.502 195.031 172.362 194.195 173.034 193.117C174.04 191.635 175.57 190.589 177.315 190.187C180.971 189.329 184.693 188.786 188.441 188.562C189.379 188.499 190.309 188.452 191.246 188.445C192.184 188.437 193.122 188.445 194.059 188.445C194.997 188.445 195.934 188.531 196.864 188.624C197.794 188.718 198.739 188.796 199.677 188.929C201.911 189.218 204.193 189.476 206.506 189.828C207.662 189.992 208.849 190.234 209.998 190.484L210.936 190.734L211.623 190.921C211.842 190.992 212.045 191.093 212.264 191.179C213.052 191.67 213.676 192.386 214.053 193.234C214.653 194.426 215.175 195.655 215.616 196.914C216.053 198.117 216.444 199.313 216.819 200.508C217.6 202.907 218.21 205.321 218.811 207.751C219.546 210.736 220.147 213.752 220.616 216.822C221.02 219.203 221.177 221.62 221.085 224.034C221.044 224.738 220.91 225.435 220.686 226.104C220.609 226.311 220.517 226.512 220.413 226.706C220.358 226.807 220.28 226.917 220.21 227.026L220.155 227.104V227.159L220.171 227.261C220.135 227.426 220.086 227.588 220.022 227.745C219.976 227.831 219.921 227.912 219.858 227.987L219.624 228.175C219.296 228.398 218.938 228.575 218.561 228.698C218.205 228.829 217.839 228.933 217.467 229.011L216.944 229.144L216.506 229.229L215.639 229.401C212.084 230.019 208.662 230.683 205.185 231.214C204.404 231.339 203.669 231.433 202.896 231.503C200.013 231.714 199.06 231.503 198.349 230.722C198.175 230.561 198.018 230.383 197.88 230.191C197.536 229.581 198.661 228.878 200.692 228.276L202.982 227.612C203.763 227.386 204.544 227.175 205.326 227.018L210.014 225.987C211.576 225.659 213.139 225.315 214.702 224.971C215.077 224.878 215.436 224.784 215.811 224.713H215.944H215.999H216.116H216.233H216.288C216.288 224.713 216.334 224.596 216.366 224.534V224.471C219.061 226.503 217.147 225.026 217.71 225.479L217.577 225.378C217.49 225.318 217.399 225.266 217.303 225.221C217.178 225.143 217.061 225.081 216.936 225.018L216.303 224.76H216.217C216.217 224.76 216.217 224.69 216.217 224.62C216.25 224.444 216.271 224.267 216.28 224.088C216.307 223.602 216.307 223.114 216.28 222.627C216.233 221.565 216.108 220.424 215.944 219.275C215.623 216.978 215.163 214.588 214.608 212.29L214.842 212.04Z" fill="#27272A"/>
<path d="M218.9 210.689C218.275 207.454 217.556 204.219 216.712 201.039C216.282 199.477 215.829 197.875 215.313 196.351C215.056 195.57 214.774 194.859 214.485 194.211L214.36 193.929L214.298 193.812C214.265 193.728 214.185 193.672 214.095 193.672C214.095 193.672 214.048 193.672 214.032 193.672L213.923 193.664L213.344 193.539C212.962 193.445 212.563 193.406 212.133 193.336C211.326 193.2 210.506 193.091 209.672 193.007C206.703 192.679 203.664 192.632 200.64 192.562C195.297 192.413 189.949 192.609 184.631 193.148C183.303 193.297 181.975 193.429 180.67 193.656C180.013 193.765 179.357 193.851 178.709 193.976L176.763 194.375C176.115 194.492 175.49 194.672 174.857 194.844C174.224 195.015 173.575 195.148 172.974 195.383L171.13 196.008C170.7 196.18 170.419 196.328 170.044 196.5C169.966 196.527 169.893 196.564 169.825 196.609C169.809 196.679 169.809 196.751 169.825 196.82C169.836 196.962 169.854 197.103 169.88 197.242L169.958 197.719L170.138 198.586C170.38 199.742 170.661 200.93 170.919 202.079L172.692 209.064C174.255 215.025 175.888 221.01 176.513 227.221C176.677 229.175 175.88 228.987 174.88 227.518C173.402 225.183 172.32 222.62 171.677 219.932C170.169 213.876 168.458 207.884 166.919 201.743L166.364 199.399L166.075 198.031C165.901 197.307 165.817 196.565 165.825 195.82C165.843 195.487 165.917 195.16 166.043 194.851C166.087 194.702 166.161 194.564 166.262 194.445L166.676 194.187L168.325 193.148C169.154 192.582 170.066 192.15 171.028 191.867C171.427 191.718 171.81 191.578 172.231 191.453L173.443 191.132C174.224 190.929 175.052 190.695 175.857 190.562C176.662 190.429 177.466 190.242 178.271 190.101L180.717 189.757C188.51 188.718 196.374 188.298 204.234 188.499C205.156 188.499 206.07 188.577 206.992 188.648C207.914 188.718 208.836 188.765 209.766 188.874C210.696 188.984 211.61 189.062 212.548 189.21C213.009 189.281 213.47 189.327 213.946 189.421L215.673 189.757C215.892 189.843 216.118 189.913 216.345 189.992C216.561 190.097 216.759 190.237 216.931 190.406C217.285 190.745 217.588 191.135 217.829 191.562C217.946 191.765 218.079 192.015 218.157 192.179L218.376 192.648C218.517 192.953 218.642 193.257 218.767 193.562C219.243 194.765 219.642 195.961 220.017 197.156C220.751 199.539 221.384 201.93 221.97 204.337C223.239 209.492 224.171 214.725 224.76 220.002C225 222.053 225.07 224.12 224.971 226.182C224.971 226.456 224.924 226.721 224.892 227.003C224.861 227.284 224.783 227.682 224.713 228.018C224.574 228.708 224.28 229.358 223.853 229.917C223.322 230.367 222.664 230.64 221.97 230.698C221.798 230.698 221.619 230.761 221.439 230.776L220.955 230.831L220.173 230.901C216.149 231.183 212.235 231.355 208.336 231.737C202.373 232.293 196.468 233.357 190.686 234.917C189.421 235.269 188.194 235.613 186.944 235.996C184.6 236.675 183.092 237.175 181.99 237.449C181.196 237.69 180.358 237.751 179.537 237.629C179.244 237.596 178.954 237.541 178.67 237.464C178.326 237.3 178.552 236.894 179.287 236.277C180.417 235.394 181.65 234.652 182.959 234.066L184.873 233.198L186.827 232.417C188.144 231.891 189.487 231.432 190.85 231.042C193.577 230.261 196.374 229.581 199.195 229.034C202.015 228.487 204.891 228.073 207.789 227.721C210.688 227.37 213.555 227.182 216.384 226.94L219.509 226.706L220.251 226.635H220.572V226.464C220.572 226.26 220.587 226.049 220.619 225.831C220.673 224.881 220.673 223.929 220.619 222.979C220.276 218.867 219.663 214.782 218.782 210.751L218.9 210.689Z" fill="#27272A"/>
<path d="M66.4136 126.922C55.1277 126.922 22.3555 104.602 22.3555 104.602C22.3555 104.602 23.6006 98.7421 24.0004 99.7815C24.2745 100.501 65.4883 120.229 65.4883 120.229L66.4136 126.922Z" fill="#27272A"/>
<path d="M97.2539 145.279C101.652 136.381 101.652 110.816 97.2539 103.62L106.107 98.8567L105.901 137.695L97.2539 145.279Z" fill="#27272A"/>
<path d="M26.3181 132.919L26.2609 136.221V137.888C26.2315 137.99 26.2086 138.093 26.1924 138.197C26.1239 138.425 26.3409 138.551 26.478 138.722C27.2662 139.271 28.2257 139.865 29.1509 140.447C30.5217 141.292 32.0067 141.944 33.4002 142.732L40.8366 147.301L44.5604 149.586L48.2614 151.87C50.4546 153.241 52.7392 154.474 54.9895 155.697C56.4402 156.496 57.9138 157.239 59.3302 158.096C60.7267 159.017 62.0414 160.056 63.2597 161.203C64.025 161.934 63.511 162.493 62.3002 162.836C60.669 163.275 58.9509 163.275 57.3198 162.836C54.2813 161.5 51.2885 160.095 48.3071 158.644C45.281 157.214 42.3574 155.577 39.5572 153.743C36.1874 151.459 32.2694 149.951 28.6026 148.032L25.5756 146.364L24.0677 145.485L22.3315 144.411C21.5699 143.946 20.8711 143.386 20.2525 142.743C19.9212 142.446 19.8413 141.978 19.5671 141.658C19.4757 141.235 19.3272 140.824 19.2701 140.39L19.1331 139.031V138.38V137.888V136.141C19.1331 133.296 19.1331 130.429 19.1331 127.654C19.1331 123.393 19.4186 119.109 19.4643 114.871C19.4643 111.57 19.1445 108.292 19.1559 104.911C19.137 104.148 19.1713 103.384 19.2587 102.626C19.3481 102.033 19.4856 101.449 19.6699 100.878C19.8429 100.446 20.1079 100.056 20.4467 99.736C21.0595 99.2618 21.82 99.0191 22.5942 99.0506C23.0049 99.0228 23.4171 99.0228 23.8279 99.0506C25.1187 99.1763 26.0211 100.49 26.5351 102.352L26.775 104.419C26.8883 105.114 26.9456 105.817 26.9463 106.521C27.0149 107.938 27.0034 109.354 27.0149 110.816C27.0149 113.695 26.9349 116.676 26.8321 119.646C26.7064 124.067 26.5008 128.556 26.5008 132.999L26.3181 132.919Z" fill="#27272A"/>
<path d="M69.3695 136.015C69.1524 137.923 68.9925 139.853 68.924 141.807C68.924 142.515 69.0725 143.212 69.0154 143.931C68.7412 146.467 68.5242 149.026 68.5242 151.596C68.49 152.163 68.49 152.731 68.5242 153.298V155C68.7059 156.496 68.6208 158.012 68.2729 159.478C68.1244 159.958 67.4847 159.878 66.7422 159.478C65.9006 159.15 65.1956 158.546 64.7432 157.764C64.4919 157.091 64.2178 156.371 63.9779 155.674C63.7046 154.977 63.5055 154.254 63.3839 153.515C63.2352 152.022 63.2352 150.519 63.3839 149.026C63.5666 147.198 63.0298 145.359 62.9727 143.509C62.9727 141.464 63.0526 139.408 63.1554 137.363L63.4296 133.571C63.5438 131.663 63.9093 129.756 64.0921 127.859C64.1718 127.101 64.1986 126.337 64.1721 125.575C64.1721 124.832 64.1721 124.056 64.3206 123.29C64.3479 122.954 64.4209 122.624 64.5376 122.308C64.9945 121.108 65.4971 120.846 66.6737 120.971C66.942 120.984 67.2091 121.014 67.4733 121.063C68.3245 121.278 68.9772 121.962 69.1524 122.822C69.2895 123.462 69.4266 124.078 69.6094 124.729C69.7921 125.381 69.7122 125.952 69.735 126.557C69.8378 127.814 69.7921 129.025 69.8264 130.281C69.8835 132.132 69.5294 134.028 69.4951 135.992L69.3695 136.015Z" fill="#27272A"/>
<path d="M110.667 128.099L110.164 132.851L109.867 135.273L109.65 136.552C109.65 136.735 109.582 137.032 109.513 137.398C109.444 137.763 109.364 138.071 109.285 138.414L109.159 138.791L109.09 138.985C108.965 138.985 109.01 139.1 108.953 139.157C108.842 139.402 108.712 139.639 108.565 139.865C108.432 140.103 108.258 140.316 108.051 140.493C107.868 140.699 107.674 140.893 107.468 141.076L106.84 141.601L106.532 141.852L106.315 142.001C106.04 142.195 105.755 142.412 105.481 142.595C104.076 143.543 102.808 144.537 101.414 145.371C96.5366 148.249 91.6133 150.911 86.8043 153.767C85.7305 154.395 84.691 155.057 83.6515 155.743L80.5445 157.73L76.6265 160.358L72.7427 162.859C72.0345 163.35 71.6004 162.859 71.6918 161.717C71.9664 160.137 72.7484 158.689 73.9192 157.593C76.3256 155.368 78.854 153.278 81.4926 151.333C84.1884 149.517 86.9528 147.804 89.7971 146.227C93.1743 144.183 96.4349 141.952 99.5636 139.545C100.443 138.917 101.311 138.277 102.122 137.649L102.705 137.192L102.968 137.009C103.128 136.872 103.322 136.735 103.356 136.518C103.386 136.413 103.409 136.306 103.425 136.198L103.505 135.501C103.505 135.022 103.596 134.496 103.619 133.971C103.699 132.943 103.744 131.869 103.79 130.807C103.893 128.145 103.984 125.472 104.007 122.811C104.121 118.744 104.361 114.643 104.258 110.599C104.167 107.447 103.722 104.363 103.505 101.256C103.447 100.57 103.345 99.8962 103.333 99.1994C103.214 98.2666 103.365 97.3192 103.767 96.4693C104.111 95.8745 104.672 95.4363 105.332 95.2471C105.66 95.107 105.996 94.985 106.337 94.8815C107.48 94.6417 108.428 95.6811 109.01 97.5317C109.65 100.341 110.142 103.181 110.484 106.042C110.804 108.932 110.952 111.879 111.078 114.826C111.158 117.019 111.204 119.224 111.215 121.428C111.226 123.633 110.964 125.86 110.838 128.076L110.667 128.099Z" fill="#27272A"/>
<path d="M79.4804 81.071C81.1482 81.9734 82.9073 82.8759 84.5979 83.7326C85.2376 84.041 85.9344 84.2009 86.5741 84.5207C88.8586 85.663 91.0404 86.9081 93.2679 88.1647C94.2535 88.7175 95.2721 89.2096 96.3178 89.6382C96.9803 89.9352 97.6657 90.1979 98.3282 90.5292C98.9927 90.8707 99.5859 91.336 100.076 91.8999C100.384 92.2769 99.7332 93.2136 98.8308 94.0132C97.9284 94.8128 96.7975 95.5096 96.1122 95.224C93.4832 94.329 90.9918 93.0718 88.7101 91.4887C87.1826 90.6127 85.5668 89.9006 83.8897 89.3641C82.1077 88.5873 80.3257 87.7534 78.5323 86.9081L75.2425 85.3432C73.5634 84.555 71.9299 83.6183 70.2279 82.8644C68.9257 82.259 67.4521 81.962 66.07 81.368C65.7506 81.2711 65.4409 81.1449 65.1447 80.9911C64.0824 80.3514 64.0024 79.7917 64.7335 78.3867C64.9048 78.0668 65.0647 77.7356 65.2475 77.4386C65.7221 76.5203 66.6817 75.956 67.7149 75.9878C68.9078 76.1791 70.0762 76.5009 71.1988 76.9474C71.76 77.1568 72.3091 77.3971 72.8437 77.667C73.4035 77.9183 73.986 78.181 74.5001 78.4552C76.1564 79.2548 77.8013 80.1572 79.5376 80.9568L79.4804 81.071Z" fill="#27272A"/>
<path d="M32.8872 100.387C39.1698 103.883 45.5895 107.241 52.032 110.531C54.3851 111.73 56.8182 112.815 59.1713 113.958L67.3843 118.093C67.6105 118.223 67.8892 118.223 68.1154 118.093L68.2982 118.024C68.4466 117.973 68.5916 117.912 68.7322 117.842L69.6803 117.385C70.9711 116.745 72.2733 116.025 73.5641 115.271C76.1571 113.764 78.7501 112.21 81.3203 110.599C84.7471 108.406 88.174 106.03 91.4638 103.563C95.656 100.422 99.8025 97.0404 104.029 94.2418C104.68 93.7963 105.034 93.922 105.411 94.2418C105.878 94.8086 106.043 95.5651 105.857 96.2751C105.378 98.8459 103.976 101.153 101.916 102.763C97.6436 106.19 93.28 109.377 88.7794 112.45C84.2722 115.599 79.5635 118.449 74.6836 120.983C73.5413 121.531 72.4904 122.125 71.2567 122.639L70.2172 123.107C69.7539 123.309 69.2767 123.477 68.7894 123.61C68.3157 123.754 67.8219 123.819 67.3272 123.804C67.0801 123.801 66.8357 123.751 66.6076 123.656L65.8994 123.427L59.651 120.549C57.7206 119.658 55.7787 118.744 53.8711 117.807C47.3067 114.556 40.7842 111.201 34.3036 107.744C32.3046 106.67 30.3171 105.596 28.3409 104.5L26.8559 103.666L25.8164 103.095L24.7541 102.466L22.7208 101.335C22.4259 101.179 22.1716 100.956 21.9783 100.684L21.3615 100.022L20.8932 99.5192C20.7447 99.3364 20.5505 99.2336 20.5391 98.9595C20.5676 98.4823 20.7387 98.0247 21.0302 97.6458C21.6443 96.7752 22.4198 96.0306 23.3148 95.4526C24.3386 94.7572 25.3986 94.1166 26.4904 93.5336L28.8664 92.1971L38.0047 87.548C42.688 85.1378 47.143 82.5562 51.7121 80.0089C52.6945 79.4492 53.6426 78.8666 54.6364 78.3069C58.3603 76.2964 59.5825 75.8966 61.0104 76.4335C61.343 76.5252 61.6677 76.6436 61.9813 76.7876C62.8723 77.2902 61.81 79.0722 59.2055 80.957C51.3923 86.4857 42.6538 91.0548 34.1437 95.7382L31.8591 97.0518L29.6888 98.2741C29.6888 98.2741 29.6888 98.2741 29.5631 98.2741C29.4375 98.2741 29.5631 98.3312 29.5631 98.3769C29.5631 98.3769 29.5631 98.4226 29.5631 98.3769H29.6431L29.9401 98.5368L30.5341 98.8681L32.9215 100.159L32.8872 100.387Z" fill="#27272A"/>
<path d="M161.455 81.4413C159.68 82.3205 157.962 83.31 156.311 84.404C155.725 84.8258 155.19 85.2887 154.624 85.7208C152.593 87.1858 150.796 88.9514 149.296 90.957C148.686 91.8627 148.192 92.8406 147.824 93.8682C147.547 94.5163 147.444 95.2056 147.166 95.8537C147.053 96.1931 146.93 96.5223 146.806 96.8824C146.683 97.2424 146.59 97.5716 146.456 97.9111C146.323 98.2506 145.993 98.2609 145.654 97.8288C145.179 97.1901 144.926 96.4132 144.934 95.6171C144.959 94.7902 145.133 93.9747 145.448 93.2099L145.901 92.068L146.456 90.9672C147.245 89.549 148.24 88.2558 149.409 87.1301C150.777 85.7928 152.094 84.3526 153.596 83.149C155.241 81.8631 156.959 80.6713 158.739 79.5793C159.768 78.9004 160.92 78.2729 162.021 77.6351C163.667 76.6063 165.395 75.8348 166.99 74.8369C168.171 74.0486 169.301 73.1861 170.374 72.2549L171.012 71.6582C171.824 70.969 172.041 70.9278 172.884 71.2467C173.069 71.3187 173.265 71.3702 173.44 71.4525C173.734 71.5719 173.928 71.8553 173.933 72.1726C173.939 72.6155 173.794 73.0471 173.522 73.3967C172.648 74.5698 171.609 75.6094 170.436 76.4829C169.295 77.2807 168.114 78.0189 166.897 78.6946C165.138 79.7234 163.307 80.5875 161.548 81.5545L161.455 81.4413Z" fill="#27272A"/>
<path d="M170.613 45.9195C170.428 45.6623 170.253 45.4051 170.057 45.1583L169.43 44.469L168.123 43.1214L166.673 41.8664L165.953 41.2286L165.171 40.6628L163.587 39.5312C163.042 39.1814 162.465 38.8728 161.9 38.5024C160.767 37.8339 159.591 37.2394 158.381 36.7228C153.408 34.6742 148.126 33.4778 142.755 33.184C138.817 33.0119 134.872 33.2915 130.997 34.0172C124.106 35.225 117.531 37.8144 111.667 41.6298C108.799 43.51 106.255 45.8449 104.137 48.5427C102.072 51.1941 100.662 54.2959 100.022 57.5955C99.4881 60.4573 99.8101 63.4131 100.948 66.0927C102.101 68.8925 103.785 71.4426 105.907 73.6023C110.073 77.8748 115.228 81.0547 120.916 82.8608C121.862 83.1385 122.819 83.4369 123.786 83.7043C124.762 83.9647 125.751 84.1741 126.748 84.3318C129.238 84.6816 128.981 84.9594 126.748 85.5457C125.174 85.9143 123.57 86.1381 121.955 86.2144C119.625 86.2312 117.31 85.8413 115.114 85.0622C112.945 84.3079 110.851 83.3539 108.859 82.2127C107.83 81.6469 106.884 81.0194 105.937 80.361C104.999 79.6558 104.099 78.9003 103.242 78.0978C99.6052 74.9049 96.8433 70.8365 95.2182 66.2778C94.3957 63.8298 94.0943 61.2368 94.3335 58.6653C94.4803 57.4179 94.721 56.1834 95.0536 54.9722L95.2696 54.0875L95.5885 53.2234L96.2366 51.5157C98.1643 47.1522 101.127 43.3246 104.868 40.3644C109.152 36.9165 113.922 34.1192 119.023 32.0627C121.566 31.0321 124.17 30.1595 126.82 29.4497L128.878 28.9662L130.935 28.5959C132.283 28.3181 133.661 28.2153 135.05 28.0507C141.045 27.5419 147.082 27.9828 152.94 29.3571C155.871 30.0627 158.729 31.0408 161.478 32.2787C164.262 33.5005 166.902 35.029 169.348 36.8359C172.354 39.1244 174.949 41.9073 177.022 45.0657C179.155 48.2525 180.56 51.8702 181.137 55.6615C181.616 58.5745 181.487 61.5554 180.756 64.4159C179.953 67.2951 178.547 69.9707 176.631 72.265C172.907 76.7811 168.051 79.6615 163.618 82.4801C160.375 84.4177 157.4 86.7731 154.771 89.4857C153.578 90.7658 152.586 92.219 151.829 93.796C151.674 94.187 151.468 94.5573 151.345 94.9585L151.222 95.3494C151.16 95.5243 151.098 95.6889 151.047 95.8843C150.919 96.2809 150.842 96.6924 150.82 97.1085L150.728 98.4561V99.1454V99.9684C150.728 101.1 150.728 102.211 150.872 103.373L150.028 103.538C149.957 103.536 149.889 103.566 149.843 103.62L149.73 103.723L149.504 103.919L149.39 104.011C149.39 104.011 149.318 104.011 149.236 104.011L149.03 103.949C148.742 103.867 148.537 103.764 148.29 103.682C147.332 103.326 146.418 102.864 145.564 102.304C145.105 101.969 144.668 101.605 144.257 101.213C143.825 100.832 143.424 100.38 143.033 99.9992C142.272 99.166 141.572 98.3738 140.976 97.6126L140.564 97.088L140.317 96.7588L139.875 96.1209C139.597 95.7197 139.371 95.3391 139.175 94.9894C138.844 94.408 138.601 93.7804 138.455 93.1274C138.357 92.5935 138.357 92.0462 138.455 91.5123C138.494 91.0469 138.574 90.5857 138.692 90.1338C138.928 89.5063 139.721 89.6195 140.821 90.2984C141.494 90.7144 142.119 91.2044 142.683 91.7592C143.033 92.0781 143.383 92.4381 143.712 92.7879L144.278 93.3948L144.576 93.7137L144.679 93.8063C145.006 94.1063 145.373 94.3591 145.769 94.5573C145.893 94.5573 146.027 94.6602 146.129 94.5573C146.232 94.4544 146.047 94.0841 146.027 93.8783C146.006 93.6726 146.027 93.6109 146.027 93.508V93.3537C146.027 93.2611 146.027 93.3537 146.027 93.1068C146.588 91.4363 147.37 89.8483 148.351 88.385C150.199 85.6962 152.451 83.3089 155.028 81.3074C157.486 79.3117 160.027 77.6555 162.424 76.0301C164.821 74.4047 167.126 72.8925 169.07 71.226C170.902 69.7588 172.435 67.9532 173.586 65.9075C174.117 64.9285 174.538 63.8934 174.841 62.8213C175.136 61.7341 175.295 60.6146 175.314 59.4883C175.363 57.0913 174.969 54.7058 174.152 52.4519C173.746 51.2933 173.215 50.1825 172.568 49.1394C172.238 48.6045 171.95 48.049 171.611 47.5243L170.469 46.0224L170.613 45.9195Z" fill="#27272A"/>
<path d="M144.434 59.9307C144.574 60.7652 144.471 61.6224 144.136 62.3996C144.009 62.7397 143.843 63.0641 143.642 63.3666C143.529 63.5209 143.457 63.6649 143.323 63.8192C143.189 63.9735 143.025 64.1484 142.871 64.2924C142.64 64.532 142.381 64.7428 142.099 64.92C141.819 65.1295 141.489 65.2641 141.142 65.3109C140.17 65.4786 139.172 65.2447 138.375 64.6628C137.787 64.2435 137.285 63.7164 136.894 63.1094C136.516 62.6063 136.211 62.0522 135.988 61.4635C135.918 61.2509 135.86 61.0345 135.814 60.8154C135.814 60.5788 135.814 60.3319 135.814 60.085C135.845 59.8588 135.893 59.6353 135.958 59.4163C136.075 59.2077 136.245 59.0338 136.451 58.9122C136.709 58.7271 137.285 59.2311 137.902 59.7146C138.296 60.0552 138.754 60.314 139.25 60.4759C139.352 60.3422 139.507 60.2804 139.538 60.4759C139.568 60.6714 139.692 60.9594 139.795 61.2783C139.826 61.4109 139.93 61.5144 140.062 61.5458C140.052 61.6278 140.052 61.7107 140.062 61.7927C140.053 61.8264 140.053 61.8618 140.062 61.8955C140.058 61.9159 140.058 61.9369 140.062 61.9573L140.011 61.8955C140.011 61.8955 139.908 61.6383 139.918 61.6383C139.918 61.6383 139.928 61.6383 139.918 61.6383C139.913 61.6111 139.913 61.5833 139.918 61.5561L140 61.4738L140.052 61.3503C140.052 61.268 140.155 61.1754 140.144 61.1446C140.134 61.1137 140.247 61.0211 140.217 60.8977C139.999 60.6154 139.637 60.4866 139.291 60.5685C139.223 60.6046 139.161 60.6495 139.105 60.7022C139.077 60.7549 139.053 60.81 139.033 60.8668C139.02 60.8276 139.003 60.7897 138.982 60.7537C138.926 60.6588 138.856 60.5723 138.776 60.4965C138.751 60.4397 138.712 60.3902 138.663 60.3525C138.663 60.3525 138.499 60.2599 138.54 60.2702C138.54 60.2702 138.581 60.2804 138.54 60.2702H138.622C138.709 60.2971 138.802 60.2971 138.889 60.2702C139.03 60.2531 139.169 60.2185 139.301 60.1673H139.229L138.992 60.2804C138.817 60.373 138.612 60.4862 138.365 60.6405C138.118 60.7948 137.912 60.9285 137.696 61.0726C136.976 61.5869 136.163 61.7412 135.567 61.0726C135.366 60.6939 135.234 60.283 135.176 59.8587C135.178 59.3436 135.28 58.8337 135.474 58.3567C135.684 57.9395 135.959 57.5577 136.287 57.2251C136.556 56.9557 136.861 56.7238 137.192 56.5359C138.238 55.9513 139.473 55.8034 140.628 56.1244C141.484 56.3066 142.282 56.6951 142.953 57.256C143.76 57.9383 144.321 58.8674 144.547 59.8998L144.434 59.9307Z" fill="#27272A"/>
<path d="M126.225 62.1836C126.526 63.1998 126.472 64.2887 126.07 65.2697C125.671 66.1955 125.04 67.0032 124.239 67.6152C123.729 68.0794 123.126 68.4301 122.47 68.6439C122.187 68.7119 121.896 68.7396 121.606 68.7262C121.301 68.7307 120.998 68.682 120.711 68.5822C120.074 68.413 119.503 68.0542 119.075 67.5535C118.417 66.8115 117.973 65.9049 117.789 64.9303C117.642 64.1713 117.608 63.3949 117.686 62.6259C117.702 61.5701 118.273 60.6007 119.188 60.0747C119.486 59.9307 119.785 60.3936 120.104 60.9491C120.268 61.2166 120.443 61.5046 120.608 61.7309C120.74 61.897 120.86 62.0723 120.968 62.2556C121.092 62.6183 121.261 62.9639 121.472 63.2843C121.472 63.3666 121.575 63.4386 121.564 63.5312C121.559 63.6203 121.559 63.7096 121.564 63.7987C121.559 63.8877 121.559 63.977 121.564 64.0661V64.3233C121.552 64.3879 121.552 64.4542 121.564 64.5188C121.534 64.5541 121.513 64.5965 121.503 64.6422C121.481 64.692 121.464 64.7436 121.451 64.7965C121.606 64.2924 121.451 64.6628 121.523 64.5496C121.523 64.5496 121.606 64.5496 121.688 64.5496L121.904 64.4776C122.299 64.3456 122.594 64.0119 122.675 63.6032C122.691 63.2847 122.558 62.9769 122.315 62.7699C121.928 62.3745 121.367 62.2006 120.824 62.307C120.629 62.3701 120.486 62.537 120.453 62.7391V62.842H120.381L120.525 62.9037C120.618 62.9037 120.628 62.9037 120.659 63.0065C120.69 63.1094 120.762 63.1094 120.762 63.1609C120.782 63.2245 120.782 63.2927 120.762 63.3563C120.687 63.4389 120.604 63.5147 120.515 63.5826C120.211 63.7899 119.887 63.9656 119.548 64.1073L118.941 64.3953C118.288 64.718 117.505 64.6078 116.966 64.1176C116.589 63.6037 116.365 62.994 116.318 62.3585C116.284 61.9391 116.343 61.5174 116.493 61.124C116.622 60.7364 116.805 60.3692 117.038 60.0336C117.913 58.8881 119.291 58.2397 120.731 58.295C121.929 58.3188 123.098 58.675 124.105 59.3237C125.107 59.9717 125.869 60.9289 126.276 62.0498L126.225 62.1836Z" fill="#27272A"/>
<path d="M119.358 64.9304C119.437 64.6733 119.502 64.4123 119.554 64.1486C119.554 64.056 119.482 64.0148 119.554 63.9222C119.665 63.5846 119.758 63.2412 119.832 62.8935C119.835 62.766 119.773 62.6455 119.667 62.5746C119.533 62.4717 119.256 62.4615 119.533 62.1426C119.811 61.8237 122.722 60.3937 122.908 60.6098C123.227 60.971 123.253 61.5055 122.969 61.8957C122.784 62.2249 123.041 62.3689 123.072 62.6055C123.088 62.8624 123.088 63.1201 123.072 63.377C123.062 63.5311 123.062 63.6858 123.072 63.8399C123.072 64.0663 123.072 64.3131 123.175 64.488C123.278 64.6629 123.576 64.6835 123.792 64.7658C123.844 64.7658 123.926 64.7658 123.957 64.7658C123.988 64.7658 123.957 64.8687 123.751 64.9921L123.37 65.1773L122.753 65.455L122.218 65.6916C121.67 65.9426 121.093 66.1257 120.5 66.2369C119.698 66.2369 119.472 65.9488 119.307 65.6608C119.238 65.4272 119.221 65.1816 119.256 64.9407L119.358 64.9304Z" fill="#27272A"/>
<path d="M160.979 58.5524C160.758 59.3089 160.379 60.0101 159.868 60.6098C159.575 60.9559 159.228 61.2514 158.839 61.4842C158.633 61.6077 158.438 61.7208 158.232 61.8237C158.025 61.9043 157.811 61.9696 157.594 62.0192C157.028 62.2077 156.428 62.2709 155.835 62.2043C155.544 62.1423 155.258 62.0563 154.981 61.9471C154.739 61.8268 154.505 61.6893 154.282 61.5357C153.922 61.2421 153.61 60.8952 153.356 60.5069C152.954 59.8784 152.671 59.1808 152.523 58.4495C152.324 57.8217 152.268 57.1575 152.358 56.5052C152.374 56.2826 152.374 56.0592 152.358 55.8366C152.417 55.6267 152.511 55.4284 152.636 55.2502C152.934 54.921 153.161 54.561 153.737 54.5918C153.997 54.6479 154.23 54.7935 154.395 55.0033L154.807 55.4457L155.167 55.8571C155.507 56.2576 155.906 56.6044 156.35 56.8859C156.251 57.1156 156.172 57.353 156.113 57.5957C156.041 57.822 156.113 57.8631 156.113 57.9146C156.032 58.0457 155.969 58.1877 155.928 58.3363C155.928 58.3363 155.928 58.3878 155.928 58.4186C155.928 58.1615 155.866 59.0153 155.928 57.8323C155.93 57.8734 155.93 57.9146 155.928 57.9557C155.92 57.9896 155.92 58.0248 155.928 58.0586C155.928 58.0586 155.99 58.2129 155.928 58.0586C155.928 58.0586 156 57.9866 156.072 57.9454C156.22 57.7407 156.305 57.4979 156.319 57.2459C156.319 56.8344 156.319 56.3303 156.051 56.2172C155.784 56.104 155.794 56.5052 155.774 56.7418C155.774 56.7418 155.774 56.8859 155.774 56.8447C155.774 56.8036 155.588 56.7727 155.424 56.5464C155.259 56.3201 155.053 56.0217 154.755 55.5794L154.354 54.993C153.89 54.4116 153.776 53.6249 154.056 52.9356C154.171 52.7031 154.328 52.4939 154.519 52.3183C154.743 52.1501 154.993 52.0182 155.259 51.9274C155.393 51.9274 155.516 51.8246 155.66 51.7937C155.828 51.7831 155.997 51.7831 156.164 51.7937C156.506 51.752 156.852 51.752 157.193 51.7937C158.515 52.1013 159.639 52.9635 160.279 54.1598C161.099 55.4674 161.389 57.0381 161.092 58.5524H160.979Z" fill="#27272A"/>
</svg>
