<svg width="265" height="265" viewBox="0 0 265 265" fill="none" xmlns="http://www.w3.org/2000/svg">
<g clip-path="url(#clip0_160_4005)">
<path d="M254.389 133.213C242.537 135.134 235.434 121.683 235.434 121.683L238.756 117.319C240.297 121.33 243.099 124.732 246.74 127.014C252.455 130.262 255.145 129.32 255.145 129.32L254.389 133.213Z" fill="#1F78D1"/>
<path d="M207.07 176.045C207.281 175.066 209.004 173.863 209.773 173.392C212.563 172.028 215.893 172.421 218.29 174.396C225.939 181.24 210.591 182.913 214.05 189.273C214.906 190.86 207.789 197.207 207.789 197.207C207.789 197.207 204.975 184.017 206.178 179.293C207.38 174.57 207.07 176.033 207.07 176.045Z" fill="#1F78D1"/>
<path d="M256.522 120.493C257.3 118.691 257.958 116.839 258.494 114.951C258.985 113.251 259.231 111.489 259.225 109.72C259.225 109.31 259.138 109 259.126 108.641C259.059 108.35 258.972 108.064 258.866 107.786C258.785 107.557 258.668 107.343 258.518 107.153C258.363 106.921 258.175 106.713 257.961 106.533C257.056 105.758 255.826 105.48 254.675 105.79C252.555 106.211 250.2 107.91 248.005 109.682C243.989 113.097 240.382 116.966 237.257 121.212C234.164 125.541 231.58 130.213 229.558 135.134C227.69 139.574 226.108 144.129 224.823 148.771C223.955 151.722 223.335 154.747 222.529 157.734L220.05 166.648C219.566 168.47 218.81 168.185 218.165 166.4C217.237 163.607 216.92 160.648 217.235 157.722C219.343 144.965 223.062 132.258 230.587 120.951C232.955 117.567 235.36 114.431 238.063 111.368C240.691 108.079 243.752 105.16 247.162 102.69C249.262 101.227 251.658 100.241 254.179 99.8017C255.671 99.606 257.187 99.7458 258.618 100.211C260.017 100.668 261.29 101.445 262.337 102.48C262.878 103.022 263.36 103.62 263.775 104.265C264.15 104.898 264.454 105.572 264.68 106.273L264.977 107.29L265.126 108.281C265.216 108.926 265.257 109.577 265.25 110.228C265.204 112.61 264.833 114.975 264.147 117.257C262.545 122.531 260.27 127.577 257.378 132.27C253.138 139.349 247.882 145.622 242.749 151.796C238.72 156.581 234.802 161.292 230.587 165.817C229.67 166.809 228.79 167.813 227.81 168.78C226.519 170.033 225.102 171.151 223.583 172.115C222.799 172.562 221.928 172.833 221.029 172.909C220.72 172.937 220.408 172.937 220.099 172.909C219.715 172.909 219.802 172.375 220.223 171.495C220.827 170.169 221.589 168.92 222.492 167.776C223.36 166.698 224.116 165.532 225.033 164.503L227.711 161.317L233.104 154.957C236.687 150.593 240.257 146.155 243.604 141.581C246.084 138.209 248.415 134.7 250.646 131.216C252.892 127.813 254.814 124.206 256.386 120.443L256.522 120.493Z" fill="#1F78D1"/>
<path d="M202.889 189.471C202.889 189.285 202.889 189.025 202.753 188.913V188.579L202.666 187.909L202.53 186.546C202.455 185.641 202.393 184.723 202.368 183.806C202.308 181.891 202.411 179.975 202.678 178.078C202.808 176.544 203.159 175.037 203.72 173.603C204.373 172.204 205.286 170.942 206.41 169.884C206.981 169.314 207.617 168.814 208.307 168.396C208.932 168.066 209.578 167.776 210.241 167.528C212.926 166.449 215.924 166.449 218.609 167.528C220.888 168.447 222.843 170.022 224.225 172.053C225.087 173.282 225.637 174.704 225.824 176.194C225.824 176.553 225.824 176.925 225.824 177.285C225.797 177.638 225.751 177.99 225.688 178.339C225.591 179.028 225.408 179.703 225.142 180.347C224.832 181.153 224.374 180.93 223.692 180.235C223.345 179.888 222.973 179.43 222.514 178.996C222.053 178.55 221.619 178.078 221.212 177.582C220.75 176.869 220.232 176.193 219.663 175.562C219.138 175.109 218.549 174.737 217.915 174.458C217.305 174.262 216.678 174.125 216.043 174.049C215.882 174.068 215.72 174.068 215.559 174.049C215.392 173.983 215.217 173.938 215.038 173.913C214.66 173.826 214.274 173.781 213.885 173.776C213.635 173.759 213.384 173.784 213.142 173.851C212.883 173.881 212.631 173.957 212.398 174.074C212.187 174.185 211.84 174.309 211.728 174.396C211.57 174.493 211.424 174.61 211.294 174.743C210.657 175.511 210.165 176.389 209.844 177.334C208.841 180.242 208.391 183.311 208.517 186.384V187.897V188.827C208.517 189.36 208.604 189.918 208.691 190.488L208.877 191.628L208.989 192.236V192.31L209.075 192.224L209.237 192.038L211.27 189.831L212.187 188.789L213.489 187.389C214.44 186.327 215.495 185.364 216.638 184.512C217.136 184.135 217.667 183.803 218.225 183.521C219.127 183.019 220.185 182.878 221.188 183.124C221.875 183.338 222.339 183.979 222.328 184.698C222.378 185.031 222.378 185.37 222.328 185.703C222.161 186.157 221.914 186.577 221.597 186.942C221.409 187.271 221.156 187.558 220.853 187.785C219.406 188.771 218.049 189.883 216.799 191.108L215.683 192.174L215.398 192.447C215.299 192.533 215.249 192.608 214.976 192.843L213.737 194.083C212.956 194.914 212.175 195.695 211.406 196.563L209.137 199.389L206.41 202.588C205.902 200.468 205.381 198.335 204.86 196.215C203.773 194.105 203.056 191.824 202.74 189.471H202.889Z" fill="#1F78D1"/>
<path d="M246.738 129.22C245.418 128.441 244.173 127.54 243.019 126.53C242.622 126.146 242.151 125.873 241.779 125.476C240.516 124.029 239.471 122.404 238.68 120.654C238.507 120.269 238.358 119.885 238.172 119.513C237.959 119.16 237.792 118.781 237.676 118.385C237.511 117.881 237.374 117.368 237.267 116.848C237.211 116.314 237.236 115.775 237.341 115.249C237.416 114.914 238.023 114.901 238.73 115.05C239.406 115.124 240.043 115.405 240.552 115.856C241.507 117.194 242.251 118.67 242.759 120.232C243.269 121.162 244.001 121.95 244.891 122.526C245.784 123.306 246.751 123.995 247.78 124.584C248.422 124.952 249.094 125.268 249.788 125.526C250.839 125.921 251.941 126.163 253.061 126.245C253.912 126.24 254.753 126.072 255.54 125.749C255.707 125.687 255.884 125.662 256.061 125.675C256.693 125.675 256.979 125.985 257.388 126.914C257.474 127.125 257.586 127.336 257.66 127.547C257.947 128.228 257.767 129.016 257.214 129.505C256.422 130.31 255.374 130.814 254.251 130.931C253.185 131.117 252.094 131.117 251.028 130.931C249.502 130.567 248.031 130.004 246.652 129.257L246.738 129.22Z" fill="#1F78D1"/>
<path d="M66.899 89.0777C66.899 89.0777 73.5857 88.4747 75.7109 91.4651C77.7014 94.2559 72.7213 97.939 72.7213 97.939C72.7213 97.939 82.7983 95.0752 81.4031 91.2797C80.0079 87.4841 74.9974 85.1979 72.5454 86.4085C70.0933 87.619 66.899 89.0777 66.899 89.0777Z" fill="#27272A"/>
<path d="M68.7493 90.7351C66.6025 91.2189 64.5735 92.1253 62.7806 93.4015C61.0777 94.5934 59.6935 96.1852 58.7496 98.0371L58.5451 98.5217L58.4658 98.7546C58.4658 98.7546 58.4891 98.812 58.5031 98.8465C58.4754 99.0409 58.4657 99.2375 58.4741 99.4337C58.5415 100.083 58.6512 100.726 58.8024 101.361C59.5331 104.322 60.6234 107.182 62.049 109.877C63.5325 112.784 65.2012 115.592 67.0447 118.285C68.6947 120.691 70.5169 122.973 72.4968 125.116C73.7474 126.481 75.0989 127.765 76.4066 129.04L77.3787 129.983L78.3034 131.106C78.8759 131.824 79.4553 132.525 80.053 133.206C80.7713 134.051 80.2732 134.735 78.8084 135.049C77.8825 135.205 76.9379 135.214 76.0091 135.076C75.4468 135.01 74.8919 134.89 74.3519 134.719C74.0637 134.636 73.8121 134.511 73.5239 134.427C73.279 134.269 73.0436 134.096 72.8189 133.91C69.7524 131.263 66.9253 128.35 64.3706 125.206C61.8333 122.037 59.6341 118.612 57.8088 114.986C56.6916 112.764 55.4825 110.579 54.3879 108.28C53.8197 107.08 53.3195 105.85 52.8897 104.593C52.4456 103.19 52.1868 101.734 52.1201 100.263C52.1018 99.3108 52.2206 98.3611 52.473 97.443L52.7152 96.6888L52.97 96.1303C53.1312 95.762 53.3169 95.4049 53.5258 95.0614C54.2981 93.7089 55.2535 92.4695 56.365 91.3785C58.4922 89.3353 60.9711 87.6932 63.6823 86.5315C66.9535 85.0622 70.5331 84.4113 74.1122 84.635C77.5099 84.7568 80.6617 86.4382 82.6551 89.1925C82.8565 89.5081 83.0316 89.8398 83.1785 90.1842C83.3185 90.5287 83.3896 90.9013 83.5067 91.2552C83.6237 91.6091 83.5039 92.0057 83.4806 92.3765L83.2241 93.4576L82.7554 94.4777C82.5744 94.8 82.3683 95.1075 82.1389 95.3973C81.7611 95.8821 81.3464 96.3369 80.8985 96.7578C79.3619 98.1239 77.6446 99.272 75.7949 100.17C74.9228 100.658 74.013 100.988 73.1081 101.396C72.2033 101.803 71.282 102.138 70.3348 102.375C69.3876 102.613 68.724 102.923 67.9397 103.068C67.1555 103.212 66.5001 103.345 65.9502 103.408C65.489 103.434 65.0262 103.402 64.573 103.312C63.9261 103.198 63.3447 102.848 62.9423 102.328C62.7479 102.13 62.5711 101.915 62.4139 101.687C62.0233 100.989 63.1761 100.039 65.2205 99.208C68.2831 98.2647 71.2576 97.056 74.11 95.5955C75.3735 94.9534 76.5426 94.1406 77.5846 93.18C77.7906 92.9624 77.946 92.7521 78.1337 92.5554C78.3214 92.3587 78.241 92.3913 78.2478 92.3752C78.1444 92.4172 78.2805 92.4556 78.2478 92.3752C78.185 92.3177 78.1185 92.2642 78.0489 92.2151C77.9237 92.1183 77.7933 92.0283 77.6584 91.9456C77.3583 91.7999 77.1085 91.5803 76.8037 91.4231C76.1118 91.0525 75.3626 90.8005 74.5873 90.6778C72.6613 90.2991 70.6757 90.3477 68.7705 90.8202L68.7493 90.7351Z" fill="#27272A"/>
<path d="M49.9161 53.6796C49.8065 53.0148 49.7017 52.3616 49.6151 51.6875L49.5192 50.9905C49.4523 50.7011 49.4046 50.4076 49.3762 50.1119L49.1984 48.3241C49.0353 47.1324 49.1074 45.9925 49.0459 44.8533L49.2377 43.3167L49.3303 42.5565L49.5086 41.9086C49.8091 40.4052 50.5388 39.021 51.6093 37.9235C52.1108 37.3922 52.7043 36.9561 53.3611 36.6363C53.7398 36.4555 54.1477 36.3441 54.5657 36.3074C54.9359 36.2859 55.3074 36.3054 55.6733 36.3657C56.6415 36.5637 57.5617 36.9489 58.3823 37.4997C59.4254 38.2445 60.327 39.1697 61.0447 40.2316C61.8259 41.3646 62.527 42.5508 63.143 43.7815C63.409 44.4362 63.7669 45.0535 64.0559 45.6988C64.3449 46.3441 64.6207 47.0885 64.7373 47.3757C65.3721 48.9376 66.0022 50.4881 66.5059 52.09C67.5959 55.2334 68.6077 58.3818 69.4242 61.6095C70.2109 64.4346 70.9908 67.2758 71.7495 70.0319C72.91 73.6484 73.4317 77.4394 73.2911 81.2349C73.1803 82.4442 72.3853 82.2989 71.4689 81.4268C70.1672 80.2328 69.1491 78.7628 68.4893 77.1243C68.2061 76.2625 67.8033 75.4359 67.5774 74.5509L66.7505 71.9563L65.0092 66.7491C64.4265 65.0188 63.8158 63.2195 63.2403 61.5398C62.6647 59.8601 62.1732 57.9589 61.6619 56.2397C61.0212 54.0977 60.1972 52.0149 59.199 50.0143L58.9075 49.3299L58.6975 48.8131L58.1209 47.7894C57.8621 47.3439 57.5134 46.9569 57.0971 46.6532C56.8981 46.5079 56.6264 46.5141 56.4342 46.6683C56.2746 46.808 56.1536 46.9862 56.0825 47.1859C55.8033 48.1192 55.7101 49.0982 55.8082 50.0674C55.8061 50.2519 55.8141 50.4363 55.832 50.6198L55.9232 51.7336C56.0034 52.4905 56.0673 53.2407 56.1751 53.9998C56.3515 55.5206 56.6223 57.0431 56.939 58.547C57.8606 63.1279 59.1235 67.6335 60.717 72.0261C62.027 75.3357 63.5924 78.5383 65.3991 81.6051C65.7803 82.2798 66.2165 82.8921 66.5862 83.5715C67.054 84.4871 67.3843 85.4666 67.5668 86.4784C67.6092 87.1261 67.4742 87.7731 67.1764 88.3499C67.0699 88.6133 66.946 88.8693 66.8054 89.1162C66.561 89.4698 66.1375 89.4813 65.5122 89.2269C64.5848 88.904 63.745 88.3704 63.0588 87.668C61.8651 86.4083 60.8419 84.9975 60.0153 83.4717C59.1416 81.9801 58.2997 80.4353 57.5544 78.8647C56.0566 75.6835 54.7622 72.4103 53.6792 69.065C52.8721 66.5739 52.153 64.047 51.522 61.4843C51.211 60.1922 50.9277 58.9022 50.6559 57.6076C50.384 56.313 50.0684 55.0094 49.8149 53.6939L49.9161 53.6796Z" fill="#27272A"/>
<path d="M82.0297 48.0699C81.9248 46.9885 81.7808 45.9095 81.6116 44.8676C81.4424 43.8256 81.3217 42.8041 81.1023 41.8361L80.967 41.5031L80.883 41.2963C80.8663 41.2408 80.8444 41.187 80.8176 41.1355C80.7835 41.016 80.7366 40.9005 80.6776 40.791C80.5797 40.5161 80.403 40.2761 80.1697 40.1008C80.0066 39.9522 79.7579 39.9496 79.5918 40.0948C79.4791 40.2605 79.38 40.435 79.2954 40.6167C79.2072 40.7722 79.1348 40.936 79.0793 41.1059C79.0322 41.2104 78.9958 41.3193 78.9706 41.4311L78.9344 41.5395L78.9035 41.7929L78.8236 42.3206C78.6356 43.7351 78.5166 45.1217 78.3498 46.6213C78.0343 49.5329 77.8641 52.5059 77.8159 55.4829C77.7961 58.1673 78.006 60.7584 78.1584 63.3728C78.2896 65.0458 78.499 66.7137 78.6647 68.3726L78.8946 70.8485C78.9887 71.6399 78.86 72.5085 78.9031 73.2404C78.9125 73.6915 78.7083 73.8147 78.4423 74.0164C78.1764 74.2182 77.6861 74.2301 77.0558 73.8974C76.2893 73.4812 75.5883 72.9545 74.9753 72.3341C74.295 71.5945 73.8139 70.694 73.5774 69.7173C73.1486 67.9378 72.8028 66.1647 72.5122 64.396C72.1764 62.6354 71.9879 60.8499 71.9489 59.058C71.8339 55.46 71.9897 51.8584 72.4148 48.2837C72.5539 47.2101 72.6561 46.1115 72.7468 45.0174L73.175 41.6586L73.4348 40.7501C73.5062 40.333 73.5661 39.9206 73.6673 39.478C73.8466 38.6022 74.0677 37.763 74.298 36.9468C74.6941 35.4926 75.475 34.172 76.5585 33.1244C77.1447 32.598 77.8961 32.2927 78.6833 32.2609C79.0864 32.2978 79.4848 32.3233 79.8925 32.3717L81.0451 32.6393C82.5874 33.3263 83.9 34.4418 84.8267 35.8532C85.3452 36.6097 85.7817 37.4191 86.1291 38.2679C86.3164 38.6371 86.4725 39.0213 86.5958 39.4164C86.7219 39.7265 86.8525 40.0481 86.9003 40.3632C87.2591 41.5719 87.5237 42.8066 87.6917 44.0562C88.0629 47.0526 88.2387 50.07 88.2178 53.0892C88.2448 57.6013 87.8572 62.0811 87.559 66.4845C87.3085 69.9184 87.2396 73.3052 86.9061 76.7326C86.8251 77.4882 86.7832 78.2412 86.6515 79.004C86.5609 80.0337 86.2381 81.0296 85.7075 81.9168C85.2577 82.4165 84.6484 82.7445 83.9836 82.8448C83.7024 82.9212 83.4156 82.9752 83.1258 83.006C82.6861 83.0107 82.3713 82.697 82.0848 82.0908C81.7068 81.357 81.5473 80.5301 81.6252 79.7083L82.1102 70.7595C82.2133 67.7201 82.2977 64.6347 82.3774 61.5379C82.4878 57.0142 82.2938 52.4882 81.7968 47.9906L82.0297 48.0699Z" fill="#27272A"/>
<path d="M97.6286 103.181C96.5247 107.017 95.114 110.759 93.4102 114.369C92.8464 115.745 92.1795 117.076 91.4153 118.351C90.6814 119.544 89.8156 120.65 88.8343 121.648C88.2853 122.207 87.6721 122.699 87.0075 123.113C86.2228 123.616 85.3295 123.924 84.4017 124.012L83.6537 124.048C83.4165 124.024 83.1699 123.977 82.9395 123.937C82.4579 123.851 81.9936 123.687 81.5647 123.452C81.1397 123.216 80.7473 122.925 80.3974 122.588C80.1019 122.273 79.8307 121.936 79.5861 121.579C78.8258 120.286 78.4096 118.82 78.3772 117.32C78.2728 115.016 78.488 112.708 79.0165 110.463C79.5774 107.664 80.6702 104.999 82.2356 102.611C82.738 101.872 83.3113 102.295 83.6919 103.264C84.1562 104.515 84.2437 105.876 83.9435 107.176C83.749 107.817 83.6375 108.465 83.4821 109.103C83.401 109.431 83.3429 109.749 83.2963 110.062L83.062 111C82.8079 112.207 82.6384 113.429 82.5548 114.659C82.4254 115.762 82.4641 116.879 82.6697 117.971C82.7444 118.381 82.8703 118.779 83.0445 119.157C83.2046 119.386 83.2933 119.605 83.4433 119.677C83.5934 119.75 83.5334 119.734 83.598 119.762C83.6474 119.801 83.7124 119.814 83.7732 119.798C83.7732 119.798 83.8701 119.839 83.9505 119.806C84.0218 119.763 84.0993 119.732 84.1802 119.713C84.6824 119.436 85.1211 119.057 85.4679 118.6C86.3866 117.389 87.1591 116.074 87.7693 114.681C89.2956 111.394 90.4728 107.955 91.2815 104.422C91.8166 102.221 92.224 99.9913 92.5019 97.7435C92.6998 96.0573 92.8931 94.3595 92.9231 92.688C92.9392 92.2666 92.9162 91.8477 92.9094 91.4357C92.9083 91.2354 92.9025 91.0236 92.8852 90.8165L92.8504 90.3356C92.8216 89.8355 92.7371 89.3402 92.5983 88.859C92.5015 88.1377 91.9368 87.5688 91.2163 87.4668C90.516 87.3901 89.9583 88.1252 89.6755 88.6148C89.5341 88.8596 89.4505 89.1479 89.3479 89.3234C89.2786 89.4661 89.1687 89.5853 89.032 89.6658C89.032 89.6658 88.7334 89.7872 88.5956 89.8432C88.4346 89.9287 88.2653 89.9975 88.0903 90.0485C87.7568 90.148 87.4054 90.1719 87.0616 90.1186C86.6552 90.0141 86.2637 89.8585 85.8964 89.6554C85.5679 89.4972 85.2567 89.3052 84.9678 89.0826C84.5617 88.6572 84.2677 88.1375 84.1124 87.5702C83.9816 87.2556 83.917 86.9174 83.9228 86.5767C83.9267 86.399 83.9442 86.2219 83.9751 86.0469L84.0243 85.7727L84.058 85.6252C84.016 85.5218 84.016 85.5218 84.0113 85.5103L84.0658 85.3811C84.5791 84.4117 85.1498 83.4738 85.7748 82.5723C86.3779 81.7175 87.1389 80.9858 88.0168 80.4167C88.4269 80.173 88.858 79.9664 89.3049 79.7996L89.9711 79.5289L90.6587 79.41C91.627 79.2718 92.613 79.3258 93.5603 79.5691L95.0033 80.3209C95.4638 80.5707 95.8902 80.8786 96.2722 81.2371C96.6495 81.6057 96.965 82.0529 97.3333 82.4653C97.7016 82.8776 97.9005 83.4659 98.1841 83.9662C98.4677 84.4665 98.6508 85.1147 98.8221 85.7009C98.9856 86.3185 99.0984 86.9485 99.1593 87.5845C99.2832 88.2384 99.3599 88.9004 99.3889 89.5654L99.4392 90.3478C99.4518 90.5434 99.4644 90.7391 99.4608 90.9279C99.4613 95.0799 98.889 99.2121 97.76 103.208L97.6286 103.181Z" fill="#27272A"/>
<path d="M105.076 104.784C104.308 107.579 103.352 110.32 102.213 112.986C101.76 113.946 101.427 114.938 100.893 115.864C99.9544 117.507 98.886 119.074 97.6983 120.548C97.0803 121.315 96.4072 122.035 95.6842 122.704C94.9265 123.436 94.0571 124.042 93.1087 124.5C92.1597 124.927 91.114 125.094 90.0794 124.982C88.9074 124.914 87.8292 124.319 87.1468 123.363C86.7478 122.712 86.5402 121.962 86.5479 121.198C86.5496 120.562 86.6703 119.932 86.9038 119.341C87.2572 118.332 87.7799 117.391 88.4494 116.558C88.8772 116.063 89.3187 116.392 89.6773 117.143C90.1063 118.039 90.3556 119.011 90.4113 120.003C90.3973 120.351 90.4224 120.7 90.486 121.043C90.5327 121.158 90.486 121.043 90.514 121.112C90.514 121.112 90.4451 121.14 90.7538 121.175C91.2209 121.233 91.6929 121.117 92.0804 120.85C92.4073 120.671 92.7088 120.45 92.9769 120.191C93.2468 119.868 93.5515 119.597 93.8189 119.234C95.1308 117.346 96.0867 115.234 96.6394 113.002C97.4155 110.532 98.3413 108.069 98.9372 105.485C99.3259 103.916 99.6224 102.325 99.8251 100.721C100.213 98.3905 100.201 96.0106 99.7888 93.6838C99.6548 92.9591 99.296 92.2949 98.7632 91.7856C98.6902 91.7005 98.5911 91.642 98.4814 91.6191C98.4147 91.5992 98.3431 91.6283 98.3091 91.6891L98.4778 91.3797L98.5736 91.2203C98.654 91.1876 98.6827 90.9618 98.7147 90.9087C98.7432 90.8406 98.7637 90.7694 98.7756 90.6966C98.8252 90.4891 98.7243 90.5703 98.8597 90.9033C98.9278 91.1381 99.02 91.3652 99.135 91.5809C99.1957 91.7303 99.2564 91.8796 99.317 92.0289L99.3497 92.1093L99.1204 92.2694C98.6905 92.5927 98.1838 92.7986 97.6503 92.8668C97.0541 92.8322 96.4798 92.6294 95.9941 92.2819C95.7077 92.1039 95.4191 91.9535 95.1718 91.773C94.7714 91.4571 94.4984 91.0074 94.4028 90.5064C94.2478 89.9068 94.2854 89.2735 94.5103 88.6964C94.6987 88.1051 94.9708 87.5438 95.3184 87.0298C96.0376 85.9957 97.1977 85.356 98.456 85.2998C99.2996 85.2102 100.152 85.3223 100.944 85.6269C101.121 85.6888 101.282 85.757 101.429 85.8314C101.579 85.9043 101.685 85.9681 101.807 86.0388L102.517 86.5C102.929 86.803 103.305 87.1532 103.637 87.5436C103.936 87.8532 104.2 88.1945 104.425 88.5615C105.163 89.7522 105.672 91.0706 105.924 92.4485C106.15 93.5623 106.274 94.6944 106.295 95.8306C106.269 98.8766 105.874 101.908 105.12 104.859L105.076 104.784Z" fill="#27272A"/>
<path d="M116.598 203.341C119.375 202.848 122.112 202.146 124.784 201.241C127.545 200.343 130.183 199.223 132.812 198.009C133.779 197.551 134.718 197.058 135.657 196.565C136.596 196.072 137.512 195.532 138.451 195.039C145.115 191.484 151.462 187.365 157.424 182.728C160.057 180.658 162.548 178.412 164.879 176.006C166.359 174.475 167.783 172.875 169.117 171.233C170.451 169.591 171.884 168.045 173.112 166.33C173.903 165.282 174.288 165.626 174.22 166.933C174.19 167.813 174.046 168.686 173.791 169.529C173.663 170.086 173.489 170.631 173.268 171.158L172.89 172.013C172.725 172.287 172.545 172.55 172.35 172.804C169.617 176.444 166.547 179.818 163.181 182.882C159.858 185.958 156.291 188.759 152.514 191.256C147.992 194.233 143.407 197.449 138.521 200.178C133.153 203.173 127.47 205.564 121.575 207.307C117.859 208.428 114.005 209.024 110.124 209.076C107.061 209.126 104.027 208.487 101.246 207.205C99.7788 206.526 98.4538 205.575 97.34 204.403C96.139 203.127 95.3572 201.513 95.0997 199.779C94.8189 197.24 95.3146 194.675 96.5214 192.424C97.5432 190.319 98.9071 188.398 100.558 186.74C101.249 186.01 101.987 185.324 102.765 184.688C105.75 182.403 107.077 182.243 108.315 182.848C108.605 182.962 108.882 183.107 109.14 183.282C109.848 183.874 108.977 185.209 107.288 186.945C106.032 188.214 104.889 189.59 103.873 191.058C102.881 192.381 102.035 193.808 101.349 195.313C100.78 196.429 100.539 197.684 100.657 198.932C100.786 199.911 101.34 200.784 102.17 201.318C104.049 202.675 106.263 203.493 108.572 203.684C111.235 203.917 113.917 203.759 116.534 203.216L116.598 203.341Z" fill="#27272A"/>
<path d="M129.319 217.628C131.164 217.479 132.995 217.196 134.798 216.781C135.471 216.632 136.087 216.335 136.748 216.183C139.129 215.658 141.465 214.945 143.734 214.049C144.731 213.634 145.696 213.148 146.622 212.593C147.234 212.268 147.778 211.831 148.406 211.537C149.034 211.244 149.642 210.931 150.278 210.653C150.664 210.465 150.84 210.768 150.783 211.31C150.68 212.057 150.356 212.755 149.853 213.316C149.729 213.459 149.61 213.629 149.478 213.756L149.019 214.09L148.105 214.708C147.478 215.119 146.847 215.503 146.201 215.855C144.912 216.579 143.559 217.182 142.159 217.658C140.472 218.21 138.855 219.111 137.125 219.676C135.184 220.264 133.207 220.722 131.205 221.045C129.984 221.239 128.75 221.39 127.512 221.475C125.613 221.603 123.705 221.541 121.817 221.289C120.313 221.143 118.832 220.808 117.411 220.292C117.087 220.186 116.773 220.05 116.473 219.887C115.422 219.107 115.325 218.556 115.565 217.89C115.603 217.729 115.653 217.571 115.716 217.418C115.962 216.976 116.627 216.89 117.401 217.034C117.958 217.096 118.51 217.19 119.055 217.317C119.589 217.397 120.116 217.501 120.665 217.534C121.745 217.659 122.85 217.662 123.992 217.755C125.748 217.866 127.511 217.808 129.256 217.581L129.319 217.628Z" fill="#27272A"/>
<path d="M107.538 212.869C105.79 212.925 104.043 212.75 102.341 212.348C100.443 211.886 98.6809 210.982 97.1985 209.709C95.6989 208.376 94.5796 206.67 93.9547 204.763L93.5631 203.427L93.3397 202.053C93.1969 201.054 93.1893 200.04 93.3171 199.038C93.9311 195.632 95.4033 192.439 97.5947 189.76C99.4859 187.32 101.572 185.037 103.833 182.934C108.261 178.787 113.191 175.212 118.508 172.291C123.8 169.319 129.431 166.999 135.28 165.38C139.602 164.163 144.053 163.462 148.54 163.292C153.179 163.117 157.806 163.871 162.15 165.509C166.049 167.024 169.602 169.311 172.597 172.232C174.175 173.725 175.529 175.439 176.614 177.322C177.753 179.339 178.438 181.581 178.622 183.89C178.791 186.139 178.509 188.399 177.792 190.537C177.119 192.52 176.206 194.413 175.073 196.174C172.883 199.546 170.243 202.602 167.225 205.258C164.328 207.847 161.204 210.169 157.891 212.197C154.609 214.187 151.204 215.965 147.695 217.52C140.687 220.681 133.221 222.708 125.577 223.524C123.858 223.699 122.132 223.784 120.404 223.779C119.538 223.761 118.663 223.728 117.831 223.682C116.694 223.58 115.575 223.33 114.502 222.94C113.406 222.538 112.394 221.935 111.518 221.163C110.632 220.425 110.115 219.336 110.104 218.184C110.207 215.912 112.223 214.215 114.263 213.008C114.505 212.864 114.797 212.684 115 212.58L115.576 212.283C115.966 212.083 116.356 211.883 116.738 211.706C117.514 211.317 118.275 210.975 119.086 210.636C120.611 209.94 122.243 209.357 123.844 208.79C127.035 207.666 130.293 206.741 133.599 206.021C137.908 205.027 142.322 204.554 146.744 204.613C149.069 204.662 151.378 205.004 153.617 205.632C156.042 206.299 158.286 207.503 160.181 209.156C162.095 210.935 163.444 213.238 164.059 215.777L164.433 217.616C164.519 218.278 164.553 218.946 164.534 219.614C164.496 220.873 164.301 222.123 163.953 223.334C163.315 225.586 162.31 227.718 160.979 229.644C159.715 231.545 158.214 233.278 156.513 234.8C154.292 236.691 152.895 236.907 152.789 236.509C152.682 236.11 153.515 234.932 154.571 232.979C155.976 230.429 157 227.687 157.611 224.841C158.012 223.234 158.18 221.577 158.108 219.923C157.905 218.426 157.39 216.988 156.598 215.702C155.825 214.563 154.779 213.637 153.556 213.007C152.065 212.269 150.464 211.777 148.815 211.552C144.957 211.07 141.048 211.163 137.217 211.829C133.202 212.475 129.247 213.454 125.394 214.755C123.434 215.428 121.521 216.117 119.706 216.902C119.25 217.107 118.782 217.308 118.361 217.525L117.527 217.934C117.359 218.011 117.409 217.975 117.343 218.019C117.277 218.063 117.286 218.196 117.424 218.253L117.625 218.317L118.155 218.37L118.869 218.417C119.83 218.465 120.818 218.469 121.806 218.435C125.876 218.229 129.913 217.6 133.852 216.557C141.883 214.364 149.529 210.95 156.523 206.434C160.698 203.741 164.456 200.45 167.676 196.666C170.782 192.949 173.138 188.445 172.692 184.357C172.458 182.265 171.598 180.292 170.224 178.696C169.488 177.808 168.689 176.974 167.835 176.199C167.368 175.828 166.924 175.425 166.458 175.054L165.003 174.028C160.92 171.45 156.248 169.952 151.427 169.674C145.895 169.319 140.344 169.936 135.025 171.495C129.597 173.054 124.372 175.245 119.456 178.024C114.499 180.766 109.918 184.136 105.824 188.051C103.837 189.984 102.057 192.118 100.514 194.42C99.0496 196.672 98.066 199.129 98.4 201.254C98.5657 202.688 99.1193 204.05 100.001 205.192C100.447 205.702 100.97 206.138 101.553 206.484C102.183 206.84 102.861 207.105 103.565 207.273C106.819 207.859 110.163 207.684 113.338 206.761C120.047 205.124 126.567 202.047 132.866 198.847C142.486 194.074 151.427 188.041 159.451 180.905C163.361 177.367 166.8 173.342 169.685 168.928L170.686 167.31L171.588 165.594C172.197 164.502 172.719 163.363 173.149 162.189C174.003 160.066 174.192 157.734 173.692 155.502C173.216 153.913 172.269 152.506 170.976 151.467C169.535 150.346 167.925 149.46 166.206 148.843C162.537 147.538 158.696 146.78 154.807 146.594C150.841 146.35 146.863 146.428 142.91 146.827C138.965 147.292 135.064 148.07 131.242 149.152C127.849 150.108 124.585 151.313 121.24 152.61C118.133 153.814 115.574 154.893 113.42 155.804C111.266 156.715 109.49 157.382 108.006 157.908C105.938 158.774 103.723 159.23 101.481 159.253C100.738 159.29 99.9928 159.265 99.2537 159.176C98.4037 158.904 99.0712 157.959 101.045 156.353C104.102 153.984 107.359 151.883 110.779 150.075C117.625 146.316 124.861 143.315 132.358 141.125C134.288 140.586 136.251 140.108 138.25 139.721C140.277 139.31 142.324 139.01 144.383 138.824C148.51 138.474 152.659 138.497 156.781 138.894C161.151 139.259 165.447 140.247 169.537 141.827C171.86 142.76 174.007 144.083 175.886 145.738C178.068 147.646 179.671 150.127 180.516 152.899C181.29 155.596 181.357 158.447 180.712 161.177C180.178 163.511 179.333 165.762 178.2 167.871C176.216 171.679 173.8 175.246 171.002 178.503C166.931 183.171 162.363 187.382 157.379 191.059C152.506 194.657 147.387 197.91 142.059 200.792C136.784 203.66 131.359 206.24 125.806 208.521C122.946 209.691 120.018 210.686 117.038 211.502C113.945 212.392 110.756 212.904 107.54 213.026L107.538 212.869Z" fill="#27272A"/>
<path d="M165.012 60.9391C173.165 56.9042 179.397 49.8144 182.352 41.2106C182.542 40.6905 185.615 58.1613 195.97 61.5301C195.97 61.5301 183.44 67.5349 180.473 79.4264C180.485 79.5919 179.764 69.9818 165.012 60.9391Z" fill="#27272A"/>
<path d="M183.09 117.524C189.803 114.197 194.928 108.35 197.345 101.259C197.499 100.833 200.017 115.207 208.575 117.973C208.575 117.973 198.279 122.914 195.832 132.69C195.797 132.82 195.206 124.924 183.09 117.524Z" fill="#27272A"/>
<path d="M128.996 95.6799C135.476 92.4634 140.428 86.8236 142.779 79.9822C142.921 79.5567 145.368 93.434 153.63 96.1055C153.63 96.1055 143.677 100.834 141.325 110.29C141.266 110.444 140.698 102.82 128.996 95.6799Z" fill="#27272A"/>
<path d="M36.7411 165.346C35.558 165.374 34.4001 165.692 33.3691 166.274C32.2883 166.938 31.3718 167.838 30.6884 168.907C30.1704 169.78 29.7456 170.705 29.4209 171.666C28.0298 175.277 27.3616 179.127 27.4546 182.996C27.4782 184.75 27.6405 186.5 27.9398 188.229C28.1198 189.333 28.4319 190.415 28.6511 191.501C28.8704 192.586 29.0182 193.724 29.2246 194.844C29.3694 195.537 29.0893 195.589 28.4389 195.202C28.0265 194.932 27.643 194.62 27.2944 194.271C26.8054 193.817 26.3917 193.288 26.0689 192.704C25.9401 192.422 25.8078 192.131 25.679 191.848L25.3905 190.964C25.1916 190.381 25.0512 189.781 24.8837 189.184C24.584 187.989 24.3495 186.778 24.1814 185.558C23.9293 183.094 23.9732 180.609 24.3123 178.156C24.7629 175.228 25.0241 172.093 26.3214 169.15C27.0295 167.499 28.0238 165.987 29.2584 164.682C30.5615 163.336 32.2001 162.36 34.0054 161.857L34.852 161.633L35.6865 161.529C36.2452 161.442 36.8101 161.4 37.3755 161.405C38.5411 161.43 39.6894 161.692 40.7513 162.173C42.2878 162.885 43.6308 163.955 44.6671 165.295C45.6822 166.568 46.4544 168.017 46.9452 169.57C47.765 171.898 48.1085 174.368 47.9554 176.831C47.9488 177.371 47.8956 177.91 47.7962 178.441C47.3879 180.419 46.6572 180.856 45.7756 180.983C45.5769 181.021 45.376 181.046 45.174 181.057C44.8696 181.035 44.6537 180.81 44.4863 180.422C44.261 179.917 44.1657 179.363 44.2089 178.812C44.23 178.338 44.1476 177.844 44.1952 177.386C44.2294 176.926 44.2346 176.464 44.2109 176.003C44.2186 175.55 44.199 175.096 44.1522 174.645C44.0912 174.199 44.0931 173.723 44.0036 173.318C43.7649 171.622 43.1611 169.997 42.2339 168.556C41.6063 167.579 40.7677 166.754 39.7796 166.144C39.6546 166.078 39.5381 165.989 39.4201 165.938L39.0549 165.782C38.8235 165.678 38.5815 165.601 38.3331 165.55C38.0983 165.495 37.8593 165.457 37.6186 165.439C37.3563 165.426 37.0227 165.464 36.729 165.465L36.7411 165.346Z" fill="#27272A"/>
<path d="M43.2521 160.912C44.2575 161.522 45.1471 162.305 45.8799 163.225C46.5744 164.11 47.1311 165.094 47.5313 166.145C48.2228 168.02 48.5883 170 48.6121 171.999C48.6426 173.83 48.5241 175.66 48.2579 177.472L48.0693 178.725L48.0045 179.02L47.8469 179.632C47.8043 179.781 47.7717 179.932 47.7493 180.084C47.7365 180.223 47.6566 180.402 47.7502 180.482C48.0409 180.35 48.2566 180.157 48.4895 180.023C48.7223 179.888 48.9051 179.748 49.1544 179.587C49.1544 179.587 49.7508 179.126 50.1907 178.821C50.6307 178.517 51.1314 178.137 51.6335 177.823C52.1356 177.509 52.727 177.183 53.2849 176.929C53.5835 176.793 53.8821 176.657 54.1807 176.521C54.4847 176.379 54.8004 176.264 55.1244 176.177C56.4944 175.72 57.96 175.628 59.3763 175.911C59.7286 175.997 60.0966 176.076 60.4482 176.182L61.4216 176.611C61.7438 176.758 62.0506 176.936 62.3372 177.143C62.6195 177.347 62.9104 177.527 63.1742 177.711C64.3144 178.667 65.1583 179.928 65.607 181.346C65.9879 182.677 66.0506 184.078 65.7901 185.437C65.5673 186.676 65.1521 187.874 64.5595 188.985C63.5972 190.909 62.3001 192.646 60.7291 194.115C59.1771 195.498 57.4495 196.671 55.5909 197.602C50.9066 199.631 45.8614 200.696 40.7565 200.731C39.2132 200.779 39.3444 200.151 40.5271 199.29C42.3797 198.06 44.3892 197.084 46.5016 196.39C48.7087 195.71 50.8383 194.801 52.8557 193.677C53.3335 193.393 53.8071 193.121 54.2878 192.864C54.7685 192.607 55.2235 192.315 55.6635 192.01L56.3177 191.551L56.9347 191.052C57.1317 190.904 57.3183 190.743 57.4932 190.57C57.6769 190.416 57.8472 190.246 58.0024 190.063C59.3511 188.628 60.3502 186.901 60.9219 185.016C61.1714 184.284 61.2358 183.502 61.1092 182.739C60.9555 182.062 60.5704 181.459 60.0201 181.034C59.2964 180.385 58.3363 180.063 57.3673 180.146C56.1683 180.326 55.0309 180.795 54.0528 181.512C53.4713 181.881 52.895 182.324 52.3143 182.778L49.474 185.019C48.9819 185.376 48.472 185.798 47.9892 186.113C47.5063 186.427 47.0349 186.746 46.5899 186.977C46.1831 187.169 45.7668 187.339 45.3427 187.488C45.0199 187.557 44.6929 187.605 44.3639 187.63L43.8673 187.581C43.7751 187.566 43.7122 187.595 43.6022 187.541C43.5185 187.483 43.4487 187.408 43.3977 187.321C43.2344 187.055 43.1046 186.77 43.0114 186.472C42.7235 185.534 42.6682 184.54 42.8504 183.576C43.0783 182.201 43.4126 180.769 43.6276 179.428L43.7728 178.413L43.8717 177.714L44.0239 176.506C44.2033 174.913 44.2438 173.308 44.1448 171.708C44.081 170.229 43.7409 168.775 43.1421 167.422C42.7988 166.682 42.3074 166.021 41.6984 165.48C41.3986 165.21 41.0688 164.975 40.7156 164.779L39.4863 164.163C37.8664 163.41 36.0407 163.222 34.3015 163.63C31.7996 164.218 29.6001 166.263 28.2432 168.826C26.8599 171.463 26.0596 174.367 25.8966 177.34C25.5877 181.996 26.7156 186.558 28.1771 190.977C28.5049 191.947 28.8998 192.877 29.2584 193.852C30.6065 197.46 30.8194 198.719 30.1371 199.95C30.0009 200.242 29.8394 200.522 29.6545 200.786C29.0262 201.49 27.6508 200.323 26.1981 197.674C24.0177 193.556 22.5201 189.112 21.7636 184.515C20.8746 179.532 21.2261 174.407 22.787 169.592C23.4404 167.68 24.3734 165.874 25.5555 164.234C26.8447 162.447 28.525 160.978 30.4682 159.939C32.5563 158.883 34.9113 158.471 37.234 158.757C38.3241 158.88 39.3954 159.135 40.4247 159.514L41.1722 159.781L41.8748 160.116C42.3486 160.365 42.7638 160.527 43.2856 160.84L43.2521 160.912Z" fill="#27272A"/>
<path d="M61.9436 157.174C62.0688 157.449 61.6687 157.508 60.8821 157.572C60.5256 157.575 60.1721 157.507 59.8423 157.372C59.6704 157.199 59.5192 157.007 59.3919 156.799C59.3046 156.041 59.2743 155.278 59.3013 154.516C59.3056 154.028 59.3898 153.545 59.5505 153.084C59.8308 152.179 60.0676 151.303 60.26 150.475C60.3129 150.289 60.4062 150.117 60.5334 149.971C60.9338 149.462 61.1585 148.838 61.174 148.19C61.2068 148.072 61.1712 147.946 61.0817 147.862C60.9676 147.222 60.9916 146.564 61.152 145.933C61.5204 145.471 61.5416 144.997 61.9314 144.478C61.9728 144.402 61.9135 144.334 62.1135 144.253C62.5535 144.052 62.4934 143.9 62.5305 143.731C62.567 143.477 62.6358 143.229 62.7351 142.993C62.8598 142.83 63.0026 142.683 63.1607 142.552C63.4009 142.419 63.6733 142.354 63.948 142.365C64.146 142.445 64.4024 142.3 64.6367 142.231C64.7075 142.199 64.8018 142.156 64.8782 142.178C65.1998 142.377 65.4903 142.622 65.7403 142.905C66.0504 143.187 66.3172 143.513 66.5318 143.873L66.6821 144.307C66.7376 144.451 66.7826 144.599 66.8167 144.749C66.8471 144.919 66.8653 145.092 66.8713 145.265C66.961 145.983 66.9228 146.712 66.9479 146.871C66.973 147.03 66.8481 147.172 66.7503 147.312C66.6525 147.451 66.6984 147.886 66.6594 148.425C66.6284 148.791 66.579 149.156 66.5114 149.517C66.3466 149.905 66.3461 150.342 65.8647 150.618C65.7704 150.661 65.7633 150.749 65.7412 150.826C65.5131 151.469 65.2012 152.08 64.8134 152.642C64.6567 152.936 64.5191 153.239 64.4016 153.551C64.3623 153.569 64.2916 153.601 64.2616 153.681C64.1992 153.728 64.1449 153.784 64.101 153.849C63.7419 154.498 63.438 155.175 63.1925 155.875C63.1598 156.032 62.5199 156.627 62.525 156.805C62.5301 156.983 61.8778 157.071 61.9436 157.174Z" fill="#27272A"/>
<path d="M48.6135 155.88C48.7494 156.179 48.3072 156.333 47.5842 156.349C47.2543 156.329 46.933 156.235 46.6437 156.075C46.5016 155.9 46.3703 155.715 46.2504 155.524C46.2039 155.422 46.0952 153.953 45.9656 153.481C45.8709 153.035 45.8292 152.58 45.8413 152.124C45.8242 151.243 45.7413 150.365 45.5933 149.496C45.5544 149.302 45.5604 149.101 45.6108 148.909C45.7428 148.238 45.6614 147.542 45.3782 146.919C45.3317 146.817 45.2852 146.714 45.1415 146.628C44.8911 146.339 44.7046 146.001 44.5943 145.635C44.4353 145.282 44.343 144.902 44.3222 144.516C44.4031 143.876 44.4267 143.23 44.3926 142.587C44.3568 142.508 44.3175 142.422 44.446 142.287C44.7673 141.951 44.6301 141.795 44.5792 141.6C44.505 141.324 44.4738 141.037 44.4866 140.751C44.4922 140.597 44.6586 140.379 44.7742 140.174C44.9971 139.983 45.2695 139.859 45.5599 139.816C45.7907 139.844 46.0078 139.613 46.2436 139.505C46.3221 139.469 46.4243 139.423 46.4871 139.394C47.1933 139.693 47.8411 140.114 48.4006 140.639L48.5794 141.032C48.6832 141.259 48.8698 141.544 49.0365 141.848C49.3855 142.448 49.7052 143.109 49.7932 143.239C49.8812 143.37 49.8398 143.55 49.8299 143.716L50.2121 144.785C50.386 145.313 50.5442 145.848 50.5542 145.891C50.5652 146.331 50.7469 146.751 50.4542 147.255C50.385 147.353 50.4129 147.435 50.4251 147.524C50.5011 148.284 50.4667 149.05 50.3228 149.8C50.2623 150.188 50.3139 150.572 50.2691 150.953C50.2942 151.008 50.2063 151.086 50.1806 151.155C50.139 151.237 50.1085 151.324 50.09 151.414C50.0455 152.316 49.7474 153.183 49.6921 154.061C49.6765 154.277 49.1268 155.154 49.1034 155.373C49.0799 155.592 48.5641 155.751 48.6135 155.88Z" fill="#27272A"/>
<path d="M69.634 172.719C69.557 173.03 69.1468 172.941 68.5343 172.679C68.2688 172.544 68.0482 172.335 67.8995 172.077C67.8863 171.835 67.9003 171.594 67.9412 171.356C68.3732 170.541 68.8989 169.78 69.5076 169.087C69.9238 168.579 70.4214 168.144 70.9802 167.8C72.0763 167.102 73.2349 166.508 74.441 166.025C74.7129 165.901 75.0099 165.84 75.309 165.848C76.2564 165.825 77.1996 165.713 78.1261 165.514C78.2976 165.513 78.4604 165.439 78.574 165.311C78.8025 164.979 81.3453 164.855 81.6648 164.994C82.4695 165.283 83.2499 165.601 83.9875 165.929C84.094 165.976 84.2233 165.926 84.3048 166.126C84.4267 166.412 84.6744 166.625 84.9754 166.703C85.2959 166.853 85.6023 167.031 85.891 167.235C86.0529 167.385 86.1923 167.558 86.305 167.748C86.4265 167.911 86.2917 168.324 86.2396 168.376C86.0767 168.497 86.1648 168.732 86.1506 168.91C86.1508 168.977 86.1432 169.044 86.1278 169.11C86.1457 169.149 85.63 169.412 85.1193 169.749C84.6086 170.086 84.1051 170.543 84.0108 170.481C83.9164 170.42 81.463 170.844 81.2094 170.912C80.9558 170.98 80.9179 170.855 80.7735 170.788C80.6291 170.721 78.7996 171.203 78.7374 171.212C78.3365 171.186 77.9844 171.413 77.5484 171.08C77.4745 171.033 77.3825 171.026 77.3019 171.06C76.9826 171.157 76.6493 171.199 76.3159 171.186C75.9765 171.17 75.64 171.181 75.2963 171.176C74.9595 171.209 74.6263 171.272 74.3004 171.363C74.2454 171.389 74.1582 171.343 74.0889 171.336C74.0122 171.325 73.934 171.331 73.8602 171.355C73.0771 171.511 72.3244 171.793 71.6314 172.19C71.4284 172.271 71.2178 172.332 71.0028 172.371C70.7857 172.433 70.5791 172.527 70.3899 172.65C70.2609 172.683 70.1271 172.693 69.9948 172.678C69.8068 172.641 69.6518 172.654 69.634 172.719Z" fill="#27272A"/>
</g>
<defs>
<clipPath id="clip0_160_4005">
<rect width="265" height="265" fill="white"/>
</clipPath>
</defs>
</svg>
