<svg width="265" height="265" viewBox="0 0 265 265" fill="none" xmlns="http://www.w3.org/2000/svg">
<path d="M164.047 103.483C165.484 103.131 166.742 102.261 167.576 101.038C167.748 100.81 168.022 100.49 168.124 100.341L168.501 99.8388C168.764 99.4961 168.97 99.2334 169.221 98.9364C169.472 98.6394 170.055 98.2053 170.432 97.7941L170.615 97.6228L170.752 97.4743C170.807 97.4078 170.868 97.3466 170.935 97.2915C171.082 97.1398 171.274 97.0396 171.483 97.0059C171.963 97.0059 172.065 97.52 172.157 97.9997C172.157 98.0568 172.157 98.3767 172.157 98.5709C172.157 98.7651 172.157 99.0278 172.157 99.2562C172.155 99.7041 172.117 100.151 172.043 100.593C171.878 101.626 171.567 102.63 171.117 103.574C170.957 103.86 171.117 104.157 171.677 104.282C172.519 104.433 173.38 104.144 173.962 103.517C174.244 103.2 174.503 102.864 174.738 102.512C174.925 102.151 175.063 101.767 175.15 101.369C175.323 100.665 175.43 99.9462 175.469 99.222L175.538 98.1368C175.554 97.5534 175.531 96.9695 175.469 96.3891C175.301 95.3564 174.724 94.4347 173.87 93.8304C172.817 93.2339 171.541 93.1828 170.443 93.6933C169.864 93.934 169.313 94.2365 168.798 94.5957C168.393 94.8517 168.011 95.1422 167.656 95.4638C166.967 96.0979 166.329 96.7854 165.749 97.52C165.063 98.3424 165.052 98.4681 164.743 98.8107C164.589 99.0297 164.362 99.1873 164.104 99.2562C163.836 99.2633 163.589 99.1108 163.475 98.8679C163.36 98.7004 163.264 98.5202 163.19 98.331C163.138 98.2271 163.092 98.1203 163.053 98.0111L162.87 97.5428L161.979 95.2582C161.553 93.9355 160.99 92.6607 160.3 91.4544C160.13 91.1699 159.939 90.8988 159.729 90.6434C159.457 90.2692 159.044 90.0218 158.586 89.958C158.171 90.047 157.797 90.2721 157.524 90.5977C157.375 90.7305 157.237 90.8757 157.113 91.0318C156.935 91.3004 156.832 91.6121 156.816 91.9342C156.708 92.2683 156.708 92.6281 156.816 92.9622C157.615 94.6481 158.325 96.3754 158.94 98.1368L159.477 99.4504C159.6 99.8424 159.753 100.224 159.934 100.593C160.077 100.965 160.265 101.318 160.494 101.644C160.693 101.961 160.931 102.253 161.202 102.512L161.591 102.877L162.036 103.151C162.657 103.502 163.372 103.649 164.081 103.574L164.047 103.483Z" fill="#1F78D1"/>
<path d="M179.283 117.282C183.228 112.584 186.799 107.584 189.964 102.329C193.309 96.8745 195.523 90.8029 196.475 84.4753C197.194 79.6865 196.76 74.795 195.207 70.2081C193.669 66.1157 191.043 62.5213 187.611 59.8133C184.198 57.1901 180.149 55.5224 175.879 54.9814C171.741 54.4381 167.536 54.7649 163.531 55.9409C159.503 57.1396 155.847 59.3451 152.908 62.3492C150.409 64.9977 148.381 68.0534 146.911 71.3847C145.492 74.6011 144.405 77.9539 143.667 81.3911C143.193 83.6007 142.88 85.8416 142.73 88.0964C142.55 90.2961 142.489 92.5039 142.547 94.7102C142.607 99.0844 142.919 103.451 143.484 107.789C143.85 110.474 144.626 110.074 145.472 107.721C146.604 104.013 147.249 100.173 147.391 96.298C147.471 94.1276 147.642 91.9687 147.779 89.8555C147.902 87.7912 148.142 85.7355 148.499 83.6985C149.263 79.6847 150.565 75.7924 152.371 72.1272C153.272 70.4004 154.351 68.7732 155.592 67.2724C156.822 65.8452 158.24 64.5924 159.807 63.5486C161.429 62.5419 163.166 61.7364 164.982 61.1498C166.909 60.5731 168.893 60.2093 170.899 60.0646C175.695 59.6272 180.476 61.0504 184.252 64.0397C187.967 67.174 190.358 71.5976 190.946 76.4222C191.293 79.1405 191.251 81.8945 190.821 84.601C190.353 87.3638 189.587 90.0678 188.536 92.6655C186.193 97.9655 183.2 102.954 179.626 107.515C177.753 110.005 175.799 112.45 173.789 114.883L168.146 121.657C167.963 121.862 167.815 122.091 167.621 122.274C167.427 122.456 167.095 122.205 166.855 122.114C166.615 122.022 166.227 121.76 165.919 121.565L164.228 120.423C163.086 119.646 161.875 118.858 160.653 118.139C160.047 117.762 159.419 117.385 158.791 116.996L157.786 116.448C157.397 116.242 157.066 116.06 156.575 115.831C154.873 114.984 153.068 114.362 151.206 113.981C149.637 113.673 148.023 113.673 146.454 113.981C144.969 114.248 143.593 114.938 142.49 115.968C141.931 116.504 141.682 117.287 141.828 118.047C141.994 118.652 142.29 119.214 142.696 119.692C143.603 120.83 144.673 121.827 145.872 122.651C147.014 123.45 148.35 124.25 149.675 125.049L151.606 126.192L152.337 126.671L152.965 127.106C153.777 127.661 154.542 128.284 155.25 128.967C155.84 129.498 156.311 130.149 156.632 130.875L156.7 131.081L158.345 130.544C158.371 130.532 158.4 130.532 158.425 130.544C158.528 130.544 158.425 130.544 158.425 130.544C158.425 130.544 158.425 130.544 158.425 130.464L158.334 130.281C158.288 130.161 158.265 130.033 158.265 129.904C158.2 129.527 158.169 129.145 158.174 128.762H157.934C157.534 128.693 157.043 128.568 156.563 128.442L153.536 127.597C150.669 126.82 146.808 125.746 144.329 125.952C143.647 125.988 142.972 126.107 142.319 126.306C141.704 126.524 141.144 126.87 140.674 127.323C140.495 127.613 140.36 127.929 140.274 128.259C140.23 128.524 140.23 128.794 140.274 129.059C140.373 129.769 140.593 130.457 140.925 131.092C141.325 131.852 141.824 132.555 142.41 133.183C143.661 134.402 145.005 135.521 146.431 136.529L147.197 137.101C147.379 137.248 147.57 137.385 147.768 137.512C148.03 137.66 148.27 137.786 148.499 137.889C148.924 138.075 149.363 138.228 149.812 138.346C150.223 138.5 150.608 138.716 150.955 138.985C151.229 139.168 151.492 139.157 151.697 138.745C151.926 138.107 151.926 137.408 151.697 136.769C151.56 136.332 151.384 135.907 151.172 135.501C151.063 135.273 150.941 135.052 150.806 134.839L150.703 134.667C150.703 134.667 150.703 134.667 150.703 134.588V134.45C150.579 134.136 150.426 133.834 150.246 133.548C150.134 133.383 150.039 133.207 149.961 133.023C149.949 132.951 149.949 132.877 149.961 132.806C149.951 132.753 149.964 132.7 149.997 132.658C150.03 132.616 150.079 132.591 150.132 132.589C150.569 132.581 151.001 132.683 151.389 132.886L151.8 133.068L151.96 133.16H152.028L152.2 133.228L154.667 133.891C155.647 134.158 156.643 134.364 157.649 134.508H158.265H158.768C159.034 134.494 159.299 134.452 159.556 134.382C159.775 134.331 159.988 134.262 160.196 134.176L160.527 134.028C160.802 133.874 161.058 133.69 161.292 133.48C162.27 132.627 162.743 131.335 162.549 130.053C162.549 129.904 162.549 129.744 162.48 129.607C162.412 129.47 162.378 129.264 162.389 129.31V129.242V129.105L162.275 128.819C162.149 128.465 161.989 128.124 161.795 127.802C161.639 127.493 161.455 127.199 161.247 126.923C160.571 125.965 159.777 125.098 158.882 124.341C158.083 123.656 157.294 123.05 156.506 122.491L155.364 121.76L155.033 121.531L155.33 121.691L155.809 121.954C156.221 122.182 156.632 122.434 157.043 122.673C158.688 123.679 160.321 124.798 162.092 125.975L162.766 126.42L163.326 126.786L163.977 127.185C164.808 127.715 165.702 128.137 166.638 128.442C167.509 128.682 168.429 128.682 169.3 128.442C169.512 128.392 169.708 128.29 169.871 128.145L170.419 127.768L171.562 127.014L179.672 117.419L179.283 117.282Z" fill="#1F78D1"/>
<path d="M168.775 91.2375C167.783 91.881 166.877 92.6488 166.079 93.522L165.588 94.0589V94.1617L165.462 94.3902L165.142 94.9728C165.085 95.0527 165.005 95.2926 164.914 95.2012C164.859 95.1374 164.816 95.0637 164.788 94.9842C164.685 94.7214 164.72 94.3216 164.583 94.0475C164.583 94.0475 164.583 94.0475 164.583 93.9218L164.457 93.4649L164.16 92.4597L163.977 91.9L163.68 91.1918C163.468 90.6993 163.208 90.2287 162.904 89.7868C162.403 88.9783 161.687 88.3255 160.836 87.902C159.992 87.5013 159.037 87.4006 158.129 87.6164C157.208 87.8224 156.351 88.2454 155.627 88.8501C155.264 89.1597 154.917 89.4876 154.588 89.8325C154.313 90.1866 154.096 90.5635 153.857 90.9747C153.165 92.2536 152.745 93.6613 152.623 95.1098C152.543 95.7152 152.543 96.2521 152.486 96.869C152.429 97.4858 152.486 98.0112 152.486 98.5824C152.473 99.6844 152.519 100.786 152.623 101.884C152.76 103.277 152.931 104.648 153.148 105.996C153.263 106.67 153.605 107.309 153.731 107.972C153.857 108.635 154.016 109.297 154.131 109.96C154.245 110.622 154.656 110.679 155.09 109.96C155.368 109.468 155.59 108.947 155.753 108.406C155.878 108.075 155.924 107.732 156.05 107.355C156.209 106.983 156.347 106.601 156.461 106.213C156.621 104.785 156.587 103.426 156.678 102.078L156.804 100.102C156.804 99.4619 156.804 98.8223 156.895 98.2054C156.951 97.0802 157.135 95.965 157.443 94.8814C157.495 94.6529 157.572 94.4307 157.672 94.2188C157.752 94.0589 157.843 93.7733 157.889 93.7048C158.026 93.4307 158.049 93.2822 158.14 93.0994C158.257 92.8579 158.49 92.6938 158.757 92.6653C159.021 92.712 159.244 92.8879 159.351 93.1337C159.416 93.2579 159.47 93.388 159.511 93.522C159.591 93.7391 159.717 94.1046 159.819 94.4701L159.991 95.0641L160.242 96.0922L160.687 98.1597C160.881 99.3605 161.346 100.501 162.047 101.495C162.18 101.658 162.325 101.811 162.481 101.952C162.652 102.116 162.86 102.237 163.086 102.306C163.281 102.341 163.481 102.3 163.646 102.192C163.806 102.101 163.932 102.066 164.126 101.941L164.685 101.598L165.348 101.084L165.519 100.958L165.702 100.718L166.056 100.239L166.764 99.2906L167.473 98.3082L168.204 97.4629C168.329 97.3259 168.444 97.1774 168.581 97.0517L168.821 96.789C168.98 96.6405 169.118 96.4692 169.277 96.3321C169.868 95.7421 170.551 95.2521 171.299 94.8814C171.564 94.7605 171.86 94.7285 172.145 94.79C172.425 94.8838 172.672 95.0587 172.853 95.2926C173.14 95.6882 173.267 96.1781 173.207 96.6633C173.151 97.4045 172.982 98.1326 172.704 98.8223C172.096 100.365 171.294 101.823 170.317 103.163C168.717 105.233 166.923 107.145 164.96 108.874C164.537 109.274 164.091 109.628 163.68 110.017C162.127 111.513 161.83 112.141 162.23 113.272C162.303 113.532 162.391 113.787 162.492 114.038C162.892 114.814 164.069 114.712 165.439 113.718C169.683 110.579 173.249 106.616 175.926 102.066C176.495 101.072 176.954 100.019 177.296 98.9251C177.481 98.2822 177.61 97.625 177.685 96.9603C177.715 96.523 177.715 96.0841 177.685 95.6467C177.647 95.1843 177.555 94.728 177.411 94.2874C177.348 94.0657 177.272 93.8483 177.182 93.6363L176.851 93.0309C176.632 92.6218 176.367 92.2387 176.063 91.8886C175.743 91.5916 175.4 91.2946 175.046 91.0204C174.681 90.783 174.3 90.573 173.904 90.3922C172.157 89.8753 170.273 90.1332 168.729 91.1004L168.775 91.2375Z" fill="#1F78D1"/>
<path d="M200.37 63.7196C200.015 63.7196 200.118 64.2108 200.507 64.9762C200.705 65.3272 200.969 65.6373 201.283 65.89C201.513 65.982 201.75 66.0546 201.992 66.107C202.106 66.107 203.465 65.6615 203.968 65.5587C204.419 65.4391 204.847 65.2461 205.236 64.9876C206.035 64.5078 206.869 64.0623 207.692 63.594C207.878 63.4911 208.039 63.3464 208.16 63.1713C208.615 62.5905 209.214 62.1378 209.896 61.8577C210.009 61.7682 210.16 61.7424 210.296 61.7892C211.104 61.6066 211.849 61.2124 212.455 60.6469C212.775 59.9729 213.175 59.4132 213.54 58.7964C213.597 58.7164 213.7 58.705 213.666 58.4994C213.574 58.0425 213.769 57.9739 213.906 57.814C214.114 57.57 214.252 57.2738 214.306 56.9573C214.336 56.7451 214.336 56.5298 214.306 56.3176C214.306 56.1234 213.974 55.8036 213.906 55.7807C213.837 55.7579 213.654 55.4952 213.54 55.3352C213.505 55.2736 213.463 55.2161 213.415 55.1639C213.415 55.1639 212.866 55.0954 212.272 54.9926C211.894 54.9357 211.509 54.9357 211.13 54.9926L210.776 55.1411L210.01 55.438L208.697 55.9064C208.571 55.9064 208.526 56.112 208.446 56.2491C208.366 56.3861 206.755 57.0715 206.698 57.1286C206.424 57.3914 206.024 57.4827 205.933 58.0196C205.933 58.1224 205.841 58.1453 205.773 58.191C205.269 58.5648 204.809 58.9939 204.402 59.4703C204.162 59.6988 203.854 59.8587 203.591 60.0643C203.591 60.0643 203.522 60.1785 203.488 60.2357C203.454 60.2928 203.408 60.3956 203.34 60.4299C202.732 60.9548 202.091 61.4394 201.42 61.8806C201.249 61.9719 200.781 62.8515 200.587 62.9429C200.392 63.0343 200.507 63.7311 200.37 63.7196Z" fill="#1F78D1"/>
<path d="M192.091 55.3925C191.828 55.621 192.262 55.8837 193.084 56.1121C193.46 56.1916 193.844 56.2186 194.227 56.1921C194.467 56.0779 194.695 55.9751 194.866 55.8723C195.038 55.7695 195.563 54.73 195.837 54.3302C196.073 53.9834 196.244 53.5962 196.34 53.1879C196.568 52.3997 196.854 51.623 197.128 50.8119C197.169 50.6237 197.169 50.429 197.128 50.2408C197.053 49.5728 197.176 48.8974 197.482 48.2989C197.482 48.1961 197.482 48.0819 197.722 48.0133C198.179 47.3882 198.438 46.6399 198.465 45.8658C198.236 45.1919 198.122 44.5408 197.951 43.8897C197.951 43.7983 197.951 43.7183 197.836 43.6041C197.593 43.5045 197.458 43.2434 197.516 42.9872C197.492 42.6882 197.389 42.4008 197.22 42.1534C197.088 41.9958 196.938 41.8539 196.774 41.7307C196.566 41.6387 196.335 41.6109 196.111 41.6508C195.94 41.7536 195.723 41.6508 195.529 41.6508H195.323C195.323 41.6508 194.889 41.9592 194.432 42.2448C194.149 42.4309 193.895 42.658 193.678 42.9187C193.678 42.9187 193.621 43.0444 193.541 43.2271L193.21 43.8782C192.97 44.358 192.662 44.8378 192.616 44.952C192.57 45.0662 192.616 45.1919 192.616 45.3175C192.616 45.4432 191.976 46.8825 191.965 46.951C191.965 47.2937 191.725 47.5907 192.022 48.0133C192.057 48.0775 192.057 48.1547 192.022 48.2189C191.882 48.81 191.817 49.4164 191.828 50.0237C191.788 50.3276 191.731 50.629 191.657 50.9262C191.646 50.9866 191.646 51.0485 191.657 51.1089C191.678 51.1835 191.678 51.2628 191.657 51.3374C191.573 52.0818 191.451 52.8215 191.291 53.5534C191.234 53.7248 191.531 54.6157 191.451 54.8099C191.371 55.0041 192.182 55.3125 192.091 55.3925Z" fill="#1F78D1"/>
<path d="M202.529 75.3028C202.187 75.12 201.981 75.6112 201.901 76.4451C201.904 76.8358 201.978 77.2227 202.118 77.5874C202.301 77.793 202.472 77.9986 202.632 78.1471C203.303 78.3571 203.962 78.6011 204.608 78.8781C205.044 79.0754 205.506 79.21 205.979 79.2779C206.916 79.4721 207.852 79.7349 208.823 79.9976C209.046 80.0431 209.275 80.0431 209.497 79.9976C210.263 79.8575 211.051 79.9246 211.782 80.1918C211.919 80.1918 212.056 80.1918 212.147 80.4202C212.95 80.8482 213.842 81.0829 214.752 81.1056C215.529 80.8657 216.294 80.7515 217.036 80.5802C217.139 80.5802 217.242 80.5802 217.368 80.4431C217.642 80.0204 217.859 80.1232 218.087 80.1004C218.428 80.0391 218.758 79.9315 219.07 79.7806C219.255 79.6532 219.421 79.4993 219.561 79.3236C219.709 79.1751 219.664 78.6497 219.629 78.5811C219.595 78.5126 219.629 78.1471 219.629 77.93C219.629 77.713 219.629 77.7587 219.629 77.6902C219.385 77.3916 219.126 77.1056 218.853 76.8334C218.615 76.5096 218.321 76.231 217.985 76.011L217.596 75.8739L216.774 75.5541L215.449 74.9944C215.323 74.9258 215.152 74.9944 215.003 74.9944C214.855 74.9944 213.038 74.2747 212.947 74.2747C212.524 74.2747 212.136 74.012 211.645 74.3318C211.553 74.4004 211.473 74.3318 211.382 74.3318C210.633 74.1657 209.861 74.1195 209.097 74.1948C208.709 74.1948 208.332 74.1376 207.955 74.1262C207.887 74.1262 207.807 74.1262 207.738 74.1948C207.649 74.2256 207.557 74.2486 207.464 74.2633C206.527 74.1833 205.591 74.3661 204.643 74.2633C204.414 74.2633 203.375 74.7202 203.123 74.7088C202.872 74.6974 202.655 75.3713 202.529 75.3028Z" fill="#1F78D1"/>
<path d="M110.072 129.143C110.067 129.086 110.237 129.061 110.345 128.984C110.454 128.907 110.617 128.802 110.565 128.726C110.514 128.65 110.404 128.429 110.176 128.299C110.081 128.253 109.977 128.226 109.872 128.22L109.792 128.226L109.644 128.238C109.435 128.198 109.228 128.146 109.024 128.081C106.088 127.214 103.094 126.554 100.065 126.104C98.7144 125.936 97.353 125.865 95.9918 125.892C94.2635 125.987 92.53 125.911 90.8169 125.664C90.2794 125.535 90.2435 124.655 90.6594 123.694C91.0316 122.625 91.8876 121.796 92.9673 121.458C96.6727 120.767 100.487 120.928 104.121 121.93C105.229 122.2 106.355 122.394 107.49 122.509L109.216 122.737L110.074 122.863C110.399 122.918 110.552 122.963 111.085 123.046C112.073 123.237 113.046 123.492 114 123.81C114.84 124.062 115.641 124.43 116.379 124.903C116.977 125.306 117.487 125.827 117.877 126.434C118.086 126.77 118.174 127.167 118.127 127.56C118.039 127.888 117.879 128.187 117.766 128.494C117.631 128.803 117.458 129.094 117.251 129.36L116.955 129.808C116.866 129.979 116.741 130.13 116.589 130.25C116.119 130.826 115.623 131.358 115.176 131.932C114.73 132.507 114.254 133.152 113.988 133.414C112.459 135.087 111.023 136.843 109.688 138.674C108.753 140.151 107.904 141.681 107.143 143.255C106.961 143.583 106.761 143.901 106.543 144.208C105.682 145.331 105.047 145.416 103.744 144.879C103.448 144.765 103.142 144.663 102.867 144.525C101.931 144.014 101.473 142.923 101.763 141.897C101.945 141.055 102.169 140.222 102.435 139.403C102.776 138.653 103.165 137.923 103.577 137.203C104.44 135.778 105.386 134.405 106.411 133.092C107.168 132.103 107.974 131.145 108.781 130.198L109.4 129.484L109.559 129.322L109.644 129.235C109.707 129.22 109.772 129.215 109.837 129.219L110.072 129.143Z" fill="#27272A"/>
<path d="M61.5149 176.731C61.2485 178.553 61.1809 180.399 61.3133 182.236C61.367 182.983 61.5222 183.718 61.7746 184.422C61.8294 184.546 61.8778 184.672 61.9194 184.8C61.9686 184.873 62.0094 184.95 62.041 185.031C62.1466 185.206 62.4049 185.426 62.572 185.654C63.6104 186.463 64.9332 186.817 66.2371 186.633C67.9888 186.413 69.6751 185.829 71.188 184.919C72.3473 184.251 73.3865 183.393 74.2625 182.381C74.6462 181.937 74.9914 181.461 75.2946 180.958C75.6187 180.426 75.8961 179.867 76.1237 179.287C76.5169 178.406 76.7066 177.446 76.6785 176.481C76.6224 175.665 76.3074 174.887 75.7791 174.261C75.1062 173.484 74.2748 172.858 73.3407 172.428C72.2944 171.948 71.1738 171.65 70.0273 171.547C67.4875 171.343 64.9333 171.676 62.5308 172.524C59.9584 173.398 57.4947 174.564 55.1881 175.999C50.9951 178.607 47.2055 181.813 43.9396 185.516C41.7972 187.805 39.8401 190.261 38.0865 192.86C36.192 195.379 34.5614 198.085 33.2205 200.938C32.4802 202.716 32.0107 202.433 31.7676 200.538C31.5334 197.397 32.1019 194.249 33.4195 191.388C35.0665 188.287 37.0251 185.362 39.2649 182.658C41.5339 179.988 44.0507 177.538 46.7817 175.342C49.5201 173.078 52.4995 171.122 55.6662 169.509C58.9508 167.779 62.5235 166.662 66.2089 166.214C70.7554 165.748 76.081 166.571 79.9468 170.49C80.937 171.544 81.6733 172.81 82.0991 174.192C82.494 175.551 82.608 176.977 82.4341 178.382C82.1856 180.271 81.581 182.097 80.6525 183.761C80.349 184.322 80.0094 184.862 79.6359 185.378C78.006 187.443 75.9816 189.163 73.6805 190.438C71.3636 191.764 68.7819 192.562 66.1206 192.773C64.6754 192.87 63.2243 192.714 61.8325 192.313C61.108 192.088 60.411 191.782 59.7542 191.402L58.7887 190.792C58.484 190.564 58.2107 190.3 57.927 190.047C57.635 189.797 57.364 189.524 57.1168 189.23C56.8608 188.895 56.6049 188.56 56.384 188.234C56.0024 187.598 55.6874 186.924 55.444 186.223C54.9898 184.967 54.6927 183.659 54.5597 182.329C54.2985 179.321 54.5006 176.29 55.1591 173.343C55.7712 170.479 56.6564 167.68 57.8026 164.984C61.3024 156.965 66.62 149.871 73.3348 144.261C75.8783 142.112 78.5416 140.108 81.3121 138.261C84.1141 136.439 87.0503 134.833 90.0954 133.456C91.4181 132.8 92.7508 132.27 94.1281 131.724C95.9074 130.954 97.8262 130.559 99.765 130.563C100.331 130.587 100.889 130.701 101.419 130.901C101.859 131.131 102.268 131.418 102.633 131.755C102.965 132.037 103.362 132.269 103.576 132.504C104.226 133.186 102.488 135.238 99.1038 136.77C93.9763 138.836 89.0465 141.363 84.3747 144.318C82.0884 145.829 79.8934 147.474 77.8013 149.244C75.7135 151.052 73.7558 153.004 71.9428 155.087C69.2911 158.195 67.0359 161.62 65.2293 165.284C63.4319 168.876 62.2349 172.738 61.6857 176.717L61.5149 176.731Z" fill="#27272A"/>
<path d="M132.316 182.519C130.061 186.187 127.829 189.879 125.669 193.63C124.873 194.995 124.232 196.432 123.437 197.785L119.235 204.908C117.905 207.282 116.623 209.727 115.353 212.208C114.237 214.416 113.252 216.707 112.172 218.951C111.528 220.427 110.778 221.856 109.928 223.224C109.05 224.588 108.053 225.871 106.949 227.058C106.248 227.782 105.845 227.331 105.761 226.251C105.626 224.745 105.813 223.228 106.307 221.8C106.604 221.087 106.818 220.328 107.15 219.627L108.1 217.502L109.964 213.17C111.184 210.155 112.604 207.224 114.213 204.397C115.211 202.664 116.184 200.836 117.062 199.126C117.941 197.417 118.831 195.565 119.769 193.796C121.834 189.95 123.959 186.14 126.12 182.329L130.156 175.326C132.233 171.764 134.417 168.346 136.424 164.832C137.207 163.467 137.919 162.078 138.62 160.677C139.32 159.276 140.009 157.887 140.828 156.558C141.184 155.976 141.481 155.371 141.86 154.789C142.323 153.988 142.936 153.282 143.665 152.712C144.172 152.389 144.783 152.27 145.374 152.379C145.653 152.395 145.931 152.431 146.205 152.486C146.621 152.605 146.834 152.985 146.894 153.578C146.949 154.353 146.823 155.129 146.526 155.846C145.577 158.533 144.442 161.151 143.131 163.68C141.765 166.268 140.329 168.785 138.916 171.325C136.792 175.076 134.655 178.851 132.435 182.579L132.316 182.519Z" fill="#27272A"/>
<path d="M145.267 192.847L138.964 203.281C138.204 204.551 137.575 205.893 136.803 207.163C134.109 211.745 131.272 216.185 128.494 220.648C127.307 222.619 126.191 224.708 125.04 226.702C123.702 229.353 122.149 231.89 120.398 234.288C119.816 235.024 119.08 234.489 118.641 233.35C118.087 231.908 118.117 230.307 118.724 228.886C119.353 227.509 120.006 226.144 120.671 224.779C121.015 224.102 121.348 223.414 121.704 222.749L122.891 220.791C124.434 218.195 126.064 215.635 127.782 213.11C128.799 211.583 129.727 209.997 130.559 208.362L131.747 205.881C132.174 205.05 132.613 204.219 133.076 203.4C135.094 199.839 137.124 196.277 139.201 192.716L143.012 186.14C144.911 182.804 146.799 179.457 148.627 176.109C149.327 174.803 149.956 173.474 150.597 172.132C151.211 170.781 151.893 169.462 152.639 168.179C152.971 167.621 153.256 167.052 153.612 166.506C154.954 164.488 155.702 164.06 157.031 164.333C157.337 164.37 157.639 164.434 157.933 164.523C158.859 164.856 159.002 166.126 158.373 167.8C157.465 170.291 156.407 172.725 155.203 175.088C154.016 177.462 152.663 179.836 151.357 182.211C149.434 185.772 147.368 189.333 145.422 192.894L145.267 192.847Z" fill="#27272A"/>
<path d="M163.527 196.087L157.947 205.999C157.259 207.186 156.76 208.492 156.001 209.679C153.508 213.929 150.659 217.846 148.13 221.989C146.943 223.817 146.005 225.729 145.056 227.616C143.88 230.094 142.51 232.475 140.96 234.738C140.45 235.439 139.773 235.023 139.393 234.014C138.844 232.695 138.772 231.226 139.192 229.86C139.666 228.518 140.129 227.177 140.676 225.871C141.222 224.565 141.863 223.319 142.539 222.072C143.828 219.56 145.25 217.119 146.801 214.76C148.653 211.899 150.101 208.73 151.727 205.726C153.532 202.426 155.316 199.098 157.081 195.743L160.333 189.523L165.284 180.026C166.542 177.581 167.527 175.029 168.738 172.571C169.011 172.025 169.272 171.503 169.581 170.981C170.768 169.093 171.551 168.701 172.94 169.01C173.253 169.062 173.562 169.133 173.866 169.224C174.84 169.58 175.053 170.814 174.65 172.405C173.998 174.783 173.156 177.106 172.133 179.349C171.148 181.629 170.139 183.908 168.94 186.116L163.669 196.087H163.527Z" fill="#27272A"/>
<path d="M166.942 213.692L162.883 219.556C162.384 220.269 162.016 221.052 161.518 221.752C159.773 224.269 157.956 226.774 156.413 229.373C155.716 230.527 155.078 231.716 154.502 232.935C153.873 234.541 153.078 236.077 152.128 237.517C151.795 237.944 151.131 237.517 150.632 236.804C150.051 236.021 149.863 235.014 150.122 234.074C151.479 230.74 153.182 227.557 155.202 224.578C156.389 222.809 157.339 220.743 158.431 218.844C159.618 216.755 160.948 214.737 162.265 212.719L164.64 208.991C165.827 207.104 167.121 205.252 168.201 203.305C169.044 201.798 169.649 200.183 170.373 198.64C170.539 198.296 170.658 197.928 170.836 197.595C171.513 196.408 172.023 196.147 173.21 196.539C173.489 196.612 173.762 196.703 174.029 196.812C174.91 197.203 175.332 198.214 174.991 199.115C174.551 200.639 173.975 202.121 173.27 203.543C172.545 204.955 171.714 206.332 170.895 207.697C169.637 209.739 168.284 211.71 166.99 213.728L166.942 213.692Z" fill="#27272A"/>
<path d="M142.907 172.762L154.884 178.899C156.333 179.635 157.852 180.24 159.288 181L166.909 185.06C168.097 185.736 169.485 186.437 170.732 187.161L174.471 189.404C176.663 190.75 178.879 191.972 181.119 193.073C182.543 193.785 184.027 194.355 185.44 195.079L189.749 197.275C190.639 197.738 190.354 198.26 189.321 198.664C187.799 199.212 186.152 199.315 184.573 198.96C183.729 198.764 182.896 198.518 182.08 198.224C181.273 197.916 180.49 197.572 179.706 197.227C178.139 196.539 176.62 195.779 175.136 195.007C172.18 193.44 169.331 191.909 166.518 190.259C163.087 188.241 159.182 186.698 155.514 184.953L143.334 179.029C140.841 177.842 138.34 176.679 135.832 175.539C132.033 173.794 128.235 171.978 124.353 170.554C122.845 169.972 121.338 169.509 119.794 169.046L117.503 168.393L115.248 167.657C114.583 167.432 113.918 167.254 113.254 166.992C112.357 166.716 111.517 166.282 110.773 165.71C110.339 165.284 110.073 164.715 110.025 164.108C109.968 163.83 109.932 163.548 109.918 163.265C109.918 162.826 110.25 162.541 110.82 162.351C111.589 162.114 112.403 162.065 113.194 162.209C116.159 162.556 119.087 163.168 121.943 164.037C124.804 164.939 127.665 165.995 130.502 167.123C134.704 168.809 138.883 170.613 142.954 172.595L142.907 172.762Z" fill="#27272A"/>
<path d="M131.438 183.611L143.63 189.63C145.113 190.366 146.657 190.959 148.14 191.695L163.679 199.566C165.97 200.753 168.356 201.726 170.659 202.806C173.71 204.049 176.666 205.513 179.503 207.187C180.37 207.756 179.907 208.481 178.767 208.932C177.233 209.49 175.552 209.49 174.019 208.932L169.27 207.104C168.487 206.795 167.703 206.486 166.896 206.142L164.617 205.062C161.578 203.614 158.575 202.047 155.619 200.408C152.058 198.474 148.14 197.002 144.401 195.292C140.294 193.393 136.187 191.482 132.091 189.523L128.364 187.778C127.105 187.22 125.835 186.674 124.553 186.152C120.66 184.561 116.719 182.97 112.742 181.665C111.199 181.166 109.632 180.75 108.077 180.371C106.522 179.991 104.955 179.647 103.411 179.184C102.735 179.005 102.058 178.863 101.382 178.673C98.8887 177.925 98.2002 177.415 97.9153 176.121C97.8344 175.833 97.7749 175.539 97.7372 175.242C97.666 174.317 98.9243 173.77 100.966 173.949C107.008 174.34 112.837 176.323 118.654 178.353C122.963 179.92 127.248 181.617 131.486 183.528L131.438 183.611Z" fill="#27272A"/>
<path d="M129.648 204.136C133.102 206.011 136.533 207.887 139.999 209.691C141.269 210.356 142.599 210.878 143.857 211.519L150.505 214.95C152.736 216.066 155.015 217.134 157.318 218.179C159.36 219.093 161.473 219.9 163.551 220.731C166.277 221.702 168.88 222.993 171.302 224.577C172.05 225.111 171.635 225.646 170.637 225.966C169.293 226.364 167.862 226.364 166.518 225.966L162.411 224.755L158.351 223.248C155.645 222.215 152.938 221.111 150.267 219.805C148.665 219.01 146.979 218.357 145.293 217.609C143.608 216.861 141.946 216.173 140.331 215.389C136.77 213.656 133.209 211.828 129.731 210.024C127.558 208.92 125.41 207.792 123.237 206.724C119.937 205.097 116.59 203.447 113.278 202.023C110.678 200.931 107.995 200.183 105.348 199.34C104.755 199.162 104.161 198.984 103.615 198.758C101.49 197.892 100.932 197.31 100.873 196.016C100.85 195.724 100.85 195.43 100.873 195.138C100.956 194.224 102.06 193.82 103.853 194.034C105.158 194.184 106.454 194.406 107.734 194.699C109.004 195.019 110.287 195.375 111.545 195.779C114.108 196.574 116.615 197.541 119.047 198.675C122.68 200.325 126.17 202.177 129.731 203.97L129.648 204.136Z" fill="#27272A"/>
<path d="M133.692 219.152C135.924 220.233 138.179 221.277 140.399 222.417C141.206 222.82 142.061 223.117 142.868 223.544L151.32 228.138C152.578 228.803 153.86 229.397 155.154 229.955C156.83 230.59 158.424 231.423 159.903 232.436C160.354 232.792 159.903 233.445 159.178 233.931C158.351 234.509 157.302 234.667 156.341 234.359C152.952 232.987 149.653 231.401 146.465 229.61C144.477 228.597 142.427 227.708 140.328 226.951C138.048 226.002 135.805 224.957 133.538 223.948C132.137 223.331 130.748 222.761 129.335 222.12C127.199 221.23 125.074 220.28 122.901 219.544C121.216 218.962 119.459 218.642 117.773 218.215C117.393 218.12 117.014 218.06 116.586 217.941C115.197 217.502 114.877 217.039 115.019 215.781C115.033 215.494 115.064 215.209 115.114 214.926C115.344 213.97 116.285 213.363 117.251 213.549C118.884 213.718 120.5 214.024 122.082 214.463C123.673 214.938 125.24 215.508 126.831 216.113C129.205 217.027 131.436 218.048 133.739 219.045L133.692 219.152Z" fill="#27272A"/>
<path d="M110.532 189.891C111.957 187.612 113.369 185.333 114.734 183.03C115.233 182.187 115.625 181.285 116.123 180.454C117.868 177.486 119.684 174.518 121.346 171.539C122.064 170.195 122.706 168.812 123.269 167.396C123.889 165.551 124.684 163.771 125.644 162.078C126.32 161.033 128.718 163.633 127.958 165.817C126.57 169.635 124.775 173.292 122.605 176.726C121.311 178.792 120.231 181.095 119.043 183.267C117.702 185.641 116.301 188.015 114.901 190.295L112.325 194.592C111.043 196.776 109.701 198.925 108.538 201.144C107.636 202.866 106.959 204.706 106.164 206.451C105.997 206.842 105.867 207.234 105.677 207.638C104.988 209.062 104.49 209.371 103.386 209.157C103.13 209.116 102.876 209.06 102.626 208.991C101.807 208.73 101.498 207.804 101.831 206.688C102.962 203.269 104.458 199.981 106.294 196.883C107.612 194.509 109.025 192.194 110.39 189.855L110.532 189.891Z" fill="#27272A"/>
<path d="M228.552 143.43C231.728 145.829 234.096 149.141 235.337 152.923C236.457 156.427 236.72 160.148 236.102 163.775C235.748 166.255 235.061 168.675 234.058 170.971C232.215 174.728 229.76 178.152 226.793 181.103C224.014 183.847 221.093 186.444 218.043 188.882C215.475 190.983 213.07 193.274 210.846 195.736C209.43 197.255 208.288 198.946 207.031 200.602C205.775 202.258 204.609 203.937 203.387 205.685C202.645 206.736 201.777 206.188 201.308 204.657C200.753 202.489 201.051 200.191 202.142 198.237C204.565 194.25 207.554 190.637 211.018 187.511C214.307 184.439 217.654 181.709 220.75 178.864C222.595 177.197 224.191 175.273 225.491 173.153C226.689 171.058 227.618 168.821 228.255 166.493C228.951 164.083 229.134 161.554 228.792 159.068C228.628 157.887 228.302 156.733 227.821 155.641C227.364 154.567 226.743 153.569 225.982 152.683C225.039 151.522 223.917 150.52 222.658 149.713C221.347 148.937 219.92 148.378 218.431 148.057C213.628 147.055 208.625 148.107 204.632 150.958C201.705 153.298 199.581 156.492 198.555 160.096C198.27 160.85 198.201 161.661 197.95 162.381C197.116 165.26 196.568 166.139 194.523 166.665C194.066 166.815 193.6 166.941 193.129 167.042C192.355 167.188 191.569 166.843 191.153 166.173C190.871 165.731 190.656 165.25 190.514 164.746C190.376 164.095 190.299 163.434 190.285 162.769C190.373 158.102 191.87 153.571 194.58 149.77C197.498 145.623 201.61 142.463 206.369 140.712C213.77 137.872 222.091 138.819 228.666 143.248L228.552 143.43Z" fill="#27272A"/>
<path d="M204.265 218.524C204.476 219.097 204.562 219.709 204.517 220.318L204.448 221.254C204.448 221.563 204.311 221.883 204.243 222.191L204.014 223.093C203.87 223.387 203.71 223.673 203.534 223.95C203.231 224.514 202.846 225.03 202.392 225.481C202.084 225.801 201.809 226.166 201.512 226.475C201.215 226.783 200.816 226.943 200.462 227.137C199.22 227.614 197.824 227.461 196.715 226.726C196.475 226.532 196.247 226.303 196.018 226.098C195.79 225.892 195.653 225.595 195.47 225.355C195.228 224.889 195.037 224.399 194.899 223.893C194.656 223.093 194.499 222.27 194.43 221.437C194.211 220.337 194.524 219.198 195.276 218.364C195.527 218.113 196.155 218.593 196.761 219.13C197.366 219.667 198.04 220.181 198.086 220.432C198.131 220.924 198.227 221.41 198.371 221.883C198.497 222.362 198.702 222.751 198.577 223.025C198.57 223.116 198.603 223.205 198.666 223.27C198.729 223.336 198.817 223.371 198.908 223.368C199.078 223.334 199.236 223.255 199.365 223.139C199.753 222.864 200.029 222.459 200.142 221.997C200.308 221.285 199.901 220.565 199.205 220.341C198.997 220.254 198.757 220.32 198.622 220.5C198.36 220.752 198.36 221.311 198.417 221.871C198.432 221.989 198.432 222.108 198.417 222.225C198.246 222.648 197.766 222.659 196.315 222.465L195.333 222.34C194.377 222.308 193.523 221.736 193.128 220.866C193.013 220.579 192.951 220.273 192.945 219.964C192.961 219.645 193 219.329 193.06 219.015C193.212 218.325 193.487 217.667 193.871 217.074C194.123 216.743 194.397 216.43 194.693 216.137C195.019 215.802 195.407 215.534 195.835 215.349C196.281 215.101 196.763 214.924 197.263 214.823C197.739 214.707 198.225 214.638 198.714 214.618C201.478 214.618 203.283 216.468 204.425 218.433L204.265 218.524Z" fill="#27272A"/>
<path d="M49.5093 100.977C49.2846 99.788 49.0446 98.7004 48.8781 97.5085C48.776 96.8864 48.7088 96.2592 48.6767 95.6297C48.7006 95.4715 48.6652 95.2467 48.6603 95.0496L48.7593 94.3945C48.8285 93.9689 48.9457 93.5525 49.1085 93.1533C49.4858 92.1336 50.0911 91.2135 50.8781 90.4632C52.1128 89.4294 53.4902 88.5791 54.9678 87.9388C56.3478 87.2924 57.7542 86.777 59.1493 86.26C60.5444 85.7429 61.5959 85.3588 62.809 84.976C64.3515 84.382 65.964 83.9889 67.6068 83.8062C68.1321 83.77 68.1908 84.2987 67.9207 84.9395C67.5863 85.7305 66.9808 86.3763 66.2131 86.761C64.6975 87.387 63.2283 88.0892 61.7309 88.6717L57.2331 90.3027C55.5364 90.9761 54.0295 92.0531 52.8429 93.4402C52.5863 93.7148 52.3784 94.0311 52.2279 94.3755C52.0919 94.7 52.0385 95.0531 52.0726 95.4033C52.1583 96.4694 52.3067 97.5295 52.5172 98.5781C52.7738 99.9172 53.098 101.242 53.4885 102.549C54.0211 104.538 54.7339 106.475 55.6181 108.335C56.3141 109.67 57.2339 110.875 58.3374 111.899C58.562 112.095 58.803 112.259 59.0005 112.404C59.3956 112.695 59.5446 112.856 59.5844 113.128C59.6278 113.512 59.635 113.9 59.6058 114.286C59.5733 114.501 59.6426 114.731 59.6475 114.928C59.6658 115.303 59.4529 115.651 59.1105 115.805C58.878 115.966 58.5974 116.042 58.3156 116.02C57.9814 116.038 57.647 115.988 57.3329 115.872C55.7294 115.015 54.3923 113.734 53.4678 112.169C52.6018 110.784 51.8832 109.313 51.3237 107.778C50.5048 105.559 49.8407 103.285 49.3365 100.974L49.5093 100.977Z" fill="#27272A"/>
<path d="M90.7386 70.0984C91.0748 72.4317 91.9969 74.6418 93.4188 76.5221C93.7003 76.8766 93.9852 77.2084 94.2831 77.5307C94.581 77.853 94.9568 78.1177 95.3016 78.4355C97.2842 80.6065 100.446 81.627 103.736 82.0202C105.204 82.1454 106.683 82.0251 108.111 81.6644C108.998 81.436 109.865 81.1383 110.706 80.7741C111.512 80.4107 112.364 80.1235 113.178 79.7036C113.674 79.4781 114.168 79.9571 114.225 80.8784C114.266 81.4354 114.158 81.9933 113.912 82.4946C113.644 83.1104 113.186 83.6243 112.604 83.9606C108.4 86.1157 103.508 86.4998 99.0192 85.0275C97.6585 84.562 96.3346 83.9952 95.0587 83.3317C94.3937 82.9752 93.7604 82.5626 93.1656 82.0984C92.6459 81.6387 92.1504 81.171 91.6194 80.7096C89.4687 78.4985 87.8939 75.7931 87.0333 72.8311C86.7685 71.9252 86.5878 70.9969 86.4935 70.0578C86.4375 69.5872 86.4639 69.106 86.4418 68.6406C86.4149 68.1687 86.4285 67.6954 86.4823 67.2258C86.7114 64.3752 87.7525 61.65 89.4824 59.3727C90.7486 57.5849 92.3767 56.0832 94.2609 54.9653C94.6876 54.7409 95.1221 54.5409 95.5098 54.3453C97.2122 53.7823 97.8643 54.0541 98.3889 54.7109C98.5104 54.8553 98.6225 55.0072 98.7245 55.166C98.8472 55.4655 98.7954 55.8083 98.5897 56.0582C98.3273 56.469 97.9707 56.8112 97.5494 57.0563C96.813 57.4188 96.2339 58.1168 95.5914 58.4703C95.2793 58.7004 95.017 58.9843 94.7162 59.2161C94.4129 59.4358 94.1345 59.6882 93.8863 59.9687C93.6352 60.2542 93.3875 60.5172 93.1286 60.7784C92.8696 61.0397 92.7133 61.3858 92.4848 61.6747C92.2564 61.9637 92.2677 61.9654 92.163 62.1228L91.9168 62.6055C91.7735 62.942 91.545 63.231 91.434 63.5839C90.5902 65.6425 90.3731 67.9045 90.8098 70.086L90.7386 70.0984Z" fill="#27272A"/>
<path d="M65.8973 47.4001C65.5648 46.5471 65.177 45.7167 64.7364 44.9142C64.2243 44.0975 63.6897 43.2774 63.0953 42.4713C62.6864 41.8897 62.1006 41.4084 61.6917 40.8268C60.1497 38.7223 58.5166 36.685 56.7751 34.6774C56.0221 33.7848 55.2165 32.9378 54.3626 32.1411C53.2103 31.1768 52.1739 30.0821 51.2741 28.8788C51.0107 28.4809 51.3935 28.0882 52.1337 27.8534C52.9554 27.5899 53.8463 27.6461 54.6284 28.0108C55.9498 28.8227 57.2548 29.6668 58.488 30.604C59.1174 31.0574 59.7098 31.5602 60.2594 32.1077C60.7829 32.6951 61.237 33.2836 61.7633 33.9292C62.8851 35.4503 64.4603 36.6471 65.7693 38.0001C67.2167 39.6038 68.5747 41.2861 69.837 43.0392C70.2216 43.6287 70.5983 44.194 70.9665 44.8157L71.5145 45.7764C71.6977 46.0929 71.843 46.5077 72.0081 46.8676C72.2734 47.5209 72.4341 48.2118 72.4844 48.9151C72.5059 49.4613 72.5047 50.0041 72.4742 50.5886C72.4263 51.8732 72.1021 53.1325 71.5237 54.2805C71.0467 55.2633 70.4269 56.1701 69.6846 56.9716C69.3382 57.3478 68.9719 57.7051 68.5872 58.042C68.2182 58.3368 67.8266 58.6021 67.416 58.8354C67.0835 59.0514 66.7377 59.2461 66.3806 59.4184C65.0489 59.8988 64.5014 59.4695 63.7532 57.6929C63.5836 57.2861 63.3914 56.8758 63.2574 56.4628C62.7757 55.3471 62.8742 54.0657 63.5208 53.0368C64.1181 52.3098 64.6728 51.5489 65.1821 50.7578C65.1802 50.727 65.1848 50.6962 65.1958 50.6674C65.1958 50.6674 65.4864 50.8846 65.3368 50.8043L65.1342 50.6928C65.1342 50.6928 65.1546 50.5572 65.2716 50.471L65.4488 50.1396L65.6351 49.671L65.7882 49.1165L67.5606 49.0839L67.3347 49.0497L67.075 49.0105C66.8993 49.0114 66.7238 49.0235 66.5496 49.0467L66.0514 49.1331C65.9384 49.1161 65.9836 49.1229 65.9836 49.1229C66.0993 49.1981 66.0058 48.9761 66.0211 48.8744C66.0619 48.7427 66.0827 48.6057 66.0826 48.4678C66.0213 48.0793 65.916 47.6991 65.7686 47.3344L65.8973 47.4001Z" fill="#27272A"/>
<path d="M66.9097 47.1369C63.8299 43.2058 60.4975 39.3406 57.0293 35.686C55.7655 34.3398 54.3564 33.1912 53.0563 31.9319C52.4808 31.3829 51.9182 30.8243 51.3263 30.3074L50.8867 29.9291L50.6716 29.7464L50.6028 29.6667L50.3755 29.4128C50.1698 29.2122 49.9457 29.0313 49.7061 28.8727C49.5803 28.7834 49.433 28.7293 49.2793 28.7158C49.1212 28.6919 49.0922 28.884 49.0186 28.9884C48.9451 29.0928 48.7707 29.4823 48.6343 29.7736C48.5574 29.9111 48.4966 30.057 48.4531 30.2084C48.3341 30.537 48.2015 30.9559 48.0792 31.3071C47.5805 32.8491 47.1123 34.4189 46.6537 36.0016C45.8606 38.8046 45.2527 41.6817 44.6255 44.5329C44.2198 46.3777 43.8722 48.2198 43.3658 50.1188C43.102 51.0486 42.779 51.9607 42.3988 52.8493C42.1916 53.3032 41.9974 53.7475 41.7676 54.198C41.5378 54.6485 41.2854 55.0956 40.9602 55.5663C40.0004 56.7961 39.5218 55.8342 39.0582 54.6205C38.3463 52.9901 38.0594 51.2059 38.2243 49.4345C38.9528 45.8362 39.6661 42.1085 40.4828 38.3849C40.905 36.5079 41.348 34.6456 41.864 32.7596C42.109 31.8262 42.3895 30.8866 42.6831 29.9374L43.2067 28.3068C43.4098 27.4823 43.6673 26.6721 43.9774 25.8816L44.5724 24.6199L44.8651 23.9825C44.9669 23.7668 45.1274 23.6987 45.253 23.5559C45.8144 23.0515 46.1703 22.3775 47.1036 22.2412C48.8524 22.1173 50.5861 22.6381 51.9771 23.7053C52.3903 23.9525 52.7966 24.245 53.2047 24.5261L54.2403 25.3179L55.7816 26.5096C56.7529 27.2687 57.6869 28.0451 58.5818 28.8504C62.5065 32.3892 66.1564 36.1406 69.6973 40.0026C70.7895 41.1843 71.8654 42.3981 72.9265 43.6328L73.709 44.5712C73.8579 44.7323 73.9521 44.8736 74.1219 45.0495L74.6866 45.747C75.4505 46.6148 76.1168 47.5639 76.6735 48.5772C76.7958 48.8383 76.8972 49.0846 76.9969 49.3423C77.1341 49.6857 77.2004 50.0533 77.1918 50.423C77.2036 50.8092 77.1259 51.1929 76.9647 51.544C76.6355 52.2673 76.18 52.9262 75.6195 53.4895C75.0561 54.0862 74.4402 54.6311 73.7793 55.1177L72.7686 55.843L71.9389 56.3646C69.8573 57.5991 67.7064 58.7129 65.497 59.7005C62.0255 61.4513 58.4059 62.8916 54.6806 64.0045C53.8387 64.2239 53.0127 64.4919 52.1246 64.635C51.4304 64.7503 50.7268 64.7987 50.0233 64.7796C49.5132 64.7435 49.0156 64.6054 48.5597 64.3737C47.795 63.9806 47.2362 63.2775 47.026 62.4438C46.8653 62.0506 46.7372 61.6449 46.6432 61.2307C46.504 59.858 47.7048 58.7917 49.5357 57.9131C52.3687 56.9779 55.2325 55.8393 58.1245 54.5896C59.5514 53.9387 61.0098 53.385 62.4558 52.7601C63.9019 52.1352 65.3079 51.4697 66.6495 50.7712C67.2028 50.4736 67.7465 50.1629 68.2546 49.8585C68.7627 49.554 68.493 49.7328 68.519 49.7136C68.5497 49.7317 68.5861 49.7372 68.6207 49.7289C68.6364 49.6935 68.6423 49.6545 68.6378 49.616L68.5419 49.486L68.3196 49.1982L67.8159 48.5561L66.7893 47.2457L66.9097 47.1369Z" fill="#27272A"/>
<path d="M97.809 87.6173C92.0294 85.973 87.2488 81.8994 84.7083 76.4539C83.7237 74.5331 83.0952 72.4498 82.853 70.305C82.6671 68.3903 82.8299 66.4578 83.3334 64.6013C83.806 62.7665 84.5964 61.0287 85.6687 59.4666C86.6765 57.9176 87.9338 56.5461 89.3895 55.4077C90.7731 54.2822 92.3014 53.3474 93.9336 52.6285C96.7016 51.3236 99.6824 50.5294 102.733 50.284C104.752 50.0844 106.79 50.2864 108.731 50.8783C110.775 51.5092 112.499 52.8982 113.551 54.7603C114.172 55.9284 113.348 56.1044 112.105 55.9974C111.384 55.9276 110.66 55.8953 109.936 55.9008C109.202 55.9041 108.468 55.8512 107.742 55.7427C106.38 55.4943 104.984 55.5028 103.626 55.7677C102.178 56.0226 100.733 56.486 99.2498 56.8973C98.5114 57.1208 97.7887 57.3928 97.0886 57.6683C96.4177 57.9573 95.7631 58.2826 95.1276 58.6428C93.8529 59.3654 92.6754 60.2473 91.6235 61.2673C90.3323 62.504 89.4431 64.1005 89.0713 65.8493C88.7007 67.6074 88.738 69.427 89.1804 71.1684C89.4202 72.1681 89.761 73.1408 90.1975 74.0716C90.6445 74.983 91.193 75.8409 91.8328 76.6291C93.1557 78.2865 94.8249 79.6348 96.7235 80.5795C97.9127 81.1796 99.1718 81.6298 100.472 81.9198C101.795 82.1986 103.147 82.3136 104.498 82.2624C106.484 82.2338 108.435 81.7369 110.193 80.8122C111.916 79.8448 113.333 78.4139 114.283 76.6819C115.683 73.964 116.07 70.836 115.373 67.8588C115.223 67.2469 115.058 66.656 114.886 66.1102C114.63 65.3971 114.494 64.6465 114.483 63.8888C114.613 63.2132 114.875 62.5698 115.254 61.9952C115.455 61.656 115.596 61.2613 115.797 60.9221C116.151 60.3391 116.863 60.0812 117.508 60.3025C118.619 60.5971 119.572 61.3128 120.164 62.298C120.743 63.1546 121.221 64.0758 121.586 65.0429C121.951 65.9831 122.191 66.9669 122.3 67.9694C122.614 69.9883 122.576 72.0463 122.189 74.0525C121.378 78.3021 119.081 82.1241 115.708 84.8339C113.132 86.8808 110.027 88.1544 106.755 88.5066C105.241 88.6888 103.712 88.7095 102.194 88.5685C100.698 88.4595 99.2156 88.2085 97.767 87.8189L97.809 87.6173Z" fill="#27272A"/>
<path d="M46.3026 102.26C45.6273 100.46 45.0186 98.6002 44.4518 96.7701L44.2159 95.9604C44.1045 95.5508 43.9818 95.1395 43.8783 94.7542C43.7748 94.3689 43.7041 93.9192 43.6197 93.5599C43.5354 93.2006 43.297 92.714 43.3273 92.3604C43.1793 91.5906 43.2997 90.7933 43.6685 90.1015C43.8565 89.7839 44.0908 89.4961 44.3636 89.2476C44.663 89.0052 44.9749 88.7785 45.298 88.5686C45.8071 88.3336 46.2971 88.0726 46.8254 87.8636L47.6018 87.5419L48.2403 87.2918L50.1067 86.6379C51.8949 86.0417 53.6065 85.3414 55.3795 84.8467C58.5253 83.9819 61.6897 83.2238 64.9596 82.6087C66.5776 82.2987 68.1911 81.9417 69.906 81.8311L70.5607 81.7798C70.8583 81.7515 71.1571 81.7388 71.456 81.7418C72.0612 81.7018 72.669 81.7354 73.2661 81.8419C73.5519 81.8765 73.8324 81.946 74.1013 82.049C74.3847 82.1354 74.6498 82.2733 74.8832 82.4559C75.3404 82.8179 75.7203 83.2682 76.0001 83.7799L76.366 84.4936L76.6572 85.2423L76.9111 86.0085L77.1058 86.708C77.3067 87.443 77.4737 88.1729 77.6311 88.8899C77.9459 90.3237 78.2302 91.7299 78.5067 93.1117C79.3272 96.5256 79.927 99.9888 80.3022 103.48C80.3776 103.878 80.1634 104.275 79.7889 104.43C79.2417 104.647 78.6285 104.622 78.1012 104.36C77.2524 104.018 76.4809 103.508 75.8322 102.862C75.4657 102.491 75.1402 102.082 74.8614 101.641C74.5998 101.179 74.4026 100.683 74.2755 100.166C73.3988 96.4874 72.7836 92.8363 72.0268 89.5104L71.7343 88.311L71.6853 88.1765L71.7195 87.9506C71.7314 87.8715 71.757 87.7021 71.6639 87.6303C71.6173 87.5872 71.5642 87.5519 71.5064 87.5256L71.3822 87.5069L70.784 87.5667L68.133 87.7554C63.8624 88.2655 59.519 89.7927 55.2888 91.106C54.1842 91.459 53.0796 91.812 51.9941 92.191L50.3838 92.7564L49.6758 93.0076L49.308 93.1484C49.1622 93.1957 49.1818 93.372 49.1777 93.4753C49.1915 93.7357 49.2218 93.9949 49.2684 94.2515L49.3572 94.6577L49.5828 95.5351C49.746 96.1374 49.9204 96.7413 50.1028 97.3696C50.5339 98.798 51.0103 100.233 51.5239 101.651C52.0376 103.068 52.671 104.458 53.2818 105.844C54.0231 107.495 54.852 109.105 55.7648 110.667C56.1492 111.314 56.5765 111.934 57.0439 112.524C57.3541 112.917 57.84 113.372 58.396 113.132C58.5203 113.151 58.6469 113.078 58.7762 113.063L58.9689 113.011L59.283 112.92L60.5622 112.559C63.9663 111.513 67.2523 110.103 70.7858 109.043C71.5503 108.8 72.3277 108.548 73.1983 108.368C76.2491 107.673 77.5307 108.214 78.1447 109.808C78.3078 110.126 78.4315 110.463 78.513 110.811C78.5787 111.408 78.3469 111.999 77.8929 112.393C77.6362 112.64 77.3515 112.857 77.0444 113.038C76.6533 113.251 76.2402 113.421 75.8126 113.545C73.383 114.334 70.6968 115.291 67.9644 116.172C66.6021 116.625 65.2138 117.097 63.768 117.491L61.5629 118.093L60.3652 118.374C60.2974 118.364 60.0613 118.398 59.8929 118.442L59.3443 118.555L58.2489 118.771C56.8535 118.89 55.4671 118.456 54.3879 117.564C53.9022 117.185 53.4598 116.754 53.0687 116.279C52.8752 116.03 52.667 115.802 52.4865 115.544C52.3486 115.371 52.2217 115.19 52.1064 115.001C51.6705 114.369 51.3057 113.725 50.9533 113.152C50.2768 111.894 49.6917 110.72 49.1909 109.524C48.69 108.327 48.1655 107.058 47.6821 105.899L46.9858 104.084L46.2523 102.287L46.3026 102.26Z" fill="#27272A"/>
</svg>
