<svg width="265" height="265" viewBox="0 0 265 265" fill="none" xmlns="http://www.w3.org/2000/svg">
<path d="M99.9299 97.1049C101.68 93.3587 103.371 89.5303 104.968 85.6784C105.543 84.2692 105.954 82.8012 106.53 81.392C108.597 76.4245 110.663 71.457 112.495 66.3955C113.341 64.1642 113.893 61.8273 114.586 59.5842C114.973 58.128 115.373 56.6601 115.76 55.2039C115.96 54.4758 116.183 53.7594 116.418 53.0431C116.709 52.3344 117.05 51.6475 117.44 50.988C117.921 50.1542 118.614 50.3655 119.424 51.352C119.936 51.9773 120.38 52.6543 120.751 53.3719C121.102 54.1933 121.216 55.0963 121.08 55.979C120.833 57.5643 120.54 59.1262 120.211 60.6764C120.047 61.4632 119.882 62.2265 119.683 63.0251L118.943 65.2799C117.93 68.2854 116.753 71.2334 115.42 74.111C113.834 77.5636 112.86 81.3803 111.497 85.009C110.006 88.9901 108.409 92.9359 106.8 96.8583C105.778 99.2774 104.71 101.685 103.617 104.092C102.995 105.478 102.337 106.852 101.609 108.238C101.257 108.919 100.865 109.612 100.435 110.316C100.212 110.669 100.024 111.009 99.7303 111.397C99.4231 111.827 99.0685 112.221 98.6733 112.571C97.8551 113.233 96.9919 113.838 96.0897 114.38C93.2616 116.502 90.028 118.02 86.5892 118.842C86.203 118.937 85.8105 119.003 85.4149 119.042C85.0267 119.104 84.6333 119.127 84.2405 119.112C83.1405 119.199 82.0478 118.872 81.1754 118.196C80.58 117.468 80.3429 116.511 80.5295 115.589C80.5444 115.038 80.5954 114.489 80.6822 113.945C80.9646 112.34 82.2151 111.08 83.8177 110.786C84.8159 110.669 85.7437 110.363 86.6362 110.269C87.5287 110.175 88.4329 110.093 89.3372 109.929C90.2797 109.762 91.2096 109.53 92.1204 109.236C92.5953 109.088 93.0405 108.857 93.4357 108.555L94.0581 108.132L94.3517 107.897L94.5044 107.78C94.5044 107.78 94.5044 107.78 94.5748 107.78C94.6453 107.78 94.5161 107.85 94.6453 107.651C95.1149 106.936 95.5423 106.195 95.9253 105.431C96.3833 104.586 96.8296 103.681 97.2758 102.765C98.1566 100.933 99.0256 99.0426 99.8477 97.1284L99.9299 97.1049Z" fill="#27272A"/>
<path d="M37.5864 82.9655C39.3597 78.9727 41.1917 75.0152 43.1411 71.1045C43.834 69.6718 44.4329 68.1804 45.1845 66.7712C46.4763 64.2698 47.8855 61.8037 49.3887 59.361C49.7762 58.7621 50.1873 58.1866 50.5631 57.5525L51.1737 56.6482L51.8666 55.7557C52.3264 55.1238 52.8328 54.5272 53.3815 53.9707L54.2623 53.0782C54.6263 52.7964 55.0256 52.5145 55.4366 52.2561C58.0209 50.9664 60.8885 50.3484 63.7746 50.4594C67.2776 50.2334 70.7371 51.3362 73.463 53.5479C74.3907 54.4639 73.6039 54.8515 72.5118 55.286C71.1306 55.9523 69.6647 56.4265 68.1549 56.6952L67.0862 56.7774C66.7408 56.8412 66.3865 56.8412 66.0411 56.7774C65.3599 56.707 64.6788 56.6365 64.0094 56.6247C62.765 56.5558 61.5167 56.6227 60.2867 56.8244C60.0319 56.8573 59.7804 56.9123 59.5351 56.9888C59.3003 57.0593 59.0654 57.0945 58.901 57.165L58.6191 57.2472L58.4195 57.3294C58.3021 57.3294 58.0789 57.5525 57.8676 57.7169C57.6562 57.8813 57.433 58.0457 57.1982 58.2688L56.4818 59.0439C55.9473 59.5811 55.4454 60.1497 54.9786 60.7467C54.3691 61.4515 53.8192 62.2057 53.3345 63.0015C52.8296 63.8118 52.3246 64.6221 51.8901 65.4911C50.9976 67.1705 50.1403 68.9437 49.2948 70.6935C47.4275 74.5337 45.5721 78.4208 43.881 82.4371C42.8123 84.7858 41.7906 87.2637 40.8864 89.7416C39.4419 93.4878 37.9622 97.2574 36.8583 101.086C36.083 104.057 35.4676 107.068 35.0146 110.105C34.8972 110.763 34.8267 111.42 34.6858 112.078C34.5934 112.595 34.4638 113.106 34.2982 113.604C34.139 113.956 33.9205 114.278 33.6524 114.556C33.1741 115.023 32.5459 115.306 31.8791 115.354C31.5456 115.422 31.2083 115.469 30.8691 115.495C29.8122 115.495 29.1193 114.321 28.9667 112.289C29.495 106.467 30.7821 100.738 32.7951 95.2493C34.2043 91.0921 35.8367 87.0288 37.4925 82.9186L37.5864 82.9655Z" fill="#27272A"/>
<path d="M32.7437 93.2061C35.0924 86.9116 37.6173 80.6993 39.919 74.4165C40.7528 72.1382 41.3282 69.7895 42.1503 67.5113C43.0898 64.9159 44.0058 62.3089 44.8513 59.7135C45.2741 58.4217 45.6734 57.1182 45.9669 55.8147L46.4015 53.8887V53.6421C46.4015 53.5717 46.4015 53.4894 46.4602 53.3133C46.482 53.0293 46.5212 52.7469 46.5776 52.4678C46.6309 52.1845 46.6662 51.8982 46.6833 51.6105V50.7297C46.7818 49.6055 47.0801 48.5079 47.5641 47.4885C47.7436 47.0784 47.9597 46.6853 48.21 46.3141C48.541 45.9092 48.9811 45.6076 49.4783 45.4451C50.457 45.1192 51.4918 44.9953 52.5198 45.0811C53.0483 45.0811 53.6355 45.1985 54.1992 45.2572C54.7629 45.3159 55.3735 45.6448 55.9372 45.8796C57.3699 46.5138 58.8379 46.9013 59.5895 47.1832L62.314 48.0639C64.1225 48.6159 65.9192 49.1091 67.6925 49.5319C69.9825 50.0956 72.2842 50.3187 74.5038 50.7062C76.6671 51.0766 78.8644 51.2105 81.0567 51.1055C82.3367 50.9881 82.7595 51.9628 81.8435 53.6069C81.2065 54.6238 80.3472 55.483 79.3304 56.12C78.049 57.0046 76.5759 57.5721 75.0322 57.7758C73.6867 57.9178 72.3326 57.961 70.9807 57.905C69.6654 57.7876 68.3619 57.6349 67.1053 57.4353C64.557 57.0477 62.1143 56.4958 59.7539 55.8969L58.0041 55.4271L57.1351 55.204L56.7123 55.0866L56.3835 54.9926L56.2426 54.8987L56.1604 54.8165C56.1063 54.7492 56.0431 54.6899 55.9725 54.6403C55.7988 54.4718 55.5773 54.3611 55.3383 54.3232C55.1769 54.4246 55.0404 54.5611 54.939 54.7225C54.8608 54.7856 54.7934 54.861 54.7394 54.9456V55.0044C54.7394 55.0044 54.7394 55.0044 54.6807 55.1335L54.481 55.7207L54.0935 56.8951C53.8469 57.6467 53.5885 58.41 53.3302 59.1733C52.9074 60.6882 52.4729 62.2032 52.0384 63.7298C51.1928 66.7597 50.3355 69.7778 49.3256 72.7019C47.1061 79.1491 44.6869 85.4789 42.2795 91.7969C40.8233 95.6958 39.3553 99.5712 38.0048 103.47C36.9949 106.418 35.9732 109.342 35.1394 112.313L34.8928 113.205L34.7166 113.851C34.6136 114.289 34.5352 114.732 34.4818 115.178C34.4466 115.4 34.4466 115.626 34.4818 115.848C34.5197 116.075 34.7099 116.245 34.9398 116.259C35.3807 116.347 35.8289 116.394 36.2785 116.4H37.3707H38.545L42.1973 116.27C44.71 116.142 47.2285 116.178 49.7366 116.376C50.9234 116.449 52.102 116.622 53.2597 116.893C54.2638 117.152 55.2279 117.547 56.1251 118.067C56.4976 118.285 56.8376 118.554 57.1351 118.866C57.4093 119.12 57.65 119.408 57.8514 119.723C58.5538 120.615 58.6555 121.84 58.1098 122.835C57.9077 123.232 57.6419 123.593 57.323 123.904C56.7464 124.22 56.0815 124.335 55.4323 124.233C54.6479 124.249 53.8633 124.214 53.0835 124.127C51.346 123.749 49.5765 123.537 47.7989 123.493C45.826 123.411 43.7474 123.399 41.5866 123.399H38.2632H36.854H35.2216C34.627 123.373 34.0314 123.42 33.4483 123.54C32.8852 123.633 32.3087 123.605 31.7572 123.458C31.217 123.387 30.7356 123.258 30.2188 123.164C29.7021 123.07 29.4203 122.729 29.0445 122.553C28.6107 122.341 28.2417 122.017 27.9758 121.614C27.8452 121.481 27.7236 121.34 27.6118 121.191L27.5178 121.062C27.6118 120.98 27.5178 121.062 27.5178 120.991V120.921L27.2712 120.651C26.9952 120.277 26.792 119.855 26.6723 119.406C26.5901 119.183 26.4844 118.983 26.4257 118.76L26.3317 118.044C26.1443 117.547 26.0334 117.024 26.0029 116.494C26.0029 115.977 26.0029 115.448 26.0029 114.92C25.9878 114.524 26.0314 114.129 26.1321 113.746C26.2025 113.339 26.2848 112.947 26.3787 112.571C26.5431 111.796 26.8015 110.774 26.8719 110.493C27.1068 109.612 27.3534 108.743 27.6 107.897C28.105 106.206 28.6452 104.55 29.1972 102.918C30.301 99.6416 31.4519 96.4356 32.5793 93.2296L32.7437 93.2061Z" fill="#27272A"/>
<path d="M100.94 95.5428C103.476 88.943 105.919 82.2961 108.162 75.5788C108.984 73.1361 109.501 70.6113 110.346 68.1804C111.791 63.894 113.212 59.5841 114.351 55.2624C114.644 54.1938 114.915 53.1251 115.138 52.0682C115.255 51.5397 115.361 51.023 115.455 50.5063L115.607 49.6843C115.745 49.1909 115.682 48.6631 115.431 48.2163C115.054 47.8601 114.563 47.648 114.046 47.6174C113.808 47.5811 113.569 47.5576 113.329 47.5469H111.979C111.004 47.5469 109.994 47.5469 108.972 47.6291C106.917 47.6996 104.815 47.7935 102.666 47.7348C99.7964 47.7576 96.9405 47.3377 94.1989 46.49C92.7837 45.981 91.4444 45.2817 90.2178 44.4114C88.9827 43.5133 87.9036 42.4183 87.0236 41.1702C85.9784 39.5496 87.4698 38.9741 89.4662 38.8215C90.4644 38.7628 91.6271 38.7275 92.731 38.7393C93.8282 38.6854 94.9275 38.7882 95.9957 39.0446C98.0584 39.6004 100.178 39.9157 102.314 39.9841C104.662 40.078 107.082 39.9841 109.759 39.8901H111.826C112.578 39.8901 113 39.8901 114.562 39.9489C116.986 39.9002 119.344 40.735 121.197 42.2976C124.85 45.3157 123.041 52.1856 122.63 53.9237C121.82 57.2236 121.068 60.4531 120.281 63.7061C119.495 66.959 118.802 70.2002 117.933 73.371C115.819 80.2645 113.505 87.1344 111.121 93.934C109.653 98.1264 108.115 102.307 106.588 106.476C105.672 109.001 104.709 111.514 103.699 114.039L102.819 116.247C102.455 117.139 102.079 118.008 101.644 118.866C101.275 119.668 100.814 120.424 100.27 121.12L99.4365 121.942C99.1738 122.259 98.7904 122.45 98.3796 122.471C97.5576 122.389 96.7355 122.259 95.8782 122.154C95.0209 122.048 94.0697 121.59 93.1537 121.273C92.7075 121.132 92.2847 120.979 91.815 120.85L90.8872 120.615C90.3 120.474 89.7129 120.357 89.1257 120.24C87.9602 120.053 86.7828 119.951 85.6026 119.934C83.1952 119.934 80.8465 119.934 78.4743 120.181C77.4291 120.181 76.4074 120.498 75.3622 120.545C73.97 120.803 72.5361 120.722 71.1815 120.31C70.1605 119.757 69.3757 118.851 68.9737 117.762C68.6687 117.202 68.3943 116.625 68.1517 116.035C67.8151 115.065 68.0259 113.989 68.7036 113.217C69.6 112.124 70.843 111.37 72.2267 111.08C74.4236 110.495 76.6673 110.102 78.9323 109.905C80.1066 109.823 81.281 109.729 82.4553 109.753H84.2404L86.0136 109.964C88.3623 110.304 90.7111 110.88 93.142 111.455C93.4356 111.526 93.7292 111.62 94.0227 111.702C94.2023 111.768 94.3869 111.819 94.5747 111.855C94.5747 111.855 94.5747 111.937 94.6569 111.655L95.1384 110.481L97.0526 105.572C98.3091 102.26 99.554 98.925 100.74 95.5663L100.94 95.5428Z" fill="#27272A"/>
<path d="M40.0615 175.025C40.621 174.553 41.0399 173.937 41.2723 173.243C41.3241 172.964 41.3584 172.681 41.3751 172.398C41.4734 171.846 41.4734 171.282 41.3751 170.73C41.282 170.113 41.1012 169.513 40.8383 168.948C40.6141 168.471 40.2769 168.055 39.8559 167.737C39.3737 167.468 38.8781 167.224 38.3709 167.006C38.1556 166.559 38.1556 166.037 38.3709 165.59C38.565 164.847 39.2759 164.36 40.0387 164.447C41.1842 164.753 42.2062 165.408 42.9629 166.321C43.6147 167.086 44.0869 167.988 44.3451 168.959C44.7794 170.125 45.0821 171.336 45.2475 172.569C45.2976 173.975 44.9661 175.369 44.288 176.601C43.8667 177.373 43.3228 178.072 42.6773 178.669C41.6748 179.541 40.4687 180.146 39.1705 180.428C38.6793 180.542 38.1996 180.714 37.697 180.805C37.1986 180.948 36.6844 181.028 36.1663 181.045C35.9434 181.085 35.7152 181.085 35.4923 181.045C34.7156 180.816 34.5785 180.394 34.8641 179.206C34.9212 178.932 34.9783 178.657 35.0583 178.395C35.2463 177.671 35.683 177.036 36.2919 176.601L36.7603 176.361C36.8768 176.268 37.0081 176.195 37.1487 176.144C37.2629 176.144 37.3771 176.076 37.4914 176.042L37.7769 175.927C38.1539 175.836 38.3938 175.722 38.6793 175.676C39.1596 175.58 39.603 175.35 39.9587 175.014L40.0615 175.025Z" fill="#27272A"/>
<path d="M65.5325 175.756C65.7345 176.01 65.9732 176.234 66.2407 176.418C66.5166 176.633 66.8201 176.81 67.1431 176.944C67.3937 177.022 67.6494 177.083 67.9084 177.126C68.8524 177.557 69.8889 177.746 70.9241 177.675C71.1699 177.661 71.4124 177.611 71.6437 177.526C71.8714 177.482 72.0936 177.413 72.3063 177.321C72.5902 177.232 72.8541 177.088 73.083 176.898C73.3171 176.719 73.5282 176.512 73.7113 176.281C73.8483 176.144 73.9397 176.19 73.9854 176.407C74.0052 176.555 74.0052 176.704 73.9854 176.852C73.9922 177.062 73.9277 177.267 73.8027 177.435C73.5856 177.743 73.3914 178.12 73.1287 178.429C72.8999 178.766 72.6092 179.057 72.272 179.285C71.9426 179.501 71.5851 179.67 71.2097 179.788C70.8442 179.93 70.4588 180.015 70.0674 180.039C69.6105 180.039 69.1535 180.154 68.6852 180.245C68.2164 180.325 67.7375 180.325 67.2688 180.245C66.7475 180.177 66.232 180.07 65.7267 179.925C65.2248 179.746 64.7329 179.54 64.2531 179.308L63.4078 178.794C63.1337 178.611 62.8938 178.372 62.6311 178.166C61.9308 177.457 61.3381 176.648 60.8719 175.767C60.6435 175.447 60.4721 175.127 60.2665 174.796C60.0289 174.484 59.833 174.142 59.684 173.78C59.6225 173.624 59.5728 173.463 59.5355 173.3C59.4555 172.683 59.7068 172.455 60.6778 172.272L61.2946 172.146C61.8701 172.052 62.4599 172.174 62.9509 172.489C63.6162 173.026 64.1776 173.68 64.6072 174.419C64.9499 174.773 65.2126 175.185 65.6353 175.562L65.5325 175.756Z" fill="#27272A"/>
<path d="M40.7232 199.378C41.1141 198.88 41.3593 198.283 41.4314 197.653C41.4999 197.413 41.3628 197.151 41.4314 196.899C41.5019 195.869 41.3779 194.834 41.0658 193.849C40.9216 193.441 40.7175 193.056 40.4604 192.707C40.3383 192.525 40.1923 192.36 40.0264 192.216C39.9121 192.147 39.855 192.01 39.6037 192.056C39.3524 192.102 39.261 191.873 39.2724 191.519C39.2757 191.282 39.3795 191.058 39.558 190.902C39.8159 190.655 40.1799 190.552 40.529 190.628C41.4568 190.864 42.2437 191.477 42.6993 192.319C43.0637 192.954 43.3222 193.645 43.4646 194.364C43.7275 195.209 43.9299 196.071 44.0701 196.945C44.0971 198.015 43.8577 199.075 43.3733 200.029C43.0705 200.604 42.6857 201.131 42.231 201.594C41.5606 202.253 40.7894 202.801 39.9464 203.216C39.3446 203.585 38.723 203.921 38.0845 204.221C37.936 204.279 37.7989 204.37 37.6504 204.416C37.0792 204.553 36.8622 204.416 36.6794 203.707C36.6794 203.559 36.5881 203.399 36.5538 203.239C36.418 202.801 36.5575 202.324 36.9079 202.028C37.7989 201.423 38.6213 201.034 39.3296 200.543C39.8444 200.226 40.2847 199.801 40.6203 199.298L40.7232 199.378Z" fill="#27272A"/>
<path d="M70.1661 198.087C70.5258 197.709 70.7402 197.215 70.7715 196.694C70.7715 196.477 70.6687 196.271 70.6801 196.043C70.6915 195.814 70.6801 195.609 70.6801 195.391C70.663 195.169 70.6169 194.951 70.543 194.74C70.3945 194.272 70.2118 193.792 70.0176 193.313C69.8313 192.943 69.5661 192.62 69.2408 192.364C69.0827 192.257 68.9143 192.165 68.7382 192.09C68.6885 192.062 68.6425 192.027 68.6011 191.987C68.5273 191.961 68.4549 191.93 68.3841 191.896C68.1314 191.465 68.0196 190.966 68.0643 190.468C68.0859 190.082 68.2255 189.711 68.4641 189.406C68.702 189.074 69.1204 188.924 69.515 189.029C70.5403 189.218 71.4865 189.707 72.2336 190.434C72.8466 190.965 73.2912 191.664 73.513 192.444C73.6757 192.916 73.8743 193.374 74.107 193.815C74.8847 195.312 75.0486 197.054 74.5639 198.67C74.3695 199.353 74.0605 199.998 73.6501 200.577C73.033 201.358 72.319 202.056 71.5254 202.656C71.0117 203.173 70.4407 203.629 69.8234 204.016C69.693 204.107 69.5554 204.187 69.4122 204.256C68.8524 204.473 68.5669 204.256 68.2013 203.582C68.1127 203.442 68.0326 203.297 67.9615 203.148C67.8445 202.918 67.7857 202.663 67.7901 202.405C67.7778 202.161 67.8249 201.918 67.9272 201.697C68.2242 201.149 68.4641 200.623 68.6697 200.166C68.8753 199.709 69.1609 199.469 69.3436 199.161C69.6302 198.812 69.872 198.428 70.0633 198.019L70.1661 198.087Z" fill="#27272A"/>
<path d="M41.9491 226.782C42.282 226.273 42.4787 225.687 42.5202 225.08C42.5202 224.828 42.5202 224.566 42.5202 224.303C42.562 223.313 42.4147 222.325 42.0862 221.39C41.9129 220.995 41.7106 220.613 41.4807 220.248C41.1609 219.768 40.8068 219.323 40.5098 218.797C40.4184 218.637 40.5669 218.42 40.8868 218.272C41.285 218.105 41.7336 218.105 42.1318 218.272C42.8065 218.623 43.4167 219.087 43.9367 219.642C44.3162 220.293 44.5682 221.01 44.6792 221.756C44.8048 222.635 45.1589 223.458 45.2389 224.36C45.3368 225.382 45.2041 226.412 44.8505 227.376C44.6121 228 44.264 228.576 43.8224 229.078C43.156 229.732 42.3836 230.269 41.5379 230.666C40.9324 230.974 40.3956 231.385 39.8016 231.694C39.6771 231.775 39.5474 231.847 39.4132 231.911C38.922 232.105 38.7164 231.911 38.408 231.214L38.2024 230.7C37.9849 230.243 38.0565 229.702 38.3851 229.318C39.1343 228.695 39.9459 228.151 40.8068 227.696C41.2418 227.479 41.6121 227.152 41.8805 226.747L41.9491 226.782Z" fill="#27272A"/>
<path d="M68.4806 217.621C69.6523 217.684 70.7816 218.08 71.7361 218.763C72.045 218.928 72.3393 219.119 72.6156 219.334C73.3388 220.117 73.9605 220.989 74.4661 221.927C74.6822 222.325 74.9265 222.706 75.1972 223.069C75.5796 223.48 75.8129 224.007 75.8597 224.566C75.8597 224.76 75.4371 224.988 74.9231 225.148C74.4901 225.343 74.0107 225.41 73.5409 225.342C73.1465 225.129 72.765 224.893 72.3986 224.634C72.0378 224.415 71.7512 224.093 71.5762 223.709C71.3591 223.218 70.6852 223.035 70.3539 222.852C70.0254 222.646 69.6671 222.492 69.2916 222.395C69.1788 222.374 69.068 222.344 68.9603 222.304C68.8314 222.287 68.7008 222.287 68.5719 222.304C68.1005 222.324 67.6514 222.51 67.304 222.829C67.0286 223.168 66.8194 223.556 66.6872 223.972C66.656 224.058 66.6178 224.143 66.5729 224.223C66.3445 224.486 66.0703 224.417 65.2479 223.96L64.6996 223.663C64.1482 223.403 63.7567 222.893 63.6487 222.293C63.5988 221.643 63.6964 220.991 63.9342 220.385C64.042 220.065 64.2001 219.764 64.4026 219.494C64.6341 219.234 64.8863 218.994 65.1565 218.774C66.1244 218.057 67.2699 217.619 68.4691 217.506L68.4806 217.621Z" fill="#27272A"/>
<path d="M96.7796 224.109C97.2945 223.831 97.7398 223.441 98.0818 222.966C98.1847 222.77 98.2762 222.568 98.3559 222.361C98.8377 221.686 99.1403 220.9 99.2355 220.076C99.246 219.747 99.1409 219.423 98.9385 219.163C98.7786 218.797 98.5615 218.546 98.3331 218.02C98.2645 217.849 98.4473 217.415 98.8357 217.027C99.2326 216.549 99.8609 216.329 100.469 216.455C100.93 216.671 101.357 216.952 101.737 217.289C102.044 217.67 102.27 218.109 102.4 218.58C102.656 219.421 102.656 220.32 102.4 221.162C102.235 222.081 102.014 222.989 101.737 223.88C101.333 224.802 100.768 225.646 100.069 226.37C99.6173 226.799 99.1237 227.182 98.5958 227.513C97.7338 228.034 96.7656 228.354 95.7629 228.449C94.9539 228.603 94.1286 228.653 93.307 228.598C93.1318 228.574 92.9596 228.531 92.793 228.472C92.5195 228.386 92.3465 228.117 92.3817 227.833C92.4163 227.47 92.5294 227.119 92.713 226.804C92.8158 226.61 92.9072 226.428 93.01 226.256C93.3402 225.73 93.7806 225.282 94.3008 224.943C94.7135 224.696 95.1656 224.522 95.6373 224.429C95.9945 224.379 96.3351 224.246 96.6311 224.04L96.7796 224.109Z" fill="#27272A"/>
<path d="M41.6147 183.101C39.8007 183.352 37.9527 183.152 36.2346 182.518C34.6071 181.896 33.1672 180.866 32.0538 179.525C31.2835 178.634 30.6309 177.647 30.1119 176.59C29.283 174.735 29.0284 172.674 29.3808 170.673C29.7587 168.736 30.6639 166.942 31.9967 165.487C33.096 164.178 34.4581 163.116 35.9947 162.368C37.0713 161.792 38.3044 161.576 39.5129 161.751C40.7317 161.948 41.8259 162.611 42.5628 163.602C42.9969 164.196 42.3458 164.653 41.4206 165.144C40.9553 165.396 40.512 165.686 40.0955 166.012C39.6843 166.309 39.3873 166.698 39.2045 166.835L38.9761 167.04C38.9075 167.132 38.8504 167.223 38.7819 167.212C38.7133 167.2 38.4734 167.326 38.2793 167.44C37.844 167.666 37.4342 167.938 37.057 168.251C36.0124 168.866 35.1063 169.691 34.3955 170.673C33.5388 171.906 33.9271 173.814 34.7267 175.242C35.4701 176.385 36.6424 177.18 37.9792 177.449C39.3159 177.718 40.7045 177.437 41.8318 176.67C43.1166 175.48 43.6433 173.681 43.2025 171.986C42.8195 170.534 41.9782 169.244 40.8037 168.308C40.5578 168.159 40.3212 167.995 40.0955 167.817C39.8276 167.524 39.7096 167.123 39.7757 166.732C39.8252 166.488 39.9018 166.25 40.0041 166.024C40.1412 165.715 40.324 165.372 40.5181 164.984L40.9979 163.979C41.2787 163.461 41.7311 163.057 42.2773 162.837C42.5829 162.691 42.9227 162.631 43.2596 162.665C43.6267 162.682 43.9856 162.779 44.3105 162.951L45.0759 163.351L45.4528 163.568L45.7498 163.853C46.1633 164.225 46.5453 164.63 46.8921 165.064C47.213 165.503 47.5068 165.96 47.7717 166.435C48.0116 166.926 48.2514 167.417 48.4456 167.92C49.2036 170.065 49.4386 172.36 49.131 174.614C48.948 176.598 48.2163 178.493 47.0178 180.085C46.6522 180.496 46.2753 180.896 45.8755 181.227C45.4578 181.579 45.0149 181.9 44.5504 182.187C44.3274 182.339 44.0946 182.476 43.8536 182.598L43.1111 182.849C42.637 183.022 42.1473 183.148 41.649 183.226L41.6147 183.101Z" fill="#27272A"/>
<path d="M75.6193 179.811C74.3904 181.189 72.7535 182.137 70.9474 182.518C68.131 182.97 65.2468 182.377 62.8371 180.851C59.5898 178.501 57.9313 174.531 58.5421 170.57C58.6647 169.669 59.0102 168.813 59.5473 168.08C60.0585 167.364 60.7118 166.761 61.4664 166.309C63.2235 165.328 65.2553 164.955 67.2464 165.247C67.8289 165.327 67.749 165.43 67.2464 165.692C66.7438 165.955 65.967 166.515 65.1217 167.04C64.4213 167.441 63.7826 167.941 63.2255 168.525C62.8577 168.93 62.6087 169.428 62.5059 169.965C62.5055 170.211 62.4787 170.456 62.4259 170.696L62.3231 171.175V171.667C62.2752 172.358 62.3174 173.053 62.4488 173.734C62.9652 175.48 64.2162 176.915 65.8756 177.664C66.7475 178.113 67.7058 178.37 68.6856 178.418C69.6147 178.476 70.5393 178.248 71.3358 177.766C71.811 177.465 72.2256 177.078 72.558 176.624C72.8858 176.114 73.1181 175.549 73.2434 174.956C73.4646 174.019 73.4449 173.04 73.1863 172.112C72.9242 171.245 72.3818 170.49 71.6442 169.965C70.4956 169.107 69.0903 168.664 67.6576 168.708C67.3349 168.743 67.0094 168.743 66.6866 168.708C66.1976 168.674 65.7513 168.417 65.4758 168.011C65.3502 167.762 65.258 167.497 65.2017 167.223C65.1331 166.88 65.0874 166.481 65.0417 166.081C64.9961 165.681 64.9389 165.361 64.9161 165.053C64.9065 164.479 65.074 163.917 65.3959 163.442C65.7129 162.835 66.2966 162.412 66.9722 162.3C67.4844 162.192 68.0035 162.119 68.5257 162.083C69.0575 162.064 69.5898 162.103 70.1135 162.197C71.2431 162.382 72.3374 162.74 73.3576 163.259C74.5296 163.829 75.5746 164.63 76.4304 165.613C77.2633 166.75 77.8471 168.05 78.1438 169.428C78.3539 170.387 78.4193 171.373 78.338 172.352C78.338 172.843 78.258 173.243 78.2352 173.677C78.1975 174.114 78.1365 174.549 78.0524 174.979C77.6758 176.756 76.8721 178.415 75.7107 179.811H75.6193Z" fill="#27272A"/>
<path d="M97.2929 169.302C97.4414 169.782 98.104 170.228 98.5038 169.965C98.6408 169.873 98.5038 169.554 98.618 169.451C98.8252 169.184 98.8773 168.829 98.7551 168.514C98.6768 168.28 98.561 168.06 98.4124 167.863C98.1676 167.546 97.8792 167.265 97.5557 167.029C96.7573 166.392 95.7776 166.024 94.7571 165.978C93.5344 166.031 92.3611 166.476 91.4101 167.246C91.0446 167.463 90.5306 167.109 90.2679 166.355C90.1518 165.898 90.1518 165.419 90.2679 164.962C90.4352 164.393 90.7945 163.901 91.2845 163.568C93.2007 162.356 95.5672 162.091 97.7042 162.848C98.1996 163.001 98.6781 163.203 99.132 163.454C99.3719 163.579 99.5775 163.682 99.8288 163.831L100.617 164.368C101.185 164.774 101.693 165.258 102.125 165.807C102.616 166.344 103.016 166.949 103.427 167.452C104.047 168.736 104.526 170.085 104.855 171.473C105.197 172.737 105.169 174.073 104.775 175.322C104.584 175.958 104.316 176.568 103.975 177.138C103.6 177.686 103.146 178.175 102.627 178.589C101.541 179.425 100.217 179.897 98.8465 179.937C97.1781 180.021 95.5188 179.645 94.0488 178.852C92.9227 178.256 91.9463 177.412 91.1931 176.384C90.5028 175.372 90.0141 174.235 89.7538 173.038C89.2916 171.076 89.3746 169.026 89.9937 167.109C90.1378 166.592 90.3329 166.091 90.5763 165.613C90.7816 165.203 91.0347 164.82 91.3302 164.47C91.4961 164.298 91.7118 164.182 91.947 164.139C92.5549 164.114 93.1562 164.273 93.6719 164.596C94.0146 164.767 94.3573 164.916 94.6885 165.11C95.6526 165.606 96.2507 166.608 96.2306 167.692C96.4705 168.343 96.8132 168.457 97.0188 168.48C97.1247 168.498 97.2334 168.469 97.3158 168.4C97.228 168.552 97.228 168.739 97.3158 168.891L97.2929 169.302Z" fill="#27272A"/>
<path d="M45.1408 205.433C43.6231 206.639 41.7748 207.356 39.8406 207.489C37.8421 207.64 35.8558 207.068 34.2434 205.878L33.4209 205.227L32.6899 204.507C32.2046 204.018 31.817 203.44 31.5476 202.805C30.7087 200.698 30.6762 198.356 31.4562 196.226C32.1213 194.42 33.1696 192.779 34.529 191.417C35.66 190.204 37.0133 189.219 38.5155 188.515C39.6087 188.105 40.7909 187.991 41.9424 188.184C43.0432 188.401 44.0379 188.985 44.7639 189.84C45.1751 190.366 44.7639 190.583 44.0899 190.731C43.7586 190.731 43.3246 190.903 42.9476 191.006C42.5707 191.108 42.1709 191.28 41.8053 191.36C41.2488 191.497 40.7323 191.763 40.2975 192.136C39.7746 192.479 39.2782 192.861 38.8125 193.279C37.7771 194.235 36.905 195.354 36.231 196.591C35.857 197.291 35.7245 198.094 35.854 198.876C36.0057 199.512 36.2855 200.111 36.6765 200.635C37.0393 201.225 37.5969 201.669 38.2528 201.892C39.0033 202.116 39.8073 202.084 40.5374 201.8C41.0335 201.597 41.4957 201.32 41.9081 200.978C42.3042 200.61 42.6294 200.172 42.8677 199.687C43.2313 198.836 43.4067 197.916 43.3817 196.991C43.368 196.025 43.1211 195.077 42.6621 194.227C42.32 193.636 41.8273 193.148 41.2342 192.81C40.7452 192.569 40.2021 192.459 39.6578 192.491L39.041 192.57C38.6706 192.569 38.318 192.412 38.07 192.136C37.7082 191.725 37.3904 191.277 37.1219 190.8C36.9735 190.537 36.7907 190.309 36.665 190.069C36.4403 189.661 36.4151 189.173 36.5965 188.744C36.7808 188.056 37.2625 187.486 37.9101 187.19C38.4814 186.893 39.107 186.714 39.7492 186.665C40.4246 186.582 41.1093 186.621 41.7711 186.779C43.1064 187.116 44.3406 187.771 45.3693 188.687C47.2003 190.421 48.368 192.74 48.6705 195.243C48.9449 197.009 48.8595 198.812 48.4192 200.544C47.886 202.497 46.7655 204.24 45.2094 205.535L45.1408 205.433Z" fill="#27272A"/>
<path d="M77.0289 200.372C76.6632 202.011 75.8159 203.502 74.5959 204.656C73.3705 205.779 71.817 206.48 70.1638 206.655L69.3756 206.792H68.5532C68.0084 206.855 67.4572 206.832 66.9197 206.723C65.0734 206.259 63.4145 205.238 62.1678 203.799C61.8524 203.484 61.5727 203.136 61.3339 202.759C61.0691 202.404 60.8431 202.021 60.6599 201.617C60.3121 200.858 60.07 200.055 59.9403 199.23L59.8261 198.088C59.8261 197.722 59.8261 197.356 59.8261 197.002C59.8181 196.643 59.8449 196.283 59.906 195.929C59.9403 195.576 60.0092 195.228 60.1116 194.889C60.5459 193.156 61.6735 191.677 63.2301 190.8C63.6756 190.514 63.7213 190.731 63.5956 191.222C63.5271 191.474 63.4243 191.794 63.2986 192.125C63.173 192.456 63.093 192.902 62.9102 193.267C62.3917 194.477 62.307 195.829 62.6704 197.094C63.2496 198.131 63.8825 199.138 64.5666 200.109C64.9819 200.691 65.5632 201.133 66.2343 201.377C66.8987 201.542 67.5745 201.657 68.2562 201.72L68.8387 201.8L69.4327 201.743C69.8201 201.746 70.2057 201.689 70.575 201.572C71.192 201.357 71.7138 200.933 72.0486 200.372C72.5929 199.418 72.8507 198.328 72.791 197.231C72.6936 195.454 71.997 193.763 70.8149 192.433C70.4189 192.02 69.8963 191.75 69.3299 191.668C68.9214 191.614 68.5087 191.729 68.1876 191.988C68.062 192.091 67.9706 192.228 67.8449 192.342C67.7093 192.397 67.5673 192.435 67.4223 192.456C67.2277 192.417 67.0394 192.352 66.8626 192.262C66.3938 192.058 65.9586 191.785 65.5718 191.451C65.3319 191.279 65.092 191.131 64.8864 190.96C64.535 190.679 64.3158 190.266 64.281 189.817C64.2059 189.179 64.351 188.534 64.6922 187.99C65.0495 187.529 65.4915 187.142 65.9944 186.847C66.5701 186.556 67.1861 186.352 67.8221 186.242C69.1744 186.025 70.5608 186.224 71.7973 186.813C72.8824 187.331 73.8385 188.084 74.5959 189.018C75.2634 189.829 75.8098 190.734 76.2179 191.702C76.8044 193.034 77.1635 194.455 77.2802 195.906C77.2802 196.271 77.2802 196.625 77.2802 196.991C77.2802 197.356 77.3374 197.711 77.2802 198.133C77.2819 198.901 77.2054 199.666 77.0518 200.418L77.0289 200.372Z" fill="#27272A"/>
<path d="M90.7097 195.495C91.3964 195.898 92.254 195.872 92.9143 195.426C93.0856 195.243 92.6744 195.015 92.8115 194.855C93.0739 194.536 93.1557 194.106 93.0285 193.713C92.855 193.237 92.4572 192.878 91.9662 192.753C91.3224 192.644 90.6653 192.848 90.1956 193.301C89.9014 193.565 89.6508 193.873 89.4531 194.215C89.4032 194.313 89.3376 194.402 89.2589 194.478C89.1333 194.627 88.9848 194.764 88.8591 194.924C88.5786 195.228 88.3155 195.549 88.071 195.883C87.7511 196.306 87.5455 196.18 87.3399 195.62C87.2033 195.25 87.1038 194.868 87.0429 194.478C87.0251 194.208 87.0251 193.937 87.0429 193.667C87.0366 193.31 87.119 192.956 87.2828 192.639L87.5569 192.011L87.8882 191.302C88.0139 191.063 88.1167 190.823 88.2423 190.583L88.7106 189.886C88.9637 189.468 89.3274 189.128 89.7616 188.904C90.1271 188.675 90.5155 188.321 90.9038 188.047C91.568 187.709 92.2811 187.478 93.0171 187.362C93.6735 187.251 94.34 187.213 95.0047 187.247C96.2062 187.331 97.3754 187.674 98.4315 188.253C99.3892 188.716 100.262 189.338 101.013 190.092C101.436 190.514 101.87 190.948 102.281 191.405C102.686 191.862 103.067 192.338 103.423 192.833C104.229 193.806 104.789 194.957 105.057 196.191C105.396 197.551 105.296 198.982 104.771 200.281C104.247 201.582 103.318 202.679 102.121 203.411C100.675 204.305 99.0315 204.83 97.3349 204.941C94.712 205.112 92.0907 204.584 89.7387 203.411C88.8422 202.977 87.9924 202.453 87.2028 201.846L86.6203 201.343L86.0834 200.749C85.9079 200.533 85.7439 200.308 85.5922 200.075C85.5057 199.962 85.4257 199.844 85.3523 199.721L85.2152 199.264L84.9411 198.453C84.9411 198.168 84.8154 197.871 84.7698 197.562C84.6939 197.019 84.7568 196.464 84.9525 195.952C85.0221 195.539 85.2271 195.161 85.5351 194.878C85.9512 194.438 86.5095 194.158 87.1114 194.09C87.3425 194.056 87.5772 194.056 87.8082 194.09C88.1246 194.167 88.4157 194.324 88.6535 194.547C88.8211 194.691 88.9777 194.847 89.1219 195.015C89.1836 195.14 89.3044 195.225 89.4428 195.241C89.5812 195.257 89.7184 195.202 89.8072 195.095C89.8776 195.026 89.9151 194.93 89.9101 194.832C90.0075 195.031 90.1801 195.183 90.3898 195.255L90.7097 195.495Z" fill="#27272A"/>
<path d="M47.9275 228.061C47.4848 229.555 46.6622 230.909 45.5401 231.991C44.404 233.061 42.9847 233.782 41.4507 234.07C40.479 234.302 39.4772 234.383 38.4808 234.309C38.0531 234.291 37.6283 234.23 37.2128 234.127C36.7762 234.038 36.3452 233.923 35.922 233.784C35.488 233.601 35.0539 233.418 34.6312 233.213C34.2086 233.007 33.7859 232.63 33.409 232.31C33.0462 231.937 32.7175 231.532 32.4266 231.1L32.0839 230.414C31.9588 230.197 31.8809 229.956 31.8555 229.706C31.7605 229.24 31.7259 228.764 31.7527 228.29C31.756 227.858 31.8136 227.428 31.924 227.01C32.212 225.663 32.7548 224.384 33.5232 223.241C34.3979 221.846 35.6332 220.713 37.0986 219.962C37.5327 219.734 37.5212 219.837 37.327 220.248L36.9501 221.059C36.8253 221.448 36.6765 221.83 36.5046 222.201C35.9031 223.446 35.5796 224.806 35.5565 226.188C35.5393 226.713 35.6048 227.237 35.7507 227.741C35.7913 227.914 35.8567 228.079 35.9449 228.232C35.9635 228.38 35.9635 228.53 35.9449 228.678C36.002 229.032 36.4361 229.34 37.03 229.512C37.3385 229.58 37.7154 229.592 38.0581 229.66C38.4386 229.638 38.8199 229.638 39.2004 229.66C40.6742 229.773 42.0866 229.049 42.8557 227.787C43.3688 226.899 43.6332 225.889 43.6211 224.863C43.6947 223.218 43.1111 221.611 41.999 220.396C41.5872 220.018 41.0761 219.764 40.5254 219.665C40.0328 219.597 39.5331 219.597 39.0405 219.665C38.8234 219.665 38.6178 219.791 38.3894 219.825C37.9896 219.962 37.5898 219.677 37.2471 219.562C36.8998 219.363 36.5967 219.095 36.3561 218.774C36.219 218.614 36.0591 218.466 35.9449 218.306C35.7476 218.031 35.6965 217.677 35.8078 217.358C35.9583 216.853 36.2378 216.396 36.6188 216.033C36.9492 215.68 37.3668 215.419 37.8296 215.279C38.3008 215.087 38.7909 214.945 39.2918 214.856C40.3937 214.677 41.5236 214.804 42.5587 215.222C43.6101 215.638 44.5661 216.264 45.3688 217.061C46.098 217.804 46.7138 218.651 47.1964 219.574C48.5277 222.211 48.8291 225.249 48.0417 228.095L47.9275 228.061Z" fill="#27272A"/>
<path d="M70.892 220.933C70.4412 220.644 69.9358 220.449 69.4071 220.362C68.9636 220.286 68.5085 220.398 68.1505 220.671C67.8169 221.01 67.5324 221.395 67.3052 221.813C67.0129 222.246 66.7532 222.701 66.5285 223.172C66.3481 223.545 66.2396 223.948 66.2086 224.36C66.0851 225.453 66.2629 226.559 66.7227 227.559C67.1551 228.501 67.7956 229.333 68.596 229.992C69.6352 230.759 70.8338 231.282 72.1029 231.522C72.5255 231.648 72.6626 232.254 72.3085 233.007C72.0887 233.466 71.7542 233.859 71.3375 234.15C70.8326 234.51 70.2203 234.687 69.6012 234.652C64.9713 234.351 61.3021 230.628 61.0683 225.994C60.9248 224.571 61.0252 223.134 61.3653 221.744C61.5595 221.082 61.7423 220.602 61.9708 219.951C62.233 219.348 62.5504 218.771 62.9189 218.226C63.8188 216.886 65.0943 215.841 66.5856 215.222C68.0648 214.651 69.6834 214.548 71.2233 214.925C75.3894 216.036 78.5855 219.382 79.5049 223.595C79.7161 224.666 79.7161 225.768 79.5049 226.839C79.2385 227.944 78.7139 228.969 77.9742 229.832C77.6653 230.189 77.3292 230.521 76.969 230.826C75.5297 231.751 74.8672 231.488 74.1019 230.414C73.9162 230.169 73.7446 229.914 73.5878 229.649C73.1758 228.84 73.2147 227.875 73.6906 227.102C74.3303 226.074 74.4331 225.354 74.2732 225.057C74.1825 224.887 74.1024 224.712 74.0333 224.532C73.9077 224.303 73.782 224.029 73.5764 223.709C72.9346 222.568 71.9898 221.628 70.8463 220.991L70.892 220.933Z" fill="#27272A"/>
<path d="M103.308 228.689C102.13 230.023 100.505 230.881 98.7384 231.099C97.1721 231.255 95.5929 230.983 94.1693 230.311C93.2119 229.904 92.3311 229.336 91.5649 228.632C90.9164 227.99 90.3626 227.259 89.92 226.462C89.4741 225.628 89.1911 224.717 89.0861 223.777C88.8885 222.014 89.2909 220.235 90.2284 218.728C90.9626 217.478 91.9997 216.433 93.244 215.69C94.0525 215.208 94.9575 214.912 95.8941 214.822C96.8294 214.768 97.7586 215.003 98.5557 215.496C99.0354 215.793 98.6813 216.272 98.1216 216.763C97.596 217.248 97.0305 217.688 96.431 218.077C95.6068 218.438 94.9074 219.034 94.4206 219.791C93.9225 220.514 93.5981 221.343 93.4725 222.212C93.324 223.217 94.2721 224.234 95.3116 224.965C95.8623 225.368 96.476 225.677 97.1278 225.879C97.6761 226.063 98.2724 226.043 98.807 225.822C99.1534 225.666 99.4585 225.431 99.698 225.136C99.9906 224.811 100.199 224.419 100.303 223.994C100.535 223.256 100.605 222.477 100.509 221.71C100.462 221.355 100.366 221.009 100.223 220.682C100.063 220.358 99.8595 220.059 99.618 219.791C98.8661 219.105 97.7899 218.905 96.8422 219.277C96.6024 219.277 96.3739 219.448 96.1226 219.494C95.1859 219.711 94.7747 219.494 94.2378 218.111C94.1122 217.803 93.9637 217.495 93.8609 217.186C93.4237 216.227 93.8419 215.095 94.7975 214.65C95.606 214.31 96.4685 214.117 97.3448 214.079C98.4354 213.999 99.5299 214.171 100.543 214.582C101.658 215.039 102.643 215.765 103.41 216.695C103.756 217.119 104.062 217.574 104.324 218.054C104.613 218.557 104.847 219.089 105.021 219.642C105.236 220.386 105.366 221.153 105.409 221.927C105.542 223.478 105.324 225.04 104.77 226.496C104.604 226.911 104.406 227.312 104.176 227.695C103.936 228.072 103.673 228.403 103.41 228.758L103.308 228.689Z" fill="#27272A"/>
<path d="M141.946 138.775C140.868 139.106 139.715 139.106 138.636 138.775C138.144 138.633 137.752 138.26 137.586 137.775C136.883 135.544 136.473 133.232 136.366 130.895C136.226 128.895 136.916 127.075 137.196 125.195C137.466 123.575 137.756 121.955 138.106 120.335C138.276 119.525 138.456 118.725 138.676 117.925C138.859 117.114 139.082 116.313 139.346 115.525C139.696 114.605 140.146 113.715 140.506 112.805C140.676 112.365 140.786 111.905 140.946 111.455L141.176 110.775L141.506 110.145C141.586 110.005 141.506 109.805 141.796 109.745C142.446 109.595 144.026 110.245 145.096 111.035C145.336 111.225 145.756 111.485 145.746 111.555C145.536 112.215 147.646 113.695 147.346 114.285C146.836 115.435 147.086 116.865 147.076 118.165C147.011 118.662 146.848 119.141 146.596 119.575C146.286 120.145 145.746 120.655 145.456 121.245C145.034 122.289 144.699 123.366 144.456 124.465C144.013 126.31 143.679 128.18 143.456 130.065C143.096 132.065 142.856 133.965 142.746 135.395C142.636 136.825 142.676 137.705 142.656 137.765C142.589 137.937 142.487 138.094 142.356 138.225C142.198 138.391 142.06 138.576 141.946 138.775Z" fill="#27272A"/>
<path d="M135.37 180.235C132.37 180.505 131.43 179.955 131.18 179.365C130.703 178.37 130.292 177.344 129.95 176.295C129.769 175.798 129.619 175.29 129.5 174.775C129.44 174.255 129.38 173.775 129.37 173.215C129.426 171.468 129.627 169.729 129.97 168.015C130.099 166.547 130.316 165.087 130.62 163.645C130.92 162.215 131.21 160.795 131.62 159.395C131.92 158.585 132.27 157.795 132.52 156.975C132.613 156.56 132.754 156.158 132.94 155.775L133.21 155.215C133.245 155.116 133.3 155.024 133.37 154.945L133.65 154.705C133.78 154.605 133.84 154.465 134.09 154.405C134.973 154.282 135.872 154.473 136.63 154.945C136.81 155.055 137.15 155.215 137.15 155.285C137.07 155.895 139.1 156.955 139.09 157.605C139.058 158.216 139.082 158.828 139.16 159.435C139.27 160.055 139.43 160.695 139.5 161.305C139.526 161.771 139.433 162.235 139.23 162.655C138.98 163.205 138.54 163.655 138.29 164.265C138 165.249 137.776 166.251 137.62 167.265C137.253 168.916 136.973 170.585 136.78 172.265C136.69 173.135 136.61 173.995 136.58 174.785C136.55 175.575 136.35 176.315 136.29 176.945C136.23 177.575 136.18 178.105 136.16 178.475C136.14 178.845 136.16 179.085 136.16 179.125C135.924 179.514 135.66 179.885 135.37 180.235Z" fill="#27272A"/>
<path d="M171.934 151.336C171.174 152.136 170.684 152.756 170.344 153.156C170.128 153.463 169.835 153.708 169.494 153.866C169.107 154.017 168.705 154.128 168.294 154.196L167.024 154.496C166.154 154.706 165.274 154.906 164.364 155.086C163.979 155.167 163.588 155.214 163.194 155.226C162.804 155.226 162.404 155.226 162.004 155.176C161.204 155.176 160.394 155.046 159.574 155.046C158.174 155.046 156.744 155.046 155.284 155.046C153.804 154.931 152.332 154.734 150.874 154.456C149.994 154.246 149.144 154.026 148.244 153.796C147.834 153.646 147.414 153.536 146.984 153.416C146.554 153.296 146.134 153.126 145.724 152.956C145.584 152.956 145.384 152.956 145.324 152.736C145.154 152.116 145.794 150.406 146.534 149.206C146.704 148.936 146.954 148.466 147.014 148.476C147.604 148.606 148.854 146.356 149.364 146.476C149.884 146.556 150.414 146.556 150.934 146.476C151.484 146.386 152.034 146.236 152.554 146.196C152.97 146.158 153.389 146.223 153.774 146.386C154.264 146.616 154.774 147.016 155.294 147.216C156.231 147.46 157.183 147.64 158.144 147.756C159.574 147.946 161.384 148.086 163.214 148.216C165.044 148.346 166.874 148.736 168.354 149.046C168.704 149.116 169.054 149.206 169.354 149.296C169.641 149.345 169.917 149.439 170.174 149.576C170.654 149.836 170.924 150.006 170.974 150.036C171.347 150.428 171.669 150.864 171.934 151.336Z" fill="#27272A"/>
<path d="M105.446 143.105C105.491 142.303 105.674 141.515 105.986 140.775C106.15 140.378 106.442 140.047 106.816 139.835C107.284 139.593 107.782 139.414 108.296 139.305L109.786 138.935C110.776 138.71 111.778 138.539 112.786 138.425C113.635 138.333 114.492 138.376 115.326 138.555C116.156 138.695 116.986 138.865 117.826 138.965C119.266 139.135 120.716 139.345 122.166 139.565C123.613 139.871 125.042 140.255 126.446 140.715L128.946 141.625C129.326 141.805 129.726 141.965 130.126 142.115C130.526 142.265 130.926 142.455 131.316 142.645C131.446 142.705 131.636 142.645 131.676 142.885C131.796 143.515 131.056 145.185 130.236 146.335C130.056 146.595 129.776 147.045 129.716 147.025C129.126 146.855 127.716 149.025 127.156 148.825C126.62 148.697 126.068 148.64 125.516 148.655C124.936 148.655 124.346 148.755 123.806 148.725C123.373 148.715 122.95 148.595 122.576 148.375C122.086 148.085 121.636 147.625 121.126 147.375C120.233 146.984 119.31 146.663 118.366 146.415C116.754 146 115.122 145.666 113.476 145.415C111.746 145.035 110.046 144.675 108.756 144.495C108.23 144.443 107.708 144.35 107.196 144.215C106.969 144.146 106.746 144.066 106.526 143.975C106.196 143.775 105.926 143.435 105.446 143.105Z" fill="#27272A"/>
<path d="M203.606 222.929C203.606 222.929 207.692 235.632 208.827 235.784C211.104 235.983 217.068 232.787 217.813 231.563C218.746 229.95 213.864 218.166 214.131 218.057C216.361 216.721 221.67 212.038 222.388 209.589C223.282 206.574 196.754 181.2 191.013 181.438C187.305 181.605 188.895 221.676 190.604 225.149C191.595 227.122 203.791 222.675 203.606 222.929Z" fill="#1F78D1"/>
<path d="M162.102 176.446C161.797 176.58 161.713 176.101 161.731 175.297C161.766 174.919 161.873 174.551 162.046 174.213C162.234 174.052 162.434 173.907 162.646 173.78C162.762 173.712 164.363 173.688 164.942 173.653C165.472 173.632 166.002 173.699 166.51 173.852C167.55 174.094 168.569 174.419 169.556 174.825C169.776 174.928 169.975 175.071 170.143 175.247C170.72 175.835 171.413 176.297 172.177 176.603C172.308 176.649 172.405 176.75 172.605 176.682C172.804 176.614 174.835 177.794 174.978 178.088C175.38 178.837 175.724 179.469 176.085 180.15C176.098 180.253 176.248 180.285 176.191 180.48C176.063 180.935 176.264 181.033 176.392 181.214C176.563 181.486 176.694 181.781 176.779 182.09C176.796 182.301 176.782 182.514 176.737 182.721C176.762 182.905 176.31 183.194 176.238 183.204C176.167 183.213 175.928 183.453 175.78 183.598C175.734 183.655 175.681 183.707 175.624 183.754C174.914 183.73 174.207 183.652 173.509 183.523L173.185 183.357L172.463 183.015C171.914 182.806 171.361 182.567 171.251 182.519C171.14 182.471 171.089 182.322 171.021 182.195C170.952 182.069 169.395 181.483 169.338 181.449C169.06 181.235 168.679 181.192 168.56 180.687C168.547 180.584 168.461 180.565 168.395 180.542C167.835 180.251 167.304 179.906 166.811 179.512C166.539 179.35 166.251 179.221 165.971 179.07C165.921 179.028 165.879 178.977 165.847 178.92C165.804 178.85 165.746 178.79 165.678 178.745C165.019 178.382 164.327 178.082 163.611 177.851C163.44 177.821 162.776 177.128 162.554 177.105C162.332 177.082 162.231 176.398 162.102 176.446Z" fill="#1F78D1"/>
<path d="M181.682 158.499C181.38 158.424 181.684 158.04 182.271 157.442C182.552 157.178 182.877 156.966 183.23 156.815C183.488 156.804 183.745 156.823 183.998 156.869C184.138 156.903 185.333 157.901 185.782 158.228C186.171 158.522 186.483 158.907 186.691 159.347C187.137 160.195 187.609 161.008 188.013 161.861C188.108 162.052 188.154 162.265 188.147 162.478C188.163 163.209 188.372 163.922 188.754 164.545C188.769 164.657 188.785 164.78 189.03 164.821C189.575 165.455 189.928 166.233 190.045 167.062C189.911 167.778 189.713 168.492 189.568 169.209C189.582 169.311 189.593 169.393 189.442 169.517C189.033 169.811 189.14 169.984 189.115 170.196C189.024 170.504 188.903 170.803 188.754 171.088C188.612 171.226 188.457 171.351 188.293 171.461C188.099 171.565 187.873 171.595 187.658 171.545C187.5 171.452 187.289 171.594 187.105 171.618C187.041 171.632 186.976 171.641 186.911 171.644C186.849 171.652 186.465 171.349 185.982 171.079C185.624 170.938 185.298 170.726 185.024 170.456C184.969 170.352 184.907 170.253 184.839 170.157L184.432 169.523C184.271 169.315 184.12 169.098 183.981 168.874C183.923 168.736 183.853 168.602 183.772 168.475C183.696 168.37 183.74 168.229 183.816 168.094C183.891 167.959 183.044 166.592 183.025 166.532C182.981 166.194 182.737 165.924 183.013 165.491C183.046 165.424 183.035 165.343 182.986 165.286C182.789 164.727 182.663 164.145 182.611 163.554C182.528 163.269 182.425 162.99 182.303 162.72C182.303 162.72 182.286 162.597 182.278 162.536C182.288 162.463 182.278 162.388 182.25 162.321C182.05 161.639 181.792 160.976 181.477 160.339C181.458 160.196 181.506 159.293 181.384 159.163C181.263 159.034 181.801 158.535 181.682 158.499Z" fill="#1F78D1"/>
<path d="M200.314 171.143C200.512 171.46 199.966 171.585 199.017 171.658C198.577 171.663 198.139 171.587 197.727 171.433C197.508 171.243 197.309 171.032 197.133 170.803C197.031 170.66 196.876 168.857 196.711 168.243C196.62 167.671 196.631 167.088 196.744 166.52C196.896 165.395 197.136 164.283 197.461 163.195C197.533 162.952 197.656 162.726 197.821 162.533C198.365 161.843 198.737 161.033 198.905 160.17C198.938 160.03 199.016 159.905 198.845 159.72C198.913 158.734 199.224 157.78 199.749 156.943C200.382 156.37 200.894 155.75 201.497 155.191C201.58 155.107 201.562 154.974 201.813 154.982C202.13 155.051 202.449 154.875 202.561 154.571C202.779 154.275 203.054 154.025 203.371 153.839C203.62 153.749 203.885 153.714 204.149 153.736C204.405 153.702 205.018 154.236 205.06 154.324C205.198 154.576 205.567 154.684 205.839 154.856L206.134 155.036C206.268 155.409 206.357 155.795 206.401 156.189C206.505 156.566 206.556 156.955 206.554 157.346L206.427 157.727L206.171 158.543C206.003 159.169 205.829 159.817 205.817 159.965C205.805 160.112 205.64 160.207 205.518 160.306C205.396 160.406 205.084 162.302 205.052 162.379C204.86 162.738 204.876 163.173 204.324 163.413C204.212 163.428 204.216 163.542 204.195 163.617C203.969 164.297 203.667 164.948 203.295 165.56C203.158 165.892 203.047 166.234 202.962 166.583C202.97 166.645 202.862 166.69 202.807 166.75C202.752 166.809 202.668 166.883 202.647 166.958C202.272 167.729 201.977 168.536 201.767 169.367C201.73 169.559 201 170.344 200.999 170.573C200.998 170.802 200.235 171.018 200.314 171.143Z" fill="#1F78D1"/>
<path d="M157.416 60.5262C157.227 60.8436 157.12 61.2029 157.105 61.5719C157.048 61.9278 157.147 62.2911 157.379 62.5678C158.341 63.6981 159.657 64.4702 161.113 64.7586C162.223 64.9466 163.36 64.8957 164.449 64.6093C165.459 64.4209 166.417 64.0222 167.262 63.4391C169.093 62.1446 170.259 60.1086 170.449 57.8748C170.529 56.7039 170.346 55.53 169.914 54.4391C168.976 52.3489 167.403 50.6069 165.42 49.4598C164.108 48.6951 162.713 48.0812 161.262 47.6299C160.453 47.3436 159.756 47.0573 159.072 46.8581C158.52 46.6684 157.937 46.584 157.354 46.6091C157.095 46.6529 156.833 46.5528 156.669 46.3477C156.407 45.9742 156.407 45.4764 156.669 45.1029C157.191 44.3926 157.967 43.911 158.835 43.7585C159.822 43.5281 160.848 43.5281 161.835 43.7585C162.57 43.9328 163.54 44.1693 164.412 44.468C165.312 44.7656 166.19 45.1276 167.038 45.551C168.814 46.4212 170.42 47.6016 171.781 49.0365C173.246 50.5758 174.325 52.4399 174.931 54.4764C175.547 56.5816 175.547 58.8194 174.931 60.9246C174.217 63.4163 172.846 65.6697 170.96 67.4475C169.048 69.2991 166.582 70.4713 163.939 70.7836C163.59 70.7836 163.229 70.8583 162.868 70.8707H161.798C161.089 70.8494 160.384 70.7577 159.694 70.5969C158.327 70.294 157.013 69.7862 155.798 69.0906C154.486 68.3654 153.341 67.373 152.437 66.1777C151.435 64.8414 150.894 63.2168 150.893 61.547C150.943 59.5977 151.679 57.7286 152.972 56.2689C154.2 54.8654 155.852 53.8997 157.677 53.5179C159.071 53.2352 160.517 53.3517 161.848 53.854C163.136 54.3559 164.273 55.1837 165.146 56.2565C166.649 58.2231 167.564 60.5754 167.785 63.0408C168.033 64.9247 167.919 66.8386 167.449 68.6798C166.948 70.6428 165.879 72.414 164.375 73.7712C163.769 74.4025 163.062 74.9284 162.283 75.3272C161.346 75.8537 160.295 76.1442 159.221 76.1737C158.9 76.1704 158.582 76.1027 158.287 75.9745C158.006 75.808 157.743 75.6118 157.503 75.3894C157.295 75.2302 157.095 75.0599 156.906 74.8791C156.47 74.4683 157.08 72.9122 158.424 71.7421C158.877 71.2904 159.293 70.8034 159.669 70.2857C160.03 69.8002 160.404 69.4143 160.652 69.0408C160.9 68.6508 161.1 68.233 161.25 67.796C161.409 67.3886 161.546 66.9731 161.661 66.5512C161.77 66.0926 161.845 65.6266 161.885 65.157C161.928 64.6683 161.928 64.1768 161.885 63.6881C161.81 62.6994 161.566 61.7309 161.163 60.825C160.964 60.3558 160.672 59.9322 160.304 59.5802C160.048 59.3857 159.728 59.2926 159.408 59.3188C158.613 59.3765 157.907 59.8498 157.553 60.5636L157.416 60.5262Z" fill="#27272A"/>
<path d="M180.683 110.929C179.559 111.899 178.847 113.261 178.691 114.738C178.664 115.22 178.873 115.684 179.251 115.983L179.401 116.145L179.625 116.282L180.085 116.593C180.471 116.718 180.907 116.979 181.243 117.066C182.093 117.324 183.016 117.168 183.733 116.643C184.641 115.978 185.359 115.085 185.812 114.054C186.371 112.885 186.684 111.614 186.733 110.319C186.85 107.476 186.061 104.669 184.48 102.302C182.966 100.118 180.974 98.3082 178.654 97.012C175.682 95.2167 172.279 94.2616 168.807 94.2484C167.737 94.2484 167.749 93.9746 168.658 93.402C170.214 92.5193 172.008 92.149 173.787 92.3439C177.858 92.8108 181.729 94.3676 184.99 96.8501C186.713 98.1414 188.168 99.7567 189.272 101.605C190.407 103.483 191.168 105.563 191.513 107.73C191.938 110.455 191.664 113.243 190.716 115.834C190.222 117.179 189.52 118.439 188.637 119.568C187.623 120.883 186.254 121.881 184.691 122.444C182.955 123 181.084 122.974 179.363 122.369C177.767 121.864 176.313 120.99 175.119 119.817C173.823 118.478 173.081 116.7 173.04 114.838C173.025 113.182 173.455 111.553 174.285 110.12C175.197 108.516 176.43 107.118 177.907 106.012C179.384 104.901 181.082 104.12 182.886 103.722C185.568 103.15 188.362 103.46 190.853 104.605C193.275 105.695 195.359 107.415 196.891 109.585C199.292 112.866 200.576 116.833 200.55 120.9C200.601 121.766 200.551 122.635 200.401 123.489C199.729 126.614 198.982 127.411 197.5 127.66C197.186 127.74 196.865 127.794 196.542 127.821C195.571 127.821 194.961 126.402 194.949 124.348C194.949 123.589 194.949 122.83 194.824 122.095C194.7 121.361 194.824 120.664 194.737 119.966C194.674 118.652 194.461 117.349 194.102 116.083C193.422 113.716 191.972 111.644 189.982 110.195C189.263 109.697 188.468 109.319 187.629 109.074C186.816 108.87 185.974 108.807 185.139 108.888C183.469 109.057 181.916 109.826 180.77 111.054L180.683 110.929Z" fill="#27272A"/>
<path d="M215.277 75.215C216.156 73.197 217.98 71.7467 220.144 71.3436C221.188 71.1376 222.262 71.1376 223.306 71.3436C224.123 71.5087 224.917 71.7721 225.671 72.1278C227 72.753 228.233 73.5664 229.331 74.5428C230.424 75.4824 231.383 76.5672 232.181 77.7669C233.52 79.604 234.286 81.795 234.385 84.0657C234.404 86.2103 233.653 88.2906 232.269 89.9288C231.068 91.3326 229.583 92.4655 227.912 93.2525C224.84 94.8237 221.393 95.5131 217.953 95.2442C214.968 95.036 212.088 94.0628 209.588 92.4184C206.46 90.4153 204.046 87.4742 202.692 84.0159C202.256 82.9702 203.065 82.7711 204.26 83.1196C205.757 83.6417 207.118 84.4924 208.244 85.6092C210.21 87.747 212.752 89.2727 215.563 90.0035C216.909 90.3664 218.303 90.5176 219.696 90.4516C221.152 90.4093 222.594 90.1577 223.978 89.7047C225.656 89.2056 227.147 88.2174 228.26 86.8665C229.127 85.7495 229.375 84.2717 228.92 82.9329C228.355 81.1309 227.257 79.5425 225.771 78.3768C225.021 77.7457 224.182 77.2297 223.281 76.8457C222.911 76.6972 222.527 76.5847 222.136 76.5096C221.877 76.4537 221.61 76.4537 221.351 76.5096C220.648 76.6381 220.13 77.2393 220.107 77.9536C220.081 78.7742 220.506 79.5431 221.215 79.9578C223.866 81.9495 228.571 81.0034 231.298 78.464C233.366 76.6374 234.17 73.7672 233.352 71.132C233.19 70.5842 232.903 70.0988 232.742 69.5386C232.409 68.7927 232.179 68.0056 232.057 67.1983C232.138 66.5394 232.332 65.8994 232.63 65.3062C232.779 65.0323 232.879 64.7211 233.015 64.497C233.152 64.273 233.7 64.024 234.397 64.1858C235.387 64.365 236.275 64.9064 236.887 65.7045C237.189 66.0598 237.467 66.434 237.721 66.8249C237.994 67.2246 238.244 67.6403 238.468 68.0697C238.935 68.9847 239.27 69.9612 239.464 70.9701C239.848 73.1186 239.638 75.3314 238.854 77.3685C237.215 81.361 233.907 84.4329 229.804 85.7711C228.299 86.3014 226.719 86.5872 225.123 86.6176C223.411 86.6461 221.713 86.3065 220.144 85.6217C219.292 85.2467 218.492 84.7612 217.766 84.1777C216.9 83.4999 216.18 82.6528 215.65 81.6881C214.5 79.6757 214.318 77.2526 215.152 75.0905L215.277 75.215Z" fill="#27272A"/>
</svg>
