<svg width="265" height="205" viewBox="0 0 265 205" fill="none" xmlns="http://www.w3.org/2000/svg">
<path d="M125.072 61.3003C125.072 61.3003 134.231 53.3827 135.379 55.6666C137.218 59.3561 130.366 74.6409 129.16 75.4022C127.953 76.1635 118.794 70.7172 117.318 67.508C116.405 65.552 117.072 60.949 121.101 60.4805C122.479 60.3035 123.877 60.5921 125.072 61.3003Z" fill="#27272A"/>
<path d="M121.818 14.3332C120.669 14.6809 119.556 15.1358 118.492 15.6919C117.49 16.2287 116.554 16.8813 115.704 17.6361C114.014 19.0553 112.719 20.8869 111.945 22.9536C111.377 24.4742 111.96 26.1845 113.338 27.0413C113.901 27.4346 114.573 27.6433 115.259 27.6386C116.185 27.6735 117.108 27.5098 117.965 27.1584C120.979 25.8429 123.457 23.5426 124.992 20.6345C125.259 20.1212 125.452 19.5733 125.566 19.0065V18.8191V18.5614V18.0344C125.596 17.6836 125.596 17.331 125.566 16.9802C125.482 15.6035 125.081 14.2647 124.395 13.0683C122.803 10.5492 120.379 8.66762 117.543 7.75079C116.051 7.20858 114.504 6.83536 112.929 6.6381C111.369 6.4565 109.791 6.49989 108.244 6.76694C104.957 7.43315 101.774 8.5361 98.7798 10.0464C95.9923 11.37 93.2398 12.916 90.382 14.4152C87.4734 16.0492 84.3678 17.3048 81.1408 18.1515C78.8671 18.7085 76.4925 18.7085 74.2187 18.1515C73.6525 18.0012 73.0969 17.8134 72.5556 17.5893C72.0184 17.3924 71.4975 17.1535 70.9978 16.8748C69.8996 16.3242 68.9081 15.5826 68.0697 14.6846C66.2975 12.7657 65.5604 10.1094 66.0903 7.55168C66.5847 5.41166 67.518 3.39758 68.831 1.63687C70.4005 -0.506519 70.7518 0.243081 70.4825 2.48017C70.3201 3.915 70.2419 5.3581 70.2482 6.80208C70.248 7.58999 70.3344 8.37554 70.5059 9.14458C70.6582 9.73489 70.9204 10.2912 71.2789 10.7843C71.6339 11.2624 72.0847 11.6613 72.6024 11.9556C72.9148 12.1348 73.2397 12.2914 73.5746 12.4241C73.9554 12.5835 74.3467 12.7166 74.7458 12.8223C75.4282 13.0556 76.1446 13.1743 76.8658 13.1737C77.6091 13.2245 78.3559 13.1891 79.0911 13.0683C82.2418 12.5295 85.7438 10.7258 89.2693 8.80491C92.9552 6.66014 96.7733 4.75108 100.701 3.08922C102.835 2.20215 105.063 1.55782 107.342 1.16837C109.742 0.81283 112.186 0.868279 114.568 1.33234C117.376 1.83348 120.082 2.79096 122.58 4.16677C123.877 4.89411 125.091 5.76216 126.199 6.75523C127.322 7.78902 128.299 8.97115 129.103 10.269C130.678 12.9739 131.427 16.0803 131.259 19.2056C131.129 20.8786 130.642 22.5043 129.83 23.9726C129.126 25.2897 128.261 26.5134 127.253 27.6152C125.08 30.0698 122.325 31.9386 119.242 33.0498C117.507 33.6587 115.649 33.8356 113.83 33.5651C112.86 33.366 111.927 33.0142 111.066 32.5227C110.241 32.043 109.501 31.4295 108.876 30.7073C107.567 29.329 106.744 27.5603 106.534 25.6709C106.442 24.7564 106.482 23.8336 106.651 22.9302C106.705 22.4997 106.803 22.0759 106.943 21.6652C107.042 21.264 107.175 20.8722 107.342 20.494C107.946 19.0046 108.771 17.6147 109.79 16.3712C110.748 15.1553 111.84 14.0513 113.046 13.08C113.783 12.4669 114.566 11.9109 115.388 11.4168C116.22 10.9717 117.04 10.5149 117.883 10.1519C119.548 9.37776 121.281 8.7583 123.06 8.30128C126.605 7.3623 130.285 7.03356 133.941 7.32914C136.804 7.54695 139.593 8.34389 142.14 9.67164C144.756 11.1181 146.902 13.2847 148.324 15.9144C149.701 18.5351 150.322 21.4876 150.116 24.4411C150.04 25.8714 149.808 27.2893 149.425 28.6693C149.054 30.0309 148.56 31.356 147.949 32.6281C146.005 36.4273 143.386 39.8406 140.219 42.7009C137.291 45.5704 134.222 48.0418 131.669 50.7356C130.599 51.8666 129.631 53.0894 128.776 54.3899C127.732 55.9754 126.887 57.6825 126.257 59.4732C125.893 60.4795 125.331 61.4032 124.606 62.1905C124.336 62.5525 124.038 62.8932 123.716 63.2095C123.212 63.6077 122.65 63.2095 122.053 61.9094C121.261 59.8674 121.15 57.6244 121.736 55.5143C122.263 53.4302 123.138 51.4502 124.325 49.6581C125.447 47.9891 126.713 46.4215 128.108 44.9731C129.455 43.5559 130.837 42.2324 132.196 40.9674L136.19 37.3717C138.614 35.3041 140.645 32.8164 142.186 30.028C143.55 27.4974 144.141 24.6221 143.885 21.7589C143.641 19.8409 142.796 18.0493 141.472 16.6406C140.032 15.154 138.201 14.1061 136.19 13.6187C131.44 12.5049 126.469 12.7897 121.877 14.4386L121.818 14.3332Z" fill="#27272A"/>
<path d="M128.609 70.6706C130.093 67.8867 131.331 64.9788 132.31 61.9799C132.478 61.4447 132.618 60.9013 132.731 60.3518L132.813 59.9536V59.8482C132.813 59.7779 132.813 59.7077 132.813 59.6257C132.937 59.3171 132.966 58.9785 132.895 58.6535C132.673 58.3607 132.321 58.5364 132.005 58.6535L131.478 58.8878H131.396L131.256 59.0283L130.928 59.2157L130.272 59.6257L127.601 61.2537L126.348 62.015L125.645 62.4132L125.165 62.6241C124.996 62.6742 124.824 62.7133 124.65 62.7412C124.292 62.7879 123.93 62.7879 123.572 62.7412C123.233 62.7412 123.033 62.6475 122.764 62.6124L121.347 62.2961L117.903 61.488C116.82 61.1705 115.711 60.951 114.589 60.8321C113.921 60.8321 113.863 60.4338 114.448 59.8599C115.441 59.0446 116.678 58.5831 117.962 58.5481C118.302 58.5481 118.63 58.5481 118.969 58.5481L119.93 58.677L121.78 58.9581C122.378 59.0635 122.951 59.1572 123.479 59.2157H123.853C123.853 59.2157 124.006 59.2157 123.853 59.2157L123.994 59.1337L124.287 58.9346L124.966 58.4427L126.43 57.3769C126.934 57.0255 127.437 56.6507 127.976 56.3227L129.944 55.1515C130.965 54.5322 132.069 54.0628 133.223 53.7577C134.199 53.4866 135.246 53.6718 136.069 54.2614C136.788 55.0156 137.205 56.0076 137.241 57.0489C137.359 58.2908 137.315 59.5427 137.112 60.7735C136.344 64.1344 135.253 67.4134 133.856 70.5651C133.446 71.5256 133.001 72.486 132.509 73.4464L132.017 74.36C131.843 74.6961 131.647 75.0209 131.431 75.3321C131.067 75.9369 130.56 76.4435 129.956 76.8079L129.745 76.925C129.232 77.0012 128.711 77.0012 128.199 76.925L127.426 76.7142C127.168 76.6205 126.922 76.5034 126.664 76.398C126.203 76.2105 125.753 75.9953 125.317 75.7538C124.954 75.5547 124.615 75.3438 124.275 75.1447C122.905 74.3014 121.605 73.4113 120.34 72.4509C118.244 71.02 116.284 69.4009 114.483 67.6136C114.097 67.1802 113.675 66.7937 113.312 66.3252C112.035 64.5332 112.141 63.6196 113.254 62.6709C113.503 62.4366 113.769 62.2213 114.05 62.0267C115.054 61.4885 116.299 61.7505 117.002 62.6475C119.663 65.4737 122.607 68.0207 125.786 70.2489C126.137 70.4949 126.5 70.7291 126.852 70.9517C127.203 71.1742 127.636 71.4084 127.859 71.5373C127.859 71.5373 127.859 71.5373 127.859 71.6193C127.859 71.7013 127.859 71.6193 127.929 71.6193C127.929 71.6193 127.929 71.7013 128 71.5021L128.433 70.6706H128.609Z" fill="#27272A"/>
<path d="M120.439 82.3125C120.181 82.0432 120.755 81.9495 121.833 81.926C122.333 81.9446 122.829 82.0272 123.309 82.172C123.553 82.3282 123.78 82.5087 123.988 82.7108C124.189 83.394 124.342 84.0907 124.445 84.7956C124.551 85.262 124.551 85.7463 124.445 86.2128C124.257 87.1264 124.082 88.0517 123.847 88.9535C123.793 89.1628 123.688 89.3558 123.543 89.5157C123.073 90.0728 122.769 90.7504 122.664 91.4717C122.664 91.5888 122.571 91.6942 122.664 91.8582C122.655 92.6879 122.416 93.4988 121.973 94.2007C121.435 94.6575 121.001 95.1611 120.486 95.6062C120.404 95.6062 120.486 95.7819 120.205 95.7702C119.689 95.7702 119.678 95.9342 119.561 96.0864C119.393 96.321 119.178 96.5167 118.928 96.6603C118.713 96.7298 118.486 96.7577 118.26 96.7423C117.944 96.659 117.651 96.5025 117.405 96.2855C117.265 96.0747 116.925 96.0044 116.668 95.8639C116.573 95.8266 116.483 95.7795 116.398 95.7233C116.123 95.0826 115.93 94.4096 115.824 93.7205L115.906 93.3926C115.906 93.2052 115.988 92.9475 116.058 92.6898C116.154 92.3038 116.228 91.9127 116.281 91.5186C116.281 91.3897 116.433 91.3194 116.539 91.2375C116.644 91.1555 116.796 89.586 116.82 89.5274C116.984 89.2346 116.925 88.8715 117.417 88.6958C117.523 88.6958 117.523 88.5904 117.534 88.5202C117.697 87.9643 117.934 87.4326 118.237 86.939C118.338 86.6688 118.417 86.3906 118.471 86.1074C118.471 86.1074 118.565 86.0137 118.6 85.9785C118.635 85.9434 118.729 85.8731 118.741 85.8029C118.982 85.1532 119.143 84.4768 119.221 83.7883C119.221 83.6243 119.853 82.9801 119.818 82.7928C119.783 82.6054 120.544 82.4531 120.439 82.3125Z" fill="#27272A"/>
<path d="M139.986 76.7488C139.669 76.8308 139.798 76.3154 140.138 75.4487C140.328 75.0534 140.572 74.6867 140.864 74.3594C141.094 74.2221 141.337 74.1084 141.59 74.0198C141.731 74.0198 143.148 74.3126 143.663 74.3829C144.113 74.4574 144.543 74.6206 144.928 74.8631C145.701 75.2964 146.486 75.6947 147.271 76.1163C147.443 76.2125 147.585 76.3544 147.681 76.5262C148.039 77.0793 148.577 77.4928 149.203 77.6975C149.321 77.7718 149.472 77.7718 149.59 77.6975C149.918 77.5452 151.44 78.3417 151.534 78.5642C151.664 78.8373 151.809 79.1032 151.967 79.3607C152.12 79.6066 152.26 79.8877 152.401 80.1454C152.541 80.4031 152.541 80.1454 152.483 80.4499C152.319 81.0238 152.483 81.0121 152.623 81.141C152.78 81.3492 152.898 81.5831 152.975 81.832C153.005 82.081 153.005 82.3326 152.975 82.5816C152.901 82.9359 152.762 83.2735 152.565 83.5772C152.381 83.8297 152.25 84.1164 152.178 84.4205C152.178 84.5259 152.085 84.6547 152.049 84.7367C151.28 85.1568 150.437 85.4233 149.566 85.5214L149.192 85.3809C148.969 85.2989 148.676 85.2052 148.395 85.0881C147.833 84.8421 147.224 84.561 147.154 84.5259C147.083 84.4907 146.978 84.3033 146.931 84.1511C146.884 83.9988 145.303 83.3429 145.268 83.2844C145.022 83.0033 144.647 82.9213 144.647 82.3239C144.647 82.2068 144.577 82.1834 144.518 82.1482C144.043 81.7559 143.625 81.2985 143.277 80.7896C143.07 80.569 142.843 80.369 142.597 80.1923C142.597 80.1923 142.597 80.0634 142.527 80.0049C142.457 79.9463 142.527 79.8409 142.422 79.8057C141.925 79.294 141.385 78.8276 140.805 78.412C140.665 78.3417 140.325 77.4867 140.15 77.4281C139.974 77.3695 140.126 76.7136 139.986 76.7488Z" fill="#27272A"/>
<path d="M60.5164 102.035C56.8504 107.048 53.0321 111.944 48.9211 116.652C44.7856 121.548 40.0653 125.918 34.8661 129.665L33.3669 130.637L31.7505 131.609C31.1831 131.934 30.5919 132.216 29.982 132.452C29.3655 132.75 28.7224 132.989 28.0611 133.167C27.3767 133.399 26.6702 133.56 25.9529 133.647C25.2085 133.756 24.4563 133.803 23.7041 133.787C22.3743 133.725 21.0551 133.521 19.7687 133.178C15.5766 132.035 11.6492 130.081 8.20843 127.428C6.43875 126.089 4.86223 124.512 3.52343 122.743C2.05719 120.838 1.0836 118.601 0.689007 116.23C0.489081 114.993 0.489081 113.732 0.689007 112.494C0.79893 111.897 0.94363 111.306 1.12237 110.726L1.64943 109.238C2.35566 107.298 3.19309 105.408 4.15591 103.581C6.05753 99.9929 8.2886 96.5895 10.8203 93.4145C13.0621 90.5841 15.5256 87.9365 18.1875 85.4969C19.5476 84.2491 20.9874 83.091 22.4977 82.03C22.8842 81.7606 23.259 81.4912 23.6689 81.2452L24.8402 80.5191L25.4492 80.156L26.152 79.8163C26.6257 79.587 27.1149 79.3913 27.616 79.2307C30.1774 78.3873 32.9231 78.2738 35.5454 78.9027C38.1157 79.4664 40.5209 80.6169 42.5729 82.2642C44.6444 83.9992 46.1462 86.3172 46.8831 88.9169C47.2846 90.2562 47.3964 91.6656 47.211 93.0514C47.0313 94.4126 46.5512 95.7168 45.8055 96.8697C45.6049 97.1606 45.3858 97.4384 45.1496 97.7013C44.9744 97.8709 44.7775 98.0167 44.564 98.1347C44.2243 98.3338 43.9784 98.322 43.8144 98.1347C43.463 97.8418 43.545 96.9048 43.463 95.6867C43.4537 94.3086 43.0865 92.9565 42.3972 91.7631C42.0135 91.1246 41.5446 90.5414 41.0034 90.0296C40.3524 89.4872 39.6679 88.9865 38.9537 88.5304C38.6193 88.3349 38.3019 88.1116 38.005 87.8628C37.6873 87.634 37.3547 87.4266 37.0095 87.242C36.3243 86.8582 35.6023 86.5443 34.8544 86.305C33.4684 85.8909 32.0062 85.7988 30.5793 86.0356C29.915 86.1409 29.2685 86.338 28.6584 86.6213L27.4403 87.3006C27.0304 87.5231 26.6205 87.8042 26.2691 88.0502C24.5657 89.1279 22.9554 90.3464 21.4553 91.6928C18.2962 94.5124 15.4387 97.6526 12.9286 101.063C10.3551 104.377 8.23588 108.021 6.62724 111.897C6.51841 112.15 6.43219 112.413 6.36957 112.682C6.29322 112.898 6.2383 113.122 6.20559 113.349C6.16117 113.577 6.13376 113.808 6.1236 114.04C6.10027 114.27 6.10027 114.501 6.1236 114.731C6.1967 115.723 6.47594 116.688 6.94348 117.566C8.11526 119.61 9.73752 121.36 11.687 122.684C13.7404 124.156 15.9869 125.339 18.3632 126.198C19.5067 126.615 20.6817 126.94 21.8769 127.17C22.4347 127.272 22.9978 127.342 23.5635 127.381C24.0495 127.399 24.5362 127.368 25.0159 127.287C25.3151 127.276 25.611 127.22 25.8943 127.123L26.7376 126.889C27.3115 126.608 27.9088 126.409 28.471 126.104C29.0332 125.8 29.6423 125.472 30.2162 125.085C30.7901 124.699 31.3875 124.312 31.9379 123.914C34.2577 122.16 36.4388 120.229 38.4618 118.14C42.6166 113.832 46.4676 109.241 49.9869 104.401C54.3936 98.4152 58.4716 92.1945 62.203 85.7663C64.3464 82.0768 66.4078 78.3171 68.2467 74.5105C69.1602 72.6014 70.0153 70.6689 70.7414 68.7597C71.0918 67.8354 71.3929 66.8932 71.6433 65.937L71.7956 65.3045C71.8751 64.8433 71.8751 64.3719 71.7956 63.9107C71.7394 63.8167 71.6998 63.7137 71.6784 63.6062L71.573 63.208C71.485 62.9245 71.3794 62.6467 71.2568 62.3764C71.0155 61.8393 70.7457 61.3153 70.4486 60.8069C69.8528 59.8045 69.1499 58.8698 68.3521 58.0194C65.6843 55.2298 62.2681 53.2696 58.5136 52.3739C58.0889 52.2771 57.6586 52.2067 57.2252 52.1631L56.6162 52.1045H56.0891C55.5153 52.1453 54.9603 52.3263 54.4728 52.6316C52.9594 53.6697 51.5754 54.8846 50.35 56.2508C49.085 57.5626 47.8669 59.0032 46.4966 60.397C44.7606 62.3346 42.7571 64.0147 40.5466 65.3865C39.3198 66.09 37.8735 66.3073 36.4941 65.9956C35.9244 65.9165 35.3635 65.7832 34.8192 65.5973C34.0579 65.2225 34.0228 64.309 34.5615 62.9972C35.3887 61.1602 36.4993 59.4647 37.8527 57.9725C40.1952 55.2903 42.3152 52.5379 44.9739 49.6449C46.4794 47.9019 48.2267 46.3834 50.1626 45.1356C50.8105 44.7505 51.4881 44.4176 52.1888 44.1401C53.0022 43.8366 53.8468 43.6244 54.707 43.5076C56.1758 43.3275 57.6628 43.359 59.1226 43.6013C63.8192 44.4041 68.2061 46.4781 71.8073 49.5981C73.6446 51.1609 75.2707 52.9563 76.6445 54.939C77.3438 55.9773 77.9587 57.0701 78.4834 58.2068C78.7691 58.7764 79.0194 59.3632 79.233 59.9636L79.5258 60.8655L79.7132 61.4277C79.7925 61.6354 79.8476 61.8515 79.8772 62.0719C79.9943 62.6809 80.0529 63.3017 80.1114 63.9225C80.17 64.5432 80.0411 65.1874 80.0177 65.8199C79.9917 66.3503 79.9093 66.8764 79.7718 67.3894C79.6664 67.7993 79.5727 68.2678 79.4438 68.5606C78.3959 71.7866 77.0836 74.9205 75.5201 77.9306C74.0795 80.8119 72.5452 83.576 70.9523 86.2816C67.7665 91.7279 64.3113 96.9517 60.7155 102.082L60.5164 102.035Z" fill="#27272A"/>
<path d="M209.568 93.1039C207.506 93.1039 205.433 93.0102 203.348 92.9165L197.059 92.6471C195.513 92.5651 193.943 92.6471 192.374 92.4246C190.944 92.1754 189.532 91.835 188.146 91.4056C186.572 90.9262 185.086 90.1987 183.742 89.2505C183.355 88.9675 182.994 88.65 182.664 88.3018L182.161 87.7279C182.037 87.5751 181.924 87.4147 181.821 87.2477C181.386 86.6234 180.995 85.9699 180.65 85.2917C179.967 83.9575 179.448 82.5457 179.104 81.0869C178.548 78.6358 178.284 76.1274 178.319 73.6143C178.218 70.5187 178.666 67.4297 179.642 64.4903C179.982 63.5884 180.872 63.9047 181.704 64.8417C182.188 65.3725 182.583 65.9775 182.875 66.6337C183.239 67.36 183.42 68.1641 183.402 68.9762C183.352 71.7225 183.56 74.4675 184.023 77.1749C184.241 78.3932 184.531 79.5977 184.89 80.7824C185.261 81.9316 185.769 83.0325 186.4 84.0619C186.611 84.6592 187.982 85.4088 189.551 85.7133C191.121 86.0178 192.901 86.1584 194.658 86.4395C196.415 86.7206 198.593 86.8963 200.608 86.99C202.622 87.0837 204.66 87.0837 206.71 87.0954C209.228 87.0954 211.758 87.0954 214.288 87.0954C218.118 87.0017 221.995 87.0134 225.825 86.8494C228.823 86.7206 231.763 86.2755 234.832 86.1818C235.51 86.1349 236.191 86.1349 236.87 86.1818C239.423 86.4161 240.219 87.0954 240.383 88.8288C240.449 89.2157 240.481 89.6077 240.477 90.0001C240.383 91.3002 239.306 92.0966 237.631 92.3426C232.723 92.9751 227.418 93.0805 221.948 93.2327C217.895 93.3382 213.749 93.3499 209.615 93.4084L209.568 93.1039Z" fill="#1F78D1"/>
<path d="M182.875 76.1324C182.781 78.6154 182.746 81.1102 182.875 83.4996C182.875 84.6708 183.004 85.8421 183.144 86.9196C183.144 87.189 183.215 87.4467 183.261 87.6926C183.308 87.9386 183.261 87.9503 183.261 88.0206V88.1026C183.275 88.21 183.298 88.3158 183.332 88.4188C183.39 88.6765 183.636 88.7116 183.859 88.7819L183.917 88.8405H184.316L185.159 88.9224C185.733 88.9224 186.272 89.0747 186.892 89.0864C189.293 89.1918 191.788 89.1684 194.33 89.0864C198.031 88.9224 201.756 88.4071 205.527 88.1026C212.156 87.5755 218.844 86.9313 225.602 86.5448L230.767 86.2637L235.886 86.1232C237.607 86.1232 239.306 86.1232 241.051 86.1934L243.663 86.334C244.096 86.334 244.541 86.4511 244.975 86.5097H245.291H245.443L245.748 86.5799C245.748 86.4511 245.748 86.5799 245.748 86.5799C246.076 86.5799 246.497 86.8142 246.767 86.5799C247.013 86.3176 247.194 86.0005 247.294 85.6547C247.294 85.4907 247.399 85.315 247.446 85.1393L247.622 84.4248C247.762 83.7689 247.891 83.0779 247.985 82.3869C248.359 79.5371 248.528 76.6639 248.488 73.7899C248.403 66.3769 247.567 58.9916 245.994 51.747C245.689 50.6694 245.619 50.1541 245.865 50.0487C246.111 49.9433 246.673 50.2829 247.469 51.0677C248.532 52.1624 249.474 53.3679 250.28 54.6634C251.311 56.4907 252.054 58.466 252.482 60.5196C253.595 65.7184 254.242 71.0061 254.415 76.3198C254.522 79.0802 254.417 81.8447 254.099 84.5888C254.099 84.9402 253.993 85.315 253.935 85.6898C253.888 85.8981 253.857 86.1094 253.841 86.3223L253.618 87.2358C253.536 87.5404 253.478 87.8566 253.396 88.1494L253.08 89.0279C252.88 89.5983 252.617 90.1444 252.295 90.6559C251.138 92.7408 248.788 93.8643 246.439 93.4552H244.612L243.733 93.3849L241.906 93.2912L240.055 93.1741H238.158C236.893 93.1741 235.616 93.1741 234.316 93.1741C233.016 93.1741 231.739 93.1741 230.428 93.1741C221.222 93.3732 211.688 95.1066 202.048 96.0202C196.66 96.6277 191.235 96.8547 185.815 96.6995L183.671 96.5356H183.133L182.383 96.3599L180.884 95.868L179.385 95.5049C178.916 95.3245 178.489 95.0494 178.131 94.6967C177.411 93.9772 176.842 93.121 176.457 92.1785C176.256 91.7036 176.081 91.2188 175.929 90.7262C175.859 90.4685 175.789 90.2225 175.73 89.9766L175.602 89.3909C175.438 88.6413 175.32 87.9269 175.227 87.2124C175.039 85.7835 174.922 84.4014 174.864 83.0193C174.693 76.3939 175.026 69.7651 175.859 63.1901C176.409 58.1954 177.286 53.2422 178.483 48.3621C178.811 47.1908 179.174 45.8907 179.654 44.6141C180.287 42.9977 180.989 41.2526 182.664 40.585C183.443 40.2341 184.255 39.9633 185.089 39.7768C185.791 39.6128 186.4 39.4957 187.045 39.3786C188.321 39.1678 189.575 38.9921 190.816 38.8632C198.404 37.9068 206.043 37.4217 213.691 37.4109C215.377 37.4109 217.052 37.4109 218.774 37.5749C219.57 37.6451 220.296 37.7271 220.976 37.8325C221.655 37.938 222.229 38.1371 222.779 38.301C223.697 38.5569 224.584 38.9103 225.426 39.3552C226.56 39.8805 227.446 40.8252 227.898 41.9905C228.129 42.4196 228.306 42.8761 228.425 43.3491C228.507 44.0519 227.851 44.5204 226.703 44.6961C225.048 44.9892 223.371 45.1381 221.69 45.1411C220.086 45.2465 218.493 45.1411 216.865 45.1411C215.237 45.1411 213.609 45.1411 211.957 45.1411C208.666 45.1411 205.316 45.2817 201.966 45.4574C200.291 45.5511 198.605 45.6448 196.93 45.7853L194.435 46.0079L191.964 46.3827C190.421 46.6168 188.893 46.9335 187.384 47.3314L187.15 47.4016C187.068 47.4016 187.15 47.4016 187.15 47.4016V47.4953L187.091 47.671L186.857 48.4206C186.693 48.9477 186.541 49.4865 186.4 50.0604C186.108 51.2316 185.85 52.4029 185.604 53.5741C185.135 55.9986 184.737 58.4934 184.433 60.9999C183.772 66.0509 183.381 71.1335 183.261 76.2261L182.875 76.1324Z" fill="#1F78D1"/>
<path d="M221.512 46.1133C221.91 45.6682 222.332 45.2349 222.683 44.7781C222.683 44.7078 222.753 44.6961 222.765 44.6961H222.835L222.988 44.6024C223.152 44.5204 223.386 44.4033 223.433 44.2042C223.466 44.0102 223.429 43.8106 223.327 43.642C223.255 43.5237 223.149 43.4298 223.023 43.3726L222.929 43.1618L222.648 42.9392C222.452 42.7849 222.265 42.6207 222.086 42.4473C219.244 39.8176 216.139 37.4863 212.821 35.4901C212.066 35.0262 211.284 34.6077 210.479 34.2368L209.307 33.6981L208.136 33.0773C206.076 32.1475 204.114 31.0135 202.28 29.6924C201.706 29.2356 202.057 28.5211 202.948 27.9121C204.022 27.1046 205.341 26.691 206.684 26.7408C207.855 26.9282 209.085 27.1274 210.268 27.3733C210.864 27.4834 211.455 27.6242 212.036 27.795C212.587 28.0292 213.126 28.2635 213.664 28.5211C215.86 29.5294 217.948 30.7577 219.896 32.1872C222.238 33.9675 225.084 35.0216 227.661 37.0361L228.2 37.4929L228.75 38.0317C229.132 38.3721 229.488 38.7401 229.816 39.1327C230.456 39.8692 230.982 40.6984 231.374 41.5923L231.62 42.2482L231.76 42.9392C231.76 43.1735 231.76 43.4077 231.831 43.6537C231.901 43.8997 231.831 44.1222 231.749 44.3447C231.699 44.5667 231.636 44.7857 231.561 45.0006L231.245 45.6331C231.054 46.0596 230.831 46.4708 230.577 46.8629C229.957 47.6476 229.336 48.4558 228.715 49.2054C227.356 50.7397 225.916 52.1687 224.475 53.5742C222.261 55.6941 219.86 57.5798 217.565 59.5124C215.761 60.9999 214.203 62.7802 212.329 64.1974C211.908 64.5019 211.521 64.8416 211.076 65.111C210.865 65.2281 210.678 65.3452 210.49 65.4272C210.308 65.4898 210.12 65.533 209.928 65.5561C208.953 65.7853 207.936 65.4123 207.34 64.6073C207.105 64.3497 206.848 64.1271 206.649 63.8695C206.016 63.0262 206.204 61.8081 206.941 60.5314C208.088 58.9028 209.425 57.4165 210.924 56.1041L215.222 52.1687C217.399 50.2345 219.46 48.1734 221.395 45.9962L221.512 46.1133Z" fill="#1F78D1"/>
<path d="M236.236 23.5902C236.342 23.9533 235.756 23.8831 234.796 23.5902C234.373 23.4 233.979 23.1517 233.625 22.8524C233.432 22.6091 233.26 22.3506 233.109 22.0793C233.109 21.9505 233.215 20.463 233.191 19.9242C233.208 19.454 233.32 18.9919 233.519 18.5656C233.847 17.6871 234.128 16.7736 234.468 15.86C234.545 15.6545 234.674 15.4728 234.843 15.3329C235.4 14.8105 235.805 14.1466 236.014 13.4121C236.014 13.295 236.155 13.2013 236.014 13.0021C235.873 12.803 236.881 10.847 237.185 10.6596C237.888 10.2848 238.438 9.82806 239.176 9.48839C239.27 9.48839 239.282 9.32442 239.528 9.38298C240.102 9.53524 240.16 9.38298 240.324 9.19558C240.57 8.99626 240.847 8.83805 241.144 8.72708C241.385 8.69416 241.629 8.69416 241.87 8.72708C242.176 8.85977 242.446 9.06475 242.655 9.32442C242.76 9.55867 243.088 9.67579 243.323 9.85148C243.409 9.90823 243.491 9.97085 243.569 10.0389C243.695 10.418 243.774 10.8115 243.803 11.2101C243.89 11.5952 243.945 11.9871 243.967 12.3814C243.967 12.3814 243.85 12.967 243.686 13.5526C243.533 13.9626 243.404 14.3811 243.299 14.8059C243.299 14.9347 243.112 14.9816 242.983 15.0518C242.854 15.1221 242.479 16.8087 242.479 16.8673C242.28 17.1601 242.257 17.5466 241.624 17.6286C241.495 17.6286 241.484 17.7106 241.449 17.7808C241.126 18.3339 240.733 18.8419 240.277 19.2918C240.077 19.5568 239.901 19.839 239.75 20.1351C239.75 20.1351 239.633 20.2053 239.575 20.2405C239.516 20.2756 239.399 20.3225 239.364 20.3927C238.886 21.0333 238.467 21.7154 238.11 22.4307C238.04 22.6064 237.138 23.1217 237.08 23.3326C237.021 23.5434 236.19 23.4497 236.236 23.5902Z" fill="#1F78D1"/>
<path d="M247.538 39.0742C247.327 39.4138 246.929 38.9571 246.437 38.0786C246.227 37.653 246.096 37.1926 246.051 36.72C246.12 36.4288 246.21 36.143 246.32 35.865C246.39 35.7244 247.808 34.6 248.264 34.1432C248.702 33.7461 249.205 33.4289 249.752 33.2062L251.345 32.48C251.884 32.2692 252.446 32.1052 253.008 31.9413C253.274 31.8767 253.551 31.8767 253.816 31.9413C254.734 32.0682 255.669 31.9594 256.533 31.625C256.686 31.625 256.838 31.625 256.955 31.3439C257.072 31.0628 259.661 30.5475 260.012 30.7115L261.265 31.1331L262.437 31.6485C262.542 31.6485 262.671 31.6485 262.776 31.8827C263.01 32.4683 263.256 32.3863 263.491 32.4449C263.845 32.5379 264.179 32.6968 264.475 32.9134C264.663 33.118 264.817 33.3513 264.931 33.6044C265.022 33.95 265.022 34.313 264.931 34.6586C264.779 34.8928 264.931 35.2559 264.931 35.5721C264.938 35.6814 264.938 35.7909 264.931 35.9001C264.343 36.5672 263.688 37.1717 262.975 37.7038L262.565 37.8327C262.331 37.9029 262.015 37.9966 261.71 38.1138C261.078 38.2894 260.422 38.4534 260.293 38.5237C260.164 38.594 260.012 38.4534 259.86 38.3831C259.708 38.3129 257.951 39.0273 257.869 39.039C257.47 39.039 257.107 39.2967 256.615 38.8751C256.522 38.7931 256.44 38.8751 256.369 38.8751C255.664 39.015 254.945 39.0778 254.226 39.0625C253.857 39.1113 253.493 39.1896 253.137 39.2967C253.067 39.2967 252.985 39.2967 252.914 39.2147C252.844 39.1327 252.715 39.1327 252.633 39.2147C251.732 39.2732 250.838 39.4144 249.963 39.6364C249.775 39.7067 248.651 39.4021 248.428 39.5193C248.206 39.6364 247.632 38.9336 247.538 39.0742Z" fill="#1F78D1"/>
<path d="M105.334 164.6C106.478 163.356 107.458 161.97 108.251 160.477C108.493 159.956 108.693 159.415 108.848 158.861C109.56 156.71 109.874 154.448 109.773 152.185C109.723 151.151 109.577 150.124 109.34 149.116C109.07 147.828 108.661 146.574 108.497 145.239C108.497 144.829 108.965 144.654 109.668 144.794C110.468 144.935 111.159 145.436 111.542 146.153C112.789 148.901 113.24 151.945 112.842 154.937C112.74 156.806 112.462 158.661 112.01 160.477C111.853 160.998 111.657 161.507 111.425 162C111.202 162.468 110.944 162.89 110.698 163.335C110.183 164.192 109.616 165.018 109 165.806C108.239 166.792 107.396 167.713 106.482 168.559C105.072 169.844 103.472 170.903 101.738 171.698C100.406 172.4 98.9648 172.871 97.4751 173.092C97.1399 173.12 96.8029 173.12 96.4678 173.092C96.2037 173.099 95.9399 173.071 95.6831 173.01C95.4973 172.932 95.3298 172.816 95.1911 172.67C94.9452 172.434 94.7915 172.119 94.7578 171.78C94.7245 171.617 94.701 171.453 94.6875 171.288C94.6875 170.796 95.2146 170.339 95.9524 169.999C96.9611 169.73 97.9542 169.405 98.9274 169.027C99.8776 168.67 100.791 168.223 101.656 167.692C103.02 166.819 104.241 165.74 105.276 164.495L105.334 164.6Z" fill="#27272A"/>
<path d="M62.0568 136.221C61.9247 136.476 61.8149 136.743 61.7288 137.017C61.7288 137.111 61.7288 137.193 61.7288 137.275C61.5849 137.565 61.4936 137.878 61.4594 138.2C61.4594 138.341 61.5531 138.364 61.6585 138.388C61.764 138.411 62.0333 138.212 61.9396 138.645C61.6761 139.312 61.3548 139.955 60.9792 140.566C60.4522 141.444 59.7377 142.171 59.4332 142.018C59.1958 141.876 58.9723 141.711 58.7656 141.526C58.5726 141.305 58.4074 141.062 58.2736 140.8C58.029 140.307 57.9509 139.748 58.0511 139.207C58.1682 138.598 57.9106 138.188 57.9223 137.708C57.9601 137.224 58.0505 136.744 58.1917 136.279L58.4376 135.495C58.5313 135.096 58.7421 134.733 58.789 134.323C58.7664 134.019 58.7154 133.717 58.6367 133.421C58.6367 133.351 58.6367 133.269 58.6367 133.199C58.6367 132.941 58.9647 132.941 59.808 133.199L60.3702 133.363C60.855 133.501 61.3084 133.732 61.7054 134.042C62.0879 134.398 62.315 134.89 62.3379 135.413C62.311 135.693 62.248 135.968 62.1505 136.232L62.0568 136.221Z" fill="#27272A"/>
<path d="M132.027 202.853C131.528 202.737 131.041 202.572 130.574 202.361C130.404 202.315 130.24 202.252 130.082 202.173C129.531 201.831 129.079 201.351 128.771 200.78C128.653 200.545 128.478 200.358 128.349 200.147C128.121 199.921 128.016 199.598 128.068 199.28C128.068 199.163 128.489 199.023 128.923 198.906C129.244 198.795 129.579 198.728 129.918 198.707C130.281 198.882 130.527 198.835 130.551 199.234C130.574 199.632 130.832 199.433 130.984 199.503C131.191 199.611 131.412 199.69 131.64 199.737C131.8 199.755 131.961 199.755 132.12 199.737C132.381 199.753 132.641 199.709 132.882 199.608C133.057 199.515 133.128 199.21 133.233 199.011C133.338 198.812 133.233 198.917 133.303 198.906C133.374 198.894 133.584 198.999 134.065 199.655L134.381 200.089C134.717 200.47 134.901 200.962 134.896 201.471C134.877 201.68 134.826 201.886 134.744 202.08C134.654 202.228 134.544 202.362 134.416 202.478C134.159 202.685 133.865 202.84 133.549 202.935C133.049 203.016 132.539 203.016 132.038 202.935L132.027 202.853Z" fill="#27272A"/>
<path d="M66.3068 180.716C67.0505 181.837 68.0004 182.807 69.1061 183.574C69.5466 183.842 70.0044 184.08 70.4764 184.288C72.1495 185.189 73.9634 185.799 75.8408 186.092C76.6826 186.227 77.5405 186.227 78.3824 186.092C79.4599 185.963 80.4789 185.764 81.4862 185.577C81.8258 185.577 82.0367 185.822 81.9898 186.361C81.9498 186.705 81.8465 187.039 81.6853 187.345C81.4802 187.68 81.1942 187.958 80.8537 188.153C79.6371 188.766 78.292 189.079 76.93 189.067C76.2727 189.083 75.6151 189.051 74.9623 188.973C74.3124 188.867 73.6734 188.703 73.0532 188.481C71.5209 188.044 70.0185 187.508 68.5556 186.877C66.9945 186.047 65.6132 184.917 64.4913 183.55C64.1751 183.093 63.8237 182.672 63.5426 182.203L62.7228 180.739C62.1734 179.222 61.7809 177.652 61.5515 176.054C61.303 174.802 61.2359 173.52 61.3524 172.248C61.3622 171.965 61.4135 171.684 61.5047 171.416C61.8677 170.421 62.2308 170.245 62.957 170.245C63.1144 170.253 63.271 170.272 63.4255 170.303C63.9535 170.515 64.2782 171.049 64.222 171.615C64.3157 172.611 64.222 173.442 64.3391 174.297C64.4296 175.173 64.5981 176.04 64.8427 176.886L65.159 177.963L65.4986 178.865C65.5919 179.173 65.73 179.465 65.9086 179.732C66.0469 180.022 66.2157 180.297 66.4122 180.552L66.3068 180.716Z" fill="#27272A"/>
<path d="M158.017 160.032C157.649 160.95 157.21 161.839 156.706 162.69C156.448 163.112 156.225 163.557 155.933 163.955L155.078 165.127C154.696 165.724 154.269 166.292 153.801 166.825C153.39 167.296 152.94 167.731 152.454 168.125C151.986 168.535 151.54 168.957 151.072 169.296C150.102 170.034 149.085 170.707 148.027 171.311C147.558 171.569 147.113 171.861 146.668 172.142L145.309 172.974C144.188 173.751 142.9 174.256 141.55 174.45C141.116 174.45 140.929 173.63 140.976 172.693C141.023 171.756 141.28 170.772 141.901 170.514L142.733 170.186L143.529 169.777C144.056 169.507 144.618 169.296 145.134 169.015C145.649 168.734 146.164 168.453 146.715 168.184C147.265 167.914 147.734 167.575 148.284 167.294C149.52 166.466 150.556 165.373 151.318 164.096C151.833 163.464 152.185 162.726 152.641 162.046C153.098 161.367 153.414 160.606 153.719 159.833L154.269 158.404L154.679 156.963C154.867 156.202 154.984 155.429 155.113 154.621C155.21 153.844 155.238 153.06 155.195 152.278C155.095 151.091 154.892 149.915 154.586 148.764C154.586 148.507 154.48 148.261 154.469 148.003C154.395 147.64 154.436 147.264 154.586 146.925C154.78 146.639 155.031 146.396 155.324 146.211C155.464 146.117 155.593 146.012 155.722 145.942C155.958 145.824 156.235 145.824 156.471 145.942C156.859 146.059 157.2 146.297 157.444 146.621C157.868 147.163 158.259 147.73 158.615 148.319C158.926 148.911 159.158 149.541 159.306 150.193C159.489 150.841 159.615 151.503 159.681 152.173C159.7 152.849 159.673 153.526 159.599 154.199C159.51 155.198 159.346 156.188 159.107 157.162C158.837 158.134 158.58 159.106 158.217 160.043L158.017 160.032Z" fill="#27272A"/>
<path d="M91.3352 118.605C90.7144 118.874 90.1639 119.202 89.4963 119.518C88.8287 119.835 88.3251 120.268 87.7746 120.69C87.2241 121.111 87.0601 121.439 86.6736 121.791C85.2824 123.086 84.0975 124.587 83.1599 126.241C82.771 126.984 82.4722 127.77 82.2697 128.584C82.0599 129.625 81.7541 130.644 81.3561 131.629C81.2039 131.957 80.7939 131.969 80.2786 131.629C79.7632 131.289 78.9434 130.598 78.9902 129.837C78.9891 129.171 79.0361 128.505 79.1308 127.846C79.286 127.214 79.4896 126.596 79.7398 125.995C80.0092 125.41 80.2903 124.824 80.6065 124.274C80.9228 123.723 81.321 123.208 81.7075 122.704C82.7031 121.533 83.4644 120.139 84.5654 119.015C85.159 118.39 85.8056 117.818 86.4979 117.305L87.5403 116.543L88.7116 115.911C89.6435 115.47 90.6065 115.098 91.5928 114.798C92.3659 114.587 93.1389 114.412 93.9353 114.213C94.7318 114.013 95.5048 114.025 96.2778 113.896C97.0509 113.767 97.4491 113.779 98.0699 113.709C98.6706 113.619 99.2785 113.588 99.8853 113.615C100.15 113.602 100.414 113.63 100.67 113.697C101.63 113.99 101.841 114.295 101.935 115.021C101.946 115.169 101.946 115.318 101.935 115.466C101.935 115.887 101.443 116.391 100.764 116.637L100.014 116.895C99.7801 116.956 99.5409 116.995 99.2997 117.012C98.8195 117.012 98.3627 117.211 97.9059 117.281C97.4491 117.351 96.9806 117.351 96.5355 117.433C96.0904 117.515 95.6454 117.586 95.2003 117.633C94.866 117.663 94.5361 117.729 94.2164 117.832L93.2443 118.078C92.6022 118.274 91.9725 118.508 91.3586 118.78L91.3352 118.605Z" fill="#27272A"/>
<path d="M96.8679 139.687C94.4138 139.24 91.8852 139.446 89.5359 140.285C85.2961 141.804 81.9831 145.177 80.5407 149.444C79.3402 152.56 79.2574 155.995 80.3064 159.165C81.4342 162.433 83.5147 165.289 86.2798 167.364C88.7729 169.171 91.7741 170.143 94.8534 170.14C96.8552 170.275 98.8661 170.157 100.838 169.788C102.842 169.445 104.797 168.859 106.66 168.043C107.831 167.505 107.901 167.832 107.222 168.887C107.021 169.201 106.789 169.495 106.531 169.765C106.22 170.136 105.875 170.477 105.5 170.784C104.597 171.603 103.532 172.222 102.373 172.599C100.129 173.351 97.7912 173.785 95.4273 173.888C92.9981 173.936 90.5806 173.539 88.2944 172.717C87.7015 172.508 87.1225 172.261 86.5609 171.979C85.969 171.699 85.3976 171.378 84.8509 171.018C83.8555 170.32 82.9228 169.536 82.0633 168.676C80.3051 167.004 78.875 165.017 77.8468 162.82C76.5847 160.143 75.9098 157.228 75.8674 154.269C75.8528 151.291 76.5601 148.353 77.9288 145.708C81.0118 139.927 86.7308 136.024 93.237 135.26C97.1633 134.89 101.113 135.663 104.61 137.485C107.224 138.898 109.47 140.904 111.169 143.342C111.992 144.551 112.686 145.842 113.242 147.195C113.846 148.565 114.241 150.018 114.413 151.505C114.807 156.054 113.714 160.608 111.298 164.483C110.8 165.339 110.241 166.157 109.623 166.931C108.848 168.02 107.835 168.917 106.66 169.554C106.034 169.894 105.296 169.958 104.622 169.73C104.347 169.663 104.081 169.569 103.825 169.449C103.111 168.957 103.825 167.692 105.207 165.83C107.334 163.188 108.85 160.108 109.646 156.811C110.016 155.278 110.123 153.694 109.962 152.126C109.854 151.378 109.666 150.644 109.4 149.936C107.407 144.501 102.596 140.594 96.8679 139.758V139.687Z" fill="#27272A"/>
<path d="M88.7943 112.386C92.7291 110.702 97.1188 110.405 101.245 111.542C102.742 111.889 104.188 112.433 105.543 113.159C110.147 115.814 113.249 120.466 113.929 125.738C114.265 127.916 114.213 130.136 113.777 132.297C113.482 133.676 112.973 135 112.266 136.22C112.087 136.523 111.888 136.812 111.669 137.087C111.435 137.357 111.177 137.603 110.931 137.849C110.448 138.342 109.909 138.778 109.326 139.149C108.624 139.617 108.483 139.242 108.577 138.399C108.577 137.966 108.729 137.45 108.811 136.841C108.879 136.212 108.981 135.586 109.115 134.967C109.922 132.979 110.197 130.816 109.912 128.689C109.617 126.577 108.975 124.527 108.014 122.622C107.407 121.455 106.542 120.442 105.485 119.659C104.956 119.27 104.386 118.941 103.786 118.675L102.896 118.23C102.592 118.101 102.275 118.019 101.959 117.902C100.592 117.393 99.1532 117.104 97.6958 117.047C96.9467 117.006 96.196 117.006 95.447 117.047C94.6885 117.105 93.9363 117.227 93.1982 117.41C91.3306 117.82 89.563 118.596 87.9978 119.694C85.555 121.334 83.7162 123.728 82.7623 126.511C82.5843 127.038 82.4703 127.585 82.4227 128.139L82.3055 128.97V129.802C82.3055 130.364 82.3055 130.891 82.3875 131.453C82.4695 132.016 82.5632 132.543 82.6803 133.082C82.7975 133.62 82.9497 134.007 83.0551 134.464C83.3597 136.209 83.2308 136.806 82.165 137.743C81.9307 137.942 81.7082 138.188 81.4739 138.352C80.6775 138.938 79.4711 138.504 78.5107 136.958C77.7962 135.813 77.285 134.553 76.9998 133.234C76.8467 132.569 76.7294 131.897 76.6484 131.219C76.5898 130.516 76.5781 129.802 76.5781 129.088C76.5919 126.121 77.4008 123.213 78.9206 120.666C81.1991 116.875 84.6418 113.921 88.7357 112.245L88.7943 112.386Z" fill="#27272A"/>
<path d="M93.3886 145.626C94.154 145.846 94.9382 145.995 95.7311 146.071C96.033 146.061 96.3342 146.034 96.6329 145.989C97.7709 146.046 98.9105 145.915 100.006 145.602C100.48 145.439 100.932 145.219 101.353 144.946C101.82 144.501 102.38 144.165 102.993 143.963C103.227 143.963 103.778 144.408 104.164 145.064C104.551 145.72 104.89 146.633 104.586 147.09C104.281 147.547 103.988 147.804 103.672 148.132C103.333 148.44 102.977 148.73 102.606 148.999C102.193 149.166 101.771 149.311 101.341 149.432C100.902 149.53 100.455 149.593 100.006 149.62C99.4855 149.653 98.9706 149.748 98.4718 149.901C97.9723 150.045 97.4636 150.154 96.9492 150.229C95.7993 150.332 94.6406 150.277 93.5057 150.065C92.8082 149.923 92.1198 149.739 91.4443 149.514C90.9407 149.327 90.4487 149.093 89.9685 148.87C89.4883 148.648 89.0198 148.367 88.5747 148.074C88.1297 147.781 87.8134 147.687 87.4738 147.453C87.1341 147.219 86.7827 146.949 86.4665 146.668C86.3172 146.552 86.1868 146.414 86.08 146.258C85.9698 146.142 85.9145 145.984 85.9277 145.825C85.9274 145.69 85.9471 145.556 85.9863 145.427C86.0997 145.158 86.2765 144.921 86.5016 144.736C86.6125 144.624 86.7298 144.518 86.853 144.419C87.326 144.129 87.8838 144.01 88.4342 144.08C88.8793 144.08 89.0432 144.244 89.3829 144.255C89.7226 144.267 89.9451 144.349 90.1794 144.408C90.4138 144.424 90.6417 144.492 90.847 144.607C91.0395 144.71 91.2391 144.8 91.4443 144.876C92.0694 145.168 92.7256 145.388 93.4003 145.532L93.3886 145.626Z" fill="#27272A"/>
<path d="M122.469 181.489C125.166 180.141 127.386 177.999 128.829 175.352C129.3 174.381 129.658 173.359 129.895 172.306C130.16 171.379 130.314 170.424 130.352 169.46C130.381 168.973 130.381 168.484 130.352 167.996C130.349 167.764 130.325 167.533 130.281 167.305C130.263 167.076 130.224 166.848 130.164 166.626C129.678 164.592 128.803 162.671 127.587 160.969C126.482 159.402 125.087 158.062 123.476 157.022C122.468 156.396 121.401 155.871 120.29 155.452C119.74 155.265 119.213 154.972 118.651 154.808L117.819 154.492C117.526 154.421 117.245 154.339 116.952 154.246C116.226 154 116.25 153.157 117.023 152.255C118.115 151.028 119.759 150.445 121.38 150.709C122.984 151.042 124.516 151.66 125.901 152.536C127.263 153.358 128.525 154.337 129.66 155.452C130.784 156.544 131.782 157.758 132.635 159.071C133.527 160.399 134.244 161.836 134.767 163.346C134.931 163.803 135.06 164.272 135.189 164.775C135.313 165.289 135.406 165.809 135.47 166.333C135.568 166.828 135.634 167.329 135.669 167.832C135.738 168.321 135.777 168.814 135.786 169.308C135.89 171.287 135.648 173.269 135.072 175.164C133.713 179.211 131.005 182.669 127.4 184.956C125.292 186.33 122.962 187.328 120.513 187.907C118.686 188.355 116.805 188.536 114.926 188.446C113.05 188.392 111.19 188.081 109.398 187.521C106.537 186.724 103.909 185.249 101.738 183.222C101.238 182.785 100.801 182.28 100.438 181.723C100.17 181.276 99.9429 180.805 99.7585 180.318C99.6038 179.981 99.5354 179.61 99.5594 179.24C99.6174 178.674 99.8603 178.143 100.25 177.729C100.399 177.543 100.559 177.367 100.731 177.202C101.012 176.98 101.375 177.027 101.902 177.202C102.183 177.313 102.457 177.442 102.722 177.589C102.87 177.658 103.005 177.753 103.12 177.87C103.267 177.965 103.404 178.075 103.53 178.198C103.894 178.552 104.286 178.877 104.701 179.17C104.903 179.308 105.088 179.469 105.252 179.65C105.439 179.814 105.638 179.955 105.826 180.107L106.388 180.552L106.985 180.95C107.361 181.219 107.752 181.465 108.156 181.688C109.866 182.603 111.742 183.164 113.673 183.34C116.677 183.567 119.681 182.899 122.305 181.419L122.469 181.489Z" fill="#27272A"/>
<path d="M154.249 153.836C154.273 150.138 153.033 146.543 150.735 143.646C149.833 142.638 148.796 141.759 147.655 141.034C145.646 139.582 143.362 138.554 140.943 138.013C139.683 137.764 138.398 137.657 137.113 137.696C135.773 137.732 134.44 137.92 133.143 138.258C130.882 138.878 128.827 140.091 127.193 141.772C125.073 143.939 123.866 146.809 122.028 149.479C121.465 150.322 120.962 149.994 120.622 148.917C120.404 148.227 120.29 147.509 120.282 146.785C120.256 146.326 120.288 145.866 120.376 145.415C120.489 144.954 120.65 144.506 120.856 144.08C122.525 140.652 125.175 137.798 128.469 135.881C130.15 134.983 131.931 134.287 133.775 133.808C135.59 133.305 137.467 133.061 139.35 133.082C141.673 133.093 143.986 133.388 146.237 133.96C147.396 134.245 148.516 134.665 149.575 135.213C150.644 135.725 151.66 136.341 152.609 137.052C156.672 140.32 159.438 144.93 160.409 150.053C160.998 153.121 160.958 156.277 160.292 159.329C159.246 163.942 156.665 168.063 152.972 171.018C150.311 173.435 147.091 175.154 143.602 176.02C142.833 176.208 142.049 176.333 141.26 176.394C140.184 176.531 139.092 176.348 138.121 175.867C137.83 175.71 137.578 175.49 137.383 175.223C137.217 174.931 137.088 174.621 136.996 174.298C136.896 174.049 136.81 173.795 136.739 173.537C136.61 172.939 137.91 171.885 139.55 171.534C141.952 171.074 144.223 170.09 146.202 168.652C147.176 167.954 148.086 167.17 148.92 166.31C149.341 165.865 149.751 165.396 150.091 164.916C150.266 164.694 150.407 164.448 150.594 164.237C150.792 164.037 150.969 163.817 151.121 163.581C153.227 160.824 154.282 157.406 154.096 153.942L154.249 153.836Z" fill="#27272A"/>
<path d="M70.7343 189.758C67.0809 188.407 64.0343 185.788 62.149 182.379C61.7977 181.782 61.5049 181.208 61.1769 180.552C60.9081 179.925 60.6735 179.284 60.4742 178.631C59.8762 176.31 59.8081 173.885 60.275 171.534C60.7305 169.243 61.6601 167.072 63.0041 165.162C64.2189 163.496 65.7175 162.057 67.4314 160.91C67.9952 160.545 68.5777 160.208 69.1765 159.903C69.782 159.637 70.4141 159.437 71.0623 159.306C71.714 159.179 72.3782 159.128 73.0417 159.154C73.6947 159.161 74.3441 159.252 74.9742 159.423C75.759 159.622 75.5481 160.243 74.9157 160.969C74.1951 161.804 73.3636 162.537 72.4443 163.148C71.6346 163.54 70.852 163.986 70.1018 164.483C69.3666 165.018 68.6981 165.639 68.1107 166.333C66.8751 167.801 65.8357 169.423 65.0186 171.159C64.5868 172.302 64.407 173.524 64.4915 174.743C64.6008 175.99 64.8685 177.218 65.288 178.397C65.7439 179.68 66.4262 180.87 67.3025 181.911C68.2122 182.962 69.2982 183.846 70.5118 184.523C72.0343 185.358 73.7306 185.828 75.4662 185.893C76.808 185.92 78.1463 185.747 79.4367 185.378C80.7682 184.999 82.0355 184.422 83.1964 183.668C84.8669 182.465 86.1983 180.851 87.0615 178.983L87.6003 177.741C87.839 177.155 88.2468 176.654 88.7715 176.301C89.2267 176.057 89.7496 175.971 90.259 176.055C90.5359 176.037 90.8137 176.037 91.0906 176.055C91.9456 176.195 92.4258 177.226 92.2619 178.807C92.0625 179.982 91.6665 181.114 91.0906 182.157C90.4955 183.281 89.7595 184.324 88.9004 185.261C87.1032 187.156 84.8898 188.608 82.4351 189.501C81.99 189.676 81.5566 189.817 81.1116 189.957L79.6709 190.332C79.1857 190.45 78.6924 190.532 78.1952 190.578C77.703 190.657 77.2059 190.7 76.7077 190.707C74.6985 190.786 72.6923 190.488 70.7929 189.829L70.7343 189.758Z" fill="#27272A"/>
<path d="M139.661 117.703C139.197 118.223 138.692 118.705 138.15 119.144C137.778 119.45 137.387 119.731 136.979 119.987C136.583 120.2 136.172 120.383 135.749 120.537C135.18 120.802 134.577 120.988 133.957 121.088C133.476 121.113 132.995 121.046 132.54 120.889C132.067 120.751 131.654 120.458 131.369 120.057C131.216 119.905 131.205 119.612 131.123 119.436C131.042 119.24 131.009 119.027 131.029 118.816C131.017 118.345 131.092 117.877 131.252 117.434C131.597 116.495 132.069 115.608 132.657 114.798C133.008 114.248 133.172 113.943 133.418 113.627C133.665 113.292 133.962 112.996 134.297 112.749C134.519 112.596 134.8 112.877 135.035 113.299C135.304 113.711 135.416 114.205 135.351 114.693L135.058 115.524H134.988C134.742 115.685 134.547 115.913 134.426 116.18C134.262 116.473 134.426 116.672 134.531 116.649C134.685 116.635 134.838 116.608 134.988 116.567C135.17 116.564 135.349 116.524 135.515 116.45L135.796 116.309C135.977 116.193 136.149 116.064 136.311 115.923C136.529 115.74 136.737 115.544 136.932 115.337C137.093 115.164 137.242 114.98 137.377 114.787C137.544 114.577 137.664 114.333 137.729 114.072C137.836 113.797 137.836 113.492 137.729 113.217C137.681 113.121 137.608 113.04 137.518 112.983C137.474 112.956 137.427 112.937 137.377 112.924C137.377 112.924 137.26 112.924 137.272 112.924L137.588 112.339C137.582 112.393 137.582 112.448 137.588 112.503C137.577 112.604 137.577 112.706 137.588 112.807C137.676 113.083 137.798 113.347 137.951 113.592C138.056 113.732 137.951 113.662 137.693 113.522C137.436 113.381 137.096 113.053 136.522 112.561L135.702 111.905C134.824 111.285 134.262 110.348 134.765 109.551C135.188 108.8 135.885 108.242 136.71 107.993C136.997 107.918 137.291 107.874 137.588 107.865C137.918 107.858 138.248 107.885 138.572 107.947C139.208 108.085 139.805 108.365 140.317 108.766L140.586 108.977L140.785 109.153C140.9 109.279 141.002 109.417 141.09 109.563C141.195 109.699 141.312 109.824 141.441 109.938C141.594 110.043 141.605 110.254 141.687 110.406C141.93 111.083 142.057 111.796 142.062 112.514V113.44L141.676 114.798C141.43 115.22 141.184 115.63 140.973 116.04C140.329 116.918 140.094 117.211 139.731 117.75L139.661 117.703Z" fill="#27272A"/>
<path d="M134.044 204.012C133.381 204.432 132.633 204.7 131.854 204.797C131.061 204.895 130.256 204.794 129.511 204.504C129.026 204.363 128.572 204.128 128.176 203.813C127.882 203.536 127.611 203.234 127.368 202.911C127.099 202.553 126.882 202.159 126.724 201.74C126.464 200.988 126.368 200.19 126.443 199.398C126.49 198.727 126.624 198.066 126.841 197.43C126.993 196.996 127.232 196.597 127.544 196.259C127.893 195.865 128.388 195.633 128.914 195.615C129.23 195.615 129.324 196.306 129.441 196.997C129.501 197.489 129.643 197.969 129.863 198.414C129.863 198.589 129.71 199.21 129.628 199.948C129.605 200.126 129.676 200.304 129.816 200.417C130.015 200.558 130.222 200.687 130.437 200.803C130.721 201.097 131.139 201.222 131.538 201.131C131.874 201.049 132.177 200.865 132.404 200.604C132.803 200.229 133.119 199.573 132.99 199.269C132.861 198.964 132.721 199.339 132.521 199.409C132.322 199.48 132.404 199.503 132.334 199.515C132.076 199.515 131.912 199.339 131.666 198.344L131.479 197.699C131.223 197.102 131.406 196.406 131.924 196.013C132.377 195.783 132.88 195.67 133.388 195.685C134.109 195.699 134.803 195.96 135.356 196.423C135.99 196.942 136.432 197.66 136.609 198.461C136.743 199.09 136.743 199.74 136.609 200.37C136.29 201.878 135.4 203.204 134.126 204.071L134.044 204.012Z" fill="#27272A"/>
<path d="M127.038 169.121C126.993 168.974 126.886 168.854 126.745 168.793L125.902 168.348C125.773 168.348 125.902 168.348 125.902 168.348C126.031 168.348 125.972 168.348 126.007 168.278C126.082 168.124 126.122 167.956 126.125 167.786C126.079 167.595 126.02 167.407 125.949 167.224C125.795 166.345 125.388 165.531 124.778 164.881C124.521 164.605 124.193 164.406 123.829 164.307C123.372 164.19 123.021 164.237 122.658 164.096C122.402 163.762 122.285 163.343 122.33 162.925C122.33 162.351 122.716 161.648 123.267 161.637C124.15 161.59 125.028 161.811 125.785 162.269C126.448 162.697 126.989 163.291 127.354 163.991C127.923 164.718 128.414 165.504 128.818 166.333C129.288 167.468 129.241 168.75 128.69 169.847L128.49 170.163V170.245C128.27 170.486 127.992 170.667 127.682 170.772C127.492 170.829 127.295 170.857 127.097 170.854C126.941 170.84 126.788 170.809 126.64 170.761C126.264 170.619 125.927 170.39 125.656 170.093C124.977 169.343 124.696 168.629 124.215 168.02C123.846 167.609 123.455 167.218 123.044 166.849C122.957 166.789 122.875 166.722 122.798 166.65C122.564 166.38 122.681 166.216 123.044 165.549L123.278 165.104C123.48 164.606 124.036 164.353 124.543 164.53C125.199 164.757 125.815 165.085 126.37 165.502C126.824 165.856 127.219 166.279 127.542 166.755C127.734 167 127.903 167.263 128.045 167.54V167.633L127.952 167.762C127.87 167.856 127.776 168.008 127.717 168.055C127.659 168.102 127.612 168.172 127.565 168.243C127.411 168.466 127.282 168.706 127.179 168.957C127.164 169.023 127.164 169.09 127.179 169.156L127.038 169.121Z" fill="#27272A"/>
<path d="M55.6961 140.297C55.3815 139.891 55.1216 139.446 54.923 138.973C54.725 138.493 54.614 137.981 54.5951 137.462C54.5731 136.989 54.6204 136.516 54.7356 136.057C54.8129 135.621 54.9427 135.196 55.1221 134.792C55.2469 134.484 55.3957 134.186 55.5672 133.902C55.7162 133.609 55.9188 133.347 56.1646 133.129C56.9227 132.438 57.8605 131.975 58.8701 131.793C59.713 131.642 60.5736 131.619 61.4235 131.723C62.1442 131.809 62.8597 131.934 63.5669 132.098C64.5991 132.239 65.4852 132.903 65.9094 133.855C66.0265 134.206 65.2417 134.581 64.4687 134.967C64.1149 135.137 63.7743 135.333 63.4497 135.553C63.1452 135.74 62.9695 135.881 62.911 135.858C62.3722 135.694 61.4 135.541 60.4162 135.354C59.9296 135.268 59.4469 135.524 59.2449 135.975C59.1105 136.121 59.0245 136.305 58.999 136.502C58.9538 136.682 58.9302 136.867 58.9287 137.052C58.9886 137.394 59.1826 137.698 59.4675 137.896C60.0846 138.396 60.8326 138.71 61.6226 138.797C61.9496 138.819 62.2778 138.787 62.5947 138.704L63.5317 138.516C63.6577 138.474 63.787 138.443 63.9182 138.423C64.3984 138.423 64.539 138.61 64.9021 139.512L65.1363 140.121C65.417 140.719 65.2581 141.432 64.7498 141.854C64.0256 142.386 63.2006 142.765 62.3253 142.967C61.4831 143.046 60.6337 142.995 59.8071 142.815C58.19 142.46 56.7265 141.603 55.6258 140.367L55.6961 140.297Z" fill="#27272A"/>
<path d="M99.9709 158.134C100.414 157.526 100.891 156.944 101.4 156.389C101.587 156.19 101.693 155.909 101.904 155.722C102.639 155.029 103.448 154.421 104.316 153.906C104.726 153.672 105.113 153.402 105.488 153.133C106.042 152.593 106.855 152.416 107.584 152.676C107.842 152.793 107.701 153.789 107.584 154.773C107.538 155.22 107.519 155.67 107.525 156.12C107.525 156.495 107.607 156.705 107.525 156.752C107.332 156.881 107.118 156.976 106.893 157.033C106.696 157.098 106.491 157.134 106.284 157.139C106.061 157.139 105.804 157.139 105.534 157.209C104.89 157.303 104.539 157.806 104.059 158.146C103.508 158.545 102.98 158.976 102.477 159.434C102.163 159.717 101.866 160.018 101.587 160.336C101.137 160.795 100.744 161.306 100.416 161.859C100.221 162.297 100.079 162.757 99.9944 163.229C99.9944 163.323 99.9944 163.428 99.9241 163.522C99.8187 163.862 99.6547 163.92 99.1159 163.873H98.7411C98.3647 163.852 98.0608 163.558 98.0267 163.182C97.9933 162.125 98.2185 161.076 98.6826 160.125C99.0377 159.429 99.449 158.763 99.9124 158.134H99.9709Z" fill="#27272A"/>
<path d="M88.2414 159.153C88.8594 159.685 89.4387 160.261 89.9749 160.875C90.1623 161.098 90.4199 161.262 90.6073 161.508C90.9029 161.954 91.154 162.429 91.3569 162.925C91.5443 163.44 91.6498 163.956 91.7786 164.447C91.8739 164.845 91.9952 165.237 92.1417 165.619C92.4056 166.111 92.4646 166.688 92.3057 167.223C92.2237 167.399 91.6146 167.446 90.9704 167.422C90.3262 167.399 89.6352 167.329 89.5181 167.13C89.0674 166.551 88.7513 165.878 88.5928 165.162C88.4387 164.723 88.1574 164.34 87.7846 164.061C87.4304 163.636 87.0384 163.244 86.6134 162.89C86.3323 162.679 86.0629 162.421 85.7584 162.199C85.3034 161.832 84.7935 161.54 84.2475 161.332C83.8024 161.215 83.3573 161.145 82.9122 161.016C82.8155 161 82.721 160.973 82.6311 160.934C82.2798 160.781 82.2446 160.465 82.3149 159.915V159.528C82.4006 159.134 82.6526 158.797 83.0059 158.603C83.5323 158.395 84.0775 158.238 84.634 158.134C85.1365 158.024 85.6599 158.056 86.1449 158.228C86.8932 158.43 87.6132 158.726 88.2883 159.107L88.2414 159.153Z" fill="#27272A"/>
<path d="M257.305 130.527C256.274 132.529 255.185 133.911 253.603 133.502C252.69 133.244 251.741 133.747 250.804 133.853L241.34 134.895L236.655 135.411L231.9 135.657C229.171 135.809 226.454 136.172 223.701 136.418C219.11 136.84 214.507 137.308 209.892 137.589C207.55 137.753 205.207 137.519 202.795 137.671L199.281 137.917L195.767 138.105C193.425 138.233 191.024 138.339 188.646 138.386C186.268 138.432 183.774 138.058 181.349 137.929C180.443 137.968 179.54 138.054 178.643 138.187C178.241 138.254 177.831 138.123 177.543 137.835C176.582 136.793 176.278 133.665 176.84 130.808C177.285 128.606 177.847 127.106 178.667 127.083C180.588 127.083 182.509 127.013 184.441 126.931L190.227 126.79C191.797 126.79 193.354 126.322 194.912 126.275C197.36 126.216 199.831 126.369 202.291 126.462C205.91 126.556 209.529 126.697 213.148 126.615C217.295 126.533 221.429 126.24 225.575 126.052C226.887 125.994 228.199 125.959 229.499 125.935L235.66 125.818C237.71 125.818 239.771 125.994 241.832 126.064C246.119 126.24 250.394 126.404 254.716 126.685C255.04 126.697 255.362 126.744 255.677 126.825C256.836 127.212 257.023 127.61 257.305 130.527Z" fill="#27272A"/>
<path d="M244.715 170.314C243.965 172.001 242.993 173.219 241.669 172.867C240.877 172.83 240.084 172.933 239.327 173.172C234.056 173.687 228.786 174.027 223.574 174.343C222.402 174.437 221.325 174.554 220.189 174.694C219.053 174.835 217.94 174.847 216.816 174.882C213.009 175.034 209.214 175.21 205.408 175.245C203.463 175.245 201.519 174.929 199.551 174.94C197.584 174.952 195.663 174.999 193.695 175.046H190.767C189.796 175.116 188.821 175.116 187.851 175.046C185.859 174.812 183.892 174.285 181.901 173.992C181.174 173.886 180.437 173.992 179.699 173.992C179.362 174.015 179.033 173.881 178.809 173.629C178.059 172.727 177.872 170.267 178.41 168.007C178.82 166.273 179.324 165.055 180.015 165.032C183.201 164.95 186.398 164.704 189.584 164.622C190.872 164.622 192.172 164.352 193.461 164.411C195.487 164.481 197.502 164.762 199.528 164.903C202.491 165.114 205.454 165.36 208.429 165.418C211.838 165.488 215.234 165.36 218.643 165.324C219.182 165.324 219.72 165.324 220.259 165.324L221.864 165.453L231.936 166.343C235.45 166.613 238.964 166.847 242.361 167.058C242.618 167.058 242.874 167.093 243.122 167.163C244.176 167.55 244.34 167.878 244.715 170.314Z" fill="#27272A"/>
</svg>
