<svg width="265" height="265" viewBox="0 0 265 265" fill="none" xmlns="http://www.w3.org/2000/svg">
<path d="M26.0754 107.517C26.3205 107.159 26.524 106.775 26.6822 106.371C26.7357 106.362 26.7904 106.362 26.844 106.371C27.0061 106.321 27.164 106.258 27.3159 106.182C27.5721 105.966 27.1676 106.33 27.1002 106.56C27.1002 106.56 26.9518 106.479 26.7091 106.452H26.5608C26.5608 106.452 26.5608 106.452 26.4125 106.452C25.9779 106.545 25.5534 106.68 25.145 106.856C23.4174 107.62 21.6482 108.286 19.846 108.852C18.4857 109.244 17.0489 109.291 15.6661 108.987C15.2619 108.865 14.8729 108.697 14.5066 108.488C13.9763 108.166 13.5502 107.698 13.2796 107.139C12.8075 105.827 12.8363 104.387 13.3605 103.094C13.599 102.556 13.9023 102.049 14.2639 101.584C14.6684 101.139 15.0863 100.708 15.6122 100.236C16.9876 99.0253 18.5319 98.0215 20.1966 97.256C20.6075 97.061 21.008 96.845 21.3966 96.6088C21.7067 96.42 22.1247 96.1908 22.1113 96.1233C22.2084 96.0346 22.2825 95.9236 22.327 95.7997C22.3503 95.7456 22.3822 95.6955 22.4214 95.6514L22.4888 95.3952L22.5697 95.0447H22.8124C22.9234 95.013 23.0316 94.9725 23.136 94.9233C23.0395 95.0578 22.9581 95.2025 22.8933 95.3548C22.8933 95.4222 22.8124 95.3548 22.6641 95.3548C21.5101 95.391 20.3686 95.6048 19.2797 95.9885C18.0258 96.3526 16.7448 96.7436 15.3965 97.0807C14.547 97.2829 14.3448 96.5953 14.6684 95.557C15.1294 94.1508 16.0885 92.9616 17.3651 92.2131C18.0662 91.8389 18.7863 91.5013 19.5224 91.2019C20.3844 90.8414 21.2918 90.6009 22.2191 90.4872C22.927 90.3994 23.645 90.4452 24.336 90.6221C24.8671 90.7619 25.3693 90.9948 25.8192 91.3097C26.376 91.6834 26.8378 92.1821 27.1676 92.766C27.6551 93.6517 27.8884 94.6549 27.8417 95.6649C27.8246 95.9955 27.784 96.3244 27.7204 96.6492C27.6622 96.9574 27.5764 97.2597 27.4642 97.5526C27.3429 97.8897 27.208 98.2268 27.0597 98.5504C26.8958 98.8477 26.7158 99.1357 26.5204 99.4133L26.2237 99.8178C26.1563 99.6425 26.1563 99.6425 26.1563 99.6425L25.9541 99.8043H25.6035C25.0903 99.8997 24.5854 100.035 24.0933 100.209C23.2034 100.492 22.745 101.18 22.8663 101.746C22.9742 102.029 23.3517 102.002 23.6079 101.948L24.3495 101.732C24.9202 101.523 25.5127 101.378 26.1159 101.301C26.2237 101.301 26.2372 101.301 26.7226 101.301C27.208 101.301 27.3968 101.382 27.7339 101.436C28.0884 101.502 28.436 101.602 28.7721 101.732C29.1536 101.853 29.5166 102.025 29.8508 102.245C30.2167 102.476 30.5519 102.752 30.8486 103.067C31.6327 104.001 32.0412 105.193 31.9947 106.411C31.9454 107.942 31.5094 109.436 30.7272 110.753C30.354 111.413 29.9012 112.024 29.3789 112.573C29.2171 112.722 29.1227 112.856 28.9204 113.018C28.7182 113.18 28.5159 113.342 28.3541 113.45C28.0493 113.642 27.7342 113.818 27.4103 113.976C26.426 114.407 25.563 114.663 24.5653 115.108C24.0927 115.305 23.641 115.549 23.2169 115.836C22.8124 116.092 22.3405 116.537 22.5832 117.036C22.8259 117.535 23.3517 117.427 23.7967 117.4C24.2416 117.373 24.7405 117.292 25.145 117.239C25.8626 117.121 26.5924 117.099 27.3159 117.171H27.5856L27.8687 117.292C28.2629 117.447 28.6383 117.646 28.9878 117.886C29.9611 118.463 30.6645 119.405 30.943 120.502C30.9611 121.208 30.6466 121.882 30.0935 122.322C29.8575 122.569 29.6003 122.794 29.3249 122.996C28.8561 123.255 28.3054 123.322 27.7878 123.185C27.2309 123.097 26.7009 122.885 26.2372 122.565C25.9881 122.36 25.7052 122.2 25.4012 122.093L25.172 121.998H25.0507L24.6462 121.877C24.3488 121.75 24.0233 121.704 23.7023 121.742C23.3248 121.742 22.9877 121.742 22.5158 121.823C21.621 121.938 20.7209 122.005 19.8191 122.025C19.4447 122.021 19.0709 121.994 18.6999 121.944C18.4033 121.944 18.0527 121.836 17.8235 121.769C17.4084 121.659 17.0062 121.505 16.6235 121.311C16.3628 121.202 16.1143 121.066 15.8819 120.906C15.5664 120.709 15.2804 120.469 15.0324 120.191C14.6787 119.78 14.429 119.29 14.3043 118.762C14.1772 118.325 14.1226 117.869 14.1425 117.414L14.2773 116.376C14.3186 115.739 14.5382 115.127 14.9111 114.609C15.0406 114.364 15.2091 114.14 15.41 113.949C15.6257 113.733 15.801 113.517 16.0437 113.301L16.7853 112.614C17.0954 112.398 17.4594 112.196 17.783 111.98C18.1067 111.764 18.4977 111.548 18.8617 111.333C19.2394 111.102 19.6312 110.895 20.0348 110.713L22.5562 109.512L23.8237 108.892L24.6462 108.461C24.7471 108.422 24.8507 108.39 24.9563 108.366L25.2934 108.852C25.5265 109.164 25.7786 109.461 26.0484 109.742L26.2507 109.957L24.781 108.366C25.1788 108.087 25.5102 107.723 25.7518 107.301L26.0754 107.517Z" fill="#27272A"/>
<path d="M32.1197 103.242L32.5647 106.303C32.6591 107.341 32.7804 108.366 32.8478 109.391C32.8478 110.146 33.0905 110.861 33.104 111.616C33.0971 114.265 32.8307 116.907 32.3085 119.504C32.1332 120.663 31.9579 121.809 31.7961 122.955C31.6237 124.476 31.0771 125.931 30.2051 127.189C29.8949 127.58 29.1938 127.189 28.5196 126.555C27.8096 126.001 27.3295 125.204 27.1713 124.317C27.2744 121.674 27.5718 119.042 28.0612 116.443C28.1929 114.769 28.1295 113.086 27.8724 111.427C27.7915 110.497 27.7241 109.566 27.5893 108.649C27.4544 107.732 27.3465 106.789 27.1713 105.858C26.996 104.712 26.6993 103.593 26.4297 102.46C26.0387 100.753 25.4972 99.0834 24.8117 97.4715C24.1164 96.3004 23.3225 95.1907 22.4386 94.1546C22.2633 93.9119 22.0475 93.7096 21.8857 93.4534C21.3194 92.5096 21.4812 92.0242 22.5734 91.0938C22.8296 90.8916 23.0588 90.6623 23.3285 90.4736C24.0671 89.8283 25.155 89.7834 25.9443 90.3657C26.4951 90.7798 27.0176 91.2303 27.5084 91.7141C27.9634 92.2329 28.3696 92.7926 28.7219 93.386C29.4458 94.5771 30.0596 95.8318 30.5556 97.1344C31.2763 99.0967 31.862 101.106 32.3085 103.148L32.1197 103.242Z" fill="#27272A"/>
<path d="M63.3999 69.2507C58.6294 75.8421 52.5754 81.4009 45.6017 85.5927C44.3477 86.3478 43.0803 87.0894 41.8128 87.8175C40.5392 88.5319 39.2296 89.1799 37.8891 89.7592C34.4173 91.2477 30.8386 92.4737 27.1832 93.4267C25.3629 93.8716 23.5562 94.357 21.7089 94.6806C20.792 94.8559 19.8886 95.0447 19.0122 95.2065L17.6639 95.3953H17.0841C16.8026 95.4204 16.5232 95.4655 16.2481 95.5301C16.0725 95.7449 15.9987 96.0253 16.0458 96.2987C16.0534 96.5789 16.0804 96.8582 16.1267 97.1346V97.3639L16.2211 97.7818L16.4369 98.6987C16.9223 100.775 17.5695 102.892 18.1627 105.049C18.756 107.207 19.0796 109.445 19.4032 111.683C19.8794 114.63 19.9701 117.626 19.6729 120.596C19.3143 123.71 18.127 126.672 16.2346 129.171C14.8863 130.695 14.1447 129.562 13.7536 127.688C13.5379 126.744 13.3357 125.598 13.1738 124.425C12.9576 123.188 12.8852 121.93 12.9581 120.677C13.0687 118.514 13.0191 116.347 12.8098 114.191C12.5414 111.894 12.1544 109.612 11.6502 107.355C11.3266 105.036 11.0704 102.595 10.612 100.047L10.221 97.5661C10.1009 96.997 10.0198 96.4204 9.97826 95.8402C9.92391 95.2932 9.92391 94.7422 9.97826 94.1952C10.1023 93.1921 10.5304 92.251 11.2053 91.4985C12.016 90.8292 12.9873 90.383 14.0233 90.2041L15.8301 89.921L16.72 89.7996L17.2054 89.7322C17.8661 89.7322 18.5538 89.5839 19.147 89.476C25.8011 88.3757 32.2316 86.1988 38.1858 83.0309C44.7966 79.7397 50.6794 75.1546 55.4851 69.5474C58.4462 66.0453 61.0145 62.2292 63.1437 58.1673C64.2224 56.374 65.2337 54.5133 66.2989 52.6256C66.8382 51.6682 67.4045 50.7379 68.0248 49.7131C68.6943 48.3616 69.9842 47.4244 71.4765 47.2052H72.299C72.5101 47.192 72.7217 47.192 72.9328 47.2052C73.3865 47.2322 73.8374 47.2954 74.2811 47.394C75.1754 47.5773 76.0294 47.9198 76.8025 48.4052C78.3006 49.4273 79.4117 50.9231 79.9577 52.6525C80.7998 55.6052 80.9246 58.7163 80.3217 61.7269C80.0774 63.1733 79.735 64.6013 79.297 66.0012C78.8297 67.3911 78.2572 68.7433 77.5846 70.0463C77.018 71.2074 76.3738 72.3291 75.6564 73.4037C74.6897 74.8832 73.4495 76.1645 72.0024 77.179C71.2501 77.7187 70.3008 77.9057 69.4001 77.6914C69.0336 77.6471 68.675 77.5518 68.3349 77.4083C67.3776 76.8689 68.2405 75.1565 69.8585 72.6351C72.1668 68.7915 73.8037 64.5829 74.6991 60.1898C75.1633 58.2844 75.2001 56.2998 74.807 54.3784C74.6828 53.8068 74.3973 53.2827 73.9845 52.8683C73.555 52.4969 73.0143 52.2787 72.4474 52.248C72.3354 52.2339 72.2222 52.2339 72.1103 52.248C72.1103 52.248 72.1103 52.248 72.1777 52.248C72.1777 52.248 72.2451 52.248 72.1777 52.248C72.0809 52.3657 71.9951 52.4921 71.9215 52.6256L71.6249 53.0705C71.4496 53.4615 71.3147 53.8121 71.1529 54.2166L69.3057 59.2729C68.9677 60.1677 68.576 61.0412 68.1326 61.8887C67.6742 62.7382 67.1888 63.5742 66.7034 64.4102C65.7056 66.0686 64.6674 67.7136 63.5348 69.3047L63.3999 69.2507Z" fill="#27272A"/>
<path d="M74.5006 134.039C71.0488 133.783 67.7589 133.284 64.3475 132.853C63.1205 132.664 61.8935 132.65 60.68 132.448C56.4057 131.693 52.1584 130.803 47.9381 129.846C46.0639 129.401 44.1762 129.064 42.2885 128.7C41.0885 128.47 39.8615 128.241 38.648 127.945L37.7311 127.675L36.949 127.176C36.3769 126.831 35.8315 126.443 35.3175 126.016C34.6703 125.477 35.0209 125.073 35.8973 124.668C36.3288 124.425 36.9086 124.129 37.5019 123.832C37.8255 123.684 38.176 123.522 38.5266 123.387L39.0525 123.198C39.2092 123.179 39.3677 123.179 39.5244 123.198C44.0818 124.088 48.9628 124.614 53.6821 126.016C56.6232 126.637 59.6071 127.034 62.6082 127.203C65.8981 127.589 69.1836 127.909 72.4646 128.16L75.4984 128.322H78.5052C79.9406 128.289 81.3725 128.167 82.793 127.958C83.1139 127.917 83.4301 127.845 83.7368 127.742C84.0316 127.666 84.3201 127.566 84.5998 127.446C84.8973 127.312 85.1856 127.159 85.4627 126.987C85.6884 126.854 85.9046 126.705 86.1099 126.542C86.6128 126.175 86.9478 125.621 87.0403 125.005C87.0814 124.419 86.7377 123.873 86.1908 123.657C85.9853 123.582 85.7731 123.528 85.5571 123.495C85.4208 123.452 85.2962 123.378 85.193 123.279C85.0853 123.108 85.0035 122.922 84.9503 122.726C84.7564 122.062 84.6923 121.366 84.7616 120.677C84.7616 120.299 84.7616 119.935 84.7616 119.598C84.8254 119.004 85.1455 118.467 85.638 118.129C85.9638 117.886 86.3113 117.674 86.6762 117.495C86.8919 117.414 87.0807 117.225 87.3504 117.252L88.2268 117.414C90.1188 117.787 91.8025 118.855 92.946 120.407C93.4876 121.197 93.8932 122.072 94.1461 122.996C94.265 123.959 94.2148 124.936 93.9978 125.882C93.7281 127.837 91.9887 129.441 90.3842 130.857C89.6539 131.46 88.8684 131.993 88.038 132.448L87.0537 132.933C86.6634 133.099 86.2625 133.239 85.8537 133.351C84.8009 133.701 83.7099 133.923 82.6042 134.012C82.1272 134.09 81.6448 134.131 81.1615 134.133H79.8131C78.8827 134.133 78.0198 134.133 77.1164 134.133C76.213 134.133 75.3366 134.133 74.4197 134.053L74.5006 134.039Z" fill="#27272A"/>
<path d="M99.63 106.883C99.8322 107.153 99.994 107.436 100.183 107.719L100.439 108.137C100.493 108.312 100.525 108.493 100.533 108.676C100.533 109.418 100.709 110.146 100.709 110.874V111.939C100.756 112.288 100.756 112.642 100.709 112.991L100.506 114.016C100.421 114.313 100.298 114.598 100.142 114.865C99.9536 115.27 99.7918 115.661 99.6165 115.984C99.4637 116.335 99.269 116.665 99.0367 116.969C98.273 117.958 97.3138 118.78 96.2186 119.382C95.2249 119.964 94.1468 120.387 93.0231 120.636C92.0689 120.897 91.086 121.037 90.0971 121.054C88.7937 121.202 87.4868 120.807 86.4836 119.962C86.1734 119.692 86.5779 119.194 87.1308 118.722C87.5765 118.27 88.128 117.936 88.7353 117.751C89.5215 117.737 90.302 117.615 91.0545 117.387C91.8603 117.183 92.6491 116.917 93.4141 116.591C94.3137 116.137 94.9866 115.332 95.2748 114.366C95.4636 113.895 95.504 113.517 95.6119 113.261C95.6925 112.921 95.7288 112.572 95.7198 112.223C95.756 111.727 95.4898 111.259 95.0456 111.036C94.8707 110.964 94.6903 110.905 94.5062 110.861C94.3671 110.849 94.2273 110.849 94.0882 110.861H93.5759C92.8208 110.861 92.0253 110.726 91.1758 110.618C89.781 110.562 88.3948 110.373 87.0364 110.052C86.7214 109.985 86.4107 109.9 86.106 109.796C85.9059 109.656 85.7362 109.477 85.6071 109.27C85.5528 109.016 85.5528 108.754 85.6071 108.501C85.759 107.891 86.0243 107.314 86.3892 106.802C86.5779 106.506 86.7532 106.209 86.9555 105.939C87.2804 105.511 87.6719 105.138 88.1151 104.834C88.5635 104.477 89.0366 104.153 89.5308 103.863C89.9416 103.754 90.3612 103.682 90.7848 103.647C91.0812 103.629 91.3783 103.629 91.6747 103.647C92.2354 103.597 92.7995 103.597 93.3601 103.647C93.9264 103.647 94.6006 104.132 96.2726 104.429L98.2816 105.211L99.0771 105.926L99.7378 106.748L99.63 106.883Z" fill="#27272A"/>
<path d="M88.8596 88.195C91.1923 89.1254 93.6463 90.0288 96.1947 91.2288C97.2106 91.6044 98.179 92.0977 99.0801 92.6985C100.951 93.9788 102.368 95.8201 103.125 97.9571C103.374 98.9496 103.505 99.9678 103.516 100.991C103.524 101.538 103.479 102.084 103.381 102.622C103.264 103.197 103.074 103.754 102.815 104.281C102.344 105.206 101.648 105.999 100.793 106.587C100.029 107.077 99.191 107.441 98.3116 107.665C96.3198 108.353 94.138 108.237 92.2305 107.342C91.6507 107.045 91.9204 106.398 92.5271 105.71C93.154 104.91 93.9823 104.291 94.9272 103.917C96.1145 103.876 97.2615 103.476 98.2172 102.771C98.377 102.617 98.4893 102.42 98.5408 102.204C98.6242 101.673 98.6242 101.131 98.5408 100.6C98.5215 100.395 98.4854 100.192 98.4329 99.9931C98.3965 99.8562 98.3421 99.7247 98.2711 99.6021C98.1088 99.3088 97.8831 99.0554 97.6104 98.8605C96.9053 98.332 96.1459 97.88 95.3452 97.5121C93.2107 96.4125 90.9925 95.4838 88.7113 94.7345L84.1404 93.1704C81.8241 92.3044 79.5713 91.2772 77.3986 90.0962C75.463 89.249 73.6492 88.1471 72.0052 86.8197C71.6297 86.5093 71.2823 86.1664 70.967 85.795C69.8883 84.2848 70.1985 83.4219 71.3311 82.5454C71.5885 82.3315 71.8586 82.1334 72.1401 81.9522C73.0439 81.4606 74.1352 81.4606 75.039 81.9522C76.2391 82.6398 77.2368 83.3005 78.4099 83.8264C79.583 84.3522 80.81 84.9725 82.1988 85.5118C84.2483 86.3073 86.4461 87.2512 88.8461 88.0197L88.8596 88.195Z" fill="#27272A"/>
<path d="M89.3478 45.3447C89.5366 45.7087 89.0108 45.8975 88.0804 45.9919C87.6523 45.9802 87.2307 45.8839 86.8399 45.7087C86.6319 45.5115 86.4381 45.2997 86.2601 45.075C86.1792 44.9536 85.923 43.1469 85.7477 42.5401C85.6174 41.9792 85.572 41.402 85.6129 40.8277C85.6129 39.6816 85.6129 38.549 85.532 37.4433C85.5215 37.196 85.5581 36.9489 85.6399 36.7152C85.9448 35.9111 86.0195 35.038 85.8556 34.1938C85.8556 34.0455 85.8556 33.9106 85.6803 33.7758C85.3586 32.9148 85.2164 31.9971 85.2623 31.0791C85.5185 30.3106 85.5725 29.5555 85.8556 28.7465C85.8556 28.6386 85.8556 28.5307 86.0174 28.3959C86.298 28.2509 86.4471 27.9363 86.3815 27.6273C86.3815 27.4655 86.3815 27.2902 86.3815 27.115C86.4294 26.9285 86.4972 26.7477 86.5837 26.5756C86.7217 26.3668 86.8749 26.1685 87.0422 25.9823C87.2495 25.8358 87.5065 25.7776 87.7568 25.8205C87.959 25.9284 88.1883 25.7531 88.3905 25.6992C88.4664 25.6869 88.5438 25.6869 88.6197 25.6992C89.0096 25.9546 89.3834 26.2338 89.7389 26.5352C90.0914 26.8498 90.4079 27.2025 90.6827 27.5869L90.885 28.0588C91.0496 28.3925 91.1849 28.7399 91.2895 29.097C91.5052 29.8791 91.7075 30.7151 91.7749 30.8769C91.8423 31.0387 91.7749 31.2409 91.6805 31.4297C91.5861 31.6185 92.2198 33.9241 92.1794 34.032C92.1794 34.5309 92.3277 35.0433 91.8962 35.5422C91.8518 35.6408 91.8518 35.7537 91.8962 35.8523C91.8994 36.7213 91.7675 37.5856 91.5052 38.4141C91.4108 38.8321 91.4108 39.2771 91.3434 39.6951C91.3434 39.776 91.2625 39.8569 91.2355 39.9243C91.1744 40.0101 91.1288 40.1059 91.1007 40.2074C91.0063 41.2187 90.6288 42.203 90.6153 43.2008C90.6153 43.4435 89.9816 44.4548 89.9951 44.7244C90.0085 44.9941 89.2669 45.1963 89.3478 45.3447Z" fill="#27272A"/>
<path d="M100.964 64.7069C100.829 65.0035 100.425 64.8687 99.8717 64.5451C99.6407 64.3733 99.463 64.1395 99.3594 63.8709C99.379 63.6394 99.4151 63.4096 99.4672 63.1833C99.4672 63.0619 100.559 61.6327 100.923 61.1068C101.263 60.6032 101.672 60.1493 102.137 59.7584C103.023 58.945 103.995 58.2306 105.036 57.628C105.273 57.4905 105.534 57.399 105.804 57.3584C106.713 57.2149 107.592 56.9234 108.407 56.4954C108.542 56.4954 108.703 56.4011 108.798 56.1988C109.67 55.6056 110.675 55.2353 111.724 55.1201C112.169 55.201 112.587 55.1875 113.072 55.2954L114.34 55.592C114.461 55.592 114.582 55.592 114.704 55.7538C114.987 56.1853 115.216 56.1044 115.459 56.1449C115.812 56.1695 116.156 56.2659 116.47 56.428C116.661 56.5633 116.825 56.7323 116.955 56.9269C117.104 57.0887 116.955 57.655 116.955 57.7224C116.955 57.7899 116.955 58.1674 116.955 58.4101V58.6528C116.397 59.2108 115.793 59.7205 115.149 60.1764L114.771 60.3248L113.962 60.6753C113.382 60.945 112.762 61.0663 112.614 61.1742C112.465 61.2821 112.331 61.1742 112.182 61.1742C112.034 61.1742 110.402 61.9428 110.335 61.9563C109.944 61.9563 109.634 62.2933 109.135 62.0506C109.06 62.0073 108.967 62.0073 108.892 62.0506C108.25 62.2972 107.593 62.4999 106.924 62.6574C106.587 62.7653 106.276 62.9406 105.939 63.0484C105.939 63.0484 105.791 63.0484 105.724 63.0484C105.635 63.0277 105.543 63.0277 105.454 63.0484C104.641 63.325 103.859 63.6865 103.121 64.1271C102.959 64.235 101.935 64.4372 101.773 64.599C101.611 64.7608 101.018 64.5855 100.964 64.7069Z" fill="#27272A"/>
<path d="M233.614 138.857C234.928 137.279 236.266 135.719 237.613 134.162L239.617 131.893L240.27 131.132C240.356 131.043 240.331 130.939 240.314 130.779C240.213 130.19 240.023 129.62 239.752 129.087C239.485 128.492 239.148 127.933 238.824 127.271C237.562 125.042 236.178 122.885 234.679 120.808C233.174 118.676 231.625 116.56 230.08 114.435L225.917 108.797C224.079 106.435 222.436 103.929 221.004 101.302C220.578 100.473 221.051 100.351 221.922 100.682C223.153 101.267 224.231 102.13 225.072 103.203C226.902 105.591 228.806 107.896 230.657 110.281C232.507 112.665 234.303 115.101 236.08 117.626C237.122 119.14 238.268 120.629 239.401 122.161C240.6 123.711 241.667 125.359 242.589 127.089C242.845 127.616 243.072 128.158 243.268 128.711C243.375 128.986 243.457 129.281 243.549 129.571L243.645 130.036C243.697 130.228 243.729 130.426 243.741 130.625L243.796 131.251L243.784 131.875C243.754 131.971 243.811 132.096 243.746 132.181L243.57 132.435L243.235 132.948C243.119 133.105 242.982 133.294 242.885 133.418L242.635 133.726L242.136 134.332C240.827 135.921 239.542 137.498 238.278 139.101C236.696 141.067 235.162 143.068 233.661 145.089C231.365 148.135 229.093 151.228 227.001 154.396C225.379 156.862 224.013 159.437 222.538 161.958C222.219 162.515 221.941 163.094 221.61 163.598C220.336 165.632 219.645 166.082 218.284 165.772C217.979 165.726 217.678 165.654 217.385 165.558C216.423 165.18 216.289 163.912 217.055 162.298C218.229 159.874 219.551 157.525 221.014 155.264C222.52 152.983 224.178 150.77 225.865 148.557C228.399 145.305 230.956 142.041 233.563 138.802L233.614 138.857Z" fill="#27272A"/>
<path d="M239.837 118.33C241.035 120.115 242.216 121.923 243.381 123.755L245.107 126.536L245.946 127.957L246.163 128.314L246.485 128.888L247.159 130.065L247.58 131.403C247.641 131.873 247.597 132.351 247.451 132.802C247.131 133.721 246.698 134.597 246.162 135.41C245.531 136.438 244.88 137.374 244.23 138.31C242.927 140.161 241.599 141.966 240.25 143.745C238.306 146.283 236.451 148.879 234.448 151.36C232.117 154.222 229.757 157.052 227.368 159.851L223.759 164.04L219.241 169.22C219.022 169.461 218.769 169.668 218.489 169.834L218.109 170.091L217.922 170.226L217.757 170.29L217.094 170.556C216.965 170.616 216.817 170.621 216.684 170.572C216.548 170.545 216.415 170.503 216.288 170.448C215.791 170.147 215.353 169.758 214.997 169.3C214.575 168.741 214.21 168.142 213.906 167.511C213.573 166.847 213.251 166.147 212.965 165.488L212.586 164.665L212.303 163.997C211.928 163.097 211.556 162.218 211.211 161.318C209.386 156.692 207.478 152.117 205.441 147.676C204.09 144.839 202.836 141.965 201.462 139.17C200.781 137.769 200.053 136.392 199.294 135.054C198.605 133.715 197.721 132.485 196.672 131.404C196.014 130.793 195.679 130.659 195.746 130.506C195.813 130.353 196.308 130.315 197.157 130.687C198.293 131.202 199.341 131.891 200.263 132.731C201.585 133.852 202.756 135.14 203.746 136.563C204.626 137.862 205.499 139.185 206.365 140.531L207.597 142.548C208.005 143.217 208.333 143.928 208.687 144.618C210.093 147.404 211.412 150.221 212.682 153.042C213.952 155.862 215.218 158.663 216.378 161.497L216.797 162.594L217.022 163.109C217.036 163.153 217.048 163.199 217.056 163.245C217.079 163.358 217.101 163.472 217.142 163.619C217.183 163.767 217.221 163.953 217.342 164.059C217.464 164.164 217.533 163.944 217.662 163.869L217.967 163.636C218.221 163.403 218.463 163.157 218.691 162.898L219.653 161.799L221.561 159.558C222.833 158.025 224.078 156.484 225.297 154.935C227.752 151.842 230.167 148.63 232.56 145.488C234.506 142.912 236.412 140.339 238.279 137.769C239.199 136.493 240.114 135.206 240.968 133.929L241.575 133.008L241.937 132.436C242.022 132.295 242.094 132.146 242.153 131.992C242.188 131.917 242.174 131.829 242.117 131.769L242.002 131.549C241.854 131.223 241.09 129.96 240.525 129.021C239.96 128.081 239.291 127.041 238.644 126.057C235.732 121.573 232.661 117.165 229.54 112.828L225.735 107.466L223.844 104.779L222.58 102.925L222.134 102.254L221.914 101.906C221.843 101.826 221.789 101.596 221.643 101.695C221.253 102.061 220.915 102.478 220.637 102.935L220.194 103.607L219.673 104.409L218.166 106.757C214.889 112.103 211.883 117.572 208.164 122.789C207.334 123.929 206.487 125.064 205.551 126.171C204.292 127.769 202.675 129.049 200.829 129.906C199.756 130.381 198.513 130.27 197.542 129.611C197.211 129.403 196.936 129.118 196.74 128.78C196.58 128.305 196.996 127.963 197.449 127.38C198.143 126.451 198.907 125.577 199.735 124.765C201.484 122.811 203.087 120.732 204.531 118.543C206.072 116.274 207.576 113.906 209.085 111.492C210.594 109.078 212.107 106.588 213.633 104.121L214.802 102.237L215.387 101.291L216.551 99.5798C217.272 98.3931 218.128 97.2939 219.102 96.3042C219.49 95.955 219.94 95.6801 220.427 95.4931C220.87 95.3188 221.343 95.2339 221.819 95.2433C222.338 95.3725 222.848 95.5325 223.348 95.7223C223.829 95.6989 224.406 96.478 224.958 97.0274L226.623 99.4796L227.949 101.411L229.723 103.762L233.136 108.557C235.421 111.763 237.698 114.996 239.967 118.255L239.837 118.33Z" fill="#27272A"/>
<path d="M177.523 218.358C174.718 220.533 171.576 222.233 168.221 223.392C164.947 224.502 161.547 225.199 158.1 225.467C155.641 225.711 153.164 225.746 150.699 225.573C142.041 224.814 133.801 221.517 127.009 216.094C124.001 213.682 121.392 210.812 119.278 207.588C117.904 205.511 116.814 203.259 116.036 200.894C115.389 198.493 115.2 195.992 115.479 193.521C115.648 191.996 116.684 192.261 117.885 193.38C119.404 194.848 120.662 196.563 121.605 198.454C122.87 202.296 124.983 205.805 127.787 208.72C130.716 211.8 134.132 214.376 137.898 216.345C142.53 218.851 148.161 219.714 153.526 219.831C159.447 220.097 165.325 218.71 170.504 215.827C173.654 213.998 176.409 211.561 178.609 208.658C182.02 204.131 184.367 198.894 185.477 193.335C186.257 189.036 186.449 184.651 186.046 180.301C185.972 179.346 185.827 178.414 185.753 177.46C185.709 173.909 185.946 172.76 187.531 171.76C187.826 171.527 188.136 171.312 188.459 171.116C189.35 170.618 190.964 171.962 191.669 174.769C192.249 176.863 192.588 179.015 192.68 181.186C192.816 183.403 192.799 185.628 192.63 187.843C192.28 192.42 191.301 196.926 189.72 201.235C187.346 207.982 183.16 213.944 177.621 218.469L177.523 218.358Z" fill="#27272A"/>
<path d="M134.56 168.761C134.572 172.486 136.34 177.383 139.69 179.398C141.134 180.27 143.442 180.078 144.045 178.168C144.949 174.784 144.636 171.19 143.159 168.013C142.593 166.507 141.654 165.17 140.43 164.125C139.518 163.511 138.373 163.357 137.331 163.708C136.29 164.059 135.471 164.875 135.117 165.915C133.706 169.31 139.012 171.415 140.423 168.02L140.598 167.58L139.104 169.138L138.413 169.257L136.529 168.209C138.278 169.955 139.528 173.61 138.762 176.054L143.118 174.813C141.436 173.498 140.4 171.525 140.271 169.394C140.395 167.841 139.29 166.46 137.747 166.241C136.183 166.08 134.78 167.204 134.594 168.765L134.56 168.761Z" fill="#27272A"/>
<path d="M152.592 163.072C152.606 166.878 154.411 172.158 157.834 174.25C159.278 175.122 161.599 174.92 162.19 173.009C163.093 169.479 162.748 165.746 161.212 162.442C160.647 160.911 159.697 159.551 158.455 158.493C157.555 157.879 156.421 157.716 155.385 158.051C154.348 158.385 153.523 159.179 153.151 160.203C151.739 163.609 157.056 165.716 158.456 162.32L158.642 161.881L157.148 163.439L156.445 163.557L154.528 162.505C156.348 164.327 157.673 168.347 156.886 170.88L161.24 169.651C159.604 168.653 158.245 165.572 158.269 163.69C158.259 160.057 152.576 159.381 152.593 163.06L152.592 163.072Z" fill="#27272A"/>
<path d="M29.0041 200.745C29.0041 200.745 24.3641 197.075 28.3641 193.175C29.4267 192.025 30.9501 191.415 32.5128 191.511C34.0754 191.608 35.5117 192.403 36.4241 193.675C37.2041 194.855 38.0041 197.525 36.1941 199.175C34.1531 200.748 31.5149 201.324 29.0041 200.745Z" fill="#1F78D1"/>
<path d="M30.3622 179.095C27.9522 177.405 26.2222 171.265 34.5522 169.935C34.5522 169.935 36.9822 169.525 37.6522 173.535C38.3222 177.545 36.3622 177.705 34.3622 178.735C32.3622 179.765 31.1422 179.675 30.3622 179.095Z" fill="#1F78D1"/>
<path d="M26.4344 157.295C25.7093 156.781 25.2027 156.014 25.0144 155.145C24.8187 152.368 26.6303 149.846 29.3244 149.145C34.5044 147.805 36.9144 150.435 37.6344 152.705C38.3544 154.975 37.3644 157.165 34.3644 158.195C31.7344 159.085 28.9244 159.325 26.4344 157.295Z" fill="#1F78D1"/>
<path d="M73.7945 155.185C71.6745 155.005 69.5312 154.882 67.3645 154.815C66.5845 154.815 65.8045 154.965 65.0145 154.895C62.2345 154.685 59.4145 154.445 56.6045 154.355C55.3581 154.337 54.1119 154.403 52.8745 154.555C51.2663 154.865 49.6061 154.769 48.0445 154.275C47.5345 154.085 47.6145 153.135 48.0445 152.105C48.4745 151.075 49.1445 149.905 50.0445 149.635L51.2045 149.315C51.5873 149.236 51.9748 149.183 52.3645 149.155C53.1545 149.085 53.9445 149.035 54.7445 149.005C56.3673 148.943 57.9924 149.01 59.6045 149.205C61.6045 149.455 63.6045 148.985 65.6045 148.915C67.8045 148.915 70.0245 148.915 72.2445 149.015L76.3445 149.185C78.4245 149.265 80.5045 149.465 82.5945 149.525C84.2587 149.41 85.9281 149.39 87.5945 149.465C87.9829 149.481 88.3701 149.518 88.7545 149.575C89.328 149.649 89.8437 149.961 90.1745 150.435C90.4052 150.964 90.4266 151.561 90.2345 152.105C90.1645 152.445 90.0945 152.785 89.9945 153.105C89.6945 154.058 88.9478 154.805 87.9945 155.105C86.7438 155.391 85.4737 155.585 84.1945 155.685C83.5745 155.685 82.8745 155.685 82.1945 155.685C81.5145 155.685 80.8545 155.615 80.1945 155.605L77.0745 155.445C76.0745 155.375 74.9645 155.335 73.9045 155.315L73.7945 155.185Z" fill="#1F78D1"/>
<path d="M71.7046 175.645C69.6346 175.475 67.5246 175.345 65.4146 175.275C64.6546 175.275 63.8946 175.425 63.1146 175.355C60.3846 175.145 57.6246 174.905 54.8746 174.815C53.6517 174.798 52.4291 174.862 51.2146 175.005C49.6367 175.32 48.0043 175.224 46.4746 174.725C45.9746 174.535 46.0546 173.585 46.4746 172.555C46.8946 171.525 47.5546 170.355 48.4046 170.085L49.5046 169.815C49.8844 169.743 50.2686 169.697 50.6546 169.675C51.4246 169.595 52.1946 169.555 52.9846 169.525C54.574 169.458 56.1663 169.525 57.7446 169.725C59.6746 169.975 61.6346 169.505 63.5946 169.425C65.7546 169.425 67.9346 169.425 70.1046 169.525L74.1046 169.695C76.1046 169.775 78.1846 169.975 80.2446 170.045C81.8865 169.95 83.5326 169.95 85.1746 170.045C85.5562 170.062 85.9367 170.099 86.3146 170.155C87.7446 170.545 88.0946 171.155 87.7446 172.675C87.6646 173.015 87.6046 173.355 87.4946 173.675C87.196 174.629 86.4487 175.377 85.4946 175.675C84.27 175.959 83.0269 176.156 81.7746 176.265C81.1646 176.265 80.4946 176.265 79.8446 176.265C79.1946 176.265 78.5346 176.195 77.8446 176.185L74.8446 176.025C73.8446 175.955 72.7846 175.915 71.7346 175.895L71.7046 175.645Z" fill="#1F78D1"/>
<path d="M73.4732 198.125C71.1832 197.955 68.8532 197.815 66.4732 197.745C65.6232 197.745 64.7832 197.895 63.9332 197.825C60.9332 197.605 57.9332 197.375 54.8532 197.275C53.517 197.262 52.1813 197.329 50.8532 197.475L49.5732 197.635C49.1332 197.635 48.7032 197.635 48.2632 197.635C47.37 197.623 46.4836 197.478 45.6332 197.205C45.0932 197.015 45.1732 196.065 45.6332 195.035C45.9914 193.958 46.7606 193.067 47.7732 192.555L49.0232 192.235C49.4665 192.161 49.914 192.114 50.3632 192.095C51.2232 192.015 52.0732 191.975 52.9432 191.945C54.6955 191.874 56.4506 191.938 58.1932 192.135C60.3232 192.385 62.4832 191.915 64.6432 191.845C67.0232 191.845 69.4132 191.845 71.8032 191.955L76.2232 192.115C78.4632 192.195 80.7032 192.395 82.9532 192.435C84.7032 192.435 86.4732 192.155 88.3332 192.355C88.7432 192.355 89.1632 192.355 89.5732 192.465L90.0932 192.595C90.2488 192.656 90.3992 192.73 90.5432 192.815C90.7752 192.94 90.9741 193.118 91.1232 193.335C91.3916 193.858 91.4384 194.467 91.2532 195.025C91.1969 195.363 91.1201 195.697 91.0232 196.025C90.7152 197.006 89.9265 197.76 88.9332 198.025C88.6432 198.025 88.2732 198.155 87.9332 198.215C87.5932 198.275 87.2532 198.335 86.9332 198.375C86.2339 198.51 85.525 198.591 84.8132 198.615C84.1332 198.615 83.3632 198.615 82.6432 198.615L80.3632 198.555L76.9732 198.395C75.8332 198.335 74.6732 198.295 73.5132 198.275L73.4732 198.125Z" fill="#1F78D1"/>
<path d="M31.1832 160.915C28.2188 160.891 25.3932 159.656 23.3632 157.495C22.5521 156.696 21.9184 155.735 21.5032 154.675C20.9323 152.853 21.0029 150.891 21.7032 149.115C22.9001 146.063 25.4698 143.756 28.6332 142.895C29.6369 142.665 30.6795 142.665 31.6832 142.895C32.6433 143.121 33.5014 143.659 34.1232 144.425C34.5032 144.895 33.7032 145.685 32.7632 146.425C32.0866 147.031 31.3335 147.545 30.5232 147.955C30.2366 147.944 29.9508 147.992 29.6832 148.095C29.3905 148.16 29.1031 148.247 28.8232 148.355C28.012 148.733 27.2923 149.283 26.7132 149.965C26.3366 150.422 26.1441 151.003 26.1732 151.595C26.197 152.109 26.3445 152.61 26.6032 153.055C26.9007 153.614 27.334 154.088 27.8632 154.435C28.4626 154.852 29.1447 155.135 29.8632 155.265C30.8212 155.456 31.8122 155.401 32.7432 155.105C34.1704 154.778 35.3471 153.774 35.8932 152.415C36.2332 151.415 35.6332 150.795 34.9632 150.235C34.8018 150.119 34.6512 149.988 34.5132 149.845C34.2706 149.603 34.1463 149.267 34.1732 148.925C34.2915 148.404 34.4763 147.899 34.7232 147.425C34.8532 147.145 34.9632 146.855 35.0932 146.605C35.3033 146.18 35.6577 145.843 36.0932 145.655C36.6184 145.383 37.2372 145.357 37.7832 145.585C38.2299 145.776 38.6583 146.007 39.0632 146.275C39.2632 146.425 39.4732 146.575 39.6832 146.745C39.8783 146.927 40.0589 147.125 40.2232 147.335C41.4107 148.841 41.9375 150.764 41.6832 152.665C41.6076 153.297 41.4461 153.916 41.2032 154.505C40.8013 155.568 40.212 156.55 39.4632 157.405C37.3319 159.707 34.3406 161.022 31.2032 161.035L31.1832 160.915Z" fill="#1F78D1"/>
<path d="M32.7043 182.105C29.9695 182.329 27.251 181.511 25.0943 179.815C24.6943 179.525 24.3243 179.215 23.9443 178.895C23.5606 178.551 23.2243 178.158 22.9443 177.725C21.9701 176.18 21.5538 174.349 21.7643 172.535C21.8676 171.677 22.1215 170.844 22.5143 170.075C22.9036 169.352 23.4067 168.697 24.0043 168.135C24.9752 167.203 26.1158 166.467 27.3643 165.965C28.8282 165.222 30.5223 165.071 32.0943 165.545C32.5843 165.735 32.3643 166.545 31.9643 167.305C31.5643 168.065 31.0643 169.015 30.5443 169.245C29.6823 169.574 28.8939 170.07 28.2243 170.705C27.9791 170.95 27.758 171.218 27.5643 171.505C27.3843 171.775 27.2043 172.035 26.9743 172.335C26.7239 172.712 26.6825 173.19 26.8643 173.605C27.052 174.053 27.3197 174.463 27.6543 174.815C28.4748 175.829 29.659 176.482 30.9543 176.635C31.8169 176.743 32.6927 176.636 33.5043 176.325C34.1013 176.1 34.6483 175.76 35.1143 175.325C35.4962 174.958 35.7004 174.444 35.6743 173.915C35.6327 173.445 35.4555 172.997 35.1643 172.625C34.8538 172.207 34.4984 171.825 34.1043 171.485C33.9443 171.325 33.7143 171.215 33.5643 171.055C32.9743 170.445 33.0943 169.985 33.8443 168.785C34.0243 168.515 34.1743 168.225 34.3543 167.965C34.8721 167.046 36.0142 166.687 36.9643 167.145C37.6938 167.519 38.3507 168.02 38.9043 168.625C39.5067 169.271 39.9998 170.01 40.3643 170.815C40.8109 171.791 41.046 172.851 41.0543 173.925C41.0761 175.178 40.7729 176.414 40.1743 177.515C39.9573 177.919 39.7064 178.303 39.4243 178.665C39.1443 179.005 38.8443 179.295 38.5443 179.595C37.99 180.088 37.3869 180.524 36.7443 180.895C35.4886 181.594 34.1103 182.046 32.6843 182.225L32.7043 182.105Z" fill="#1F78D1"/>
<path d="M35.8316 201.685C34.5146 202.321 33.0899 202.704 31.6316 202.815C30.1993 202.949 28.7546 202.834 27.3616 202.475C26.2438 202.229 25.1886 201.756 24.2616 201.085C23.4102 200.406 22.726 199.54 22.2616 198.555C21.8118 197.619 21.5761 196.594 21.5716 195.555C21.5556 194.613 21.6906 193.674 21.9716 192.775C22.2388 191.865 22.6916 191.021 23.3016 190.295C24.2982 189.058 25.5591 188.061 26.9916 187.375C27.8357 186.959 28.7296 186.653 29.6516 186.465C30.5698 186.376 31.4963 186.495 32.3616 186.815C32.9016 187.025 32.7916 187.735 32.3616 188.615C31.9829 189.544 31.4448 190.401 30.7716 191.145C30.2116 191.425 29.6616 191.595 29.2316 191.875C28.8462 192.102 28.4844 192.366 28.1516 192.665C27.8892 192.909 27.6575 193.185 27.4616 193.485C27.4016 193.555 27.3716 193.645 27.3116 193.725C27.2278 193.802 27.1539 193.89 27.0916 193.985C26.9393 194.193 26.8054 194.414 26.6916 194.645C26.439 195.125 26.4098 195.692 26.6116 196.195C26.8517 196.658 27.2151 197.046 27.6616 197.315C28.3093 197.734 29.0451 197.998 29.8116 198.085C30.6658 198.189 31.5321 198.124 32.3616 197.895C33.3789 197.639 34.3018 197.098 35.0216 196.335C35.5437 195.792 35.9248 195.129 36.1316 194.405C36.3046 193.623 36.2204 192.806 35.8916 192.075C35.3729 191.007 34.3645 190.26 33.1916 190.075C32.9816 190.075 32.7916 190.075 32.6316 190.075C32.3668 190.155 32.0819 190.043 31.9416 189.805C31.6779 189.488 31.4308 189.158 31.2016 188.815L30.7716 188.235C30.551 187.91 30.5132 187.494 30.6716 187.135C30.7738 186.871 30.9117 186.622 31.0816 186.395C31.3211 186.13 31.6239 185.931 31.9616 185.815C33.0771 185.544 34.2485 185.617 35.3216 186.025C36.3426 186.41 37.2626 187.022 38.0116 187.815C38.7401 188.57 39.3202 189.456 39.7216 190.425C39.9216 190.905 40.1316 191.425 40.3116 191.905C40.4793 192.442 40.5899 192.995 40.6416 193.555C40.6919 193.99 40.6919 194.43 40.6416 194.865C40.6248 195.325 40.5543 195.781 40.4316 196.225C40.2283 197.064 39.8906 197.864 39.4316 198.595C38.5296 199.939 37.3148 201.044 35.8916 201.815L35.8316 201.685Z" fill="#1F78D1"/>
<path d="M138.747 109.618C139.19 108.657 139.376 107.597 139.286 106.543C139.28 106.13 139.195 105.722 139.035 105.342C138.407 104.236 137.291 103.495 136.029 103.346C135.591 103.292 135.221 103.216 134.828 103.163C134.397 103.027 133.936 103.016 133.5 103.13C133.365 103.196 133.271 103.598 133.297 104.063C133.323 104.528 133.465 105.093 133.688 105.185C134.232 105.525 134.823 105.784 135.441 105.956C135.705 105.95 135.608 106.297 135.575 106.391C135.669 106.626 135.669 106.889 135.576 107.124C135.35 107.792 134.875 108.346 134.249 108.671C134.062 108.727 133.865 108.744 133.672 108.718C133.506 108.721 133.35 108.675 133.229 108.678C133.109 108.681 133.114 108.623 133.069 108.645C132.918 109.093 132.847 109.565 132.857 110.038L132.797 110.578C132.714 111.154 132.928 111.732 133.367 112.114C133.655 112.385 134.017 112.565 134.408 112.631C134.75 112.705 135.099 112.74 135.449 112.736C136.062 112.61 136.634 112.332 137.112 111.926C137.811 111.311 138.385 110.567 138.804 109.735L138.747 109.618Z" fill="#27272A"/>
<path d="M190.457 58.0026C190.353 57.4136 190.195 56.8355 189.984 56.2756C189.853 56.0058 189.722 55.736 189.59 55.4663C189.473 55.1947 189.319 54.9403 189.133 54.71C188.922 54.3227 188.665 53.9625 188.367 53.6372C187.29 52.6373 185.927 52.0013 184.469 51.8195C184.16 51.7804 183.875 51.6968 183.571 51.6667L182.686 51.6527C181.947 51.5979 181.207 51.7218 180.526 52.0139C180.311 52.1189 180.406 52.4285 180.63 52.7753C180.845 53.1466 181.175 53.4387 181.569 53.6084L182.038 53.6806L182.475 53.824C182.76 53.9299 183.041 53.9821 183.308 54.0745C183.572 54.1416 183.841 54.1893 184.112 54.2173C184.38 54.265 184.625 54.3571 184.915 54.4049C185.233 54.4966 185.524 54.6639 185.764 54.8927C185.998 55.1456 186.201 55.4028 186.444 55.6737C186.92 56.2736 187.259 56.9703 187.437 57.715C187.508 57.9481 187.55 58.1888 187.564 58.4319L187.609 58.7991L187.587 59.1656C187.589 59.9253 187.393 60.6723 187.018 61.3331C186.844 61.5627 186.642 61.7694 186.416 61.9482C186.183 62.0993 185.958 62.2641 185.745 62.4419C185.644 62.502 185.539 62.5532 185.43 62.595C185.078 62.8551 185.053 63.1008 185.226 63.684C185.287 63.8099 185.294 63.9621 185.338 64.0967C185.474 64.5464 185.94 64.8094 186.396 64.694C186.8 64.6545 187.196 64.5485 187.566 64.3802C187.965 64.245 188.327 64.0193 188.624 63.7208C188.923 63.4228 189.198 63.1029 189.449 62.7637C189.654 62.4081 189.859 62.0302 190.024 61.6608C190.483 60.498 190.635 59.2368 190.466 57.9982L190.457 58.0026Z" fill="#27272A"/>
<path d="M182.694 65.4723C185.737 65.825 188.784 64.8454 191.051 62.7854C191.912 62.07 192.617 61.1856 193.123 60.187C194.008 58.3635 194.108 56.2574 193.4 54.358C192.736 52.596 191.466 51.1283 189.818 50.218C188.417 49.5014 186.816 49.2777 185.272 49.583C183.469 49.885 181.824 50.7952 180.611 52.1623C180.257 52.5789 180.528 52.7473 181.092 52.7847C181.85 52.827 182.61 52.7888 183.36 52.6706C184.583 52.3341 185.887 52.4745 187.01 53.0634C187.409 53.3584 187.788 53.4967 188.165 53.8138C188.568 54.1326 188.916 54.5157 189.195 54.9476C189.382 55.2282 189.51 55.5449 189.569 55.8774C189.652 56.191 189.679 56.5169 189.648 56.8398C189.558 57.4921 189.31 58.1126 188.926 58.6478C187.921 60.0463 186.354 60.9346 184.638 61.0791C183.575 61.2011 182.5 60.9745 181.577 60.4333C180.918 60.0494 180.386 59.4807 180.047 58.7977C179.779 58.097 179.801 57.3187 180.106 56.6337C180.725 55.4486 181.635 54.4398 182.75 53.7016L183.502 53.2357C183.86 53.0402 184.157 52.7493 184.361 52.3952C184.47 52.0136 184.513 51.6164 184.49 51.2203C184.478 51.0145 184.503 50.8135 184.487 50.6434C184.447 50.3259 184.235 50.0565 183.935 49.9442C183.722 49.8258 183.495 49.7347 183.259 49.673C182.984 49.6139 182.699 49.6262 182.431 49.7088C180.593 50.1278 178.909 51.0513 177.567 52.3754C176.798 53.1161 176.208 54.023 175.844 55.0267C175.39 56.2002 175.221 57.4641 175.347 58.7156C175.465 59.7281 175.799 60.7034 176.327 61.5751C176.798 62.3612 177.407 63.0557 178.125 63.625C179.433 64.7025 181.011 65.4003 182.688 65.6422L182.694 65.4723Z" fill="#27272A"/>
<path d="M169.422 88.0667C172.252 86.9528 174.505 84.7318 175.66 81.9175C176.16 80.7898 176.344 79.5472 176.191 78.323C175.818 76.3859 174.718 74.6648 173.117 73.5132C172.436 73.012 171.701 72.59 170.925 72.2551C170.169 71.9675 169.382 71.7684 168.579 71.6618C167.18 71.4218 165.747 71.458 164.361 71.7682C162.551 72.1791 161.088 73.5069 160.503 75.2686C160.346 75.7902 160.716 75.8657 161.33 75.8008C161.943 75.7359 162.856 75.6474 163.421 75.5282L163.829 75.4298L164.268 75.3719C164.396 75.3651 164.525 75.3695 164.653 75.385C164.773 75.3617 164.897 75.354 165.02 75.3622C165.511 75.3596 166.002 75.416 166.48 75.53C167.494 75.8382 168.49 76.1998 169.465 76.6133C170.017 76.8383 170.47 77.2523 170.745 77.7811C170.931 78.1889 171.008 78.6383 170.968 79.0849C170.919 79.6659 170.701 80.2199 170.342 80.6793C169.899 81.312 169.342 81.8578 168.701 82.2895C168.083 82.7698 167.298 82.9835 166.521 82.8831C165.979 82.7505 165.508 82.4138 165.208 81.9431C164.779 81.3502 164.526 80.6483 164.478 79.9182C164.395 78.8285 164.784 77.7556 165.548 76.9735C165.618 76.9095 165.706 76.867 165.8 76.851C165.8 76.851 165.8 76.851 165.747 76.7431C165.731 76.7256 165.72 76.7037 165.716 76.6801C165.682 76.6308 165.655 76.5761 165.638 76.5183C165.582 76.2942 165.556 76.0639 165.56 75.8331C165.554 75.5469 165.554 75.2025 165.571 74.8717C165.59 74.5883 165.627 74.3063 165.683 74.0276C165.732 73.5412 165.569 73.0571 165.236 72.699C164.742 72.0404 163.86 71.807 163.105 72.1347C161.8 72.5726 160.695 73.4614 159.987 74.6413C159.433 75.5821 159.062 76.619 158.894 77.6976C158.731 78.679 158.708 79.6787 158.826 80.6665C158.893 81.19 158.997 81.7082 159.136 82.2173C159.797 84.6198 161.414 86.6463 163.61 87.8249C164.562 88.288 165.603 88.5403 166.661 88.5646C167.601 88.5826 168.536 88.443 169.43 88.1517L169.422 88.0667Z" fill="#27272A"/>
<path d="M185.335 102.421C186.217 103.211 187.313 103.722 188.485 103.89C188.764 103.937 189.047 103.959 189.33 103.958L189.737 103.949L190.091 103.899C190.56 103.843 191.023 103.748 191.476 103.614L192.562 103.264C192.941 103.076 193.301 102.852 193.638 102.596C194.217 102.065 194.657 101.4 194.92 100.659C195.053 100.329 195.119 99.9756 195.115 99.6195C195.142 99.2903 195.123 98.9589 195.058 98.635C194.857 97.5253 194.355 96.4924 193.606 95.6496C193.037 94.9375 192.342 94.3371 191.554 93.8787C190.577 93.1965 189.324 93.047 188.213 93.4803C187.889 93.6378 188.068 94.0959 188.38 94.6225C188.617 95.0889 188.923 95.5173 189.287 95.8936C190.201 96.487 190.892 97.3678 191.25 98.397C191.303 98.5231 191.328 98.6592 191.322 98.7958L191.263 98.9249C191.263 98.9249 191.298 98.9968 191.226 99.0318C191.206 99.0533 191.192 99.0792 191.185 99.1074C191.185 99.1074 191.122 99.138 191.104 99.1468C191.086 99.1555 190.978 99.208 190.915 99.2386C190.852 99.2693 190.663 99.3611 190.528 99.4268C190.393 99.4924 190.121 99.4805 189.914 99.5364C189.611 99.5974 189.296 99.5644 189.012 99.4417C188.585 99.2401 188.244 98.8942 188.047 98.4652C187.629 97.7614 187.56 96.9032 187.862 96.142C187.929 95.9599 188.128 95.8632 188.312 95.9233C188.441 96.0052 188.493 96.1801 188.599 96.2618C188.658 96.3177 188.725 96.3638 188.799 96.3981C188.879 96.4114 188.961 96.4092 189.04 96.3918C189.153 96.3142 189.254 96.2204 189.339 96.1133C189.624 95.762 189.886 95.3929 190.124 95.0081L190.502 94.4353C190.69 94.1214 190.788 93.7621 190.786 93.3963C190.842 92.9172 190.704 92.4356 190.402 92.0594C189.821 91.545 189.107 91.2028 188.342 91.071C187.294 90.9708 186.244 91.2273 185.36 91.7991C184.497 92.3885 183.826 93.2177 183.429 94.1843C183.092 94.9418 182.899 95.7559 182.862 96.5844C182.818 97.6676 183.006 98.7478 183.414 99.7523C183.82 100.789 184.446 101.725 185.249 102.496L185.335 102.421Z" fill="#27272A"/>
<path d="M155.869 106.682C156.392 106.667 156.911 106.579 157.41 106.421L158.142 106.165L158.8 105.734C159.238 105.45 159.62 105.087 159.925 104.664L160.174 104.376L160.316 104.051C160.439 103.826 160.549 103.594 160.646 103.357C160.979 102.671 161.145 101.915 161.13 101.153C161.082 100.536 160.908 99.9356 160.617 99.3895C160.391 98.9525 160.119 98.5404 159.807 98.1597C159.249 97.4425 158.586 96.8127 157.842 96.2914C157.208 95.8174 156.516 95.4252 155.784 95.1242C155.239 94.8861 154.633 94.8232 154.05 94.9444C153.412 95.0888 152.879 95.5255 152.611 96.123C152.473 96.4793 152.923 96.6273 153.444 96.8297C153.701 96.9061 153.943 97.0251 154.16 97.1818C154.303 97.2873 154.417 97.427 154.491 97.5879C154.557 97.7228 154.579 97.7677 154.793 97.8416C155.013 97.9499 155.225 98.0732 155.428 98.2108C155.937 98.5745 156.423 98.9696 156.882 99.3938C157.147 99.6463 157.326 99.9749 157.396 100.334C157.444 100.516 157.475 100.702 157.488 100.89C157.502 101.385 157.236 101.846 156.8 102.081C156.471 102.25 156.088 102.285 155.734 102.177C155.129 102.028 154.683 101.515 154.621 100.894C154.64 100.385 155.243 100.047 155.62 99.9526C155.707 99.9451 155.794 99.9326 155.879 99.9151C156.167 99.7751 156.049 99.51 155.52 98.422L155.152 97.6666C154.741 96.8214 154.08 96.3535 153.259 96.6085C152.613 96.8157 152.024 97.1672 151.535 97.6364C151.246 97.8571 151.001 98.1307 150.815 98.4426C150.6 98.7265 150.427 99.0393 150.299 99.3718C149.74 100.728 149.826 102.265 150.531 103.551C150.637 103.799 150.779 104.03 150.953 104.236C151.108 104.46 151.276 104.676 151.456 104.881C151.837 105.266 152.263 105.604 152.724 105.887C153.644 106.456 154.693 106.78 155.773 106.828L155.869 106.682Z" fill="#27272A"/>
<path d="M137.917 70.7216C137.979 71.1063 137.762 71.4816 137.397 71.6194C137.253 71.6894 137.171 71.4515 137.032 71.4634C136.504 71.4755 136.154 70.7785 136.467 69.9366C136.492 69.8365 136.537 69.7426 136.6 69.6608C136.67 69.5091 136.757 69.366 136.859 69.2342C137.052 68.9627 137.282 68.7198 137.543 68.5126C137.811 68.3093 138.116 68.1607 138.442 68.0751C138.515 68.052 138.585 68.0181 138.649 67.9745C138.726 67.9829 138.804 67.9822 138.881 67.9725C139.043 67.8938 139.248 67.9944 139.471 67.9968C139.695 67.9992 140.111 67.5744 140.136 66.8949C140.143 66.4867 140.029 66.0855 139.809 65.7419C139.499 65.3198 139.03 65.0419 138.511 64.972C138.261 64.9604 137.997 64.9441 137.742 64.9458C137.501 64.9724 137.261 65.0146 137.025 65.0722C136.563 65.1678 136.119 65.335 135.709 65.5679C135.34 65.7822 134.992 66.0332 134.673 66.3169C134.384 66.5938 134.11 66.8864 133.854 67.1936L133.499 67.6996L133.272 68.055C133.195 68.1704 133.05 68.2628 133.018 68.4011C132.824 68.9178 132.618 69.4075 132.447 69.9245C132.274 70.4087 132.144 70.9071 132.059 71.414C132.054 71.8678 132.085 72.3213 132.152 72.7702C132.235 73.2814 132.347 73.7873 132.489 74.2855C132.612 74.7457 132.787 75.1903 133.011 75.6105C133.485 76.4557 134.205 77.1371 135.074 77.5649C136.994 78.4418 139.214 78.3698 141.074 77.3704C142.186 76.8261 143.138 76.0028 143.837 74.9807C144.888 73.4697 145.111 71.5316 144.429 69.8215C144.205 69.1914 143.912 68.5882 143.554 68.0231C143.134 67.3757 142.599 66.8106 141.976 66.3557C141.689 66.1046 141.376 65.8839 141.044 65.6971C140.53 65.4619 139.958 65.3842 139.4 65.4736C138.941 65.6777 138.593 66.0702 138.445 66.5501C138.324 66.8092 138.22 67.0754 138.132 67.3472C138.007 67.7594 137.965 68.192 138.006 68.6205C137.992 68.8876 137.999 69.1555 138.029 69.4213C138.105 69.8962 137.923 70.1179 137.792 70.2149C137.735 70.2735 137.658 70.3106 137.577 70.3199C137.687 70.3613 137.763 70.4636 137.771 70.5814L137.917 70.7216Z" fill="#27272A"/>
<path d="M130.944 113.049C132.049 113.36 133.213 113.401 134.337 113.166C135.375 112.943 136.354 112.501 137.209 111.869C137.803 111.475 138.345 111.005 138.821 110.473C139.176 109.983 139.484 109.461 139.741 108.913C140.047 108.34 140.261 107.722 140.373 107.082C140.592 105.705 140.158 104.306 139.198 103.295C138.525 102.545 137.711 101.936 136.802 101.502C136.225 101.202 135.595 101.018 134.947 100.959C134.249 100.89 133.551 101.09 132.996 101.519C132.644 101.824 133.025 102.128 133.433 102.418C133.842 102.709 134.27 103.201 134.564 103.325C135.229 103.608 135.819 104.04 136.29 104.587C136.492 104.816 136.669 105.065 136.819 105.331C136.908 105.504 136.978 105.686 137.028 105.874C137.041 106.255 136.919 106.629 136.685 106.93C136.532 107.144 136.369 107.35 136.196 107.547L135.684 108.073C134.994 108.808 134.024 109.215 133.016 109.194C132.704 109.173 132.397 109.105 132.106 108.992C131.861 108.918 131.63 108.805 131.42 108.658C131.093 108.457 130.858 108.137 130.764 107.765C130.697 107.374 130.821 106.975 131.097 106.691C131.207 106.577 131.331 106.479 131.467 106.4C131.644 106.292 131.831 106.201 132.025 106.129C132.393 105.949 132.827 105.927 133.182 105.81C133.335 105.736 133.518 105.769 133.671 105.717C133.917 105.641 134.114 105.455 134.204 105.213C134.327 104.862 134.403 104.496 134.43 104.124L134.532 103.441C134.58 103.091 134.498 102.735 134.301 102.441C134.042 102.124 133.68 101.907 133.279 101.826C132.941 101.734 132.592 101.694 132.243 101.708C131.884 101.708 131.526 101.737 131.173 101.795C130.483 101.923 129.825 102.187 129.237 102.57C128.922 102.765 128.624 102.984 128.344 103.226C128.015 103.566 127.707 103.924 127.42 104.299C127.133 104.69 126.896 105.116 126.713 105.566C126.614 105.785 126.531 106.011 126.464 106.243L126.327 106.944C126.107 108.375 126.545 109.829 127.519 110.901C127.62 111.049 127.735 111.186 127.863 111.312L128.289 111.661C128.562 111.91 128.853 112.14 129.158 112.35C129.456 112.505 129.807 112.724 130.069 112.829C130.332 112.935 130.59 113.054 130.876 113.138L130.944 113.049Z" fill="#27272A"/>
<path d="M158.749 127.755C159.021 126.795 159.033 125.78 158.786 124.813C158.721 124.48 158.628 124.153 158.51 123.835C158.374 123.556 158.171 123.322 157.99 123.087C157.791 122.878 157.57 122.691 157.33 122.53C156.904 122.193 156.441 121.907 155.948 121.678C155.562 121.512 155.184 121.324 154.818 121.116C154.375 120.856 153.87 120.718 153.356 120.716C153.186 120.732 153.088 121.124 153.069 121.567C153.051 122.009 153.072 122.533 153.272 122.692C153.852 123.181 154.469 123.624 155.118 124.017C155.372 124.247 155.55 124.548 155.627 124.882C155.774 125.248 155.822 125.646 155.767 126.037C155.617 126.77 155.193 127.419 154.58 127.849C154.287 127.958 153.963 127.948 153.677 127.821C153.677 127.821 153.584 127.767 153.534 127.78C153.485 127.792 153.534 127.78 153.453 127.819C153.406 127.888 153.368 127.963 153.339 128.041L153.032 128.78L152.848 129.203C152.622 129.676 152.714 130.239 153.079 130.615C153.711 131.056 154.494 131.224 155.252 131.081C155.952 130.956 156.61 130.659 157.166 130.216C157.931 129.552 158.492 128.685 158.786 127.716L158.749 127.755Z" fill="#27272A"/>
<path d="M148.079 129.187C148.993 130.338 150.253 131.163 151.672 131.543C152.878 131.862 154.138 131.92 155.369 131.713C156.213 131.615 157.039 131.397 157.822 131.064C158.172 130.894 158.506 130.694 158.821 130.466C159.162 130.253 159.475 130 159.755 129.712C160.364 129.141 160.832 128.437 161.124 127.656C161.621 126.197 161.528 124.602 160.863 123.212C160.38 122.098 159.636 121.118 158.694 120.353C158.051 119.881 157.304 119.569 156.516 119.444L155.913 119.393C155.712 119.413 155.519 119.451 155.326 119.489C154.942 119.551 154.576 119.692 154.249 119.902C153.817 120.112 154.099 120.464 154.552 120.8C154.774 120.981 155.027 121.136 155.262 121.322C155.461 121.503 155.674 121.667 155.901 121.812C155.989 121.858 156.069 121.908 156.154 121.944C156.239 121.981 156.309 122.08 156.384 122.144C156.534 122.271 156.671 122.413 156.791 122.569C156.87 122.73 157.029 122.898 157.162 123.033C157.295 123.169 157.337 123.393 157.429 123.582C157.746 124.246 157.907 124.975 157.898 125.711C157.933 125.783 157.851 125.89 157.832 125.988C157.813 126.082 157.765 126.167 157.695 126.232C157.647 126.322 157.592 126.408 157.532 126.49L157.274 126.693C156.838 126.964 156.36 127.163 155.859 127.281C154.728 127.665 153.486 127.544 152.45 126.949C152.197 126.776 151.984 126.549 151.827 126.285C151.665 126.025 151.549 125.74 151.483 125.441C151.334 125.008 151.364 124.534 151.564 124.122C151.811 123.718 152.229 123.449 152.699 123.392C153.188 123.335 153.684 123.369 154.16 123.493C154.695 123.632 155.22 123.804 155.734 124.006C155.961 124.085 156.17 124.217 156.402 124.282C157.296 124.291 157.666 123.978 158.218 122.964C158.337 122.728 158.478 122.515 158.588 122.284C158.948 121.467 158.723 120.51 158.036 119.939C157.789 119.663 157.499 119.428 157.176 119.245C156.861 119.093 156.539 118.956 156.21 118.837C155.517 118.586 154.797 118.418 154.064 118.335C153.187 118.249 152.301 118.304 151.442 118.499L150.585 118.704C150.324 118.831 150.064 118.958 149.794 119.089C149.271 119.344 148.786 119.67 148.352 120.058C145.555 122.331 146.134 127.064 147.988 129.298L148.079 129.187Z" fill="#27272A"/>
</svg>
