<svg width="128" height="128" viewBox="0 0 128 128" fill="none" xmlns="http://www.w3.org/2000/svg">
<path d="M108.677 78.1658L105.588 74.2139H104.622V80.5728H105.813V76.2617L109.13 80.5728H109.868V74.2175H108.677V78.1658ZM97.1289 75.1839C98.6148 75.1839 99.2098 76.3838 99.192 77.458C99.1742 78.5322 98.6148 79.6136 97.1289 79.6136C95.643 79.6136 95.0836 78.4963 95.0586 77.458C95.0337 76.4198 95.6501 75.1839 97.1289 75.1839ZM97.1289 74.1061C94.9482 74.1061 93.8863 75.7875 93.8863 77.458C93.8863 79.1286 94.9125 80.7381 97.1289 80.7381C99.3452 80.7381 100.336 79.0927 100.364 77.4473C100.393 75.8018 99.3025 74.1061 97.1289 74.1061ZM89.5641 80.5728V74.2175H88.3811V80.5728H89.5641ZM81.169 80.5728H82.3592V75.3061H84.3582V74.2283H79.1665V75.3061H81.169V80.5728ZM74.4309 78.2592H72.0863L73.2586 75.5432L74.4309 78.2592ZM75.4393 80.5728H76.7363L73.9142 74.2175H72.6172L69.7809 80.5728H71.0636L71.6017 79.3765H74.9013L75.4393 80.5728ZM61.8989 75.342H63.1959C64.5678 75.342 65.1415 76.3335 65.17 77.3251C65.1985 78.3167 64.6284 79.4196 63.1959 79.4196H61.8989V75.342ZM63.1959 74.2067H60.7302V80.5728H63.2066C65.4159 80.5728 66.3886 78.949 66.3601 77.3395C66.3316 75.73 65.3624 74.2175 63.1959 74.2175V74.2067ZM55.2249 78.1586L52.1356 74.2067H51.1699V80.5728H52.3601V76.2617L55.6739 80.5728H56.4151V74.2175H55.2249V78.1586ZM45.4402 74.2283V77.8784C45.4402 78.9561 44.8844 79.6316 43.9009 79.6316C42.9174 79.6316 42.2689 79.0244 42.2689 77.8784V74.2355H41.0895V77.8784C41.0895 79.7932 42.3794 80.7201 43.8902 80.7201C45.4759 80.7201 46.6232 79.7573 46.6232 77.8784V74.2355L45.4402 74.2283ZM33.6815 75.1803C35.1673 75.1803 35.7624 76.3803 35.7446 77.4544C35.7268 78.5286 35.1673 79.61 33.6815 79.61C32.1956 79.61 31.6361 78.4927 31.6076 77.4544C31.5791 76.4162 32.1991 75.1839 33.685 75.1839L33.6815 75.1803ZM33.6815 74.1025C31.5007 74.1025 30.4389 75.7839 30.4389 77.4544C30.4389 79.125 31.4651 80.7345 33.6815 80.7345C35.8978 80.7345 36.8884 79.0891 36.9169 77.4437C36.9454 75.7982 35.855 74.1061 33.685 74.1061L33.6815 74.1025ZM23.0736 80.5728V78.2233H26.2342V77.1239H23.0736V75.3887H26.416V74.2355H21.8906V80.5728H23.0736Z" fill="#27272A"/>
<path d="M109.985 67.5499H102.085V64.3489H109.704V61.8556H102.085V58.572H109.985V55.9781H99.4521V70.1832H109.985V67.5499ZM95.7321 58.3312C94.6631 56.1398 92.3969 55.5146 90.2055 55.5146C87.6114 55.5146 84.7572 56.7289 84.7572 59.6461C84.7572 62.8292 87.4119 63.598 90.2839 63.9573C92.1546 64.1585 93.5407 64.7081 93.5407 66.0446C93.5407 67.5858 91.9728 68.1714 90.3052 68.1714C88.6376 68.1714 86.97 67.4816 86.3465 65.9224L84.1337 67.0792C85.1813 69.6731 87.3905 70.5641 90.266 70.5641C93.4017 70.5641 96.1739 69.2061 96.1739 66.0446C96.1739 62.6603 93.4409 61.8915 90.5048 61.5251C88.8194 61.3239 87.3727 60.979 87.3727 59.7288C87.3727 58.6761 88.3169 57.8427 90.2839 57.8427C91.8125 57.8427 93.1345 58.6151 93.6226 59.4234L95.7321 58.3312ZM76.7256 55.9781C74.5129 55.9601 72.3036 55.9781 70.0909 55.9781V70.1832H72.7455V66.0086H76.7256C83.6241 66.0086 83.6063 55.9781 76.7328 55.9781H76.7256ZM72.7455 58.5324H76.7256C80.1001 58.5324 80.1214 63.5621 76.7256 63.5621H72.7526L72.7455 58.5324ZM66.3316 70.1832V55.9781H63.6984V70.1832H66.3316ZM50.6533 55.9781V70.1832H60.5413V67.7115H53.3257V55.9781H50.6533ZM46.3168 66.5619C45.3626 67.4766 44.0986 67.9905 42.782 67.9989C39.3043 67.9989 37.9574 65.5488 37.936 63.1956C37.9146 60.8425 39.3827 58.2738 42.782 58.2738C44.0436 58.2551 45.2624 58.7348 46.1778 59.6102L47.9594 57.8894C47.283 57.2036 46.4784 56.66 45.5921 56.29C44.7058 55.9199 43.7555 55.7309 42.7963 55.7338C37.7115 55.7338 35.3134 59.5024 35.3384 63.21C35.3633 66.9176 37.569 70.5138 42.782 70.5138C43.7672 70.5376 44.7472 70.3634 45.6648 70.0013C46.5825 69.6392 47.4195 69.0966 48.1269 68.4049L46.3168 66.5619ZM32.4201 67.5535H24.5167V64.3489H32.135V61.8556H24.5167V58.572H32.4165V55.9781H21.8906V70.1832H32.4236L32.4201 67.5535Z" fill="#27272A"/>
<path d="M17.496 54.5336C20.7029 49.468 27.1702 47.7076 32.5508 50.1326L32.1944 49.8848C29.5564 48.1792 26.3544 47.6001 23.2928 48.2749C20.2313 48.9496 17.561 50.823 15.8694 53.4827C14.1777 56.1425 13.6034 59.3709 14.2726 62.4577C14.9419 65.5444 16.7999 68.2367 19.438 69.9423L19.8121 70.1686C15.3687 66.2527 14.2712 59.6027 17.496 54.5336Z" fill="#27272A"/>
<path d="M110.977 57.3681C110.977 56.9317 111.149 56.5132 111.455 56.2046C111.761 55.896 112.176 55.7227 112.609 55.7227C113.041 55.7227 113.456 55.896 113.763 56.2046C114.069 56.5132 114.241 56.9317 114.241 57.3681C114.241 57.8045 114.069 58.223 113.763 58.5316C113.456 58.8401 113.041 59.0135 112.609 59.0135C112.176 59.0135 111.761 58.8401 111.455 58.5316C111.149 58.223 110.977 57.8045 110.977 57.3681ZM114.052 57.3681C114.052 56.9822 113.9 56.6121 113.629 56.3392C113.358 56.0664 112.991 55.9131 112.609 55.9131C112.226 55.9131 111.859 56.0664 111.588 56.3392C111.317 56.6121 111.165 56.9822 111.165 57.3681C111.162 57.5607 111.196 57.7522 111.267 57.931C111.338 58.1099 111.444 58.2726 111.579 58.4093C111.714 58.5461 111.874 58.6541 112.051 58.727C112.228 58.8 112.417 58.8363 112.609 58.8339C112.801 58.8348 112.991 58.7972 113.169 58.7233C113.347 58.6493 113.508 58.5405 113.644 58.4031C113.779 58.2657 113.886 58.1025 113.959 57.9229C114.031 57.7434 114.068 57.5511 114.066 57.3573L114.052 57.3681ZM111.935 56.4807H112.758C113.154 56.4807 113.442 56.6603 113.442 57.0483C113.448 57.1684 113.412 57.2867 113.342 57.3835C113.271 57.4803 113.169 57.5497 113.054 57.58L113.471 58.18H112.976L112.619 57.6411H112.356V58.18H111.946L111.935 56.4807ZM112.701 57.3106C112.89 57.3106 112.993 57.2172 112.993 57.0771C112.993 56.937 112.879 56.84 112.701 56.84H112.345V57.3106H112.701Z" fill="#27272A"/>
</svg>
