<svg width="128" height="128" viewBox="0 0 128 128" fill="none" xmlns="http://www.w3.org/2000/svg">
<path fill-rule="evenodd" clip-rule="evenodd" d="M13.9219 50.3174H113.556V78.6546H13.9219V50.3174ZM108.546 70.7519C108.712 70.7519 108.878 70.7243 109.072 70.6692L109.155 72.5694C108.491 72.9274 107.688 73.1477 106.913 73.1477C105.253 73.1477 104.339 72.1839 104.173 70.6692C103.454 71.936 102.181 73.1477 100.16 73.1477C98.3613 73.1477 96.3133 72.1839 96.3133 69.5952C96.3133 66.5385 99.2747 65.8224 102.125 65.8224C102.817 65.8224 103.537 65.85 104.173 65.9326V65.5195C104.173 64.2527 104.146 62.7381 102.125 62.7381C101.378 62.7381 100.797 62.7932 100.216 63.0961L99.8005 64.5006L96.9499 64.1977L97.3927 61.3337C99.5791 60.4524 100.686 60.2046 102.734 60.2046C105.419 60.2046 107.688 61.5815 107.688 64.418V69.788C107.688 70.504 107.965 70.7519 108.546 70.7519ZM99.9666 69.1546C99.9666 69.9532 100.354 70.5866 101.433 70.5866C102.707 70.5866 104.063 69.6778 104.146 67.6125C103.564 67.5298 102.928 67.4472 102.347 67.4472C101.074 67.4472 99.9666 67.8052 99.9666 69.1546ZM91.2485 72.8448L96.6454 53.9258H93.1305L87.7337 72.8448H91.2485ZM83.9974 72.8448L89.3942 53.9258H85.8793L80.4825 72.8448H83.9974ZM78.1853 60.4524H74.449V64.9137H78.1853V60.4524ZM78.1853 68.4111H74.449V72.8723H78.1853V68.4111ZM71.8198 68.5212L68.9968 68.2458L68.4156 70.1735H64.3749L71.2939 62.325L71.0172 60.4524H60.0851L59.6422 64.8035L62.2161 65.0789L62.7697 63.1512H66.672L59.8083 70.9997L60.1681 72.8723H71.0449L71.8198 68.5212ZM44.448 66.8414C44.448 63.2063 46.6621 60.2046 51.1456 60.2046C55.6292 60.2046 57.8156 63.2063 57.8156 66.6761C57.8156 70.6417 54.9373 73.1477 50.9519 73.1477C47.1049 73.1477 44.448 70.8069 44.448 66.8414ZM48.1289 66.5935C48.1289 68.7415 49.1252 70.3939 51.0626 70.3939C52.9169 70.3939 54.1347 68.9343 54.1347 66.5385C54.1347 64.0324 52.7785 62.9034 51.0903 62.9034C49.2636 62.9034 48.1289 64.2528 48.1289 66.5935ZM42.8981 70.146H41.2929V64.5006C41.2929 61.554 39.2448 60.2046 37.003 60.2046C35.038 60.2046 33.6265 61.2235 32.9346 62.8758C32.3257 61.0583 30.6652 60.2046 28.8662 60.2046C27.1226 60.2046 25.8218 61.0032 25.0746 62.325V60.4524H19.8438V63.1512H21.5043V70.1735H19.8438V72.8723H27.427V70.1735H25.0469V65.85C25.0469 64.1151 25.7388 62.9034 27.4547 62.9034C28.8662 62.9034 29.5858 63.7295 29.5858 65.8775V72.8723H34.8166V70.1735H33.156V65.85C33.156 64.1151 33.8479 62.9034 35.5639 62.9034C36.9754 62.9034 37.6949 63.7295 37.6949 65.8775V72.8448H42.8981V70.146Z" fill="#27272A"/>
</svg>
