<svg width="128" height="128" viewBox="0 0 128 128" fill="none" xmlns="http://www.w3.org/2000/svg">
<path d="M51.3657 64.2229L49.8477 63.2783C49.8477 63.1209 49.8477 63.016 49.7954 62.8585L51.104 61.6516C51.2087 61.5466 51.3134 61.3367 51.261 61.1793C51.2087 61.0219 51.104 60.8644 50.9469 60.812L49.2719 60.1822C49.2196 60.0773 49.2196 59.9199 49.1672 59.8149L50.2141 58.3981C50.3188 58.2406 50.3188 58.0832 50.2665 57.9258C50.2141 57.7683 50.0571 57.6634 49.9 57.6109L48.1203 57.2961C48.068 57.1911 48.0156 57.0337 47.9109 56.9287L48.6438 55.302C48.6961 55.1445 48.6961 54.9346 48.5914 54.8297C48.4867 54.6722 48.3297 54.6198 48.1727 54.6198L46.3929 54.6722C46.2882 54.5673 46.2359 54.4623 46.1312 54.3574L46.55 52.6257C46.6023 52.4682 46.55 52.2583 46.3929 52.1534C46.2882 52.0484 46.0789 51.996 45.9218 51.996L44.1944 52.4158C44.0897 52.3108 43.9851 52.2583 43.8804 52.1534L43.9327 50.3692C43.9327 50.2118 43.828 50.0019 43.7233 49.9494C43.5663 49.8444 43.4093 49.8444 43.2522 49.8969L41.6295 50.6316C41.5248 50.5791 41.3678 50.5266 41.2631 50.4217L41.0014 48.6375C40.949 48.48 40.8444 48.3226 40.6873 48.2701C40.5303 48.2177 40.3209 48.2177 40.2162 48.3226L38.8029 49.3721C38.6982 49.3197 38.5412 49.3197 38.4365 49.2672L37.8083 47.588C37.756 47.4305 37.599 47.3256 37.4419 47.2731C37.2849 47.2206 37.0755 47.2731 36.9708 47.4305L35.7669 48.7424C35.6098 48.7424 35.5052 48.69 35.3481 48.69L34.3536 47.1681C34.2489 47.0107 34.0918 46.9058 33.9348 46.9058C33.7778 46.9058 33.6207 47.0107 33.516 47.1681L32.5738 48.69C32.4168 48.69 32.3121 48.69 32.1551 48.7424L30.9511 47.4305C30.8465 47.3256 30.6371 47.2206 30.48 47.2731C30.323 47.3256 30.166 47.4305 30.1136 47.588L29.4855 49.2672C29.3808 49.3197 29.2238 49.3197 29.1191 49.3721L27.7057 48.3226C27.5487 48.2177 27.3393 48.2177 27.1823 48.2701C27.0253 48.3226 26.9206 48.48 26.8682 48.6375L26.6065 50.4217C26.5018 50.4741 26.3448 50.5266 26.2401 50.6316L24.6174 49.8969C24.4604 49.8444 24.251 49.8444 24.1463 49.9494C23.9893 50.0543 23.9369 50.2118 23.9369 50.3692L23.9893 52.1534C23.8846 52.2583 23.7799 52.3108 23.6752 52.4158L21.9478 51.996C21.7908 51.9435 21.5814 51.996 21.4767 52.1534C21.372 52.2583 21.3197 52.4682 21.3197 52.6257L21.7384 54.3574C21.6337 54.4623 21.5814 54.5673 21.4767 54.6722L19.697 54.6198C19.5399 54.6198 19.3305 54.7247 19.2782 54.8297C19.1735 54.9871 19.1735 55.1445 19.2259 55.302L19.9587 56.9287C19.9063 57.0337 19.854 57.1911 19.7493 57.2961L17.9696 57.5584C17.8125 57.6109 17.6555 57.7159 17.6032 57.8733C17.5508 58.0307 17.5508 58.2406 17.6555 58.3456L18.7024 59.7624C18.6501 59.8674 18.6501 60.0248 18.5977 60.1298L16.9227 60.812C16.7656 60.8644 16.6609 61.0219 16.6086 61.1793C16.5563 61.3367 16.6086 61.5466 16.7656 61.6516L18.0743 62.8585C18.0743 63.016 18.0219 63.1209 18.0219 63.2783L16.5039 64.2229C16.3469 64.3279 16.2422 64.4853 16.2422 64.6427C16.2422 64.8002 16.3469 64.9576 16.5039 65.0625L18.0219 66.0071C18.0219 66.1645 18.0219 66.2695 18.0743 66.4269L16.7656 67.6339C16.6609 67.7388 16.5563 67.9487 16.6086 68.1062C16.6609 68.2636 16.7656 68.421 16.9227 68.4735L18.5977 69.1032C18.6501 69.2082 18.6501 69.3656 18.7024 69.4705L17.6555 70.8874C17.5508 71.0448 17.5508 71.2023 17.6032 71.3597C17.6555 71.5171 17.8125 71.6221 17.9696 71.6745L19.7493 71.9369C19.8016 72.0419 19.854 72.1993 19.9587 72.3043L19.2259 73.931C19.1735 74.0884 19.1735 74.2984 19.2782 74.4033C19.3829 74.5607 19.5399 74.6132 19.697 74.6132L21.4767 74.5607C21.5814 74.6657 21.6337 74.7706 21.7384 74.8756L21.3197 76.6073C21.2673 76.7647 21.3197 76.9746 21.4767 77.0796C21.5814 77.1845 21.7908 77.237 21.9478 77.237L23.6752 76.8172C23.7799 76.9222 23.8846 76.9746 23.9893 77.0796L23.9369 78.8638C23.9369 79.0212 24.0416 79.2311 24.1463 79.2836C24.3033 79.3885 24.4604 79.3885 24.6174 79.3361L26.2401 78.6014C26.3448 78.6539 26.5018 78.7064 26.6065 78.8113L26.8682 80.5955C26.9206 80.7529 27.0253 80.9104 27.1823 80.9628C27.3393 81.0153 27.5487 81.0153 27.6534 80.9104L29.0667 79.8608C29.1714 79.9133 29.3284 79.9133 29.4331 79.9658L30.0613 81.645C30.1136 81.8025 30.2707 81.9074 30.4277 81.9599C30.5847 82.0124 30.7941 81.9599 30.8988 81.8025L32.1027 80.4905C32.2598 80.4905 32.3645 80.543 32.5215 80.543L33.4637 82.0648C33.5684 82.2223 33.7254 82.3272 33.8825 82.3272C34.0395 82.3272 34.1965 82.2223 34.3012 82.0648L35.2434 80.543C35.4005 80.543 35.5052 80.543 35.6622 80.4905L36.8661 81.8025C36.9708 81.9074 37.1802 82.0124 37.3372 81.9599C37.4943 81.9074 37.6513 81.8025 37.7036 81.645L38.3318 79.9658C38.4365 79.9133 38.5935 79.9133 38.6982 79.8608L40.1115 80.9104C40.2686 81.0153 40.4256 81.0153 40.5826 80.9628C40.7397 80.9104 40.8444 80.7529 40.8967 80.5955L41.1584 78.8113C41.2631 78.7588 41.4201 78.7064 41.5248 78.6014L43.1475 79.3361C43.3046 79.3885 43.514 79.3885 43.6186 79.2836C43.7757 79.1786 43.828 79.0212 43.828 78.8638L43.9327 77.1321C44.0374 77.0271 44.1421 76.9746 44.2468 76.8697L45.9742 77.2895C46.1312 77.342 46.3406 77.2895 46.4453 77.1321C46.55 77.0271 46.6023 76.8172 46.6023 76.6598L46.1835 74.9805C46.2882 74.8756 46.3406 74.7706 46.4453 74.6657L48.225 74.7182C48.382 74.7182 48.5914 74.6132 48.6438 74.5083C48.7485 74.3508 48.7485 74.1934 48.6961 74.036L47.9633 72.3567C48.0156 72.2518 48.068 72.0944 48.1727 71.9894L49.9524 71.727C50.1094 71.6745 50.2665 71.5696 50.3188 71.4122C50.3711 71.2547 50.3711 71.0448 50.2665 70.9399L49.2196 69.523C49.2719 69.4181 49.2719 69.2606 49.3242 69.1557L50.9993 68.526C51.1563 68.4735 51.261 68.3161 51.3134 68.1586C51.3657 68.0012 51.3134 67.7913 51.1563 67.6863L49.8477 66.4794C49.8477 66.322 49.9 66.217 49.9 66.0596L51.4181 65.115C51.5751 65.0101 51.6798 64.8526 51.6798 64.6952C51.6274 64.4853 51.5227 64.3279 51.3657 64.2229ZM40.949 73.1439C40.4256 73.0389 39.9021 73.3538 39.7975 73.8785L39.274 76.3449C35.8192 77.9192 31.8934 77.8667 28.4909 76.2924L27.9675 73.8261C27.8628 73.3013 27.3393 72.9864 26.8159 73.0914L24.6174 73.5637C24.1986 73.1439 23.8322 72.7241 23.5181 72.2518H34.0918C34.1965 72.2518 34.3012 72.2518 34.3012 72.0944V68.3161C34.3012 68.2111 34.1965 68.1586 34.0918 68.1586H31.0035V65.7972H34.3536C34.6676 65.7972 35.9763 65.9022 36.395 67.5814C36.5521 68.1062 36.8138 69.7854 37.0232 70.3626C37.2325 70.9923 38.0177 72.1993 38.9076 72.1993H44.3515C43.9851 72.6716 43.5663 73.1439 43.1475 73.6162L40.949 73.1439ZM42.7288 75.5578C42.7288 76.135 42.2577 76.6073 41.6819 76.6073C41.1061 76.6073 40.635 76.135 40.635 75.5578C40.635 74.9805 41.1061 74.5083 41.6819 74.5083C41.6819 74.5083 41.6819 74.5083 41.7342 74.5083C42.2577 74.5083 42.7288 74.9805 42.7288 75.5578ZM26.0831 76.5548C25.5073 76.5548 25.0362 76.0825 25.0362 75.5053C25.0362 74.9281 25.5073 74.4558 26.0831 74.4558C26.0831 74.4558 26.0831 74.4558 26.1354 74.4558C26.7112 74.4558 27.1823 74.9281 27.1823 75.5053C27.13 76.0825 26.6588 76.5548 26.0831 76.5548ZM21.3197 59.605C21.372 59.605 21.372 59.605 21.3197 59.605C21.8955 59.605 22.3666 60.0773 22.3666 60.6545C22.3666 61.2318 21.8955 61.7041 21.3197 61.7041C20.7439 61.7041 20.2728 61.2318 20.2728 60.6545C20.2728 60.0773 20.7439 59.605 21.3197 59.605ZM21.0579 63.1209L23.3088 62.1239C23.7799 61.914 23.9893 61.3367 23.7799 60.8644L23.3088 59.8149H25.1408V68.1062H21.4243C21.0579 66.4794 20.9009 64.8002 21.0579 63.1209ZM31.0035 62.3338V59.8674H35.3481C35.5575 59.8674 36.9185 60.1298 36.9185 61.1793C36.9185 62.0189 35.8716 62.3338 34.9817 62.3338H31.0035ZM45.346 65.6923V66.322C45.346 67.7388 44.5608 68.0537 43.828 68.1586C43.1475 68.2111 42.4147 67.8963 42.31 67.4764C41.8913 65.22 41.2631 64.7477 40.2162 63.9081C41.5248 63.0684 42.8858 61.8615 42.8858 60.2347C42.8858 58.4505 41.6819 57.3485 40.8444 56.8238C39.6928 56.0366 38.3841 55.9317 38.0701 55.9317H24.3033C26.1877 53.7801 28.7526 52.3633 31.5269 51.8385L33.1496 53.5178C33.5161 53.8851 34.1442 53.9376 34.5106 53.5702L36.3427 51.8385C40.0592 52.5207 43.3046 54.8297 45.189 58.1882L43.9327 60.9169C43.7233 61.3892 43.9327 61.9664 44.4038 62.1763L46.8117 63.2259C46.864 63.9605 46.9164 64.7477 46.864 65.4823H45.5031C45.3984 65.4823 45.346 65.5873 45.346 65.6923ZM32.8356 51.1039C32.8356 50.5266 33.3067 50.0543 33.8825 50.0543C33.8825 50.0543 33.8825 50.0543 33.9348 50.0543C34.5106 50.0543 34.9817 50.5266 34.9817 51.1039C34.9817 51.6811 34.5106 52.1534 33.9348 52.1534C33.3067 52.1534 32.8356 51.6811 32.8356 51.1039ZM46.4453 61.7565C45.8695 61.7565 45.3984 61.2842 45.3984 60.707C45.3984 60.1298 45.8695 59.6575 46.4453 59.6575C46.4453 59.6575 46.4453 59.6575 46.4976 59.6575C47.0734 59.6575 47.5445 60.1298 47.5445 60.707C47.4922 61.2842 47.0211 61.7565 46.4453 61.7565Z" fill="#27272A"/>
<path d="M57.2812 69.6279H58.4328V59.3425H57.2812V55.6167H67.7503C69.687 55.6167 71.205 56.0365 72.2519 56.8237C73.2988 57.6108 73.8223 58.9227 73.8223 60.7594C73.8223 61.7564 73.6129 62.6485 73.1941 63.3832C72.7754 64.1178 72.1996 64.6426 71.4668 64.9575V65.1674C72.9324 65.3773 73.6652 66.2694 73.6652 67.8437V69.6279H74.7121V73.3537H67.4885V68.0011C67.4885 67.4238 67.3838 66.9516 67.2268 66.6367C67.0698 66.3218 66.7557 66.1119 66.3893 66.007C66.0229 65.902 65.4994 65.8496 64.8189 65.8496V69.5754H66.3369V73.3012H57.2812V69.6279ZM66.0229 63.1208C66.4416 63.1208 66.808 63.0158 67.0174 62.7535C67.2268 62.5436 67.3315 62.1238 67.3315 61.6515V60.8118C67.3315 60.2871 67.2268 59.9198 67.0174 59.7098C66.808 59.4999 66.4416 59.3425 66.0229 59.3425H64.8189V63.0683H66.0229V63.1208Z" fill="#27272A"/>
<path d="M90.4152 69.6282V73.354H84.1862V71.5698C83.0869 72.9867 81.7259 73.6689 80.1032 73.6689C78.847 73.6689 77.9047 73.2491 77.2766 72.4619C76.6485 71.6748 76.3344 70.5728 76.3344 69.2084V64.3806H75.3398V60.6548H81.5689V68.1589C81.5689 68.6836 81.6736 69.051 81.883 69.2609C82.0924 69.4708 82.4588 69.6282 82.8775 69.6282C83.2963 69.6282 83.6627 69.5233 83.8721 69.2609C84.0815 69.051 84.1862 68.6312 84.1862 68.1589V64.4331H82.9822V60.7073H89.473V69.6807H90.4152V69.6282Z" fill="#27272A"/>
<path d="M91.0445 72.7765V69.418H94.7087V69.6279C94.7087 70.3626 95.1798 70.7299 96.122 70.7299C96.9595 70.7299 97.3259 70.4675 97.3259 69.8903C97.3259 69.5754 97.2213 69.3655 96.9595 69.2081C96.7501 69.0507 96.3314 68.9457 95.7032 68.8408L94.5517 68.6309C92.1438 68.211 90.9922 66.8467 90.9922 64.5902C90.9922 63.2783 91.5156 62.2288 92.5102 61.4941C93.5048 60.7594 94.8657 60.3921 96.5408 60.3921C98.4252 60.3921 100.048 60.7069 101.357 61.3367V64.4852H97.9017V64.2753C97.9017 63.9605 97.797 63.7506 97.5877 63.5931C97.3783 63.4357 97.0642 63.3308 96.6978 63.3308C95.9126 63.3308 95.5462 63.5931 95.5462 64.0654C95.5462 64.3278 95.6509 64.5377 95.8603 64.6427C96.0697 64.8001 96.4361 64.905 97.0119 65.01L98.3205 65.2724C99.6815 65.5348 100.624 66.007 101.199 66.6892C101.775 67.3714 102.089 68.2635 102.089 69.3655C102.089 70.7299 101.618 71.8319 100.624 72.5141C99.6815 73.2488 98.2681 73.6161 96.4884 73.6161C94.7087 73.6686 92.8243 73.4062 91.0445 72.7765Z" fill="#27272A"/>
<path d="M104.863 72.5137C104.025 71.7266 103.659 70.4147 103.659 68.578V64.4324H102.664V60.7066C103.24 60.7066 103.659 60.5491 103.973 60.2867C104.287 59.9719 104.392 59.6046 104.392 59.0798V58.0303H109.207V60.7066H112.296V64.4324H109.207V68.1582C109.207 68.6829 109.312 69.0503 109.522 69.2602C109.731 69.4701 110.097 69.6275 110.516 69.6275C111.092 69.6275 111.72 69.575 112.4 69.4176V72.986C111.982 73.1434 111.406 73.3008 110.673 73.4583C109.94 73.6157 109.207 73.6682 108.475 73.6682C106.904 73.6682 105.7 73.3008 104.863 72.5137Z" fill="#27272A"/>
</svg>
