<svg width="128" height="128" viewBox="0 0 128 128" fill="none" xmlns="http://www.w3.org/2000/svg">
<path d="M38.1465 82.0382C37.6857 81.8344 36.9177 81.6306 36.0985 81.4267C36.1497 81.8853 36.2009 82.293 36.2521 82.6497C36.9177 82.4459 37.5321 82.242 38.1465 82.0382ZM36.0985 81.0191C37.1225 81.2739 38.1977 81.5796 38.6073 81.8344C38.9657 81.6815 39.3241 81.5287 39.6825 81.3758C39.0681 81.0191 37.5321 80.5605 36.1497 80.1529C36.0985 80.4586 36.0985 80.7643 36.0985 81.0191ZM38.7097 82.242C38.6585 82.242 38.6585 82.242 38.7097 82.242C37.5321 82.7006 36.4057 83.0064 35.2793 83.2611H35.2281C34.2041 83.465 33.1801 83.6178 32.1561 83.6688H32.1049C28.7257 83.8726 25.5513 83.2102 23.1449 82.1401L23.0425 82.0892C23.0425 82.0892 22.9913 82.0892 22.9913 82.0382C18.9465 80.1529 17.1033 76.8408 21.0969 74.1911C20.6873 73.5287 20.1753 72.8662 19.6121 72.2038C19.4585 72 19.2537 71.7452 19.1001 71.5414C18.7929 72.3567 18.7417 72.9172 19.2537 73.6306C19.3049 73.7325 19.3049 73.7834 19.2537 73.8853L16.4377 77.2484C16.3865 77.3503 16.2329 77.3503 16.1817 77.2484C2.05048 61.8089 18.1785 38.4204 37.6345 45.1465C37.7369 45.1974 37.7881 45.2994 37.7369 45.4013L34.6649 50.4459C34.6137 50.4968 34.5625 50.5478 34.4601 50.5478C33.4873 50.3949 32.9241 50.4459 32.5145 50.8025C33.3849 50.9554 34.3065 51.1592 35.2281 51.5159C36.0473 50.5987 36.9689 49.7325 37.8905 48.9681C37.8905 48.9681 37.9417 48.9681 37.9417 48.9172C37.9929 48.8662 38.0441 48.8662 38.0953 48.9172C38.1465 48.9172 38.1977 48.9681 38.1977 49.0191V49.0701L39.9385 54.2675C39.9385 54.3185 39.9385 54.3694 39.9385 54.4204C39.9385 54.4713 39.8873 54.5223 39.8361 54.5223C39.7849 54.5732 39.7337 54.5732 39.6825 54.6242C40.0409 55.6943 42.5497 63.2357 43.3177 65.2739C43.5737 65.8853 44.0857 67.0573 44.0857 67.7197C44.0857 68.3822 43.6249 68.7388 42.6521 68.7898C42.1401 69.2484 42.0889 69.4522 42.3449 69.758C42.8569 70.4713 42.6009 70.7771 41.9865 71.2357C42.5497 71.6943 42.4473 72.5095 42.1401 72.5095C41.7305 72.5095 41.5769 72.6624 41.3209 72.9681C43.1129 74.7006 41.6281 76.2293 39.2217 76.7388C38.4537 76.8917 37.5833 76.9936 36.6617 76.9427C36.6617 76.9427 36.6617 76.9427 36.6617 76.9936C36.3545 78.0127 36.1497 78.9809 36.0985 79.8471C37.6857 80.3057 39.5801 80.8662 40.0921 81.2739L40.1433 81.3248C40.1945 81.3758 40.1945 81.4267 40.1945 81.4777C40.1945 81.5287 40.1433 81.5796 40.0921 81.5796C40.0921 81.5796 40.0409 81.5796 40.0409 81.6306C39.6313 81.8344 39.1705 82.0382 38.7097 82.242ZM21.9673 75.3121V75.3631C22.0697 75.8217 22.1209 76.2803 22.1209 76.7898C23.2473 76.0255 22.9401 74.7516 22.6329 74.1401C22.3257 74.3439 22.0697 74.4968 21.7625 74.7006C21.8137 74.9045 21.8649 75.1083 21.9673 75.3121ZM21.6601 75.6688C20.8409 76.1783 20.4825 76.7388 20.4313 77.3503C20.9433 77.2994 21.4041 77.1465 21.7113 76.9936C21.7625 76.535 21.7113 76.0764 21.6601 75.6688ZM20.3801 77.707C20.3801 77.9618 20.4825 78.1656 20.5849 78.4204C23.1449 78.3694 25.0393 75.8726 23.6569 73.3758C23.4009 73.5796 23.1449 73.7834 22.8889 73.9363C23.4009 74.9045 23.8617 77.3503 20.3801 77.707ZM20.8409 78.7771C21.0457 79.0828 21.3017 79.3376 21.6089 79.5924C25.3465 78.5223 26.1145 75.414 24.6297 72.6115C24.4249 72.8153 24.2201 72.9681 23.9641 73.172C25.5513 75.8726 23.5033 78.5732 20.8409 78.7771ZM21.9673 79.8471C22.3257 80.0509 22.7353 80.2548 23.1449 80.4076C27.7529 78.1146 26.6265 73.3758 25.6025 71.7452C25.3977 71.949 25.1417 72.1529 24.9369 72.3567C26.4729 75.3121 25.7561 78.6242 21.9673 79.8471ZM36.3033 61.2994C37.8905 60.6879 39.8873 60.3822 41.4233 60.8408C40.7577 58.8025 40.0409 56.7134 39.6313 55.4904C39.6313 57.5287 38.6585 59.465 36.6617 60.2802C36.5593 60.6369 36.4569 60.9936 36.3033 61.2994ZM35.7401 61.6051C35.7401 61.6051 35.7401 61.5541 35.7913 61.5541C36.0473 61.1465 36.2521 60.6879 36.3545 60.1783V60.1274C36.4569 59.7197 36.4569 59.2611 36.4569 58.8025V58.7516C36.4569 58.4459 36.4057 58.0892 36.3033 57.7325C36.0473 57.9873 35.8425 58.242 35.6377 58.5478C35.7401 59.7197 35.4841 60.9936 34.2041 62.1146C34.2553 62.4713 34.2553 62.828 34.2041 63.1847C34.8697 62.6752 35.3817 62.1656 35.7401 61.6051ZM26.3193 72.4076C26.4217 72 26.6265 71.6943 26.9337 71.3885C26.7801 71.1338 26.7289 70.828 26.6777 70.5732C26.4217 70.879 26.1657 71.1338 25.8585 71.4395C26.0121 71.7452 26.1657 72.051 26.3193 72.4076ZM27.1897 71.1847C27.3945 71.0318 27.6505 70.9299 27.9065 70.828C27.7529 70.4713 27.6505 70.0127 27.5993 69.5032C27.3945 69.758 27.1385 70.0127 26.9337 70.2675C26.9849 70.5732 27.0873 70.879 27.1897 71.1847ZM18.4857 72.5605C18.4857 72.1529 18.6393 71.6943 18.8441 71.1847C17.9225 69.8599 17.1033 68.1274 16.8473 65.5796V65.5287C16.8473 65.2739 16.7961 65.0191 16.7961 64.7643V64.7134C16.7961 64.6115 16.7961 64.5605 16.7961 64.4586C16.7449 63.6433 16.7961 62.7771 16.9497 61.9618V61.9108C17.0009 61.656 17.0521 61.4013 17.1033 61.1465V61.0955C17.6665 58.7516 18.8441 56.5095 20.5337 54.6752L20.5849 54.6242C21.0969 54.1146 21.6601 53.6051 22.2233 53.1465C23.1449 52.4331 24.1689 51.8726 25.2953 51.465C25.2953 51.465 25.2953 51.465 25.3465 51.465C26.7289 50.9554 28.2649 50.6497 29.9033 50.6497C30.0057 50.6497 30.1081 50.6497 30.2105 50.6497C30.8249 50.6497 31.4393 50.7006 32.1049 50.8025C32.4121 50.4459 32.7193 50.242 33.1801 50.1911C33.1289 50.1911 33.1289 50.1911 33.0777 50.1401C32.2585 49.9363 31.4905 49.7834 30.6713 49.7325C26.4729 49.4777 22.3769 51.3121 19.6121 54.3694C19.0489 54.9809 18.5369 55.6433 18.0761 56.3567C18.0761 56.3567 18.0761 56.3567 18.0761 56.4076C17.6665 57.0701 17.3081 57.7834 17.0009 58.4968C16.6937 59.2102 16.4377 59.9745 16.2841 60.7388C15.5673 63.7452 15.8233 67.0573 17.4617 70.4204C17.6153 71.1338 18.0249 71.8471 18.4857 72.5605ZM19.1513 71.0318L19.2025 71.0828C19.3561 71.2866 19.4585 71.4395 19.6121 71.6433C20.3289 71.0828 20.9945 70.5223 21.6601 69.9108C21.3529 69.758 21.0457 69.6051 20.7897 69.4522C20.2777 69.9618 19.9705 70.1656 19.1001 70.1656C18.9465 70.1656 18.8953 70.0637 18.9465 69.9108C19.1001 69.4522 18.9465 68.2802 18.9465 67.6688C18.8953 67.5669 18.7929 67.414 18.7417 67.3121C18.5369 67.3631 18.2297 67.3631 17.8713 67.3631C17.6665 67.3631 17.6153 67.2102 17.7689 67.0573C18.3321 66.5478 18.2297 65.8344 18.3833 64.8662C18.0761 65.0191 17.4617 65.4267 17.2569 65.5796C17.4617 68.0764 18.2809 69.758 19.1513 71.0318ZM20.9433 73.3758C28.4185 68.3822 31.3881 59.3631 38.0953 53.656L37.1225 53.4522C36.9177 53.4013 36.9177 53.4013 36.9689 53.1974L37.1225 51.8217C30.8761 58.0892 27.4457 68.3822 20.4825 72.7643C20.6361 72.9681 20.7897 73.172 20.9433 73.3758ZM38.3001 50.6497C37.9929 50.9045 37.7369 51.1592 37.4809 51.414L37.2761 53.1465L38.4025 53.4013C38.6073 53.2484 38.8121 53.0446 39.0681 52.8917L38.9145 52.3822C38.6073 52.4841 38.2489 52.3312 38.0953 51.9745C37.9929 51.6688 38.1465 51.3121 38.5049 51.1592L38.3001 50.6497ZM22.0697 70.0127C21.3529 70.6752 20.6361 71.3376 19.8169 71.949L19.8681 72C19.9705 72.1529 20.1241 72.3057 20.2265 72.4586C23.9129 70.1656 26.5753 66.1911 29.2377 62.0127C31.5417 58.3439 33.9993 54.2675 37.1225 51.2102L37.1737 51.1592C37.4809 50.8535 37.8393 50.5478 38.1465 50.242L37.8905 49.4777C36.6617 50.4968 35.5865 51.6178 34.5113 52.8408C34.5113 52.8408 34.5113 52.8917 34.4601 52.8917C32.4633 55.2866 30.7737 57.9873 29.1865 60.4841C28.3161 61.8089 27.4969 63.1338 26.5753 64.4586C26.5753 64.4586 26.5753 64.5095 26.5241 64.5095C26.1657 65.0191 25.7561 65.5287 25.3977 66.0892C25.3977 66.0892 25.3977 66.1401 25.3465 66.1401C25.0905 66.4968 24.7833 66.8535 24.4761 67.2102C24.4761 67.2102 24.4761 67.2611 24.4249 67.2611C24.0153 67.7707 23.5545 68.2803 23.0937 68.7898C23.0937 68.7898 23.0937 68.8408 23.0425 68.8408C22.8377 69.1974 22.4281 69.6051 22.0697 70.0127ZM21.9161 69.656C22.1721 69.4013 22.4793 69.0955 22.7353 68.8408C21.0457 68.586 20.0729 67.7707 19.7145 66.7516C19.4585 66.9554 19.3049 67.1083 19.1001 67.2102C19.1513 67.3121 19.2025 67.414 19.2537 67.5159C19.2537 67.5159 19.3049 67.5669 19.3049 67.6178C19.9705 68.6879 20.7385 69.0446 21.9161 69.656ZM22.9913 68.4841C23.2473 68.1783 23.5545 67.8726 23.8105 67.5669C20.6873 68.4331 18.6905 63.5414 24.0665 61.5541C23.6569 61.4013 23.2985 61.2994 22.9401 61.0955C19.4585 62.6242 18.2809 67.8726 22.9913 68.4841ZM24.3225 66.9554C24.5785 66.5987 24.8857 66.293 25.1417 65.9363C25.2441 65.0191 25.0393 64 23.8617 63.4904C23.5545 63.6433 23.2473 63.8471 22.9913 64.1019C24.6809 64.3567 24.6297 66.4968 23.0937 66.4968C21.8137 66.4968 21.8649 64.9172 22.4281 64.1529C22.4281 64.1529 22.4281 64.1019 22.4793 64.1019C22.7353 63.7452 23.1449 63.4395 23.7081 63.1338C23.7081 63.1338 23.7593 63.1338 23.7593 63.0828C24.1689 62.879 24.6809 62.7261 25.2441 62.5732H25.2953C25.6537 62.4713 26.0121 62.4204 26.4729 62.3694C26.1657 62.2166 25.7561 62.1146 25.3977 61.9618C25.1417 61.8599 24.8857 61.8089 24.5785 61.707C18.8953 63.5414 21.1993 68.586 24.3225 66.9554ZM25.5001 65.3758C25.7561 65.0191 26.0121 64.6624 26.2681 64.3057C26.2169 63.949 25.8073 63.2866 25.3465 62.9299C24.9881 63.0318 24.6297 63.1338 24.2713 63.2866C25.1929 63.7962 25.5001 64.6115 25.5001 65.3758ZM26.5241 63.949C26.7801 63.5414 27.0361 63.1847 27.2921 62.7771C27.2409 62.7261 27.1385 62.6752 27.0873 62.6242C26.7289 62.6752 26.2681 62.7261 25.7561 62.828C26.1145 63.1847 26.3705 63.5924 26.5241 63.949ZM27.4969 62.5223C27.7529 62.1146 28.0089 61.707 28.3161 61.2994C27.2921 61.0446 25.5001 61.1974 24.3225 61.1974C24.7321 61.3503 25.1417 61.4522 25.5513 61.6051C26.1657 61.8089 26.7289 62.0127 27.2409 62.3185C27.2409 62.3185 27.2921 62.3185 27.2921 62.3694C27.3433 62.4204 27.4457 62.4713 27.4969 62.5223ZM28.5209 60.9427C28.7257 60.6369 28.8793 60.3312 29.0841 60.0764C27.9577 59.7197 26.1657 59.8217 25.0393 59.8217C23.7081 59.8217 22.2745 59.8726 21.1993 59.5669C21.7625 60.0764 22.4793 60.4841 23.2473 60.7898C23.8105 60.8917 25.1929 60.7898 25.6537 60.7898C26.6777 60.7898 27.8041 60.7898 28.5209 60.9427ZM29.2889 59.7707C29.4425 59.5159 29.5961 59.2611 29.7497 59.0064C28.3161 58.4459 26.0121 58.6497 24.5273 58.6497C22.8377 58.6497 21.0969 58.5478 19.9705 57.6306C20.1241 58.1911 20.3801 58.6497 20.6873 59.0573C22.3257 59.7707 25.5001 59.414 27.3945 59.465C28.1113 59.5159 28.7769 59.5669 29.2889 59.7707ZM29.9545 58.7006C30.1081 58.4459 30.2617 58.1911 30.4665 57.9363C29.9033 57.7325 29.3401 57.6306 28.7769 57.5287H28.7257C27.2921 57.3248 25.8585 57.3758 24.3225 57.3758C23.3497 57.3758 22.4793 57.3248 21.6601 57.121H21.6089C20.9433 56.9172 20.3801 56.5605 19.9193 55.8981C19.8681 55.949 19.8169 56 19.7657 56.1019C19.7657 56.4076 19.8169 56.6624 19.8681 56.9681C20.7897 58.1911 22.5817 58.3439 24.5785 58.3439C26.1145 58.293 28.4697 58.0892 29.9545 58.7006ZM34.4089 52.4841C34.5625 52.2803 34.7673 52.0764 34.9209 51.8726C33.9481 51.5669 33.0265 51.3121 32.1049 51.2102H32.0537C31.6441 51.1592 31.2345 51.1083 30.8249 51.0573C30.9785 51.2611 31.0809 51.6178 31.0809 52.0255C31.2857 52.2293 31.4393 52.4841 31.4393 52.7388C31.6953 52.586 32.0537 52.535 32.4633 52.6369C32.7705 51.9236 33.7945 51.7707 34.4089 52.4841ZM14.1337 74.1401L17.4617 71.6433C17.3081 71.3376 17.1545 71.0828 17.0009 70.7771L14.1849 72.4586C13.9801 72.5605 13.7753 72.2548 13.9801 72.1529L16.7961 70.4204C16.6937 70.1656 16.5913 69.9618 16.4889 69.707L12.6489 71.4904C13.1097 72.4076 13.6217 73.2739 14.1337 74.1401ZM17.6665 71.949L14.3385 74.4459C14.9017 75.2611 15.5161 76.0764 16.2329 76.8917L18.8441 73.7834C18.6905 73.5287 18.4857 73.3248 18.3321 73.0701L15.8233 75.5159C15.6697 75.6688 15.4137 75.414 15.5673 75.2611L18.1273 72.7643C17.9737 72.5095 17.8201 72.2038 17.6665 71.949ZM12.5977 71.1847L16.4377 69.4013C16.3353 69.1465 16.2329 68.8917 16.1817 68.6369L13.0585 69.5541C12.8025 69.6051 12.7001 69.2484 12.9561 69.1974L16.0793 68.2803C15.9769 67.9236 15.8745 67.6178 15.8233 67.2611L11.6761 68.1274C11.8297 69.1974 12.1881 70.1656 12.5977 71.1847ZM11.5225 67.8217L15.6697 66.9554C15.6185 66.6497 15.5673 66.3439 15.5161 66.0892L12.1881 66.3949C11.9321 66.3949 11.9321 66.0382 12.1369 66.0382L15.4649 65.7325C15.4137 65.4267 15.4137 65.0701 15.3625 64.7643L11.1129 64.6624C11.1641 65.6815 11.3177 66.7516 11.5225 67.8217ZM11.1129 64.2548L15.3625 64.3567C15.3625 64.0509 15.3625 63.7962 15.3625 63.4904L12.0857 63.1338C11.8297 63.0828 11.8809 62.7261 12.1369 62.7771L15.4137 63.1338C15.4137 62.7771 15.4649 62.4204 15.5161 62.0637L11.3689 61.1974C11.2153 62.2166 11.1129 63.2357 11.1129 64.2548ZM11.4201 60.8408L15.5673 61.707C15.6185 61.4013 15.6697 61.1465 15.7209 60.8917L12.5465 59.8726C12.2905 59.8217 12.4441 59.465 12.6489 59.5159L15.7721 60.4841C15.8233 60.2293 15.9257 59.9236 15.9769 59.6688L12.1369 57.7834C11.8809 58.7516 11.5737 59.7707 11.4201 60.8408ZM12.3417 57.4267L16.1305 59.3121C16.2329 59.0573 16.3353 58.7516 16.4377 58.4968L13.5193 56.7134C13.3145 56.6115 13.5193 56.2548 13.7241 56.4076L16.5913 58.1401C16.6937 57.8344 16.8473 57.5796 17.0009 57.2739L13.5705 54.6752C13.1097 55.5924 12.7001 56.5095 12.3417 57.4267ZM13.7241 54.4204L17.1545 57.0191C17.2569 56.8153 17.4105 56.5605 17.5641 56.3567L15.0553 53.9618C14.9017 53.8089 15.1577 53.5541 15.3113 53.707L17.7689 56.051C17.9737 55.7452 18.1273 55.4904 18.3321 55.2357L15.4649 51.9236C14.8505 52.6879 14.2361 53.5032 13.7241 54.4204ZM15.6697 51.6178L18.5369 54.9299C18.7417 54.7261 18.8953 54.4713 19.1001 54.2675L16.9497 51.3631C16.7961 51.1592 17.1033 50.9554 17.2569 51.1592L19.3561 54.0127C19.5609 53.8089 19.7657 53.5541 20.0217 53.3503L17.7689 49.4777C17.0009 50.0892 16.3353 50.8025 15.6697 51.6178ZM18.0249 49.172L20.2777 53.0446C20.4825 52.8917 20.6873 52.6879 20.8921 52.535L19.4073 49.121C19.3049 48.9172 19.6633 48.7643 19.7657 48.9681L21.1993 52.2802C21.4553 52.0764 21.7113 51.8726 22.0185 51.7197L20.5337 47.2866C19.6633 47.8981 18.7929 48.5095 18.0249 49.172ZM20.8409 47.1338L22.3257 51.5669C22.5817 51.414 22.7865 51.2611 23.0425 51.1592L22.1721 47.4395C22.1209 47.1847 22.4793 47.1338 22.5305 47.3376L23.4009 50.9045C23.6569 50.7516 23.9129 50.6497 24.1689 50.4968L23.5033 45.707C22.5817 46.1656 21.7113 46.6242 20.8409 47.1338ZM23.8617 45.6051L24.5273 50.3949C24.7833 50.293 25.0905 50.1911 25.3977 50.0892L25.2441 46.1146C25.2441 45.8599 25.6025 45.8599 25.6025 46.1146L25.7049 49.9873C25.9609 49.8853 26.2681 49.8344 26.5753 49.7325L26.9337 44.7388C25.8585 44.9427 24.8345 45.2484 23.8617 45.6051ZM27.2921 44.6879L26.9337 49.6815C27.2409 49.6306 27.5993 49.5287 27.9065 49.5287L28.5209 45.6051C28.5721 45.3503 28.9305 45.4013 28.8793 45.656L28.3161 49.4777C28.5721 49.4267 28.8281 49.4267 29.0841 49.4267L30.3641 44.4331C29.3401 44.3822 28.3161 44.4841 27.2921 44.6879ZM30.7737 44.3822L29.4937 49.3758C29.8009 49.3758 30.1593 49.3758 30.4665 49.3758L31.6953 45.4522C31.7465 45.1974 32.1049 45.3503 32.0537 45.5541L30.8249 49.3758C31.1321 49.4267 31.4393 49.4267 31.7465 49.4777L33.8457 44.586C32.8217 44.4331 31.7977 44.3822 30.7737 44.3822ZM34.2041 44.6879L32.1049 49.5796C32.3609 49.6306 32.6681 49.6815 32.9241 49.7834L34.9721 45.8089C35.0745 45.6051 35.4329 45.758 35.2793 45.9618L33.2313 49.8344C33.5897 49.9363 33.9481 50.0382 34.3065 50.1911L37.1737 45.4522C36.2009 45.0955 35.2281 44.8408 34.2041 44.6879ZM27.5993 55.6433C27.5993 55.6943 27.5993 55.6943 27.5481 55.7452C27.5481 55.7962 27.4969 55.7962 27.4457 55.7962C27.4457 55.7962 27.4457 55.7962 27.3945 55.7962C27.0873 55.8471 26.7801 55.8471 26.4729 55.7962C26.4217 55.8471 26.4217 55.8471 26.3705 55.8981C26.4217 56.2548 26.5753 56.6624 26.9849 57.0701C27.2409 57.0701 27.5481 57.0701 27.8041 57.121L28.6233 53.8089C27.7017 53.5541 27.4969 51.9745 28.6745 51.7707C28.6745 51.5159 28.7769 51.2611 28.9305 51.1083C28.3161 51.1592 27.7017 51.2102 27.0873 51.3631L27.2409 53.2484V53.2994V53.5032C27.2409 53.758 26.8825 53.758 26.8825 53.5541V53.4013L26.1145 52.8917C25.9097 53.0446 25.8073 53.2994 25.8073 53.5541C25.8073 54.0637 26.2169 54.4713 26.7289 54.4713C26.8313 54.4713 26.8825 54.4713 26.9849 54.4204V54.3694C26.9849 54.1146 27.3433 54.1146 27.3433 54.3185V54.5223V54.5732L27.5993 55.6433C27.5993 55.6433 27.5993 55.5924 27.5993 55.6433ZM26.2681 52.2802L26.3705 52.3312C26.3705 52.3312 26.3705 52.3312 26.4217 52.3312L27.0361 52.7388L26.8825 51.2611C26.4217 51.3631 25.9609 51.5159 25.5001 51.6688C24.5273 52.6879 24.6809 53.8089 25.2441 54.5223L25.2953 54.5732C25.7561 55.1338 26.5241 55.4395 27.2409 55.3376L27.1385 54.6752C27.0361 54.6752 26.9337 54.7261 26.8313 54.7261C26.1145 54.7261 25.5513 54.1656 25.5513 53.4522C25.5513 53.0955 25.7049 52.7898 25.9609 52.535C25.9097 52.3822 26.0633 52.1783 26.2681 52.2802ZM26.0633 55.6433C25.6537 55.4904 25.2953 55.2357 25.0393 54.9809C23.7593 55.2866 22.6329 54.3694 22.2233 53.5541C21.7625 53.9108 21.3529 54.2675 20.9945 54.6242L21.7625 54.828C21.7625 54.828 21.7625 54.828 21.8137 54.828L22.0185 54.879C22.0697 54.879 22.0697 54.879 22.1209 54.9299C22.1721 54.9299 22.1721 54.9809 22.1721 54.9809C23.0425 56.051 25.2441 56.0509 26.0633 55.6433ZM24.7833 54.6242C24.2713 53.9108 24.1689 52.9936 24.7833 52.0255C23.9641 52.3822 23.1961 52.8408 22.5305 53.3503C22.8377 54.0127 23.7593 54.7771 24.7833 54.6242ZM21.8649 55.2357C21.7113 55.5924 21.7113 56.3567 21.8137 56.7643C22.5305 56.9681 23.3497 57.0191 24.2713 57.0191C25.0393 57.0191 25.8073 57.0191 26.5241 57.0191C26.2681 56.7134 26.1145 56.3567 26.0633 56.051C24.9881 56.4586 22.8377 56.3057 21.8649 55.2357ZM22.4793 60.8917C22.2233 60.7898 22.0185 60.6369 21.8137 60.4841C21.5577 60.6879 21.3017 60.8917 21.0457 61.0446C21.0457 61.0446 21.0457 61.0446 20.9945 61.0446C20.5337 61.4522 20.1241 61.8089 19.8169 62.1656C19.8169 62.1656 19.8169 62.1656 19.7657 62.2166C19.6121 62.3694 19.5097 62.5223 19.4073 62.7261C19.4073 62.7261 19.4073 62.7771 19.3561 62.7771C18.9465 63.4395 18.7417 64 18.6393 64.5605C18.4857 65.3248 18.5881 66.3439 18.1273 67.0064C18.8441 66.9554 19.0489 66.7516 19.4585 66.3439C19.1513 64.4076 20.5337 61.9108 22.4793 60.8917ZM22.7353 64.4076C22.6841 64.4586 22.6329 64.5605 22.5817 64.6115C22.1721 65.4267 22.6329 66.0892 23.0937 66.0892C24.2713 66.0892 24.1689 64.5096 22.7353 64.4076ZM20.6361 60.9427C20.0217 60.4331 19.3049 59.9236 18.9465 59.1592C18.8953 59.5669 18.8953 59.9745 18.9977 60.3312C19.1513 60.9427 19.4585 61.4522 19.7145 61.8089C19.9705 61.5541 20.2777 61.2484 20.6361 60.9427ZM19.3049 68.2803C19.3561 68.7898 19.4073 69.2994 19.3049 69.8089C19.8681 69.758 20.1241 69.6051 20.4313 69.2994C20.0217 68.9936 19.6633 68.6879 19.3049 68.2803ZM19.1001 61.5032L18.4345 61.8599L18.7929 62.6242C18.9465 62.5732 19.0489 62.5223 19.2025 62.4713C19.3049 62.3694 19.4073 62.2166 19.5097 62.0637C19.3561 61.9108 19.2537 61.707 19.1001 61.5032ZM17.1033 64.7643C17.1033 64.9172 17.1033 65.0701 17.1545 65.2229C17.5129 64.9681 18.0761 64.6115 18.3833 64.5095C18.4857 64.051 18.6393 63.5924 18.8953 63.0828C18.8441 63.0828 18.8441 63.1338 18.7929 63.1338C17.9737 63.5414 17.2569 64.4586 17.1033 64.7643ZM17.1545 62.4204C17.1033 62.9809 17.0521 63.5414 17.0521 64.1019C17.2057 63.8471 17.4617 63.5924 17.7177 63.3376L17.1545 62.4204ZM17.3593 61.2484C17.3081 61.4522 17.2569 61.707 17.2569 61.9108L18.0249 63.1847C18.1785 63.0828 18.2809 62.9809 18.4345 62.879C17.8201 61.5541 17.6665 61.8599 18.9465 61.2484C18.8441 61.0446 18.7929 60.8408 18.6905 60.6369C18.3833 60.6879 17.8201 60.8917 17.3593 61.2484ZM19.4073 56.5605C18.5369 57.8344 17.8713 59.2611 17.5129 60.7388C17.9225 60.4841 18.3321 60.3312 18.6393 60.2293C18.5369 59.6688 18.5369 59.1083 18.7929 58.4459C18.8953 58.242 19.1001 58.242 19.1513 58.4968C19.3049 59.414 20.2265 60.1274 20.9433 60.6879C21.0969 60.535 21.3017 60.3822 21.5065 60.2802C20.4313 59.5159 19.6121 58.3949 19.4073 56.5605ZM20.6873 54.9299C20.4825 55.1338 20.2777 55.3376 20.1241 55.5924C20.4825 56.1019 20.9433 56.4076 21.4553 56.6624C21.4041 56.2038 21.4041 55.5924 21.5065 55.1847L20.6873 54.9299ZM30.9785 53.758C30.8249 53.8599 30.6201 53.9108 30.3641 53.9108C30.3129 54.4204 30.2105 54.9809 30.3129 55.4904L31.2857 54.4713C31.0809 54.2166 30.9785 53.9618 30.9785 53.758ZM29.8521 54.828C29.5961 54.7771 29.2889 54.6752 29.1865 54.3694C29.1353 54.2675 29.5449 54.3185 29.5961 54.3185C29.6985 54.3185 29.8009 54.3185 29.9033 54.2675C29.9033 54.0637 29.9545 53.8599 30.0057 53.656C30.0057 53.6051 30.0057 53.5032 30.0569 53.4522C30.1081 53.1974 30.4665 53.2484 30.4153 53.5032C31.4905 53.4013 31.2857 51.8726 30.1593 52.1274C29.9033 52.1783 29.8521 51.8217 30.1081 51.7707C30.3641 51.7197 30.5689 51.7197 30.7737 51.7707C30.6713 50.242 28.2649 51.1592 29.6473 52.3312C29.8521 52.4841 29.5961 52.7898 29.3913 52.586C29.1353 52.3822 28.9817 52.1783 28.9305 51.9745C28.1113 52.1274 28.3161 53.1465 28.8793 53.2994V53.2484C28.9305 52.9936 29.2889 53.0955 29.2377 53.3503L29.1865 53.5541L28.2649 57.121C28.4185 57.121 28.5721 57.172 28.7257 57.172L30.0057 55.7962C29.9033 55.4904 29.8521 55.1847 29.8521 54.828ZM31.6953 56.1019C31.4905 55.8471 31.4393 55.4395 31.4905 55.0828C31.5417 54.9299 31.6953 55.1847 31.7465 55.2357C31.8489 55.3376 32.0025 55.3885 32.1561 55.4904C32.4633 55.0318 32.7705 54.6242 33.0777 54.1656C33.4361 53.707 33.7945 53.1974 34.2041 52.7388C33.5897 51.9745 32.5145 52.4331 32.8217 53.6051C32.8729 53.8599 32.5145 53.9108 32.4633 53.707C32.4121 53.4522 32.3609 53.1974 32.4121 52.9936C31.5929 52.7388 31.0297 53.4522 31.5417 54.1656C31.6953 54.0127 31.9513 54.2675 31.7977 54.4204L30.3641 55.949L30.3129 56L29.1865 57.2229C29.6985 57.3248 30.2105 57.4267 30.7225 57.6306C30.9785 57.121 31.3369 56.6115 31.6953 56.1019ZM30.0569 66.293C32.1049 65.4777 32.7193 63.8471 32.6169 62.5732C32.1561 63.2357 31.6953 63.8981 31.2857 64.5605C30.8761 65.121 30.4665 65.6815 30.0569 66.293ZM34.1017 61.656C34.9721 60.7898 35.2281 59.8217 35.2281 58.9554C34.7673 59.5669 34.3065 60.1783 33.8457 60.7898C33.9481 61.0955 34.0505 61.3503 34.1017 61.656ZM36.7641 58.3949C37.6857 57.6306 38.0441 56.8662 38.0441 55.8981C37.5321 56.3567 37.0713 56.8153 36.6105 57.3248C36.6617 57.7325 36.7129 58.0892 36.7641 58.3949ZM36.7129 59.8726C38.6073 59.0064 39.3753 56.9681 39.2217 54.879C38.9145 55.0828 38.6073 55.3376 38.3513 55.5924C38.4537 56.8662 37.9929 57.8853 36.7641 58.8025C36.7641 59.2102 36.7641 59.5669 36.7129 59.8726ZM29.3401 67.7197C31.4905 67.5159 33.3849 65.8344 33.7945 63.5414V63.4904C33.8457 63.0318 33.8969 62.5732 33.8457 62.0637V62.0127C33.7945 61.707 33.7433 61.4522 33.6409 61.1465C33.4361 61.4522 33.1801 61.758 32.9753 62.1146C33.2825 63.7452 32.5657 65.9873 29.7497 66.8025C29.5449 67.1083 29.2889 67.414 29.0329 67.7197C29.1353 67.7197 29.2377 67.7197 29.3401 67.7197ZM21.4553 74.1911C21.5065 74.293 21.5577 74.3439 21.5577 74.3949C22.2745 73.9873 22.9401 73.5287 23.6057 72.9681C23.6057 72.9681 23.6057 72.9681 23.6569 72.9681C23.9641 72.7134 24.2713 72.4586 24.5785 72.2038L24.6297 72.1529C24.9369 71.8981 25.1929 71.5924 25.5001 71.3376C25.5001 71.3376 25.5001 71.2866 25.5513 71.2866C25.9097 70.9299 26.3193 70.5223 26.6777 70.1146L26.7289 70.0637C27.0361 69.707 27.3945 69.2994 27.7017 68.9427C27.7017 68.8917 27.7529 68.8917 27.7529 68.8917C28.0089 68.535 28.3161 68.1783 28.5721 67.8217C28.5721 67.7707 28.5721 67.8217 28.6233 67.7707C28.9305 67.3631 29.2377 66.9554 29.4937 66.5478C29.4937 66.5478 29.4937 66.4968 29.5449 66.4968C30.6201 65.0191 31.6441 63.4904 32.6681 61.9618C32.6681 61.9618 32.6681 61.9108 32.7193 61.9108C33.0265 61.5032 33.2825 61.0446 33.5897 60.6369C33.5897 60.6369 33.5897 60.586 33.6409 60.586C34.1529 59.8726 34.6649 59.2102 35.1769 58.5478C35.2281 58.4968 35.2793 58.4459 35.3305 58.3439C35.3305 58.3439 35.3305 58.293 35.3817 58.293C35.6889 57.9363 35.9961 57.5287 36.3033 57.172C36.3033 57.172 36.3033 57.121 36.3545 57.121C36.9177 56.5095 37.5321 55.8981 38.0953 55.3376L38.1465 55.2866C38.5561 54.9299 38.9145 54.6242 39.3241 54.3694L39.3753 54.3185L39.4265 54.2675C39.4265 54.2675 39.4265 54.2675 39.4777 54.2675C39.5289 54.2166 39.5801 54.1656 39.6313 54.1656L39.2729 53.1465C39.0681 53.2994 38.8633 53.4522 38.7097 53.6051C38.7097 53.6051 38.7097 53.6051 38.6585 53.656C31.6953 59.414 28.7769 68.6369 21.1481 73.6815C21.2505 73.8344 21.3529 73.9873 21.4553 74.1911ZM28.0089 74.8535C28.0089 74.8535 28.0601 74.8535 28.0089 74.8535C28.2137 74.9045 28.3673 74.9045 28.5209 74.9045C28.9817 74.9045 29.3913 74.7516 29.7497 74.4968C30.1593 74.1401 30.4153 73.6306 30.4153 73.0701C30.4153 72.7643 30.3641 72.5096 30.2617 72.3057V72.2548C29.9545 71.6433 29.2889 71.1847 28.5721 71.1847C28.4697 71.1847 28.3673 71.1847 28.3161 71.1847H28.2649C27.9065 71.2357 27.5993 71.3885 27.3433 71.5924H27.2921C26.8825 71.949 26.6265 72.4586 26.6265 73.0191C26.6265 73.8853 27.1897 74.6497 28.0089 74.8535ZM23.0937 81.7325C23.6569 81.5287 24.1689 81.2739 24.5785 81.0191L24.6297 80.9682C25.0393 80.7134 25.3977 80.4076 25.7561 80.1019C25.7561 80.1019 25.7561 80.0509 25.8073 80.0509C27.4457 78.4204 27.9065 76.3312 27.8553 75.1592C27.4969 75.0573 27.1385 74.8025 26.8825 74.5478C27.0873 76.6369 26.4217 79.1847 23.2985 80.7134C23.2473 80.7643 23.2473 80.7643 23.1961 80.7643C23.1961 80.7643 23.1449 80.7643 23.0937 80.7643C22.5817 80.6115 22.0185 80.3057 21.5577 80C21.5065 79.949 21.5065 79.949 21.4553 79.8981C21.0457 79.5924 20.6873 79.1847 20.4313 78.7771C20.3801 78.7261 20.3801 78.7261 20.3801 78.6752C19.7657 77.6051 19.8681 76.3822 21.6089 75.3631C21.5065 75.1083 21.4041 74.8535 21.3017 74.5987C17.7177 76.9427 19.1001 79.8981 23.0937 81.7325ZM24.7321 81.3248C24.3737 81.5287 23.9641 81.7325 23.5545 81.9363C25.6537 82.8025 28.3673 83.3631 31.2345 83.3121C29.5449 82.6497 26.3705 81.6815 24.7321 81.3248ZM25.9609 80.4076C25.7049 80.6115 25.4489 80.8662 25.1929 81.0191C27.2409 81.4777 30.8761 82.6497 32.1561 83.2102C32.9241 83.1592 33.7433 83.0573 34.5113 82.9554C32.3097 82.293 27.9065 80.9172 25.9609 80.4076ZM28.1625 75.2611C28.1625 76.4841 27.7529 78.5223 26.2169 80.1529C28.4697 80.7134 33.3849 82.242 35.1769 82.9045C35.4329 82.8535 35.6889 82.8025 35.8937 82.7516C35.5865 81.3248 35.5865 79.2357 36.3033 76.9427C34.2553 76.7898 31.9513 76.1783 29.8009 74.8535C29.4425 75.1083 28.9817 75.3121 28.4697 75.3121C28.4185 75.2611 28.2649 75.2611 28.1625 75.2611ZM28.1625 70.3185C28.2137 70.4713 28.2649 70.6242 28.3161 70.7771C28.3673 70.7771 28.4697 70.7771 28.5209 70.7771C28.8793 70.7771 29.2377 70.879 29.5449 71.0318C29.7497 70.0127 28.7769 69.6051 28.1625 70.3185ZM29.4937 68.4841C31.1321 68.8917 31.6953 70.9299 30.6713 72.1529C30.7737 72.4076 30.8249 72.7134 30.8249 73.0191C30.8249 73.6306 30.5689 74.1911 30.2105 74.5987C33.3849 76.535 36.9689 76.8917 39.3241 76.3822C41.7817 75.8726 42.6521 74.5478 41.1161 73.121C40.8601 72.8662 41.5769 72.2038 42.1401 72.1529C42.1913 71.7962 42.0377 71.5414 41.7817 71.3885C41.0137 71.3376 39.7849 71.6943 38.9657 71.8981C38.9145 72.051 38.6585 72.1019 38.6073 71.8981C38.5049 71.6433 38.7609 71.2357 38.8121 71.1338C38.9145 70.879 39.2217 71.0318 39.1193 71.2866C39.0681 71.3376 39.0169 71.4395 39.0169 71.5414C39.8361 71.3376 40.9625 70.9809 41.7817 71.0318C41.9865 70.879 42.4985 70.5223 42.3961 70.2166C42.3449 70.1656 42.2937 70.0637 42.1913 69.9108C41.7817 69.4013 41.9865 69.0446 42.3449 68.6369C41.7305 68.535 40.9113 68.6369 40.5017 69.0955C40.2457 69.3503 39.8361 68.6369 39.7849 68.535C39.6313 68.1274 39.6313 67.6178 40.2457 67.0573C40.3993 66.9045 40.6553 67.1592 40.5017 67.3121C40.0409 67.7707 39.8873 68.2293 40.3481 68.6879C41.0137 68.1783 41.9353 68.0764 42.7033 68.2803C44.0857 68.1783 43.9833 67.6178 43.6249 66.6497C43.4713 66.242 43.2665 65.7834 43.1129 65.2739C42.8057 64.5095 42.2425 62.9299 41.6793 61.1974C40.0921 60.586 37.8393 60.9427 36.1497 61.707C35.7401 62.3694 35.1257 62.9809 34.2553 63.5924C33.8457 65.9363 31.9001 67.7197 29.6473 67.9745L29.4937 68.4841ZM29.0841 68.4331L29.1353 68.0764C28.9817 68.0764 28.8793 68.0764 28.7257 68.0764C28.4697 68.4331 28.2137 68.7388 27.9577 69.0446C27.9577 69.3503 28.0089 69.6051 28.0601 69.8599C28.8281 69.1974 30.3129 69.656 29.8521 71.1847C30.1081 71.3376 30.3129 71.5924 30.4665 71.7962C31.2857 70.6752 30.5689 68.8408 28.9817 68.7898C28.7257 68.7898 28.7257 68.4331 28.9817 68.4331C29.0329 68.4331 29.0841 68.4331 29.0841 68.4331ZM35.4329 55.3885C35.4329 55.5924 35.2793 55.7452 35.0745 55.7452C34.8697 55.7452 34.7161 55.5924 34.7161 55.3885C34.7161 55.1847 34.8697 55.0318 35.0745 55.0318C35.2793 55.0828 35.4329 55.2357 35.4329 55.3885ZM36.4057 54.2675C36.4057 54.4713 36.2521 54.6242 36.0473 54.6242C35.8425 54.6242 35.6889 54.4713 35.6889 54.2675C35.6889 54.0637 35.8425 53.9108 36.0473 53.9108C36.2521 53.9108 36.4057 54.0637 36.4057 54.2675ZM34.5113 56.6115C34.5113 56.7643 34.3577 56.9172 34.2041 56.9172C34.0505 56.9172 33.8969 56.7643 33.8969 56.6115C33.8969 56.4586 34.0505 56.3057 34.2041 56.3057C34.3577 56.3057 34.5113 56.4586 34.5113 56.6115ZM24.0665 53.3503C24.0665 53.5541 23.9129 53.707 23.7081 53.707C23.5033 53.707 23.3497 53.5541 23.3497 53.3503C23.3497 53.1465 23.5033 52.9936 23.7081 52.9936C23.9129 52.9936 24.0665 53.1465 24.0665 53.3503ZM28.5209 73.6815C28.8793 73.6815 29.1865 73.3758 29.1865 73.0191C29.1865 72.6624 28.8793 72.3567 28.5209 72.3567C28.1625 72.3567 27.8553 72.6624 27.8553 73.0191C27.8553 73.3758 28.1625 73.6815 28.5209 73.6815ZM28.5209 74.0382C27.9577 74.0382 27.4969 73.5796 27.4969 73.0191C27.4969 72.4586 27.9577 72 28.5209 72C29.0841 72 29.5449 72.4586 29.5449 73.0191C29.5449 73.5796 29.0841 74.0382 28.5209 74.0382ZM37.2249 64.3057C37.1225 64 37.0713 63.6433 37.1225 63.2357C36.5593 63.3885 36.0473 63.6433 35.5865 64C35.7401 64.051 35.9961 64.1019 36.3033 64.2038C36.5593 64.2548 36.8665 64.3057 37.2249 64.3057ZM37.4809 63.1338C37.4297 63.6433 37.4809 64 37.5833 64.3057C37.8393 64.3057 38.0441 64.3057 38.3001 64.2548C38.1977 64.1019 38.0953 63.8471 38.0953 63.6433C38.0953 63.3885 38.0953 63.1847 38.1977 62.9809C37.9929 63.0318 37.7369 63.0828 37.4809 63.1338ZM39.0169 62.5732C39.2729 62.5732 39.5289 62.5223 39.6825 62.5732C39.7849 62.5732 39.8361 62.6752 39.8361 62.7771C39.8361 62.9809 39.5289 63.1338 39.3241 63.1847C39.3753 63.2866 39.3753 63.3885 39.3753 63.5414C39.4265 64.0509 39.2217 64.5095 38.8633 64.6115C38.8633 64.6115 38.8633 64.6115 38.8121 64.6115C38.4025 64.6624 37.9417 64.7134 37.4297 64.7134C37.3785 64.7134 37.3785 64.7134 37.3273 64.7134C36.5593 64.7134 35.7913 64.5605 35.1769 64.3057C35.0233 64.5095 34.7161 64.2548 34.9209 64.0509C34.9209 64.0509 34.9721 64 35.0233 63.949C35.0233 63.949 35.0233 63.949 35.0745 63.8981C35.5353 63.5414 36.7641 62.6242 39.0169 62.5732Z" fill="#27272A"/>
<path d="M52.0723 48.8155V49.4779H54.1203V55.7964H54.8883V49.4779H56.9363V48.8155H52.0723ZM58.5235 48.8155V55.7964H62.3123V55.1339H59.2915V52.5352H62.0563V51.8728H59.2915V49.4779H62.3123V48.8155H58.5235ZM67.5347 49.2741C68.2003 49.2741 68.8147 49.4269 69.3267 49.7836L69.6339 49.2231C68.9683 48.8664 68.3027 48.7136 67.5347 48.7136C65.4867 48.7136 63.8483 50.1913 63.8483 52.3314C63.8483 54.6244 65.4867 55.9492 67.5347 55.9492C68.2515 55.9492 69.0195 55.6944 69.6339 55.3378L69.3779 54.8282C68.8147 55.1339 68.2003 55.3378 67.5859 55.3378C65.8963 55.3378 64.6675 54.0129 64.6675 52.3314C64.6163 50.5989 65.7939 49.2741 67.5347 49.2741ZM71.4259 48.8155V55.7964H72.1939V52.4333H76.0339V55.7964H76.8019V48.8155H76.0339V51.8218H72.1939V48.8155H71.4259ZM80.1299 48.6626L79.3107 48.8664V55.7964H80.0787V49.7836L84.1747 55.9492L84.9939 55.7454V48.8155H84.2771V54.7772L80.1299 48.6626ZM87.8099 48.8155V55.7964H88.5779V48.8155H87.8099ZM92.6227 55.3887C92.0595 55.3887 91.4963 55.1339 91.1379 54.8792L90.8307 55.3887C91.3939 55.7454 91.9571 55.8983 92.6739 55.8983C94.2099 55.8983 94.9267 54.9301 94.9267 53.911C94.9267 52.8409 94.1587 52.3823 93.3907 52.0257L92.7763 51.7199C92.2643 51.4651 91.7011 51.1085 91.7011 50.497C91.7011 49.5798 92.4691 49.1722 93.0835 49.1722C93.7491 49.1722 94.1587 49.376 94.5683 49.6817L94.8243 49.1722C94.2611 48.8664 93.6979 48.6626 93.0323 48.6626C91.8035 48.6626 90.9331 49.4269 90.9331 50.446C90.9331 51.9237 92.0083 52.1785 93.0323 52.6881C93.5955 52.9429 94.0563 53.2995 94.0563 54.0129C94.1075 54.8282 93.4419 55.3887 92.6227 55.3887ZM100.303 49.2741C100.968 49.2741 101.583 49.4269 102.095 49.7836L102.402 49.2231C101.736 48.8664 101.071 48.7136 100.303 48.7136C98.2547 48.7136 96.6163 50.1913 96.6163 52.3314C96.6163 54.6244 98.2547 55.9492 100.303 55.9492C101.019 55.9492 101.787 55.6944 102.402 55.3378L102.146 54.8282C101.583 55.1339 100.968 55.3378 100.354 55.3378C98.6643 55.3378 97.4355 54.0129 97.4355 52.3314C97.3843 50.5989 98.6131 49.2741 100.303 49.2741ZM104.399 48.8155V55.7964H105.167V52.4333H109.007V55.7964H109.775V48.8155H109.007V51.8218H105.167V48.8155H104.399ZM112.283 48.8155V55.7964H116.123V55.1339H113.103V52.5352H115.867V51.8728H113.103V49.4779H116.123V48.8155H112.283ZM58.3187 64.9174V60.3314H57.5507V64.8155C57.5507 66.3951 56.7827 66.8537 55.6051 66.8537C54.2739 66.8537 53.7107 66.1403 53.7107 64.8155V60.3314H52.8915V64.9683C52.8915 66.5479 53.8131 67.4142 55.5539 67.4142C56.8851 67.4651 58.3187 67.0575 58.3187 64.9174ZM61.3395 60.2295L60.5203 60.4333V67.3632H61.2883V61.3505L65.3843 67.5161L66.2035 67.3123V60.3823H65.4867V66.3441L61.3395 60.2295ZM68.7123 60.3823V67.3632H69.4803V60.3823H68.7123ZM71.7331 60.2804L70.9651 60.5352L73.6275 67.3632H74.3955L77.1091 60.5352L76.3411 60.2804L74.0371 66.5479L71.7331 60.2804ZM78.6451 60.3823V67.3632H82.4339V66.7008H79.4131V64.0511H82.1267V63.3887H79.4131V60.9938H82.4339V60.3314H78.6451V60.3823ZM86.0179 63.7454H85.0963V60.9429H86.2227C87.4515 60.9429 87.8099 61.5543 87.8099 62.3186C87.8099 63.4906 86.9395 63.7454 86.0179 63.7454ZM86.4275 60.3823H84.3283V67.3632H85.0963V64.3569H85.7619C86.2739 64.3569 86.5299 64.5607 86.8371 64.9174L87.1443 65.325L88.7827 67.5671L89.4483 67.1594L88.0659 65.2741C87.8099 64.9174 87.4003 64.3059 86.9907 64.153V64.0002C87.9635 63.8473 88.5267 63.3378 88.5267 62.1658C88.5267 61.0957 87.7587 60.3823 86.4275 60.3823ZM92.2643 66.9556C91.7011 66.9556 91.1379 66.7008 90.7795 66.446L90.4723 66.9556C91.0355 67.3123 91.5987 67.4651 92.3155 67.4651C93.8515 67.4651 94.5683 66.497 94.5683 65.4779C94.5683 64.4078 93.8003 63.9492 93.0323 63.5925L92.4179 63.2868C91.9059 63.032 91.3427 62.6753 91.3427 62.0639C91.3427 61.1467 92.1107 60.739 92.7251 60.739C93.3907 60.739 93.8003 60.9938 94.2099 61.2486L94.4659 60.739C93.9027 60.4333 93.3395 60.2295 92.6739 60.2295C91.4451 60.2295 90.5747 60.9938 90.5747 62.0129C90.5747 63.4906 91.6499 63.7454 92.6739 64.255C93.2371 64.5097 93.6979 64.8664 93.6979 65.5798C93.7491 66.446 93.1347 66.9556 92.2643 66.9556ZM96.6675 60.3823V67.3632H97.4355V60.3823H96.6675ZM98.9715 60.3823V61.0448H101.019V67.3632H101.787V60.9938H103.835V60.3314H98.9715V60.3823ZM107.419 61.0448L108.699 64.5097H106.088L107.419 61.0448ZM110.594 67.2613L107.829 60.3823H107.01L104.143 67.2613L104.911 67.5161L105.832 65.0702H108.904L109.826 67.5161L110.594 67.2613ZM109.416 59.9237H108.699V60.8409H109.416V59.9237ZM106.139 60.8409V59.9237H105.423V60.8409H106.139ZM111.311 60.3823V61.0448H113.359V67.3632H114.127V61.0448H116.175V60.3823H111.311ZM54.6835 78.2677H53.6595V72.5097H54.8371C56.7827 72.5097 58.0627 73.4779 58.0627 75.3632C58.1139 77.1976 56.7827 78.2677 54.6835 78.2677ZM55.0419 71.8983H52.8915V78.8792H54.7859C57.1923 78.8792 58.8307 77.6562 58.8307 75.3123C58.8307 73.5798 57.8579 71.8983 55.0419 71.8983ZM63.1827 72.6116L64.4627 76.0766H61.8515L63.1827 72.6116ZM66.3571 78.7772L63.5923 71.8983H62.7731L59.9059 78.7772L60.6739 79.032L61.5955 76.5862H64.6675L65.5891 79.032L66.3571 78.7772ZM69.9411 75.3123H69.0195V72.5097H70.1459C71.3747 72.5097 71.7331 73.1212 71.7331 73.8855C71.7331 75.0065 70.8627 75.3123 69.9411 75.3123ZM70.3507 71.8983H68.2515V78.8792H69.0195V75.8728H69.6851C70.1971 75.8728 70.4531 76.0766 70.7603 76.4333L71.0675 76.8409L72.7059 79.083L73.3715 78.6753L71.9891 76.8409C71.7331 76.4843 71.3235 75.8728 70.9139 75.7709V75.618C71.8867 75.4651 72.4499 74.9556 72.4499 73.7836C72.4499 72.6626 71.6819 71.8983 70.3507 71.8983ZM77.7235 71.8983H76.8531L74.9075 78.7772L75.6755 78.9811L77.3139 72.9174L79.1059 78.8282H79.9763L81.7683 72.8664L83.4067 78.9301L84.1747 78.7263L82.1779 71.8983H81.3075L79.5155 77.962L77.7235 71.8983ZM87.5027 78.4715C86.9395 78.4715 86.3763 78.2167 86.0179 77.962L85.7107 78.4715C86.2739 78.8282 86.8371 78.9811 87.5539 78.9811C89.0899 78.9811 89.8067 78.0129 89.8067 76.9938C89.8067 75.9237 89.0387 75.4651 88.2707 75.1085L87.6563 74.8027C87.1443 74.5479 86.5811 74.1913 86.5811 73.5798C86.5811 72.6626 87.3491 72.255 87.9635 72.255C88.6291 72.255 89.0387 72.4588 89.4483 72.7645L89.7043 72.255C89.1411 71.9492 88.5779 71.7454 87.9123 71.7454C86.6835 71.7454 85.8131 72.5097 85.8131 73.5288C85.8131 75.0065 86.8883 75.2613 87.9123 75.7709C88.4755 76.0257 88.9363 76.3823 88.9363 77.0957C88.9875 77.962 88.3731 78.4715 87.5027 78.4715ZM91.0867 71.8983V72.5607H93.1347V78.8792H93.9027V72.5607H95.9507V71.8983H91.0867ZM99.6371 72.6116L100.917 76.0766H98.3059L99.6371 72.6116ZM102.811 78.8282L100.047 71.8983H99.2275L96.3603 78.7772L97.1283 79.032L98.0499 76.5862H101.122L102.043 79.032L102.811 78.8282ZM106.242 78.2677H105.218V72.5097H106.395C108.341 72.5097 109.621 73.4779 109.621 75.3632C109.621 77.1976 108.29 78.2677 106.242 78.2677ZM106.549 71.8983H104.399V78.8792H106.293C108.699 78.8792 110.338 77.6562 110.338 75.3123C110.338 73.5798 109.365 71.8983 106.549 71.8983ZM111.311 71.8983V72.5607H113.359V78.8792H114.127V72.5607H116.175V71.8983H111.311Z" fill="#27272A"/>
</svg>
