<svg width="202" height="61" viewBox="0 0 202 61" fill="none" xmlns="http://www.w3.org/2000/svg">
<rect x="111.417" y="43.1068" width="90.083" height="17.4951" fill="#D1D1D1"/>
<path d="M0.5 39.6219V12.5831H13.3703C15.2001 12.5831 16.7084 12.8799 17.8953 13.4733C19.1069 14.042 20.0218 14.8456 20.64 15.8842C21.2581 16.9227 21.5672 18.1343 21.5672 19.519C21.5672 20.4586 21.4065 21.3364 21.085 22.1524C20.7636 22.9684 20.2938 23.6607 19.6756 24.2294C19.0575 24.7982 18.2909 25.2062 17.376 25.4534V25.7131C18.464 25.9109 19.3665 26.3189 20.0836 26.937C20.8007 27.5305 21.3447 28.2599 21.7156 29.1253C22.1112 29.9661 22.309 30.9057 22.309 31.9442C22.309 33.6009 21.9258 35.0103 21.1592 36.1725C20.4174 37.3099 19.3418 38.1754 17.9324 38.7688C16.523 39.3375 14.8168 39.6219 12.8139 39.6219H0.5ZM5.24754 35.8016H12.2947C14.0256 35.8016 15.2866 35.4183 16.0779 34.6518C16.8939 33.8853 17.3018 32.8838 17.3018 31.6475C17.3018 30.3122 16.8815 29.3108 16.0408 28.6432C15.2248 27.9756 14.0874 27.6417 12.6285 27.6417H5.24754V35.8016ZM5.24754 23.9698H12.4059C13.3703 23.9698 14.1615 23.8091 14.7797 23.4876C15.3979 23.1662 15.8553 22.7335 16.1521 22.1895C16.4735 21.6208 16.6342 20.9531 16.6342 20.1866C16.6342 18.9503 16.2262 18.0107 15.4102 17.3678C14.5943 16.7001 13.4939 16.3663 12.1092 16.3663H5.24754V23.9698Z" fill="#18181B"/>
<path d="M24.6822 39.6219V19.8899H28.8734L29.0959 23.1909H29.2443C29.6894 21.9299 30.4065 21.0273 31.3955 20.4833C32.4093 19.9146 33.5591 19.6303 34.8449 19.6303C35.0675 19.6303 35.2653 19.6303 35.4384 19.6303C35.6362 19.6303 35.8216 19.6303 35.9947 19.6303V24.0069C35.8464 24.0069 35.6609 24.0069 35.4384 24.0069C35.2405 23.9822 35.018 23.9698 34.7707 23.9698C33.5839 23.9698 32.5948 24.1676 31.8035 24.5633C31.0123 24.9342 30.4065 25.4781 29.9861 26.1952C29.5905 26.9123 29.3679 27.7901 29.3185 28.8286V39.6219H24.6822Z" fill="#18181B"/>
<path d="M37.5421 39.6219V19.8899H42.1783V39.6219H37.5421Z" fill="#18181B"/>
<path d="M52.4065 39.9557C51.2197 39.9557 50.1317 39.7455 49.1426 39.3251C48.1783 38.8801 47.3375 38.2248 46.6205 37.3594C45.9281 36.4939 45.3965 35.4307 45.0256 34.1696C44.6547 32.8838 44.4692 31.4126 44.4692 29.7559C44.4692 27.5057 44.7907 25.6265 45.4336 24.1182C46.1012 22.5851 47.0285 21.4353 48.2153 20.6688C49.427 19.9023 50.824 19.519 52.4065 19.519C53.4945 19.519 54.4589 19.6921 55.2996 20.0383C56.165 20.3597 56.9068 20.8171 57.525 21.4106C58.1432 22.004 58.613 22.7087 58.9344 23.5247H59.194V12.5831H63.8303L63.7932 39.6219H59.3424L59.194 35.9499H58.9344C58.4646 37.1616 57.661 38.1383 56.5235 38.8801C55.3861 39.5971 54.0138 39.9557 52.4065 39.9557ZM54.1498 36.1725C55.2625 36.1725 56.1774 35.9128 56.8944 35.3936C57.6363 34.8743 58.1926 34.2067 58.5635 33.3907C58.9344 32.55 59.1199 31.6722 59.1199 30.7573V28.7174C59.1199 28.0003 59.0086 27.3203 58.786 26.6774C58.5882 26.0345 58.2791 25.4658 57.8588 24.9712C57.4632 24.452 56.9439 24.044 56.301 23.7473C55.6828 23.4506 54.9658 23.3022 54.1498 23.3022C53.1607 23.3022 52.2953 23.5371 51.5535 24.0069C50.8117 24.4767 50.2306 25.1938 49.8102 26.1581C49.3899 27.0978 49.1797 28.297 49.1797 29.7559C49.1797 31.1653 49.3899 32.3522 49.8102 33.3165C50.2306 34.2809 50.8117 34.998 51.5535 35.4678C52.2953 35.9376 53.1607 36.1725 54.1498 36.1725Z" fill="#18181B"/>
<path d="M75.3671 46.1868C73.7104 46.1868 72.2762 45.9396 71.0646 45.445C69.853 44.9752 68.8887 44.2952 68.1716 43.4051C67.4793 42.5396 67.0836 41.5258 66.9847 40.3637H71.4355C71.5344 40.8582 71.757 41.2909 72.1032 41.6618C72.4741 42.0327 72.9439 42.3171 73.5126 42.5149C74.0813 42.7374 74.7366 42.8487 75.4784 42.8487C76.5911 42.8487 77.506 42.688 78.223 42.3665C78.9648 42.0451 79.5088 41.5506 79.855 40.8829C80.2259 40.2153 80.4114 39.3499 80.4114 38.2866V34.6518H80.1517C79.7314 35.7892 78.9648 36.7165 77.8521 37.4335C76.7394 38.1259 75.4289 38.4721 73.9206 38.4721C72.7337 38.4721 71.6581 38.2619 70.6937 37.8415C69.7541 37.4212 68.9381 36.8154 68.2458 36.0241C67.5534 35.2081 67.0218 34.2191 66.6509 33.0569C66.28 31.87 66.0946 30.51 66.0946 28.977C66.0946 26.9247 66.416 25.2062 67.0589 23.8215C67.7265 22.412 68.6538 21.3488 69.8407 20.6317C71.0275 19.8899 72.4122 19.519 73.9948 19.519C75.4784 19.519 76.7642 19.8652 77.8521 20.5575C78.9648 21.2499 79.7314 22.1524 80.1517 23.2651H80.4114L80.5597 19.8899H85.0476V37.5448C85.0476 39.1273 84.8127 40.4626 84.3429 41.5506C83.8978 42.6633 83.2426 43.5534 82.3771 44.221C81.5117 44.9134 80.4855 45.4079 79.2987 45.7047C78.1365 46.0261 76.826 46.1868 75.3671 46.1868ZM75.5896 34.8743C76.6282 34.8743 77.4936 34.6518 78.1859 34.2067C78.903 33.7369 79.447 33.1434 79.8179 32.4264C80.1888 31.6846 80.3866 30.9304 80.4114 30.1639V27.7901C80.3866 26.9988 80.1888 26.257 79.8179 25.5647C79.447 24.8476 78.9154 24.2665 78.223 23.8215C77.5307 23.3516 76.6652 23.1167 75.6267 23.1167C74.6624 23.1167 73.8093 23.3393 73.0675 23.7844C72.3504 24.2294 71.7941 24.8847 71.3984 25.7501C71.0028 26.6156 70.805 27.6912 70.805 28.977C70.805 30.2875 71.0028 31.3878 71.3984 32.278C71.8188 33.1434 72.3875 33.7987 73.1046 34.2438C73.8217 34.6641 74.65 34.8743 75.5896 34.8743Z" fill="#18181B"/>
<path d="M96.6035 39.9557C94.5759 39.9557 92.8451 39.5353 91.4109 38.6946C89.9768 37.8539 88.864 36.6794 88.0728 35.171C87.3063 33.6627 86.923 31.8947 86.923 29.8672C86.923 27.7654 87.3063 25.948 88.0728 24.4149C88.8393 22.8571 89.9397 21.6579 91.3738 20.8171C92.808 19.9517 94.4894 19.519 96.4181 19.519C98.6682 19.519 100.51 20.0135 101.945 21.0026C103.379 21.9917 104.405 23.3269 105.023 25.0083C105.666 26.6898 105.876 28.6061 105.654 30.7573H91.4851C91.4851 31.9442 91.6953 32.958 92.1156 33.7987C92.5607 34.6394 93.1665 35.2823 93.933 35.7274C94.6996 36.1725 95.5897 36.395 96.6035 36.395C97.7904 36.395 98.7919 36.1354 99.6078 35.6161C100.424 35.0721 100.943 34.3551 101.166 33.4649H105.579C105.406 34.7507 104.912 35.8881 104.096 36.8772C103.28 37.8415 102.229 38.5957 100.943 39.1397C99.6573 39.6837 98.2108 39.9557 96.6035 39.9557ZM91.4851 28.2352L91.0771 27.6417H101.574L101.129 28.2352C101.178 27.0483 100.993 26.084 100.572 25.3421C100.177 24.5756 99.6078 24.0069 98.866 23.636C98.149 23.2651 97.333 23.0796 96.4181 23.0796C95.429 23.0796 94.5636 23.2898 93.8218 23.7102C93.1047 24.1305 92.536 24.724 92.1156 25.4905C91.72 26.257 91.5098 27.1719 91.4851 28.2352Z" fill="#18181B"/>
<path d="M39.5753 1.49966C39.7645 1.03846 40.5011 1.03846 40.6903 1.49965C41.1915 2.72183 41.9934 4.39529 42.9414 5.34328C43.8894 6.29127 45.5629 7.0932 46.785 7.59442C47.2462 7.78355 47.2462 8.52021 46.785 8.70935C45.5629 9.21056 43.8894 10.0125 42.9414 10.9605C41.9934 11.9085 41.1915 13.5819 40.6903 14.8041C40.5011 15.2653 39.7645 15.2653 39.5753 14.8041C39.0741 13.5819 38.2722 11.9085 37.3242 10.9605C36.3762 10.0125 34.7028 9.21056 33.4806 8.70935C33.0194 8.52021 33.0194 7.78355 33.4806 7.59442C34.7028 7.0932 36.3762 6.29127 37.3242 5.34328C38.2722 4.39529 39.0741 2.72183 39.5753 1.49966Z" fill="#1F78D1"/>
<path d="M118.903 39.9556C117.815 39.9556 116.813 39.7825 115.898 39.4363C115.008 39.0901 114.254 38.6079 113.636 37.9898C113.018 37.3469 112.548 36.6051 112.226 35.7644H112.004L111.856 39.6217H108.184V12.583H112.004V23.8584H112.226C112.696 22.5974 113.512 21.5836 114.674 20.817C115.837 20.0505 117.246 19.6672 118.903 19.6672C120.09 19.6672 121.165 19.8898 122.13 20.3349C123.119 20.7799 123.972 21.4352 124.689 22.3006C125.406 23.1661 125.95 24.2293 126.321 25.4904C126.716 26.7515 126.914 28.198 126.914 29.8299C126.914 32.0059 126.568 33.848 125.876 35.3564C125.208 36.8647 124.268 38.0145 123.057 38.8058C121.87 39.5723 120.485 39.9556 118.903 39.9556ZM117.567 36.8029C118.655 36.8029 119.607 36.5433 120.423 36.024C121.239 35.5047 121.87 34.7258 122.315 33.6873C122.76 32.6488 122.983 31.363 122.983 29.8299C122.983 28.6678 122.847 27.654 122.575 26.7885C122.327 25.8984 121.969 25.1689 121.499 24.6002C121.029 24.0068 120.46 23.5617 119.793 23.265C119.125 22.9683 118.383 22.8199 117.567 22.8199C116.356 22.8199 115.33 23.1043 114.489 23.673C113.673 24.217 113.055 24.9464 112.634 25.8613C112.239 26.7515 112.041 27.7034 112.041 28.7172V30.9056C112.041 31.9194 112.239 32.8837 112.634 33.7986C113.055 34.6888 113.673 35.4182 114.489 35.9869C115.33 36.5309 116.356 36.8029 117.567 36.8029Z" fill="#1F78D1"/>
<path d="M137.969 39.9556C136.015 39.9556 134.322 39.5476 132.887 38.7316C131.478 37.8909 130.39 36.7163 129.623 35.208C128.857 33.675 128.474 31.907 128.474 29.9041C128.474 27.8271 128.857 26.022 129.623 24.489C130.39 22.9559 131.466 21.7814 132.85 20.9654C134.26 20.1247 135.916 19.7043 137.82 19.7043C139.972 19.7043 141.74 20.1865 143.124 21.1508C144.534 22.0905 145.547 23.3886 146.166 25.0453C146.784 26.6773 146.994 28.5194 146.796 30.5717H132.257C132.282 31.907 132.529 33.0568 132.999 34.0211C133.468 34.9607 134.124 35.6778 134.964 36.1724C135.83 36.6669 136.831 36.9142 137.969 36.9142C139.279 36.9142 140.392 36.6174 141.307 36.024C142.222 35.4058 142.803 34.5898 143.05 33.576H146.685C146.512 34.8618 146.03 35.9869 145.238 36.9513C144.447 37.8909 143.421 38.6327 142.16 39.1767C140.924 39.6959 139.527 39.9556 137.969 39.9556ZM132.294 28.4205L131.923 27.8642H143.421L143.05 28.4947C143.1 27.1347 142.889 26.0344 142.42 25.1937C141.974 24.3282 141.344 23.6977 140.528 23.3021C139.737 22.9064 138.822 22.7086 137.783 22.7086C136.695 22.7086 135.743 22.9435 134.927 23.4133C134.111 23.8584 133.481 24.5137 133.036 25.3791C132.591 26.2446 132.343 27.2584 132.294 28.4205Z" fill="#1F78D1"/>
<path d="M156.481 39.9556C155.294 39.9556 154.206 39.733 153.217 39.2879C152.252 38.8429 151.412 38.2 150.694 37.3592C149.977 36.4938 149.421 35.4306 149.025 34.1695C148.654 32.9084 148.469 31.4495 148.469 29.7928C148.469 27.6169 148.803 25.7747 149.47 24.2664C150.163 22.7581 151.102 21.6206 152.289 20.8541C153.501 20.0629 154.898 19.6672 156.481 19.6672C157.568 19.6672 158.558 19.8403 159.448 20.1865C160.363 20.5327 161.129 21.0272 161.747 21.6701C162.39 22.2883 162.86 23.0177 163.157 23.8584H163.379L163.528 20.001H167.2V39.6217H163.379V35.7273H163.157C162.687 36.9883 161.871 38.0145 160.709 38.8058C159.547 39.5723 158.137 39.9556 156.481 39.9556ZM157.816 36.8029C159.027 36.8029 160.041 36.5185 160.857 35.9498C161.673 35.3811 162.291 34.6517 162.712 33.7615C163.132 32.8713 163.342 31.9194 163.342 30.9056V28.6801C163.342 27.6663 163.132 26.7144 162.712 25.8242C162.291 24.934 161.673 24.2046 160.857 23.6359C160.041 23.0672 159.027 22.7828 157.816 22.7828C156.728 22.7828 155.776 23.0548 154.96 23.5988C154.144 24.1181 153.513 24.8969 153.068 25.9355C152.623 26.9493 152.401 28.2351 152.401 29.7928C152.401 31.3259 152.623 32.6117 153.068 33.6502C153.513 34.6888 154.144 35.48 154.96 36.024C155.776 36.5433 156.728 36.8029 157.816 36.8029Z" fill="#1F78D1"/>
<path d="M171.067 39.6217V20.001H174.702L174.851 23.8955H175.073C175.617 22.5108 176.47 21.4723 177.632 20.7799C178.819 20.0629 180.13 19.7043 181.564 19.7043C182.998 19.7043 184.284 20.0505 185.421 20.7428C186.583 21.4352 187.412 22.6221 187.906 24.3035H188.203C188.747 22.7704 189.637 21.6206 190.874 20.8541C192.135 20.0876 193.544 19.7043 195.102 19.7043C196.388 19.7043 197.537 19.9763 198.551 20.5203C199.59 21.0643 200.406 21.9421 200.999 23.1537C201.593 24.3653 201.889 25.9726 201.889 27.9754V39.6217H198.106V28.7543C198.106 27.4191 197.945 26.3187 197.624 25.4533C197.302 24.5631 196.82 23.9079 196.177 23.4875C195.535 23.0672 194.694 22.857 193.655 22.857C192.592 22.857 191.665 23.129 190.874 23.673C190.082 24.217 189.464 24.9464 189.019 25.8613C188.599 26.7515 188.388 27.7653 188.388 28.9027V39.6217H184.568V28.7543C184.568 27.4191 184.407 26.3187 184.086 25.4533C183.765 24.5631 183.282 23.9079 182.639 23.4875C181.997 23.0672 181.168 22.857 180.154 22.857C179.066 22.857 178.127 23.129 177.336 23.673C176.544 24.217 175.926 24.9464 175.481 25.8613C175.061 26.7515 174.851 27.7653 174.851 28.9027V39.6217H171.067Z" fill="#1F78D1"/>
<path d="M114.223 56.1869V45.7078H115.43V49.5761H115.533C115.621 49.4396 115.744 49.2657 115.901 49.0542C116.061 48.8393 116.29 48.6482 116.587 48.4811C116.887 48.3105 117.293 48.2253 117.804 48.2253C118.466 48.2253 119.049 48.3907 119.554 48.7216C120.059 49.0525 120.453 49.5215 120.736 50.1287C121.019 50.7359 121.161 51.4522 121.161 52.2777C121.161 53.11 121.019 53.8315 120.736 54.4421C120.453 55.0493 120.061 55.52 119.559 55.8543C119.058 56.1852 118.48 56.3506 117.825 56.3506C117.32 56.3506 116.916 56.2671 116.612 56.0999C116.309 55.9293 116.075 55.7366 115.911 55.5217C115.747 55.3034 115.621 55.1226 115.533 54.9793H115.389V56.1869H114.223ZM115.41 52.2572C115.41 52.8508 115.497 53.3744 115.671 53.8281C115.845 54.2783 116.099 54.6314 116.433 54.8872C116.767 55.1397 117.177 55.2659 117.661 55.2659C118.166 55.2659 118.587 55.1328 118.925 54.8668C119.266 54.5973 119.522 54.2357 119.692 53.782C119.866 53.3249 119.953 52.8167 119.953 52.2572C119.953 51.7046 119.868 51.2066 119.698 50.7632C119.53 50.3163 119.276 49.9632 118.935 49.704C118.597 49.4413 118.173 49.31 117.661 49.31C117.17 49.31 116.757 49.4345 116.423 49.6835C116.089 49.9291 115.836 50.2737 115.666 50.7171C115.495 51.1571 115.41 51.6705 115.41 52.2572ZM122.928 59.1341C122.723 59.1341 122.541 59.1171 122.381 59.083C122.22 59.0523 122.109 59.0216 122.048 58.9909L122.355 57.9266C122.648 58.0016 122.908 58.0289 123.133 58.0084C123.358 57.988 123.557 57.8874 123.731 57.7066C123.909 57.5292 124.071 57.2409 124.217 56.8418L124.443 56.2278L121.536 48.3276H122.846L125.016 54.5905H125.098L127.267 48.3276H128.577L125.241 57.333C125.091 57.739 124.905 58.075 124.683 58.341C124.461 58.6105 124.204 58.8101 123.91 58.9397C123.621 59.0693 123.293 59.1341 122.928 59.1341ZM140.111 45.7078H141.38V52.6461C141.38 53.3625 141.211 54.002 140.874 54.5649C140.539 55.1243 140.067 55.5661 139.456 55.8901C138.846 56.2108 138.129 56.3711 137.307 56.3711C136.485 56.3711 135.769 56.2108 135.158 55.8901C134.548 55.5661 134.073 55.1243 133.736 54.5649C133.401 54.002 133.234 53.3625 133.234 52.6461V45.7078H134.503V52.5438C134.503 53.0554 134.616 53.5108 134.841 53.9099C135.066 54.3056 135.387 54.6178 135.803 54.8463C136.222 55.0714 136.724 55.184 137.307 55.184C137.89 55.184 138.392 55.0714 138.811 54.8463C139.231 54.6178 139.552 54.3056 139.773 53.9099C139.999 53.5108 140.111 53.0554 140.111 52.5438V45.7078ZM143.174 56.1869V48.3276H144.341V49.5147H144.423C144.566 49.1258 144.825 48.8103 145.2 48.5681C145.576 48.3259 145.999 48.2048 146.469 48.2048C146.558 48.2048 146.669 48.2065 146.802 48.2099C146.935 48.2133 147.036 48.2184 147.104 48.2253V49.4533C147.063 49.443 146.969 49.4277 146.822 49.4072C146.679 49.3833 146.527 49.3714 146.367 49.3714C145.985 49.3714 145.644 49.4516 145.344 49.6119C145.047 49.7688 144.811 49.9871 144.637 50.2668C144.467 50.5431 144.382 50.8587 144.382 51.2134V56.1869H143.174ZM150.272 56.3711C149.774 56.3711 149.322 56.2773 148.916 56.0897C148.51 55.8986 148.187 55.624 147.949 55.2659C147.71 54.9043 147.59 54.4677 147.59 53.956C147.59 53.5057 147.679 53.1407 147.856 52.861C148.034 52.5779 148.271 52.3562 148.568 52.1958C148.864 52.0355 149.192 51.9161 149.55 51.8377C149.912 51.7558 150.275 51.691 150.64 51.6432C151.118 51.5818 151.505 51.5358 151.801 51.5051C152.102 51.471 152.32 51.4147 152.456 51.3362C152.596 51.2578 152.666 51.1213 152.666 50.9269V50.886C152.666 50.3811 152.528 49.9888 152.252 49.7091C151.979 49.4294 151.564 49.2895 151.008 49.2895C150.432 49.2895 149.98 49.4157 149.652 49.6682C149.325 49.9206 149.095 50.1901 148.962 50.4766L147.816 50.0673C148.02 49.5897 148.293 49.2179 148.634 48.9518C148.979 48.6823 149.354 48.4947 149.76 48.389C150.169 48.2798 150.572 48.2253 150.967 48.2253C151.22 48.2253 151.51 48.256 151.837 48.3174C152.168 48.3753 152.487 48.4964 152.794 48.6806C153.105 48.8648 153.362 49.1429 153.567 49.5147C153.771 49.8865 153.874 50.3845 153.874 51.0088V56.1869H152.666V55.1226H152.605C152.523 55.2932 152.386 55.4757 152.195 55.6701C152.004 55.8645 151.75 56.03 151.433 56.1664C151.116 56.3029 150.729 56.3711 150.272 56.3711ZM150.456 55.2863C150.933 55.2863 151.336 55.1925 151.663 55.0049C151.994 54.8173 152.243 54.5751 152.41 54.2783C152.581 53.9816 152.666 53.6695 152.666 53.342V52.2368C152.615 52.2982 152.502 52.3545 152.328 52.4056C152.158 52.4534 151.96 52.496 151.735 52.5335C151.513 52.5677 151.297 52.5984 151.085 52.6256C150.877 52.6495 150.708 52.67 150.579 52.687C150.265 52.728 149.971 52.7945 149.698 52.8866C149.429 52.9753 149.211 53.11 149.044 53.2908C148.88 53.4682 148.798 53.7104 148.798 54.0174C148.798 54.437 148.953 54.7542 149.264 54.9691C149.577 55.1806 149.975 55.2863 150.456 55.2863ZM162.375 56.1869H159.141V45.7078H162.518C163.535 45.7078 164.405 45.9176 165.128 46.3372C165.851 46.7533 166.405 47.352 166.791 48.1332C167.176 48.9109 167.369 49.8421 167.369 50.9269C167.369 52.0185 167.175 52.9582 166.786 53.7462C166.397 54.5308 165.831 55.1345 165.087 55.5575C164.343 55.9771 163.439 56.1869 162.375 56.1869ZM160.41 55.0612H162.293C163.16 55.0612 163.878 54.8941 164.447 54.5598C165.017 54.2255 165.442 53.7496 165.721 53.1322C166.001 52.5148 166.141 51.7797 166.141 50.9269C166.141 50.0809 166.003 49.3526 165.726 48.742C165.45 48.128 165.037 47.6573 164.488 47.3298C163.939 46.9989 163.255 46.8335 162.436 46.8335H160.41V55.0612ZM172.053 56.3506C171.295 56.3506 170.642 56.1835 170.093 55.8492C169.547 55.5115 169.126 55.0407 168.829 54.437C168.536 53.8298 168.389 53.1237 168.389 52.3186C168.389 51.5136 168.536 50.8041 168.829 50.1901C169.126 49.5727 169.539 49.0917 170.067 48.7472C170.599 48.3992 171.22 48.2253 171.93 48.2253C172.339 48.2253 172.743 48.2935 173.142 48.4299C173.542 48.5664 173.905 48.7881 174.232 49.0951C174.56 49.3987 174.821 49.8012 175.015 50.3026C175.21 50.8041 175.307 51.4215 175.307 52.1549V52.6666H169.249V51.6228H174.079C174.079 51.1793 173.99 50.7836 173.813 50.4357C173.639 50.0877 173.39 49.8131 173.066 49.6119C172.745 49.4106 172.366 49.31 171.93 49.31C171.449 49.31 171.033 49.4294 170.681 49.6682C170.333 49.9035 170.066 50.2105 169.878 50.5892C169.69 50.9678 169.597 51.3737 169.597 51.807V52.5028C169.597 53.0964 169.699 53.5995 169.904 54.0123C170.112 54.4216 170.4 54.7337 170.768 54.9486C171.137 55.1601 171.565 55.2659 172.053 55.2659C172.37 55.2659 172.656 55.2215 172.912 55.1328C173.171 55.0407 173.395 54.9043 173.583 54.7235C173.77 54.5393 173.915 54.3108 174.017 54.0379L175.184 54.3653C175.061 54.761 174.855 55.109 174.565 55.4091C174.275 55.7059 173.917 55.9379 173.49 56.105C173.064 56.2688 172.585 56.3506 172.053 56.3506ZM182.134 50.0877L181.05 50.3947C180.981 50.214 180.881 50.0383 180.748 49.8677C180.618 49.6938 180.441 49.5505 180.216 49.4379C179.99 49.3254 179.702 49.2691 179.351 49.2691C178.87 49.2691 178.469 49.3799 178.148 49.6017C177.831 49.82 177.673 50.098 177.673 50.4357C177.673 50.7359 177.782 50.9729 178 51.1469C178.218 51.3209 178.56 51.4659 179.023 51.5818L180.19 51.8684C180.893 52.0389 181.416 52.2999 181.761 52.6512C182.105 52.9992 182.278 53.4477 182.278 53.9969C182.278 54.4472 182.148 54.8497 181.889 55.2045C181.633 55.5592 181.275 55.839 180.814 56.0436C180.354 56.2483 179.818 56.3506 179.208 56.3506C178.406 56.3506 177.743 56.1767 177.217 55.8287C176.692 55.4808 176.359 54.9725 176.219 54.3039L177.366 54.0174C177.475 54.4404 177.681 54.7576 177.985 54.9691C178.292 55.1806 178.693 55.2863 179.187 55.2863C179.75 55.2863 180.197 55.167 180.528 54.9282C180.862 54.686 181.029 54.396 181.029 54.0583C181.029 53.7854 180.934 53.5569 180.743 53.3727C180.552 53.1851 180.258 53.0452 179.863 52.9531L178.553 52.6461C177.833 52.4756 177.304 52.2112 176.967 51.853C176.632 51.4914 176.465 51.0395 176.465 50.4971C176.465 50.0536 176.59 49.6614 176.839 49.3202C177.091 48.9791 177.434 48.7113 177.867 48.5169C178.304 48.3225 178.798 48.2253 179.351 48.2253C180.129 48.2253 180.739 48.3958 181.183 48.7369C181.63 49.078 181.947 49.5283 182.134 50.0877ZM183.519 56.1869V48.3276H184.727V56.1869H183.519ZM184.133 47.0177C183.898 47.0177 183.695 46.9375 183.524 46.7772C183.357 46.6169 183.273 46.4242 183.273 46.199C183.273 45.9739 183.357 45.7812 183.524 45.6208C183.695 45.4605 183.898 45.3804 184.133 45.3804C184.368 45.3804 184.57 45.4605 184.737 45.6208C184.907 45.7812 184.993 45.9739 184.993 46.199C184.993 46.4242 184.907 46.6169 184.737 46.7772C184.57 46.9375 184.368 47.0177 184.133 47.0177ZM189.534 59.2979C188.951 59.2979 188.45 59.2228 188.03 59.0727C187.61 58.926 187.261 58.7316 186.981 58.4894C186.705 58.2506 186.485 57.9948 186.321 57.7219L187.283 57.0465C187.392 57.1898 187.53 57.3535 187.697 57.5377C187.865 57.7253 188.093 57.8874 188.383 58.0238C188.676 58.1637 189.06 58.2336 189.534 58.2336C190.169 58.2336 190.692 58.0801 191.105 57.7731C191.518 57.4661 191.724 56.9851 191.724 56.3302V54.7337H191.622C191.533 54.877 191.407 55.0544 191.243 55.2659C191.083 55.474 190.851 55.6599 190.547 55.8236C190.247 55.9839 189.841 56.0641 189.33 56.0641C188.695 56.0641 188.126 55.914 187.621 55.6138C187.119 55.3136 186.722 54.877 186.428 54.3039C186.139 53.7309 185.994 53.035 185.994 52.2163C185.994 51.4113 186.135 50.7103 186.418 50.1133C186.701 49.513 187.095 49.049 187.6 48.7216C188.105 48.3907 188.688 48.2253 189.35 48.2253C189.862 48.2253 190.268 48.3105 190.568 48.4811C190.872 48.6482 191.103 48.8393 191.264 49.0542C191.428 49.2657 191.554 49.4396 191.642 49.5761H191.765V48.3276H192.932V56.412C192.932 57.0874 192.778 57.6366 192.471 58.0596C192.168 58.486 191.758 58.7981 191.243 58.996C190.732 59.1972 190.162 59.2979 189.534 59.2979ZM189.493 54.9793C189.978 54.9793 190.387 54.8685 190.721 54.6468C191.056 54.425 191.31 54.1061 191.484 53.6899C191.658 53.2738 191.745 52.7757 191.745 52.1958C191.745 51.6296 191.659 51.1299 191.489 50.6966C191.318 50.2634 191.066 49.924 190.732 49.6784C190.397 49.4328 189.985 49.31 189.493 49.31C188.982 49.31 188.555 49.4396 188.214 49.6989C187.877 49.9581 187.622 50.3061 187.452 50.7427C187.285 51.1793 187.201 51.6637 187.201 52.1958C187.201 52.7416 187.286 53.2243 187.457 53.6439C187.631 54.06 187.887 54.3875 188.224 54.6263C188.566 54.8617 188.989 54.9793 189.493 54.9793ZM195.773 51.459V56.1869H194.566V48.3276H195.733V49.5556H195.835C196.019 49.1565 196.299 48.8359 196.674 48.5937C197.049 48.3481 197.534 48.2253 198.127 48.2253C198.659 48.2253 199.125 48.3344 199.524 48.5527C199.923 48.7676 200.234 49.0951 200.455 49.5351C200.677 49.9718 200.788 50.5244 200.788 51.193V56.1869H199.58V51.2748C199.58 50.6574 199.42 50.1764 199.099 49.8319C198.779 49.484 198.339 49.31 197.779 49.31C197.394 49.31 197.049 49.3936 196.746 49.5607C196.445 49.7279 196.208 49.9718 196.034 50.2924C195.86 50.6131 195.773 51.0019 195.773 51.459Z" fill="#18181B"/>
</svg>
