<svg width="38" height="38" viewBox="0 0 38 38" fill="none" xmlns="http://www.w3.org/2000/svg">
<path d="M11.1054 32.3803L16.0056 18.5859C11.8676 19.1333 8.05635 20.885 4.89844 23.5125C5.66069 27.1253 7.94745 30.3002 11.1054 32.3803Z" fill="#1F78D1"/>
<path d="M26.8951 32.3803C30.053 30.4097 32.3397 27.2348 33.2109 23.5125C30.053 20.7755 26.2417 19.0239 22.1038 18.5859L26.8951 32.3803Z" fill="#1F78D1"/>
<path d="M33.6463 20.666V20.0091C33.6463 11.7982 27.1127 5.22949 19.0546 5.22949C10.9965 5.22949 4.354 11.7982 4.354 20.0091V20.666C8.60085 17.4911 13.7188 15.7395 19.0546 15.7395C24.2815 15.7395 29.3995 17.4911 33.6463 20.666Z" fill="#1F78D1"/>
</svg>
